<?xml version="1.0" encoding="UTF-8" standalone="no"?>
<!-- Created with Inkscape (http://www.inkscape.org/) -->

<svg
   width="192.50763mm"
   height="53.771095mm"
   viewBox="0 0 192.50763 53.771095"
   version="1.1"
   id="svg1"
   xml:space="preserve"
   inkscape:version="1.4 (e7c3feb1, 2024-10-09)"
   sodipodi:docname="divergence_body_viapdf.svg"
   xmlns:inkscape="http://www.inkscape.org/namespaces/inkscape"
   xmlns:sodipodi="http://sodipodi.sourceforge.net/DTD/sodipodi-0.dtd"
   xmlns="http://www.w3.org/2000/svg"
   xmlns:svg="http://www.w3.org/2000/svg"><sodipodi:namedview
     id="namedview1"
     pagecolor="#ffffff"
     bordercolor="#000000"
     borderopacity="0.25"
     inkscape:showpageshadow="2"
     inkscape:pageopacity="0.0"
     inkscape:pagecheckerboard="0"
     inkscape:deskcolor="#d1d1d1"
     inkscape:document-units="mm"
     inkscape:zoom="0.89887065"
     inkscape:cx="384.92746"
     inkscape:cy="425.53397"
     inkscape:window-width="1200"
     inkscape:window-height="1186"
     inkscape:window-x="0"
     inkscape:window-y="597"
     inkscape:window-maximized="0"
     inkscape:current-layer="g1"><inkscape:page
       x="0"
       y="0"
       width="192.50763"
       height="53.771095"
       id="page1"
       margin="0"
       bleed="0" /><inkscape:page
       x="-0.00052455283"
       y="0"
       width="192.50876"
       height="53.771141"
       id="page2"
       margin="0"
       bleed="0" /></sodipodi:namedview><defs
     id="defs1" /><g
     inkscape:label="Layer 1"
     inkscape:groupmode="layer"
     id="layer1"
     transform="translate(-220.00052)" /><g
     id="g1"
     inkscape:groupmode="layer"
     inkscape:label="1"
     transform="matrix(0.26458333,0,0,0.26458334,-5.1386088e-4,0)"><path
       id="path1"
       d="m 232.5,70.906 c -10.516,30.25 -32.625,46.266 -92.199,59.656 C 80.914,143.914 27.719,104.535 29.746,72.574 33.918,6.875 85.219,49.066 116.637,36.484 152.07,22.297 154.113,9.578 185.359,9.578 c 61.059,0 57.989,30.133 47.141,61.328 z"
       style="fill:#e6e6e6;fill-opacity:1;fill-rule:nonzero;stroke:#000000;stroke-width:2.12599;stroke-linecap:round;stroke-linejoin:round;stroke-miterlimit:1;stroke-dasharray:none;stroke-opacity:1"
       transform="scale(1.3333333)" /><path
       id="path2"
       d="m 121.422,60.016 h 26.223 v 26.223 h -26.223 z"
       style="fill:#32afff;fill-opacity:1;fill-rule:nonzero;stroke:#007ddc;stroke-width:2.12598;stroke-linecap:round;stroke-linejoin:round;stroke-miterlimit:1;stroke-dasharray:none;stroke-opacity:1"
       transform="scale(1.3333333)" /><path
       id="path3"
       d="M 38.91,50.664 68.949,42.32"
       style="fill:none;stroke:#ff7d00;stroke-width:2.12599;stroke-linecap:round;stroke-linejoin:round;stroke-miterlimit:1;stroke-dasharray:none;stroke-opacity:1"
       transform="scale(1.3333333)" /><path
       id="path4"
       d="M 59.003,57.069 50.147,62.191 50.144,51.948 Z"
       style="fill:#ff7d00;fill-opacity:1;fill-rule:evenodd;stroke:#ff7d00;stroke-width:1.36562;stroke-linecap:butt;stroke-linejoin:miter;stroke-miterlimit:4;stroke-dasharray:none;stroke-opacity:1"
       transform="matrix(1.3333333,-0.37037067,0.37037067,1.3333333,0,0)" /><path
       id="path5"
       d="m 71.734,47.148 26.676,-3"
       style="fill:none;stroke:#ff7d00;stroke-width:2.12598;stroke-linecap:round;stroke-linejoin:round;stroke-miterlimit:1;stroke-dasharray:none;stroke-opacity:1"
       transform="scale(1.3333333)" /><path
       id="path6"
       d="M 98.373,54.531 89.236,59.812 89.233,49.249 Z"
       style="fill:#ff7d00;fill-opacity:1;fill-rule:evenodd;stroke:#ff7d00;stroke-width:1.40844;stroke-linecap:butt;stroke-linejoin:miter;stroke-miterlimit:4;stroke-dasharray:none;stroke-opacity:1"
       transform="matrix(1.3333333,-0.149992,0.149992,1.3333333,0,0)" /><path
       id="path7"
       d="m 101.359,48.707 23.789,-3"
       style="fill:none;stroke:#ff7d00;stroke-width:2.12598;stroke-linecap:round;stroke-linejoin:round;stroke-miterlimit:1;stroke-dasharray:none;stroke-opacity:1"
       transform="scale(1.3333333)" /><path
       id="path8"
       d="m 123.597,60.531 -9.122,5.275 -10e-4,-10.547 z"
       style="fill:#ff7d00;fill-opacity:1;fill-rule:evenodd;stroke:#ff7d00;stroke-width:1.40618;stroke-linecap:butt;stroke-linejoin:miter;stroke-miterlimit:4;stroke-dasharray:none;stroke-opacity:1"
       transform="matrix(1.3333333,-0.16822,0.16822,1.3333333,0,0)" /><path
       id="path9"
       d="m 151.68,20.805 18.328,-3"
       style="fill:none;stroke:#ff7d00;stroke-width:2.12598;stroke-linecap:round;stroke-linejoin:round;stroke-miterlimit:1;stroke-dasharray:none;stroke-opacity:1"
       transform="scale(1.3333333)" /><path
       id="path10"
       d="m 168.781,44.447 -9.073,5.245 0.002,-10.488 z"
       style="fill:#ff7d00;fill-opacity:1;fill-rule:evenodd;stroke:#ff7d00;stroke-width:1.3987;stroke-linecap:butt;stroke-linejoin:miter;stroke-miterlimit:4;stroke-dasharray:none;stroke-opacity:1"
       transform="matrix(1.3333333,-0.21830667,0.21830667,1.3333333,0,0)" /><path
       id="path11"
       d="m 123.613,37.543 20.59,-8.344"
       style="fill:none;stroke:#ff7d00;stroke-width:2.12599;stroke-linecap:round;stroke-linejoin:round;stroke-miterlimit:1;stroke-dasharray:none;stroke-opacity:1"
       transform="scale(1.3333333)" /><path
       id="path12"
       d="m 119.392,75.27 -8.523,4.926 v -9.852 z"
       style="fill:#ff7d00;fill-opacity:1;fill-rule:evenodd;stroke:#ff7d00;stroke-width:1.3136;stroke-linecap:butt;stroke-linejoin:miter;stroke-miterlimit:4;stroke-dasharray:none;stroke-opacity:1"
       transform="matrix(1.3333333,-0.54024267,0.54024267,1.3333333,0,0)" /><path
       id="path13"
       d="M 42.703,62.469 72.738,54.125"
       style="fill:none;stroke:#ff7d00;stroke-width:2.12599;stroke-linecap:round;stroke-linejoin:round;stroke-miterlimit:1;stroke-dasharray:none;stroke-opacity:1"
       transform="scale(1.3333333)" /><path
       id="path14"
       d="m 59.481,69.003 -8.86,5.121 10e-4,-10.242 z"
       style="fill:#ff7d00;fill-opacity:1;fill-rule:evenodd;stroke:#ff7d00;stroke-width:1.36562;stroke-linecap:butt;stroke-linejoin:miter;stroke-miterlimit:4;stroke-dasharray:none;stroke-opacity:1"
       transform="matrix(1.3333333,-0.37037067,0.37037067,1.3333333,0,0)" /><path
       id="path15"
       d="m 62.387,64.09 c 2.609,0.461 31.031,-3 31.031,-3"
       style="fill:none;stroke:#ff7d00;stroke-width:2.12598;stroke-linecap:round;stroke-linejoin:round;stroke-miterlimit:1;stroke-dasharray:none;stroke-opacity:1"
       transform="scale(1.3333333)" /><path
       id="path16"
       d="M 90.807,71.407 81.68,76.686 V 66.131 Z"
       style="fill:#ff7d00;fill-opacity:1;fill-rule:evenodd;stroke:#ff7d00;stroke-width:1.40693;stroke-linecap:butt;stroke-linejoin:miter;stroke-miterlimit:4;stroke-dasharray:none;stroke-opacity:1"
       transform="matrix(1.3333333,-0.16238667,0.16238667,1.3333333,0,0)" /><path
       id="path17"
       d="m 98.07,67.012 23.785,-3"
       style="fill:none;stroke:#ff7d00;stroke-width:2.12598;stroke-linecap:round;stroke-linejoin:round;stroke-miterlimit:1;stroke-dasharray:none;stroke-opacity:1"
       transform="scale(1.3333333)" /><path
       id="path18"
       d="m 118.083,78.14 -9.123,5.275 0.003,-10.547 z"
       style="fill:#ff7d00;fill-opacity:1;fill-rule:evenodd;stroke:#ff7d00;stroke-width:1.40618;stroke-linecap:butt;stroke-linejoin:miter;stroke-miterlimit:4;stroke-dasharray:none;stroke-opacity:1"
       transform="matrix(1.3333333,-0.16822,0.16822,1.3333333,0,0)" /><path
       id="path19"
       d="m 150.645,39.109 18.328,-3"
       style="fill:none;stroke:#ff7d00;stroke-width:2.12598;stroke-linecap:round;stroke-linejoin:round;stroke-miterlimit:1;stroke-dasharray:none;stroke-opacity:1"
       transform="scale(1.3333333)" /><path
       id="path20"
       d="m 164.854,62.109 -9.073,5.245 0.002,-10.488 z"
       style="fill:#ff7d00;fill-opacity:1;fill-rule:evenodd;stroke:#ff7d00;stroke-width:1.3987;stroke-linecap:butt;stroke-linejoin:miter;stroke-miterlimit:4;stroke-dasharray:none;stroke-opacity:1"
       transform="matrix(1.3333333,-0.21830667,0.21830667,1.3333333,0,0)" /><path
       id="path21"
       d="m 122.41,55.848 20.594,-8.344"
       style="fill:none;stroke:#ff7d00;stroke-width:2.12599;stroke-linecap:round;stroke-linejoin:round;stroke-miterlimit:1;stroke-dasharray:none;stroke-opacity:1"
       transform="scale(1.3333333)" /><path
       id="path22"
       d="M 111.988,90.575 103.465,95.5 V 85.649 Z"
       style="fill:#ff7d00;fill-opacity:1;fill-rule:evenodd;stroke:#ff7d00;stroke-width:1.3136;stroke-linecap:butt;stroke-linejoin:miter;stroke-miterlimit:4;stroke-dasharray:none;stroke-opacity:1"
       transform="matrix(1.3333333,-0.54024267,0.54024267,1.3333333,0,0)" /><path
       id="path23"
       d="M 89.176,123.543 113,125.977"
       style="fill:none;stroke:#ff7d00;stroke-width:2.12599;stroke-linecap:round;stroke-linejoin:round;stroke-miterlimit:1;stroke-dasharray:none;stroke-opacity:1"
       transform="scale(1.3333333)" /><path
       id="path24"
       d="m 130.667,113.255 -9.148,5.289 0.002,-10.578 z"
       style="fill:#ff7d00;fill-opacity:1;fill-rule:evenodd;stroke:#ff7d00;stroke-width:1.41;stroke-linecap:butt;stroke-linejoin:miter;stroke-miterlimit:4;stroke-dasharray:none;stroke-opacity:1"
       transform="matrix(1.3333333,0.13615333,-0.13615333,1.3333333,0,0)" /><path
       id="path25"
       d="m 56.848,109.02 30.187,7.792"
       style="fill:none;stroke:#ff7d00;stroke-width:2.12598;stroke-linecap:round;stroke-linejoin:round;stroke-miterlimit:1;stroke-dasharray:none;stroke-opacity:1"
       transform="scale(1.3333333)" /><path
       id="path26"
       d="m 115.807,88.446 -8.902,5.146 -0.001,-10.293 z"
       style="fill:#ff7d00;fill-opacity:1;fill-rule:evenodd;stroke:#ff7d00;stroke-width:1.37233;stroke-linecap:butt;stroke-linejoin:miter;stroke-miterlimit:4;stroke-dasharray:none;stroke-opacity:1"
       transform="matrix(1.3333333,0.344224,-0.344224,1.3333333,0,0)" /><path
       id="path27"
       d="m 43.996,95.148 30.184,7.793"
       style="fill:none;stroke:#ff7d00;stroke-width:2.12598;stroke-linecap:round;stroke-linejoin:round;stroke-miterlimit:1;stroke-dasharray:none;stroke-opacity:1"
       transform="scale(1.3333333)" /><path
       id="path28"
       d="m 100.397,78.553 -8.902,5.146 V 73.41 Z"
       style="fill:#ff7d00;fill-opacity:1;fill-rule:evenodd;stroke:#ff7d00;stroke-width:1.37233;stroke-linecap:butt;stroke-linejoin:miter;stroke-miterlimit:4;stroke-dasharray:none;stroke-opacity:1"
       transform="matrix(1.3333333,0.344224,-0.344224,1.3333333,0,0)" /><path
       id="path29"
       d="m 36.113,80.859 c 2.297,1.325 30.188,7.793 30.188,7.793"
       style="fill:none;stroke:#ff7d00;stroke-width:2.12598;stroke-linecap:round;stroke-linejoin:round;stroke-miterlimit:1;stroke-dasharray:none;stroke-opacity:1"
       transform="scale(1.3333333)" /><path
       id="path30"
       d="m 88.4,69.539 -8.957,5.175 0.001,-10.356 z"
       style="fill:#ff7d00;fill-opacity:1;fill-rule:evenodd;stroke:#ff7d00;stroke-width:1.38068;stroke-linecap:butt;stroke-linejoin:miter;stroke-miterlimit:4;stroke-dasharray:none;stroke-opacity:1"
       transform="matrix(1.3333333,0.3092,-0.3092,1.3333333,0,0)" /><path
       id="path31"
       d="m 94.52,111.711 23.824,2.434"
       style="fill:none;stroke:#ff7d00;stroke-width:2.12599;stroke-linecap:round;stroke-linejoin:round;stroke-miterlimit:1;stroke-dasharray:none;stroke-opacity:1"
       transform="scale(1.3333333)" /><path
       id="path32"
       d="m 134.76,101.009 -9.148,5.285 0.002,-10.574 z"
       style="fill:#ff7d00;fill-opacity:1;fill-rule:evenodd;stroke:#ff7d00;stroke-width:1.41;stroke-linecap:butt;stroke-linejoin:miter;stroke-miterlimit:4;stroke-dasharray:none;stroke-opacity:1"
       transform="matrix(1.3333333,0.13615333,-0.13615333,1.3333333,0,0)" /><path
       id="path33"
       d="m 80.637,100.223 27.695,2.433"
       style="fill:none;stroke:#ff7d00;stroke-width:2.12599;stroke-linecap:round;stroke-linejoin:round;stroke-miterlimit:1;stroke-dasharray:none;stroke-opacity:1"
       transform="scale(1.3333333)" /><path
       id="path34"
       d="m 122.561,92.424 -9.159,5.297 -0.001,-10.59 z"
       style="fill:#ff7d00;fill-opacity:1;fill-rule:evenodd;stroke:#ff7d00;stroke-width:1.41189;stroke-linecap:butt;stroke-linejoin:miter;stroke-miterlimit:4;stroke-dasharray:none;stroke-opacity:1"
       transform="matrix(1.3333333,0.1171384,-0.1171384,1.3333333,0,0)" /><path
       id="path35"
       d="m 39.062,72.375 31.079,2.434"
       style="fill:none;stroke:#ff7d00;stroke-width:2.12599;stroke-linecap:round;stroke-linejoin:round;stroke-miterlimit:1;stroke-dasharray:none;stroke-opacity:1"
       transform="scale(1.3333333)" /><path
       id="path36"
       d="M 81.647,68.898 72.484,74.193 72.482,63.6 Z"
       style="fill:#ff7d00;fill-opacity:1;fill-rule:evenodd;stroke:#ff7d00;stroke-width:1.41301;stroke-linecap:butt;stroke-linejoin:miter;stroke-miterlimit:4;stroke-dasharray:none;stroke-opacity:1"
       transform="matrix(1.3333333,0.10437093,-0.10437093,1.3333333,0,0)" /><path
       id="path37"
       d="m 75.086,86.398 27.691,2.43"
       style="fill:none;stroke:#ff7d00;stroke-width:2.12599;stroke-linecap:round;stroke-linejoin:round;stroke-miterlimit:1;stroke-dasharray:none;stroke-opacity:1"
       transform="scale(1.3333333)" /><path
       id="path38"
       d="m 115.848,79.19 -9.16,5.293 -0.001,-10.59 z"
       style="fill:#ff7d00;fill-opacity:1;fill-rule:evenodd;stroke:#ff7d00;stroke-width:1.41189;stroke-linecap:butt;stroke-linejoin:miter;stroke-miterlimit:4;stroke-dasharray:none;stroke-opacity:1"
       transform="matrix(1.3333333,0.1171384,-0.1171384,1.3333333,0,0)" /><path
       id="path39"
       d="m 82.199,73.543 27.692,2.434"
       style="fill:none;stroke:#ff7d00;stroke-width:2.12599;stroke-linecap:round;stroke-linejoin:round;stroke-miterlimit:1;stroke-dasharray:none;stroke-opacity:1"
       transform="scale(1.3333333)" /><path
       id="path40"
       d="m 121.786,65.816 -9.16,5.293 -0.001,-10.59 z"
       style="fill:#ff7d00;fill-opacity:1;fill-rule:evenodd;stroke:#ff7d00;stroke-width:1.41189;stroke-linecap:butt;stroke-linejoin:miter;stroke-miterlimit:4;stroke-dasharray:none;stroke-opacity:1"
       transform="matrix(1.3333333,0.1171384,-0.1171384,1.3333333,0,0)" /><path
       id="path41"
       d="m 116.547,81.812 21.273,-3"
       style="fill:none;stroke:#ff7d00;stroke-width:2.12598;stroke-linecap:round;stroke-linejoin:round;stroke-miterlimit:1;stroke-dasharray:none;stroke-opacity:1"
       transform="scale(1.3333333)" /><path
       id="path42"
       d="m 130.304,96.335 -9.105,5.263 V 91.074 Z"
       style="fill:#ff7d00;fill-opacity:1;fill-rule:evenodd;stroke:#ff7d00;stroke-width:1.40343;stroke-linecap:butt;stroke-linejoin:miter;stroke-miterlimit:4;stroke-dasharray:none;stroke-opacity:1"
       transform="matrix(1.3333333,-0.188096,0.188096,1.3333333,0,0)" /><path
       id="path43"
       d="M 137.852,65.066 156.18,62.062"
       style="fill:none;stroke:#ff7d00;stroke-width:2.12598;stroke-linecap:round;stroke-linejoin:round;stroke-miterlimit:1;stroke-dasharray:none;stroke-opacity:1"
       transform="scale(1.3333333)" /><path
       id="path44"
       d="m 148.26,85.349 -9.073,5.245 -0.001,-10.493 z"
       style="fill:#ff7d00;fill-opacity:1;fill-rule:evenodd;stroke:#ff7d00;stroke-width:1.3987;stroke-linecap:butt;stroke-linejoin:miter;stroke-miterlimit:4;stroke-dasharray:none;stroke-opacity:1"
       transform="matrix(1.3333333,-0.21830667,0.21830667,1.3333333,0,0)" /><path
       id="path45"
       d="m 156.625,50.988 18.328,-3"
       style="fill:none;stroke:#ff7d00;stroke-width:2.12598;stroke-linecap:round;stroke-linejoin:round;stroke-miterlimit:1;stroke-dasharray:none;stroke-opacity:1"
       transform="scale(1.3333333)" /><path
       id="path46"
       d="m 168.788,74.632 -9.073,5.245 -0.002,-10.489 z"
       style="fill:#ff7d00;fill-opacity:1;fill-rule:evenodd;stroke:#ff7d00;stroke-width:1.3987;stroke-linecap:butt;stroke-linejoin:miter;stroke-miterlimit:4;stroke-dasharray:none;stroke-opacity:1"
       transform="matrix(1.3333333,-0.21830667,0.21830667,1.3333333,0,0)" /><path
       id="path47"
       d="M 115.281,94.473 140.48,94.188"
       style="fill:none;stroke:#ff7d00;stroke-width:2.12599;stroke-linecap:round;stroke-linejoin:round;stroke-miterlimit:1;stroke-dasharray:none;stroke-opacity:1"
       transform="scale(1.3333333)" /><path
       id="path48"
       d="m 145.529,95.764 -9.192,5.314 -10e-4,-10.629 z"
       style="fill:#ff7d00;fill-opacity:1;fill-rule:evenodd;stroke:#ff7d00;stroke-width:1.41724;stroke-linecap:butt;stroke-linejoin:miter;stroke-miterlimit:4;stroke-dasharray:none;stroke-opacity:1"
       transform="matrix(1.3333333,-0.0150896,0.0150896,1.3333333,0,0)" /><path
       id="path49"
       d="m 132.047,123.086 23.933,-8.344"
       style="fill:none;stroke:#ff7d00;stroke-width:2.12599;stroke-linecap:round;stroke-linejoin:round;stroke-miterlimit:1;stroke-dasharray:none;stroke-opacity:1"
       transform="scale(1.3333333)" /><path
       id="path50"
       d="m 109.208,150.792 -8.683,5.02 -0.001,-10.039 z"
       style="fill:#ff7d00;fill-opacity:1;fill-rule:evenodd;stroke:#ff7d00;stroke-width:1.33834;stroke-linecap:butt;stroke-linejoin:miter;stroke-miterlimit:4;stroke-dasharray:none;stroke-opacity:1"
       transform="matrix(1.3333333,-0.464792,0.464792,1.3333333,0,0)" /><path
       id="path51"
       d="m 132.441,109.02 24.422,-5.696"
       style="fill:none;stroke:#ff7d00;stroke-width:2.12599;stroke-linecap:round;stroke-linejoin:round;stroke-miterlimit:1;stroke-dasharray:none;stroke-opacity:1"
       transform="scale(1.3333333)" /><path
       id="path52"
       d="m 131.902,132.685 -8.953,5.178 v -10.355 z"
       style="fill:#ff7d00;fill-opacity:1;fill-rule:evenodd;stroke:#ff7d00;stroke-width:1.38031;stroke-linecap:butt;stroke-linejoin:miter;stroke-miterlimit:4;stroke-dasharray:none;stroke-opacity:1"
       transform="matrix(1.3333333,-0.310848,0.310848,1.3333333,0,0)" /><path
       id="path53"
       d="M 147.645,86.238 165.75,80.543"
       style="fill:none;stroke:#ff7d00;stroke-width:2.12599;stroke-linecap:round;stroke-linejoin:round;stroke-miterlimit:1;stroke-dasharray:none;stroke-opacity:1"
       transform="scale(1.3333333)" /><path
       id="path54"
       d="m 133.628,120.73 -8.77,5.069 10e-4,-10.14 z"
       style="fill:#ff7d00;fill-opacity:1;fill-rule:evenodd;stroke:#ff7d00;stroke-width:1.35204;stroke-linecap:butt;stroke-linejoin:miter;stroke-miterlimit:4;stroke-dasharray:none;stroke-opacity:1"
       transform="matrix(1.3333333,-0.41933867,0.41933867,1.3333333,0,0)" /><path
       id="path55"
       d="m 180.781,36.812 18.332,-3"
       style="fill:none;stroke:#ff7d00;stroke-width:2.12598;stroke-linecap:round;stroke-linejoin:round;stroke-miterlimit:1;stroke-dasharray:none;stroke-opacity:1"
       transform="scale(1.3333333)" /><path
       id="path56"
       d="m 194.574,64.678 -9.073,5.245 -0.002,-10.489 z"
       style="fill:#ff7d00;fill-opacity:1;fill-rule:evenodd;stroke:#ff7d00;stroke-width:1.3987;stroke-linecap:butt;stroke-linejoin:miter;stroke-miterlimit:4;stroke-dasharray:none;stroke-opacity:1"
       transform="matrix(1.3333333,-0.21830667,0.21830667,1.3333333,0,0)" /><path
       id="path57"
       d="m 155.195,71.141 21.274,-3"
       style="fill:none;stroke:#ff7d00;stroke-width:2.12598;stroke-linecap:round;stroke-linejoin:round;stroke-miterlimit:1;stroke-dasharray:none;stroke-opacity:1"
       transform="scale(1.3333333)" /><path
       id="path58"
       d="m 169.67,91.221 -9.101,5.263 V 85.957 Z"
       style="fill:#ff7d00;fill-opacity:1;fill-rule:evenodd;stroke:#ff7d00;stroke-width:1.40343;stroke-linecap:butt;stroke-linejoin:miter;stroke-miterlimit:4;stroke-dasharray:none;stroke-opacity:1"
       transform="matrix(1.3333333,-0.188096,0.188096,1.3333333,0,0)" /><path
       id="path59"
       d="m 186.117,49.082 18.328,-3.004"
       style="fill:none;stroke:#ff7d00;stroke-width:2.12598;stroke-linecap:round;stroke-linejoin:round;stroke-miterlimit:1;stroke-dasharray:none;stroke-opacity:1"
       transform="scale(1.3333333)" /><path
       id="path60"
       d="m 197.815,77.478 -9.074,5.245 -0.001,-10.492 z"
       style="fill:#ff7d00;fill-opacity:1;fill-rule:evenodd;stroke:#ff7d00;stroke-width:1.3987;stroke-linecap:butt;stroke-linejoin:miter;stroke-miterlimit:4;stroke-dasharray:none;stroke-opacity:1"
       transform="matrix(1.3333333,-0.21830667,0.21830667,1.3333333,0,0)" /><path
       id="path61"
       d="m 187.031,61.797 13.586,-0.285"
       style="fill:none;stroke:#ff7d00;stroke-width:2.12599;stroke-linecap:round;stroke-linejoin:round;stroke-miterlimit:1;stroke-dasharray:none;stroke-opacity:1"
       transform="scale(1.3333333)" /><path
       id="path62"
       d="m 205.367,65.694 -9.19,5.315 0.001,-10.629 z"
       style="fill:#ff7d00;fill-opacity:1;fill-rule:evenodd;stroke:#ff7d00;stroke-width:1.41701;stroke-linecap:butt;stroke-linejoin:miter;stroke-miterlimit:4;stroke-dasharray:none;stroke-opacity:1"
       transform="matrix(1.3333333,-0.02799333,0.02799333,1.3333333,0,0)" /><path
       id="path63"
       d="m 169.914,109.301 23.934,-8.344"
       style="fill:none;stroke:#ff7d00;stroke-width:2.12599;stroke-linecap:round;stroke-linejoin:round;stroke-miterlimit:1;stroke-dasharray:none;stroke-opacity:1"
       transform="scale(1.3333333)" /><path
       id="path64"
       d="m 147.257,150.271 -8.682,5.016 -0.002,-10.036 z"
       style="fill:#ff7d00;fill-opacity:1;fill-rule:evenodd;stroke:#ff7d00;stroke-width:1.33834;stroke-linecap:butt;stroke-linejoin:miter;stroke-miterlimit:4;stroke-dasharray:none;stroke-opacity:1"
       transform="matrix(1.3333333,-0.464792,0.464792,1.3333333,0,0)" /><path
       id="path65"
       d="M 170.309,95.234 194.73,89.539"
       style="fill:none;stroke:#ff7d00;stroke-width:2.12599;stroke-linecap:round;stroke-linejoin:round;stroke-miterlimit:1;stroke-dasharray:none;stroke-opacity:1"
       transform="scale(1.3333333)" /><path
       id="path66"
       d="m 170.866,127.983 -8.953,5.175 -0.001,-10.352 z"
       style="fill:#ff7d00;fill-opacity:1;fill-rule:evenodd;stroke:#ff7d00;stroke-width:1.38031;stroke-linecap:butt;stroke-linejoin:miter;stroke-miterlimit:4;stroke-dasharray:none;stroke-opacity:1"
       transform="matrix(1.3333333,-0.310848,0.310848,1.3333333,0,0)" /><path
       id="path67"
       d="m 182.359,17.98 13.582,-0.285"
       style="fill:none;stroke:#ff7d00;stroke-width:2.12599;stroke-linecap:round;stroke-linejoin:round;stroke-miterlimit:1;stroke-dasharray:none;stroke-opacity:1"
       transform="scale(1.3333333)" /><path
       id="path68"
       d="m 201.617,21.799 -9.194,5.315 V 16.485 Z"
       style="fill:#ff7d00;fill-opacity:1;fill-rule:evenodd;stroke:#ff7d00;stroke-width:1.41701;stroke-linecap:butt;stroke-linejoin:miter;stroke-miterlimit:4;stroke-dasharray:none;stroke-opacity:1"
       transform="matrix(1.3333333,-0.02799333,0.02799333,1.3333333,0,0)" /><path
       id="path69"
       d="m 181.191,76.402 13.582,-0.285"
       style="fill:none;stroke:#ff7d00;stroke-width:2.12599;stroke-linecap:round;stroke-linejoin:round;stroke-miterlimit:1;stroke-dasharray:none;stroke-opacity:1"
       transform="scale(1.3333333)" /><path
       id="path70"
       d="m 199.223,80.171 -9.193,5.311 V 74.857 Z"
       style="fill:#ff7d00;fill-opacity:1;fill-rule:evenodd;stroke:#ff7d00;stroke-width:1.41701;stroke-linecap:butt;stroke-linejoin:miter;stroke-miterlimit:4;stroke-dasharray:none;stroke-opacity:1"
       transform="matrix(1.3333333,-0.02799333,0.02799333,1.3333333,0,0)" /><path
       id="path71"
       d="M 209.914,66.664 221,66.379"
       style="fill:none;stroke:#ff7d00;stroke-width:2.12599;stroke-linecap:round;stroke-linejoin:round;stroke-miterlimit:1;stroke-dasharray:none;stroke-opacity:1"
       transform="scale(1.3333333)" /><path
       id="path72"
       d="m 225.281,72.016 -9.191,5.311 -0.001,-10.625 z"
       style="fill:#ff7d00;fill-opacity:1;fill-rule:evenodd;stroke:#ff7d00;stroke-width:1.41686;stroke-linecap:butt;stroke-linejoin:miter;stroke-miterlimit:4;stroke-dasharray:none;stroke-opacity:1"
       transform="matrix(1.3333333,-0.03428947,0.03428947,1.3333333,0,0)" /><path
       id="path73"
       d="m 206.098,22.848 11.09,-0.286"
       style="fill:none;stroke:#ff7d00;stroke-width:2.12599;stroke-linecap:round;stroke-linejoin:round;stroke-miterlimit:1;stroke-dasharray:none;stroke-opacity:1"
       transform="scale(1.3333333)" /><path
       id="path74"
       d="m 222.593,28.131 -9.191,5.314 V 22.816 Z"
       style="fill:#ff7d00;fill-opacity:1;fill-rule:evenodd;stroke:#ff7d00;stroke-width:1.41686;stroke-linecap:butt;stroke-linejoin:miter;stroke-miterlimit:4;stroke-dasharray:none;stroke-opacity:1"
       transform="matrix(1.3333333,-0.03428947,0.03428947,1.3333333,0,0)" /><path
       id="path75"
       d="M 205.145,81.27 216.23,80.984"
       style="fill:none;stroke:#ff7d00;stroke-width:2.12599;stroke-linecap:round;stroke-linejoin:round;stroke-miterlimit:1;stroke-dasharray:none;stroke-opacity:1"
       transform="scale(1.3333333)" /><path
       id="path76"
       d="M 220.139,86.489 210.948,91.8 V 81.175 Z"
       style="fill:#ff7d00;fill-opacity:1;fill-rule:evenodd;stroke:#ff7d00;stroke-width:1.41686;stroke-linecap:butt;stroke-linejoin:miter;stroke-miterlimit:4;stroke-dasharray:none;stroke-opacity:1"
       transform="matrix(1.3333333,-0.03428947,0.03428947,1.3333333,0,0)" /><path
       id="path77"
       d="m 210.594,52.152 11.027,-1.464"
       style="fill:none;stroke:#ff7d00;stroke-width:2.12599;stroke-linecap:round;stroke-linejoin:round;stroke-miterlimit:1;stroke-dasharray:none;stroke-opacity:1"
       transform="scale(1.3333333)" /><path
       id="path78"
       d="m 217.21,78.792 -9.112,5.271 -0.003,-10.539 z"
       style="fill:#ff7d00;fill-opacity:1;fill-rule:evenodd;stroke:#ff7d00;stroke-width:1.40493;stroke-linecap:butt;stroke-linejoin:miter;stroke-miterlimit:4;stroke-dasharray:none;stroke-opacity:1"
       transform="matrix(1.3333333,-0.177504,0.177504,1.3333333,0,0)" /><path
       id="path79"
       d="m 210.707,36.09 11.09,-0.285"
       style="fill:none;stroke:#ff7d00;stroke-width:2.12599;stroke-linecap:round;stroke-linejoin:round;stroke-miterlimit:1;stroke-dasharray:none;stroke-opacity:1"
       transform="scale(1.3333333)" /><path
       id="path80"
       d="m 226.863,41.483 -9.191,5.314 -0.001,-10.629 z"
       style="fill:#ff7d00;fill-opacity:1;fill-rule:evenodd;stroke:#ff7d00;stroke-width:1.41686;stroke-linecap:butt;stroke-linejoin:miter;stroke-miterlimit:4;stroke-dasharray:none;stroke-opacity:1"
       transform="matrix(1.3333333,-0.03428947,0.03428947,1.3333333,0,0)" /><path
       id="path81"
       d="m 440.59,25.148 h 83.977 v 83.977 H 440.59 Z"
       style="fill:#32afff;fill-opacity:1;fill-rule:nonzero;stroke:#007ddc;stroke-width:1.06299;stroke-linecap:round;stroke-linejoin:round;stroke-miterlimit:1;stroke-dasharray:none;stroke-opacity:1"
       transform="scale(1.3333333)" /><path
       id="path82"
       d="M 440.594,109.125 463.48,103.43"
       style="fill:none;stroke:#ff7d00;stroke-width:2.12598;stroke-linecap:round;stroke-linejoin:round;stroke-miterlimit:1;stroke-dasharray:none;stroke-opacity:1"
       transform="scale(1.3333333)" /><path
       id="path83"
       d="m 418.18,205.996 -8.924,5.159 v -10.316 z"
       style="fill:#ff7d00;fill-opacity:1;fill-rule:evenodd;stroke:#ff7d00;stroke-width:1.37539;stroke-linecap:butt;stroke-linejoin:miter;stroke-miterlimit:4;stroke-dasharray:none;stroke-opacity:1"
       transform="matrix(1.3333333,-0.33174667,0.33174667,1.3333333,0,0)" /><path
       id="path84"
       d="m 440.594,81.262 19.011,-5.696"
       style="fill:none;stroke:#ff7d00;stroke-width:2.12598;stroke-linecap:round;stroke-linejoin:round;stroke-miterlimit:1;stroke-dasharray:none;stroke-opacity:1"
       transform="scale(1.3333333)" /><path
       id="path85"
       d="m 406.882,195.669 -8.809,5.088 -0.002,-10.18 z"
       style="fill:#ff7d00;fill-opacity:1;fill-rule:evenodd;stroke:#ff7d00;stroke-width:1.35774;stroke-linecap:butt;stroke-linejoin:miter;stroke-miterlimit:4;stroke-dasharray:none;stroke-opacity:1"
       transform="matrix(1.3333333,-0.39932933,0.39932933,1.3333333,0,0)" /><path
       id="path86"
       d="m 440.594,53.34 21.949,-5.695"
       style="fill:none;stroke:#ff7d00;stroke-width:2.12598;stroke-linecap:round;stroke-linejoin:round;stroke-miterlimit:1;stroke-dasharray:none;stroke-opacity:1"
       transform="scale(1.3333333)" /><path
       id="path87"
       d="m 427.726,157.08 -8.901,5.144 -0.002,-10.29 z"
       style="fill:#ff7d00;fill-opacity:1;fill-rule:evenodd;stroke:#ff7d00;stroke-width:1.3719;stroke-linecap:butt;stroke-linejoin:miter;stroke-miterlimit:4;stroke-dasharray:none;stroke-opacity:1"
       transform="matrix(1.3333333,-0.345936,0.345936,1.3333333,0,0)" /><path
       id="path88"
       d="m 440.594,25.148 14.121,-5.695"
       style="fill:none;stroke:#ff7d00;stroke-width:2.12598;stroke-linecap:round;stroke-linejoin:round;stroke-miterlimit:1;stroke-dasharray:none;stroke-opacity:1"
       transform="scale(1.3333333)" /><path
       id="path89"
       d="m 390.066,174.444 -8.53,4.928 0.003,-9.859 z"
       style="fill:#ff7d00;fill-opacity:1;fill-rule:evenodd;stroke:#ff7d00;stroke-width:1.31448;stroke-linecap:butt;stroke-linejoin:miter;stroke-miterlimit:4;stroke-dasharray:none;stroke-opacity:1"
       transform="matrix(1.3333333,-0.537632,0.537632,1.3333333,0,0)" /><path
       id="path90"
       d="m 524.57,109.125 14.121,-5.695"
       style="fill:none;stroke:#ff7d00;stroke-width:2.12598;stroke-linecap:round;stroke-linejoin:round;stroke-miterlimit:1;stroke-dasharray:none;stroke-opacity:1"
       transform="scale(1.3333333)" /><path
       id="path91"
       d="m 433.17,275.801 -8.527,4.929 0.003,-9.859 z"
       style="fill:#ff7d00;fill-opacity:1;fill-rule:evenodd;stroke:#ff7d00;stroke-width:1.31448;stroke-linecap:butt;stroke-linejoin:miter;stroke-miterlimit:4;stroke-dasharray:none;stroke-opacity:1"
       transform="matrix(1.3333333,-0.53763067,0.53763067,1.3333333,0,0)" /><path
       id="path92"
       d="m 524.57,79.016 8.598,-3.59"
       style="fill:none;stroke:#ff7d00;stroke-width:2.12598;stroke-linecap:round;stroke-linejoin:round;stroke-miterlimit:1;stroke-dasharray:none;stroke-opacity:1"
       transform="scale(1.3333333)" /><path
       id="path93"
       d="m 432.786,253.851 -8.484,4.901 -0.002,-9.805 z"
       style="fill:#ff7d00;fill-opacity:1;fill-rule:evenodd;stroke:#ff7d00;stroke-width:1.3078;stroke-linecap:butt;stroke-linejoin:miter;stroke-miterlimit:4;stroke-dasharray:none;stroke-opacity:1"
       transform="matrix(1.3333333,-0.556976,0.556976,1.3333333,0,0)" /><path
       id="path94"
       d="m 524.57,50.688 10.387,-3.114"
       style="fill:none;stroke:#ff7d00;stroke-width:2.12598;stroke-linecap:round;stroke-linejoin:round;stroke-miterlimit:1;stroke-dasharray:none;stroke-opacity:1"
       transform="scale(1.3333333)" /><path
       id="path95"
       d="m 483.721,190.695 -8.809,5.089 -10e-4,-10.184 z"
       style="fill:#ff7d00;fill-opacity:1;fill-rule:evenodd;stroke:#ff7d00;stroke-width:1.35773;stroke-linecap:butt;stroke-linejoin:miter;stroke-miterlimit:4;stroke-dasharray:none;stroke-opacity:1"
       transform="matrix(1.3333333,-0.39934533,0.39934533,1.3333333,0,0)" /><path
       id="path96"
       d="m 524.57,25.148 7.602,-5.695"
       style="fill:none;stroke:#ff7d00;stroke-width:2.12598;stroke-linecap:round;stroke-linejoin:round;stroke-miterlimit:1;stroke-dasharray:none;stroke-opacity:1"
       transform="scale(1.3333333)" /><path
       id="path97"
       d="m 336.439,267.822 -7.359,4.253 0.002,-8.507 z"
       style="fill:#ff7d00;fill-opacity:1;fill-rule:evenodd;stroke:#ff7d00;stroke-width:1.13432;stroke-linecap:butt;stroke-linejoin:miter;stroke-miterlimit:4;stroke-dasharray:none;stroke-opacity:1"
       transform="matrix(1.3333333,-0.998872,0.998872,1.3333333,0,0)" /><path
       id="path98"
       d="m 496.578,25.148 10.957,-5.695"
       style="fill:none;stroke:#ff7d00;stroke-width:2.12598;stroke-linecap:round;stroke-linejoin:round;stroke-miterlimit:1;stroke-dasharray:none;stroke-opacity:1"
       transform="scale(1.3333333)" /><path
       id="path99"
       d="m 397.089,222.991 -8.159,4.717 10e-4,-9.434 z"
       style="fill:#ff7d00;fill-opacity:1;fill-rule:evenodd;stroke:#ff7d00;stroke-width:1.25763;stroke-linecap:butt;stroke-linejoin:miter;stroke-miterlimit:4;stroke-dasharray:none;stroke-opacity:1"
       transform="matrix(1.3333333,-0.69292933,0.69292933,1.3333333,0,0)" /><path
       id="path100"
       d="m 468.586,25.148 14.121,-5.695"
       style="fill:none;stroke:#ff7d00;stroke-width:2.12598;stroke-linecap:round;stroke-linejoin:round;stroke-miterlimit:1;stroke-dasharray:none;stroke-opacity:1"
       transform="scale(1.3333333)" /><path
       id="path101"
       d="m 414.144,184.153 -8.53,4.927 0.002,-9.858 z"
       style="fill:#ff7d00;fill-opacity:1;fill-rule:evenodd;stroke:#ff7d00;stroke-width:1.31448;stroke-linecap:butt;stroke-linejoin:miter;stroke-miterlimit:4;stroke-dasharray:none;stroke-opacity:1"
       transform="matrix(1.3333333,-0.537632,0.537632,1.3333333,0,0)" /><path
       id="path102"
       d="m 496.578,109.125 12.328,-5.695"
       style="fill:none;stroke:#ff7d00;stroke-width:2.12598;stroke-linecap:round;stroke-linejoin:round;stroke-miterlimit:1;stroke-dasharray:none;stroke-opacity:1"
       transform="scale(1.3333333)" /><path
       id="path103"
       d="m 385.603,278.981 -8.345,4.824 -10e-4,-9.648 z"
       style="fill:#ff7d00;fill-opacity:1;fill-rule:evenodd;stroke:#ff7d00;stroke-width:1.28668;stroke-linecap:butt;stroke-linejoin:miter;stroke-miterlimit:4;stroke-dasharray:none;stroke-opacity:1"
       transform="matrix(1.3333333,-0.61590533,0.61590533,1.3333333,0,0)" /><path
       id="path104"
       d="M 468.586,109.125 484.84,103.43"
       style="fill:none;stroke:#ff7d00;stroke-width:2.12598;stroke-linecap:round;stroke-linejoin:round;stroke-miterlimit:1;stroke-dasharray:none;stroke-opacity:1"
       transform="scale(1.3333333)" /><path
       id="path105"
       d="m 405.341,243.422 -8.678,5.014 -0.001,-10.032 z"
       style="fill:#ff7d00;fill-opacity:1;fill-rule:evenodd;stroke:#ff7d00;stroke-width:1.3376;stroke-linecap:butt;stroke-linejoin:miter;stroke-miterlimit:4;stroke-dasharray:none;stroke-opacity:1"
       transform="matrix(1.3333333,-0.46716,0.46716,1.3333333,0,0)" /><path
       id="path106"
       d="m 473.633,123.789 c -0.125,-0.281 -0.188,-0.375 -0.531,-0.375 -0.313,0 -0.375,0.094 -0.5,0.375 l -6.75,13.5 c -0.094,0.188 -0.094,0.219 -0.094,0.25 0,0.156 0.125,0.156 0.437,0.156 h 13.844 c 0.313,0 0.438,0 0.438,-0.156 0,-0.031 0,-0.062 -0.094,-0.25 z m -1.156,1.625 5.375,10.781 h -10.75 z"
       style="fill:#000000;fill-opacity:1;fill-rule:nonzero;stroke:none"
       transform="scale(1.3333333)" /><path
       id="path107"
       d="m 488.082,131.664 c 0.125,-0.5 0.594,-2.344 1.969,-2.344 0.094,0 0.594,0 1,0.25 -0.563,0.125 -0.938,0.594 -0.938,1.094 0,0.313 0.219,0.688 0.75,0.688 0.438,0 1.063,-0.344 1.063,-1.157 0,-1.031 -1.156,-1.312 -1.844,-1.312 -1.156,0 -1.844,1.062 -2.094,1.5 -0.5,-1.313 -1.562,-1.5 -2.156,-1.5 -2.062,0 -3.219,2.562 -3.219,3.062 0,0.219 0.219,0.219 0.25,0.219 0.157,0 0.219,-0.062 0.25,-0.219 0.688,-2.125 2,-2.625 2.688,-2.625 0.375,0 1.062,0.188 1.062,1.344 0,0.625 -0.343,1.938 -1.062,4.75 -0.313,1.219 -1.031,2.063 -1.906,2.063 -0.125,0 -0.563,0 -1,-0.25 0.5,-0.125 0.937,-0.532 0.937,-1.094 0,-0.531 -0.437,-0.688 -0.719,-0.688 -0.625,0 -1.093,0.5 -1.093,1.157 0,0.906 0.968,1.312 1.843,1.312 1.344,0 2.063,-1.406 2.094,-1.5 0.25,0.719 0.969,1.5 2.156,1.5 2.063,0 3.188,-2.562 3.188,-3.062 0,-0.219 -0.156,-0.219 -0.219,-0.219 -0.187,0 -0.219,0.094 -0.281,0.219 -0.656,2.156 -2,2.625 -2.625,2.625 -0.781,0 -1.094,-0.625 -1.094,-1.313 0,-0.437 0.094,-0.875 0.313,-1.75 z"
       style="fill:#000000;fill-opacity:1;fill-rule:nonzero;stroke:none"
       transform="scale(1.3333333)" /><path
       id="path108"
       d="m 497.469,132.973 c 0,-0.375 0,-0.375 -0.407,-0.375 -0.906,0.875 -2.156,0.875 -2.718,0.875 v 0.5 c 0.312,0 1.25,0 2,-0.375 v 7.093 c 0,0.469 0,0.657 -1.375,0.657 h -0.531 v 0.5 c 0.25,0 1.968,-0.063 2.468,-0.063 0.438,0 2.188,0.063 2.5,0.063 v -0.5 h -0.531 c -1.406,0 -1.406,-0.188 -1.406,-0.657 z"
       style="fill:#000000;fill-opacity:1;fill-rule:nonzero;stroke:none"
       transform="scale(1.3333333)" /><path
       id="path109"
       d="m 398.434,58.297 c -0.125,-0.281 -0.188,-0.375 -0.532,-0.375 -0.312,0 -0.375,0.094 -0.5,0.375 l -6.75,13.5 c -0.093,0.187 -0.093,0.219 -0.093,0.25 0,0.156 0.125,0.156 0.437,0.156 h 13.844 c 0.312,0 0.437,0 0.437,-0.156 0,-0.031 0,-0.063 -0.093,-0.25 z m -1.157,1.625 5.375,10.781 h -10.75 z"
       style="fill:#000000;fill-opacity:1;fill-rule:nonzero;stroke:none"
       transform="scale(1.3333333)" /><path
       id="path110"
       d="m 412.883,66.172 c 0.125,-0.5 0.594,-2.344 1.969,-2.344 0.093,0 0.593,0 1,0.25 -0.563,0.125 -0.938,0.594 -0.938,1.094 0,0.312 0.219,0.687 0.75,0.687 0.438,0 1.063,-0.343 1.063,-1.156 0,-1.031 -1.157,-1.312 -1.844,-1.312 -1.156,0 -1.844,1.062 -2.094,1.5 -0.5,-1.313 -1.562,-1.5 -2.156,-1.5 -2.063,0 -3.219,2.562 -3.219,3.062 0,0.219 0.219,0.219 0.25,0.219 0.156,0 0.219,-0.063 0.25,-0.219 0.688,-2.125 2,-2.625 2.688,-2.625 0.375,0 1.062,0.188 1.062,1.344 0,0.625 -0.344,1.937 -1.062,4.75 -0.313,1.219 -1.032,2.062 -1.907,2.062 -0.125,0 -0.562,0 -1,-0.25 0.5,-0.125 0.938,-0.531 0.938,-1.093 0,-0.532 -0.438,-0.688 -0.719,-0.688 -0.625,0 -1.094,0.5 -1.094,1.156 0,0.907 0.969,1.313 1.844,1.313 1.344,0 2.063,-1.406 2.094,-1.5 0.25,0.719 0.969,1.5 2.156,1.5 2.063,0 3.188,-2.563 3.188,-3.063 0,-0.218 -0.157,-0.218 -0.219,-0.218 -0.188,0 -0.219,0.093 -0.281,0.218 -0.657,2.157 -2,2.625 -2.625,2.625 -0.782,0 -1.094,-0.625 -1.094,-1.312 0,-0.438 0.094,-0.875 0.312,-1.75 z"
       style="fill:#000000;fill-opacity:1;fill-rule:nonzero;stroke:none"
       transform="scale(1.3333333)" /><path
       id="path111"
       d="m 424.645,73.82 h -0.469 c -0.031,0.313 -0.188,1.125 -0.375,1.25 -0.094,0.094 -1.156,0.094 -1.375,0.094 h -2.563 c 1.469,-1.281 1.969,-1.687 2.782,-2.344 1.031,-0.812 2,-1.687 2,-3 0,-1.687 -1.469,-2.718 -3.25,-2.718 -1.719,0 -2.907,1.218 -2.907,2.5 0,0.687 0.594,0.781 0.75,0.781 0.313,0 0.719,-0.25 0.719,-0.75 0,-0.25 -0.094,-0.75 -0.812,-0.75 0.437,-0.969 1.375,-1.281 2.031,-1.281 1.406,0 2.125,1.093 2.125,2.218 0,1.219 -0.875,2.157 -1.313,2.657 l -3.343,3.343 c -0.157,0.125 -0.157,0.157 -0.157,0.532 h 5.75 z"
       style="fill:#000000;fill-opacity:1;fill-rule:nonzero;stroke:none"
       transform="scale(1.3333333)" /><path
       id="path112"
       d="m 4.363,116.828 v 27.285 h 27.282"
       style="fill:none;stroke:#000000;stroke-width:1.41732;stroke-linecap:round;stroke-linejoin:round;stroke-miterlimit:1;stroke-dasharray:none;stroke-opacity:1"
       transform="scale(1.3333333)" /><path
       id="path113"
       d="m -112.738,4.363 -6.133,3.543 V 0.82 Z"
       style="fill:#000000;fill-opacity:1;fill-rule:evenodd;stroke:#000000;stroke-width:0.944882;stroke-linecap:butt;stroke-linejoin:miter;stroke-miterlimit:4;stroke-dasharray:none;stroke-opacity:1"
       transform="matrix(0,-1.3333333,1.3333333,0,0,0)" /><path
       id="path114"
       d="m 35.734,144.113 -6.129,3.543 v -7.086 z"
       style="fill:#000000;fill-opacity:1;fill-rule:evenodd;stroke:#000000;stroke-width:0.944882;stroke-linecap:butt;stroke-linejoin:miter;stroke-miterlimit:4;stroke-dasharray:none;stroke-opacity:1"
       transform="scale(1.3333333)" /><path
       id="path115"
       d="M 4.363,144.113 119.285,87.586"
       style="fill:none;stroke:#000000;stroke-width:0.708661;stroke-linecap:round;stroke-linejoin:round;stroke-miterlimit:1;stroke-dasharray:none;stroke-opacity:1"
       transform="scale(1.3333333)" /><path
       id="path116"
       d="m 63.196,117.767 -2.75,1.589 0.001,-3.179 z"
       style="fill:#000000;fill-opacity:1;fill-rule:evenodd;stroke:#000000;stroke-width:0.423936;stroke-linecap:butt;stroke-linejoin:miter;stroke-miterlimit:4;stroke-dasharray:none;stroke-opacity:1"
       transform="matrix(1.3333333,-0.655812,0.655812,1.3333333,0,0)" /><path
       id="path117"
       d="m 44.957,142.242 c 0.125,-0.5 0.594,-2.344 1.969,-2.344 0.094,0 0.594,0 1,0.25 -0.563,0.125 -0.938,0.594 -0.938,1.094 0,0.313 0.219,0.688 0.75,0.688 0.438,0 1.063,-0.344 1.063,-1.157 0,-1.031 -1.156,-1.312 -1.844,-1.312 -1.156,0 -1.844,1.062 -2.094,1.5 -0.5,-1.313 -1.562,-1.5 -2.156,-1.5 -2.062,0 -3.219,2.562 -3.219,3.062 0,0.219 0.219,0.219 0.25,0.219 0.157,0 0.219,-0.062 0.25,-0.219 0.688,-2.125 2,-2.625 2.688,-2.625 0.375,0 1.062,0.188 1.062,1.344 0,0.625 -0.343,1.938 -1.062,4.75 -0.313,1.219 -1.031,2.063 -1.906,2.063 -0.125,0 -0.563,0 -1,-0.25 0.5,-0.125 0.937,-0.532 0.937,-1.094 0,-0.531 -0.437,-0.688 -0.719,-0.688 -0.625,0 -1.093,0.5 -1.093,1.157 0,0.906 0.968,1.312 1.843,1.312 1.344,0 2.063,-1.406 2.094,-1.5 0.25,0.719 0.969,1.5 2.156,1.5 2.063,0 3.188,-2.562 3.188,-3.062 0,-0.219 -0.156,-0.219 -0.219,-0.219 -0.187,0 -0.219,0.094 -0.281,0.219 -0.656,2.156 -2,2.625 -2.625,2.625 -0.781,0 -1.094,-0.625 -1.094,-1.313 0,-0.437 0.094,-0.875 0.313,-1.75 z"
       style="fill:#000000;fill-opacity:1;fill-rule:nonzero;stroke:none"
       transform="scale(1.3333333)" /><path
       id="path118"
       d="m 54.344,143.547 c 0,-0.375 0,-0.375 -0.406,-0.375 -0.907,0.875 -2.157,0.875 -2.719,0.875 v 0.5 c 0.312,0 1.25,0 2,-0.375 v 7.094 c 0,0.468 0,0.656 -1.375,0.656 h -0.532 v 0.5 c 0.25,0 1.969,-0.063 2.469,-0.063 0.438,0 2.188,0.063 2.5,0.063 v -0.5 H 55.75 c -1.406,0 -1.406,-0.188 -1.406,-0.656 z"
       style="fill:#000000;fill-opacity:1;fill-rule:nonzero;stroke:none"
       transform="scale(1.3333333)" /><path
       id="path119"
       d="m 15.527,106.469 c 0.125,-0.5 0.594,-2.344 1.969,-2.344 0.094,0 0.594,0 1,0.25 -0.562,0.125 -0.937,0.594 -0.937,1.094 0,0.312 0.218,0.687 0.75,0.687 0.437,0 1.062,-0.344 1.062,-1.156 0,-1.031 -1.156,-1.312 -1.844,-1.312 -1.156,0 -1.843,1.062 -2.093,1.5 -0.5,-1.313 -1.563,-1.5 -2.157,-1.5 -2.062,0 -3.218,2.562 -3.218,3.062 0,0.219 0.218,0.219 0.25,0.219 0.156,0 0.218,-0.063 0.25,-0.219 0.687,-2.125 2,-2.625 2.687,-2.625 0.375,0 1.063,0.187 1.063,1.344 0,0.625 -0.344,1.937 -1.063,4.75 -0.312,1.219 -1.031,2.062 -1.906,2.062 -0.125,0 -0.563,0 -1,-0.25 0.5,-0.125 0.937,-0.531 0.937,-1.093 0,-0.532 -0.437,-0.688 -0.718,-0.688 -0.625,0 -1.094,0.5 -1.094,1.156 0,0.906 0.969,1.313 1.844,1.313 1.343,0 2.062,-1.407 2.093,-1.5 0.25,0.719 0.969,1.5 2.157,1.5 2.062,0 3.187,-2.563 3.187,-3.063 0,-0.218 -0.156,-0.218 -0.219,-0.218 -0.187,0 -0.218,0.093 -0.281,0.218 -0.656,2.156 -2,2.625 -2.625,2.625 -0.781,0 -1.094,-0.625 -1.094,-1.312 0,-0.438 0.094,-0.875 0.313,-1.75 z"
       style="fill:#000000;fill-opacity:1;fill-rule:nonzero;stroke:none"
       transform="scale(1.3333333)" /><path
       id="path120"
       d="m 27.293,114.121 h -0.469 c -0.031,0.313 -0.187,1.125 -0.375,1.25 -0.094,0.094 -1.156,0.094 -1.375,0.094 h -2.562 c 1.468,-1.281 1.968,-1.688 2.781,-2.344 1.031,-0.812 2,-1.687 2,-3 0,-1.687 -1.469,-2.719 -3.25,-2.719 -1.719,0 -2.906,1.219 -2.906,2.5 0,0.688 0.593,0.782 0.75,0.782 0.312,0 0.718,-0.25 0.718,-0.75 0,-0.25 -0.093,-0.75 -0.812,-0.75 0.437,-0.969 1.375,-1.282 2.031,-1.282 1.406,0 2.125,1.094 2.125,2.219 0,1.219 -0.875,2.156 -1.312,2.656 l -3.344,3.344 c -0.156,0.125 -0.156,0.156 -0.156,0.531 h 5.75 z"
       style="fill:#000000;fill-opacity:1;fill-rule:nonzero;stroke:none"
       transform="scale(1.3333333)" /><path
       id="path121"
       d="M 440.594,118.125 H 524.57"
       style="fill:none;stroke:#000000;stroke-width:1.41732;stroke-linecap:round;stroke-linejoin:round;stroke-miterlimit:1;stroke-dasharray:none;stroke-opacity:1"
       transform="scale(1.3333333)" /><path
       id="path122"
       d="M 440.594,123.793 V 112.457"
       style="fill:none;stroke:#000000;stroke-width:1.41732;stroke-linecap:butt;stroke-linejoin:miter;stroke-miterlimit:4;stroke-dasharray:none;stroke-opacity:1"
       transform="scale(1.3333333)" /><path
       id="path123"
       d="M 524.57,123.793 V 112.457"
       style="fill:none;stroke:#000000;stroke-width:1.41732;stroke-linecap:butt;stroke-linejoin:miter;stroke-miterlimit:4;stroke-dasharray:none;stroke-opacity:1"
       transform="scale(1.3333333)" /><path
       id="path124"
       d="m 431.594,25.148 v 83.977"
       style="fill:none;stroke:#000000;stroke-width:1.41732;stroke-linecap:round;stroke-linejoin:round;stroke-miterlimit:1;stroke-dasharray:none;stroke-opacity:1"
       transform="scale(1.3333333)" /><path
       id="path125"
       d="m 25.148,-425.922 v -11.34"
       style="fill:none;stroke:#000000;stroke-width:1.41732;stroke-linecap:butt;stroke-linejoin:miter;stroke-miterlimit:4;stroke-dasharray:none;stroke-opacity:1"
       transform="matrix(0,1.3333333,-1.3333333,0,0,0)" /><path
       id="path126"
       d="m 109.125,-425.922 v -11.34"
       style="fill:none;stroke:#000000;stroke-width:1.41732;stroke-linecap:butt;stroke-linejoin:miter;stroke-miterlimit:4;stroke-dasharray:none;stroke-opacity:1"
       transform="matrix(0,1.3333333,-1.3333333,0,0,0)" /><path
       id="path127"
       d="m 362.23,151.805 v -0.813 h -1.937 v -18.344 h 1.937 v -0.812 h -2.75 v 19.969 z"
       style="fill:#000000;fill-opacity:1;fill-rule:nonzero;stroke:none"
       transform="scale(1.3333333)" /><path
       id="path128"
       d="m 369.328,140.773 c 0.125,-0.5 0.594,-2.343 1.969,-2.343 0.094,0 0.594,0 1,0.25 -0.563,0.125 -0.938,0.593 -0.938,1.093 0,0.313 0.219,0.688 0.75,0.688 0.438,0 1.063,-0.344 1.063,-1.156 0,-1.032 -1.156,-1.313 -1.844,-1.313 -1.156,0 -1.844,1.063 -2.094,1.5 -0.5,-1.312 -1.562,-1.5 -2.156,-1.5 -2.062,0 -3.219,2.563 -3.219,3.063 0,0.218 0.219,0.218 0.25,0.218 0.157,0 0.219,-0.062 0.25,-0.218 0.688,-2.125 2,-2.625 2.688,-2.625 0.375,0 1.062,0.187 1.062,1.343 0,0.625 -0.343,1.938 -1.062,4.75 -0.313,1.219 -1.031,2.063 -1.906,2.063 -0.125,0 -0.563,0 -1,-0.25 0.5,-0.125 0.937,-0.531 0.937,-1.094 0,-0.531 -0.437,-0.687 -0.719,-0.687 -0.625,0 -1.093,0.5 -1.093,1.156 0,0.906 0.968,1.312 1.843,1.312 1.344,0 2.063,-1.406 2.094,-1.5 0.25,0.719 0.969,1.5 2.156,1.5 2.063,0 3.188,-2.562 3.188,-3.062 0,-0.219 -0.156,-0.219 -0.219,-0.219 -0.187,0 -0.219,0.094 -0.281,0.219 -0.656,2.156 -2,2.625 -2.625,2.625 -0.781,0 -1.094,-0.625 -1.094,-1.313 0,-0.437 0.094,-0.875 0.313,-1.75 z"
       style="fill:#000000;fill-opacity:1;fill-rule:nonzero;stroke:none"
       transform="scale(1.3333333)" /><path
       id="path129"
       d="m 378.719,142.078 c 0,-0.375 0,-0.375 -0.407,-0.375 -0.906,0.875 -2.156,0.875 -2.718,0.875 v 0.5 c 0.312,0 1.25,0 2,-0.375 v 7.094 c 0,0.469 0,0.656 -1.375,0.656 h -0.531 v 0.5 c 0.25,0 1.968,-0.062 2.468,-0.062 0.438,0 2.188,0.062 2.5,0.062 v -0.5 h -0.531 c -1.406,0 -1.406,-0.187 -1.406,-0.656 z"
       style="fill:#000000;fill-opacity:1;fill-rule:nonzero;stroke:none"
       transform="scale(1.3333333)" /><path
       id="path130"
       d="m 387.062,146.773 c 0,-1.312 -0.5,-2.093 -1.281,-2.093 -0.656,0 -1.062,0.5 -1.062,1.062 0,0.531 0.406,1.063 1.062,1.063 0.219,0 0.5,-0.094 0.688,-0.25 0.062,-0.063 0.093,-0.063 0.093,-0.063 0.032,0 0.032,0 0.032,0.281 0,1.5 -0.688,2.688 -1.344,3.344 -0.219,0.219 -0.219,0.25 -0.219,0.313 0,0.156 0.094,0.218 0.188,0.218 0.219,0 1.843,-1.531 1.843,-3.875 z"
       style="fill:#000000;fill-opacity:1;fill-rule:nonzero;stroke:none"
       transform="scale(1.3333333)" /><path
       id="path131"
       d="m 398.52,140.773 c 0.125,-0.5 0.593,-2.343 1.968,-2.343 0.094,0 0.594,0 1,0.25 -0.562,0.125 -0.937,0.593 -0.937,1.093 0,0.313 0.219,0.688 0.75,0.688 0.437,0 1.062,-0.344 1.062,-1.156 0,-1.032 -1.156,-1.313 -1.843,-1.313 -1.157,0 -1.844,1.063 -2.094,1.5 -0.5,-1.312 -1.563,-1.5 -2.156,-1.5 -2.063,0 -3.219,2.563 -3.219,3.063 0,0.218 0.219,0.218 0.25,0.218 0.156,0 0.219,-0.062 0.25,-0.218 0.687,-2.125 2,-2.625 2.687,-2.625 0.375,0 1.063,0.187 1.063,1.343 0,0.625 -0.344,1.938 -1.063,4.75 -0.312,1.219 -1.031,2.063 -1.906,2.063 -0.125,0 -0.562,0 -1,-0.25 0.5,-0.125 0.938,-0.531 0.938,-1.094 0,-0.531 -0.438,-0.687 -0.719,-0.687 -0.625,0 -1.094,0.5 -1.094,1.156 0,0.906 0.969,1.312 1.844,1.312 1.344,0 2.062,-1.406 2.094,-1.5 0.25,0.719 0.968,1.5 2.156,1.5 2.062,0 3.187,-2.562 3.187,-3.062 0,-0.219 -0.156,-0.219 -0.218,-0.219 -0.188,0 -0.219,0.094 -0.282,0.219 -0.656,2.156 -2,2.625 -2.625,2.625 -0.781,0 -1.093,-0.625 -1.093,-1.313 0,-0.437 0.093,-0.875 0.312,-1.75 z"
       style="fill:#000000;fill-opacity:1;fill-rule:nonzero;stroke:none"
       transform="scale(1.3333333)" /><path
       id="path132"
       d="m 410.273,148.422 h -0.468 c -0.032,0.312 -0.188,1.125 -0.375,1.25 -0.094,0.094 -1.157,0.094 -1.375,0.094 h -2.563 c 1.469,-1.282 1.969,-1.688 2.781,-2.344 1.032,-0.813 2,-1.688 2,-3 0,-1.688 -1.468,-2.719 -3.25,-2.719 -1.718,0 -2.906,1.219 -2.906,2.5 0,0.688 0.594,0.781 0.75,0.781 0.313,0 0.719,-0.25 0.719,-0.75 0,-0.25 -0.094,-0.75 -0.813,-0.75 0.438,-0.968 1.375,-1.281 2.032,-1.281 1.406,0 2.125,1.094 2.125,2.219 0,1.219 -0.875,2.156 -1.313,2.656 l -3.344,3.344 c -0.156,0.125 -0.156,0.156 -0.156,0.531 h 5.75 z"
       style="fill:#000000;fill-opacity:1;fill-rule:nonzero;stroke:none"
       transform="scale(1.3333333)" /><path
       id="path133"
       d="m 415.34,131.836 h -2.719 v 0.812 h 1.938 v 18.344 h -1.938 v 0.813 h 2.719 z"
       style="fill:#000000;fill-opacity:1;fill-rule:nonzero;stroke:none"
       transform="scale(1.3333333)" /><path
       id="path134"
       d="m 416.305,130.477 22.578,-19.789"
       style="fill:none;stroke:#000000;stroke-width:0.708661;stroke-linecap:round;stroke-linejoin:round;stroke-miterlimit:1;stroke-dasharray:none;stroke-opacity:1"
       transform="scale(1.3333333)" /><path
       id="path135"
       d="m 194.926,280.152 -2.304,1.333 -0.001,-2.665 z"
       style="fill:#000000;fill-opacity:1;fill-rule:evenodd;stroke:#000000;stroke-width:0.35532;stroke-linecap:butt;stroke-linejoin:miter;stroke-miterlimit:4;stroke-dasharray:none;stroke-opacity:1"
       transform="matrix(1.3333333,-1.168392,1.168392,1.3333333,0,0)" /><path
       id="path136"
       d="m 254.805,20.254 c 0,-0.094 -0.063,-0.344 -0.344,-0.344 -0.031,0 -1.188,0.281 -1.813,0.844 -0.281,-0.313 -0.968,-0.844 -2.125,-0.844 -3.468,0 -5.625,3.125 -5.625,5.875 0,2.438 1.813,3.281 3.469,3.281 0.969,0 1.781,-0.375 2.188,-0.625 l -0.75,3.032 c -0.094,0.281 -0.125,0.312 -0.25,0.343 -0.219,0.032 -0.532,0.032 -0.75,0.032 -0.344,0 -0.469,0 -0.563,0.125 -0.094,0.093 -0.156,0.437 -0.156,0.437 0,0.125 0.062,0.375 0.406,0.375 0.656,0 1.406,-0.062 2.094,-0.062 0.75,0 1.5,0.062 2.219,0.062 0.125,0 0.531,0 0.531,-0.594 0,-0.343 -0.344,-0.343 -0.531,-0.343 -0.282,0 -0.594,0 -0.844,-0.032 z m -3.844,6.531 c -0.094,0.344 -0.094,0.375 -0.313,0.563 -0.625,0.656 -1.468,1 -2.156,1 -1.25,0 -1.344,-1.063 -1.344,-1.5 0,-1.063 0.657,-3.5 1,-4.282 0.594,-1.437 1.594,-1.937 2.407,-1.937 1.187,0 1.656,0.937 1.656,1.156 0,0.063 -0.031,0.219 -0.031,0.281 z"
       style="fill:#ff7d00;fill-opacity:1;fill-rule:nonzero;stroke:none"
       transform="scale(1.3333333)" /><path
       id="path137"
       d="m 262.129,33.691 c 0,-0.062 0,-0.093 -0.344,-0.437 -2.469,-2.5 -3.125,-6.281 -3.125,-9.344 0,-3.469 0.75,-6.937 3.219,-9.406 0.25,-0.25 0.25,-0.281 0.25,-0.344 0,-0.156 -0.063,-0.219 -0.188,-0.219 -0.218,0 -2,1.375 -3.187,3.907 -1,2.187 -1.25,4.406 -1.25,6.062 0,1.563 0.219,3.969 1.312,6.25 1.219,2.438 2.907,3.75 3.125,3.75 0.125,0 0.188,-0.062 0.188,-0.219 z"
       style="fill:#000000;fill-opacity:1;fill-rule:nonzero;stroke:none"
       transform="scale(1.3333333)" /><path
       id="path138"
       d="m 273.973,20.91 c -0.719,0.219 -1.063,0.875 -1.063,1.375 0,0.438 0.313,0.938 0.969,0.938 0.719,0 1.437,-0.594 1.437,-1.563 0,-1.062 -1.031,-1.75 -2.25,-1.75 -1.156,0 -1.875,0.844 -2.156,1.219 -0.5,-0.844 -1.594,-1.219 -2.75,-1.219 -2.5,0 -3.844,2.438 -3.844,3.094 0,0.281 0.282,0.281 0.469,0.281 0.25,0 0.375,0 0.469,-0.25 0.562,-1.812 2,-2.406 2.812,-2.406 0.75,0 1.125,0.344 1.125,0.969 0,0.406 -0.281,1.5 -0.468,2.218 l -0.688,2.719 c -0.281,1.219 -1,1.813 -1.687,1.813 -0.094,0 -0.563,0 -0.938,-0.282 0.719,-0.218 1.063,-0.906 1.063,-1.375 0,-0.437 -0.344,-0.937 -1,-0.937 -0.688,0 -1.438,0.594 -1.438,1.562 0,1.063 1.063,1.75 2.281,1.75 1.125,0 1.875,-0.843 2.125,-1.218 0.5,0.843 1.625,1.218 2.75,1.218 2.532,0 3.875,-2.437 3.875,-3.093 0,-0.282 -0.312,-0.282 -0.468,-0.282 -0.25,0 -0.375,0 -0.469,0.25 -0.563,1.813 -2,2.407 -2.844,2.407 -0.75,0 -1.094,-0.344 -1.094,-1 0,-0.407 0.25,-1.469 0.438,-2.219 0.125,-0.5 0.594,-2.375 0.687,-2.688 0.313,-1.218 1,-1.812 1.688,-1.812 0.125,0 0.562,0 0.969,0.281 z"
       style="fill:#000000;fill-opacity:1;fill-rule:nonzero;stroke:none"
       transform="scale(1.3333333)" /><path
       id="path139"
       d="m 282.164,23.91 c 0,-1.531 -0.219,-3.937 -1.312,-6.219 -1.188,-2.437 -2.907,-3.75 -3.094,-3.75 -0.125,0 -0.219,0.094 -0.219,0.219 0,0.063 0,0.094 0.375,0.469 1.969,1.969 3.094,5.125 3.094,9.281 0,3.438 -0.719,6.938 -3.188,9.438 -0.281,0.25 -0.281,0.281 -0.281,0.343 0,0.125 0.094,0.219 0.219,0.219 0.187,0 2,-1.375 3.156,-3.906 1.031,-2.188 1.25,-4.406 1.25,-6.094 z"
       style="fill:#000000;fill-opacity:1;fill-rule:nonzero;stroke:none"
       transform="scale(1.3333333)" /><path
       id="path140"
       d="m 303.391,22.379 c 0.312,0 0.687,0 0.687,-0.375 0,-0.406 -0.375,-0.406 -0.656,-0.406 h -11.938 c -0.281,0 -0.656,0 -0.656,0.406 0,0.375 0.375,0.375 0.656,0.375 z m 0.031,3.875 c 0.281,0 0.656,0 0.656,-0.406 0,-0.375 -0.375,-0.375 -0.687,-0.375 h -11.907 c -0.281,0 -0.656,0 -0.656,0.375 0,0.406 0.375,0.406 0.656,0.406 z"
       style="fill:#000000;fill-opacity:1;fill-rule:nonzero;stroke:none"
       transform="scale(1.3333333)" /><path
       id="path141"
       d="m 315.73,47.844 h 5.219 V 46.75 h -4.125 V 1.125 h 4.125 V 0 h -5.219 z"
       style="fill:#000000;fill-opacity:1;fill-rule:nonzero;stroke:none"
       transform="scale(1.3333333)" /><path
       id="path142"
       d="m 330.246,8.16 c 0,-0.094 -0.062,-0.187 -0.187,-0.187 -0.219,0 -1.032,0.781 -1.344,1.375 -0.438,-1.094 -1.219,-1.407 -1.875,-1.407 -2.344,0 -4.781,2.938 -4.781,5.844 0,1.938 1.156,3.188 2.625,3.188 0.843,0 1.625,-0.469 2.343,-1.188 -0.187,0.688 -0.843,3.375 -0.906,3.563 -0.156,0.562 -0.312,0.625 -1.437,0.656 -0.25,0 -0.438,0 -0.438,0.406 0,0 0,0.219 0.25,0.219 0.625,0 1.344,-0.063 2,-0.063 0.656,0 1.375,0.063 2.063,0.063 0.093,0 0.343,0 0.343,-0.406 0,-0.219 -0.187,-0.219 -0.531,-0.219 -0.937,0 -0.937,-0.125 -0.937,-0.313 0,-0.156 0.031,-0.281 0.062,-0.437 z m -5.5,8.375 c -1.219,0 -1.281,-1.531 -1.281,-1.875 0,-0.969 0.562,-3.125 0.906,-3.969 0.625,-1.468 1.656,-2.312 2.469,-2.312 1.312,0 1.594,1.625 1.594,1.75 0,0.125 -1.094,4.5 -1.157,4.562 -0.312,0.563 -1.437,1.844 -2.531,1.844 z"
       style="fill:#ff7d00;fill-opacity:1;fill-rule:nonzero;stroke:none"
       transform="scale(1.3333333)" /><path
       id="path143"
       d="m 334.797,12.031 c 0,-0.375 0,-0.375 -0.406,-0.375 -0.907,0.875 -2.157,0.875 -2.719,0.875 v 0.5 c 0.312,0 1.25,0 2,-0.375 v 7.094 c 0,0.469 0,0.656 -1.375,0.656 h -0.531 v 0.5 c 0.25,0 1.968,-0.062 2.468,-0.062 0.438,0 2.188,0.062 2.5,0.062 v -0.5 h -0.531 c -1.406,0 -1.406,-0.187 -1.406,-0.656 z"
       style="fill:#ff7d00;fill-opacity:1;fill-rule:nonzero;stroke:none"
       transform="scale(1.3333333)" /><path
       id="path144"
       d="m 345.672,21.535 c 0,-0.062 0,-0.094 -0.344,-0.437 -2.469,-2.5 -3.125,-6.282 -3.125,-9.344 0,-3.469 0.75,-6.938 3.219,-9.406 0.25,-0.25 0.25,-0.282 0.25,-0.344 0,-0.156 -0.063,-0.219 -0.188,-0.219 -0.218,0 -2,1.375 -3.187,3.906 -1,2.188 -1.25,4.407 -1.25,6.063 0,1.562 0.219,3.969 1.312,6.25 1.219,2.437 2.907,3.75 3.125,3.75 0.125,0 0.188,-0.063 0.188,-0.219 z"
       style="fill:#000000;fill-opacity:1;fill-rule:nonzero;stroke:none"
       transform="scale(1.3333333)" /><path
       id="path145"
       d="m 353.484,10.723 c 0.125,-0.5 0.594,-2.344 1.969,-2.344 0.094,0 0.594,0 1,0.25 -0.562,0.125 -0.937,0.594 -0.937,1.094 0,0.312 0.218,0.687 0.75,0.687 0.437,0 1.062,-0.344 1.062,-1.156 0,-1.031 -1.156,-1.313 -1.844,-1.313 -1.156,0 -1.843,1.063 -2.093,1.5 -0.5,-1.312 -1.563,-1.5 -2.157,-1.5 -2.062,0 -3.218,2.563 -3.218,3.063 0,0.219 0.218,0.219 0.25,0.219 0.156,0 0.218,-0.063 0.25,-0.219 0.687,-2.125 2,-2.625 2.687,-2.625 0.375,0 1.063,0.187 1.063,1.344 0,0.625 -0.344,1.937 -1.063,4.75 -0.312,1.218 -1.031,2.062 -1.906,2.062 -0.125,0 -0.563,0 -1,-0.25 0.5,-0.125 0.937,-0.531 0.937,-1.094 0,-0.531 -0.437,-0.687 -0.718,-0.687 -0.625,0 -1.094,0.5 -1.094,1.156 0,0.906 0.969,1.313 1.844,1.313 1.343,0 2.062,-1.407 2.093,-1.5 0.25,0.718 0.969,1.5 2.157,1.5 2.062,0 3.187,-2.563 3.187,-3.063 0,-0.219 -0.156,-0.219 -0.219,-0.219 -0.187,0 -0.218,0.094 -0.281,0.219 -0.656,2.156 -2,2.625 -2.625,2.625 -0.781,0 -1.094,-0.625 -1.094,-1.312 0,-0.438 0.094,-0.875 0.313,-1.75 z"
       style="fill:#000000;fill-opacity:1;fill-rule:nonzero;stroke:none"
       transform="scale(1.3333333)" /><path
       id="path146"
       d="m 362.871,12.031 c 0,-0.375 0,-0.375 -0.406,-0.375 -0.906,0.875 -2.156,0.875 -2.719,0.875 v 0.5 c 0.313,0 1.25,0 2,-0.375 v 7.094 c 0,0.469 0,0.656 -1.375,0.656 h -0.531 v 0.5 c 0.25,0 1.969,-0.062 2.469,-0.062 0.437,0 2.187,0.062 2.5,0.062 v -0.5 h -0.532 c -1.406,0 -1.406,-0.187 -1.406,-0.656 z"
       style="fill:#000000;fill-opacity:1;fill-rule:nonzero;stroke:none"
       transform="scale(1.3333333)" /><path
       id="path147"
       d="m 371.219,16.723 c 0,-1.313 -0.5,-2.094 -1.281,-2.094 -0.657,0 -1.063,0.5 -1.063,1.062 0,0.532 0.406,1.063 1.063,1.063 0.218,0 0.5,-0.094 0.687,-0.25 0.063,-0.063 0.094,-0.063 0.094,-0.063 0.031,0 0.031,0 0.031,0.282 0,1.5 -0.688,2.687 -1.344,3.343 -0.218,0.219 -0.218,0.25 -0.218,0.313 0,0.156 0.093,0.219 0.187,0.219 0.219,0 1.844,-1.532 1.844,-3.875 z"
       style="fill:#000000;fill-opacity:1;fill-rule:nonzero;stroke:none"
       transform="scale(1.3333333)" /><path
       id="path148"
       d="m 382.672,10.723 c 0.125,-0.5 0.594,-2.344 1.969,-2.344 0.093,0 0.593,0 1,0.25 -0.563,0.125 -0.938,0.594 -0.938,1.094 0,0.312 0.219,0.687 0.75,0.687 0.438,0 1.063,-0.344 1.063,-1.156 0,-1.031 -1.157,-1.313 -1.844,-1.313 -1.156,0 -1.844,1.063 -2.094,1.5 -0.5,-1.312 -1.562,-1.5 -2.156,-1.5 -2.063,0 -3.219,2.563 -3.219,3.063 0,0.219 0.219,0.219 0.25,0.219 0.156,0 0.219,-0.063 0.25,-0.219 0.688,-2.125 2,-2.625 2.688,-2.625 0.375,0 1.062,0.187 1.062,1.344 0,0.625 -0.344,1.937 -1.062,4.75 -0.313,1.218 -1.032,2.062 -1.907,2.062 -0.125,0 -0.562,0 -1,-0.25 0.5,-0.125 0.938,-0.531 0.938,-1.094 0,-0.531 -0.438,-0.687 -0.719,-0.687 -0.625,0 -1.094,0.5 -1.094,1.156 0,0.906 0.969,1.313 1.844,1.313 1.344,0 2.063,-1.407 2.094,-1.5 0.25,0.718 0.969,1.5 2.156,1.5 2.063,0 3.188,-2.563 3.188,-3.063 0,-0.219 -0.157,-0.219 -0.219,-0.219 -0.188,0 -0.219,0.094 -0.281,0.219 -0.657,2.156 -2,2.625 -2.625,2.625 -0.782,0 -1.094,-0.625 -1.094,-1.312 0,-0.438 0.094,-0.875 0.312,-1.75 z"
       style="fill:#000000;fill-opacity:1;fill-rule:nonzero;stroke:none"
       transform="scale(1.3333333)" /><path
       id="path149"
       d="m 394.43,18.375 h -0.469 c -0.031,0.313 -0.188,1.125 -0.375,1.25 -0.094,0.094 -1.156,0.094 -1.375,0.094 h -2.563 c 1.469,-1.281 1.969,-1.688 2.782,-2.344 1.031,-0.813 2,-1.687 2,-3 0,-1.687 -1.469,-2.719 -3.25,-2.719 -1.719,0 -2.907,1.219 -2.907,2.5 0,0.688 0.594,0.782 0.75,0.782 0.313,0 0.719,-0.25 0.719,-0.75 0,-0.25 -0.094,-0.75 -0.812,-0.75 0.437,-0.969 1.375,-1.282 2.031,-1.282 1.406,0 2.125,1.094 2.125,2.219 0,1.219 -0.875,2.156 -1.313,2.656 l -3.343,3.344 c -0.157,0.125 -0.157,0.156 -0.157,0.531 h 5.75 z"
       style="fill:#000000;fill-opacity:1;fill-rule:nonzero;stroke:none"
       transform="scale(1.3333333)" /><path
       id="path150"
       d="m 402.086,11.754 c 0,-1.531 -0.219,-3.938 -1.313,-6.219 -1.187,-2.437 -2.906,-3.75 -3.093,-3.75 -0.125,0 -0.219,0.094 -0.219,0.219 0,0.062 0,0.094 0.375,0.469 1.969,1.968 3.094,5.125 3.094,9.281 0,3.437 -0.719,6.937 -3.188,9.437 -0.281,0.25 -0.281,0.282 -0.281,0.344 0,0.125 0.094,0.219 0.219,0.219 0.187,0 2,-1.375 3.156,-3.906 1.031,-2.188 1.25,-4.407 1.25,-6.094 z"
       style="fill:#000000;fill-opacity:1;fill-rule:nonzero;stroke:none"
       transform="scale(1.3333333)" /><path
       id="path151"
       d="m 330.246,32.07 c 0,-0.093 -0.062,-0.187 -0.187,-0.187 -0.219,0 -1.032,0.781 -1.344,1.375 -0.438,-1.094 -1.219,-1.406 -1.875,-1.406 -2.344,0 -4.781,2.937 -4.781,5.843 0,1.938 1.156,3.188 2.625,3.188 0.843,0 1.625,-0.469 2.343,-1.188 -0.187,0.688 -0.843,3.375 -0.906,3.563 -0.156,0.562 -0.312,0.625 -1.437,0.656 -0.25,0 -0.438,0 -0.438,0.406 0,0 0,0.219 0.25,0.219 0.625,0 1.344,-0.062 2,-0.062 0.656,0 1.375,0.062 2.063,0.062 0.093,0 0.343,0 0.343,-0.406 0,-0.219 -0.187,-0.219 -0.531,-0.219 -0.937,0 -0.937,-0.125 -0.937,-0.312 0,-0.157 0.031,-0.282 0.062,-0.438 z m -5.5,8.375 c -1.219,0 -1.281,-1.531 -1.281,-1.875 0,-0.968 0.562,-3.125 0.906,-3.968 0.625,-1.469 1.656,-2.313 2.469,-2.313 1.312,0 1.594,1.625 1.594,1.75 0,0.125 -1.094,4.5 -1.157,4.563 -0.312,0.562 -1.437,1.843 -2.531,1.843 z"
       style="fill:#ff7d00;fill-opacity:1;fill-rule:nonzero;stroke:none"
       transform="scale(1.3333333)" /><path
       id="path152"
       d="m 337.172,42.285 h -0.469 c -0.031,0.313 -0.187,1.125 -0.375,1.25 -0.094,0.094 -1.156,0.094 -1.375,0.094 h -2.562 c 1.468,-1.281 1.968,-1.688 2.781,-2.344 1.031,-0.812 2,-1.687 2,-3 0,-1.687 -1.469,-2.719 -3.25,-2.719 -1.719,0 -2.906,1.219 -2.906,2.5 0,0.688 0.593,0.782 0.75,0.782 0.312,0 0.718,-0.25 0.718,-0.75 0,-0.25 -0.093,-0.75 -0.812,-0.75 0.437,-0.969 1.375,-1.282 2.031,-1.282 1.406,0 2.125,1.094 2.125,2.219 0,1.219 -0.875,2.156 -1.312,2.656 l -3.344,3.344 c -0.156,0.125 -0.156,0.156 -0.156,0.531 h 5.75 z"
       style="fill:#ff7d00;fill-opacity:1;fill-rule:nonzero;stroke:none"
       transform="scale(1.3333333)" /><path
       id="path153"
       d="m 345.672,45.445 c 0,-0.062 0,-0.093 -0.344,-0.437 -2.469,-2.5 -3.125,-6.281 -3.125,-9.344 0,-3.469 0.75,-6.937 3.219,-9.406 0.25,-0.25 0.25,-0.281 0.25,-0.344 0,-0.156 -0.063,-0.219 -0.188,-0.219 -0.218,0 -2,1.375 -3.187,3.907 -1,2.187 -1.25,4.406 -1.25,6.062 0,1.563 0.219,3.969 1.312,6.25 1.219,2.438 2.907,3.75 3.125,3.75 0.125,0 0.188,-0.062 0.188,-0.219 z"
       style="fill:#000000;fill-opacity:1;fill-rule:nonzero;stroke:none"
       transform="scale(1.3333333)" /><path
       id="path154"
       d="m 353.484,34.633 c 0.125,-0.5 0.594,-2.344 1.969,-2.344 0.094,0 0.594,0 1,0.25 -0.562,0.125 -0.937,0.594 -0.937,1.094 0,0.312 0.218,0.687 0.75,0.687 0.437,0 1.062,-0.343 1.062,-1.156 0,-1.031 -1.156,-1.312 -1.844,-1.312 -1.156,0 -1.843,1.062 -2.093,1.5 -0.5,-1.313 -1.563,-1.5 -2.157,-1.5 -2.062,0 -3.218,2.562 -3.218,3.062 0,0.219 0.218,0.219 0.25,0.219 0.156,0 0.218,-0.063 0.25,-0.219 0.687,-2.125 2,-2.625 2.687,-2.625 0.375,0 1.063,0.188 1.063,1.344 0,0.625 -0.344,1.937 -1.063,4.75 -0.312,1.219 -1.031,2.062 -1.906,2.062 -0.125,0 -0.563,0 -1,-0.25 0.5,-0.125 0.937,-0.531 0.937,-1.093 0,-0.532 -0.437,-0.688 -0.718,-0.688 -0.625,0 -1.094,0.5 -1.094,1.156 0,0.907 0.969,1.313 1.844,1.313 1.343,0 2.062,-1.406 2.093,-1.5 0.25,0.719 0.969,1.5 2.157,1.5 2.062,0 3.187,-2.563 3.187,-3.063 0,-0.218 -0.156,-0.218 -0.219,-0.218 -0.187,0 -0.218,0.093 -0.281,0.218 -0.656,2.157 -2,2.625 -2.625,2.625 -0.781,0 -1.094,-0.625 -1.094,-1.312 0,-0.438 0.094,-0.875 0.313,-1.75 z"
       style="fill:#000000;fill-opacity:1;fill-rule:nonzero;stroke:none"
       transform="scale(1.3333333)" /><path
       id="path155"
       d="m 362.871,35.941 c 0,-0.375 0,-0.375 -0.406,-0.375 -0.906,0.875 -2.156,0.875 -2.719,0.875 v 0.5 c 0.313,0 1.25,0 2,-0.375 v 7.094 c 0,0.469 0,0.656 -1.375,0.656 h -0.531 v 0.5 c 0.25,0 1.969,-0.062 2.469,-0.062 0.437,0 2.187,0.062 2.5,0.062 v -0.5 h -0.532 c -1.406,0 -1.406,-0.187 -1.406,-0.656 z"
       style="fill:#000000;fill-opacity:1;fill-rule:nonzero;stroke:none"
       transform="scale(1.3333333)" /><path
       id="path156"
       d="m 371.219,40.633 c 0,-1.313 -0.5,-2.094 -1.281,-2.094 -0.657,0 -1.063,0.5 -1.063,1.063 0,0.531 0.406,1.062 1.063,1.062 0.218,0 0.5,-0.094 0.687,-0.25 0.063,-0.062 0.094,-0.062 0.094,-0.062 0.031,0 0.031,0 0.031,0.281 0,1.5 -0.688,2.687 -1.344,3.344 -0.218,0.218 -0.218,0.25 -0.218,0.312 0,0.156 0.093,0.219 0.187,0.219 0.219,0 1.844,-1.531 1.844,-3.875 z"
       style="fill:#000000;fill-opacity:1;fill-rule:nonzero;stroke:none"
       transform="scale(1.3333333)" /><path
       id="path157"
       d="m 382.672,34.633 c 0.125,-0.5 0.594,-2.344 1.969,-2.344 0.093,0 0.593,0 1,0.25 -0.563,0.125 -0.938,0.594 -0.938,1.094 0,0.312 0.219,0.687 0.75,0.687 0.438,0 1.063,-0.343 1.063,-1.156 0,-1.031 -1.157,-1.312 -1.844,-1.312 -1.156,0 -1.844,1.062 -2.094,1.5 -0.5,-1.313 -1.562,-1.5 -2.156,-1.5 -2.063,0 -3.219,2.562 -3.219,3.062 0,0.219 0.219,0.219 0.25,0.219 0.156,0 0.219,-0.063 0.25,-0.219 0.688,-2.125 2,-2.625 2.688,-2.625 0.375,0 1.062,0.188 1.062,1.344 0,0.625 -0.344,1.937 -1.062,4.75 -0.313,1.219 -1.032,2.062 -1.907,2.062 -0.125,0 -0.562,0 -1,-0.25 0.5,-0.125 0.938,-0.531 0.938,-1.093 0,-0.532 -0.438,-0.688 -0.719,-0.688 -0.625,0 -1.094,0.5 -1.094,1.156 0,0.907 0.969,1.313 1.844,1.313 1.344,0 2.063,-1.406 2.094,-1.5 0.25,0.719 0.969,1.5 2.156,1.5 2.063,0 3.188,-2.563 3.188,-3.063 0,-0.218 -0.157,-0.218 -0.219,-0.218 -0.188,0 -0.219,0.093 -0.281,0.218 -0.657,2.157 -2,2.625 -2.625,2.625 -0.782,0 -1.094,-0.625 -1.094,-1.312 0,-0.438 0.094,-0.875 0.312,-1.75 z"
       style="fill:#000000;fill-opacity:1;fill-rule:nonzero;stroke:none"
       transform="scale(1.3333333)" /><path
       id="path158"
       d="m 394.43,42.285 h -0.469 c -0.031,0.313 -0.188,1.125 -0.375,1.25 -0.094,0.094 -1.156,0.094 -1.375,0.094 h -2.563 c 1.469,-1.281 1.969,-1.688 2.782,-2.344 1.031,-0.812 2,-1.687 2,-3 0,-1.687 -1.469,-2.719 -3.25,-2.719 -1.719,0 -2.907,1.219 -2.907,2.5 0,0.688 0.594,0.782 0.75,0.782 0.313,0 0.719,-0.25 0.719,-0.75 0,-0.25 -0.094,-0.75 -0.812,-0.75 0.437,-0.969 1.375,-1.282 2.031,-1.282 1.406,0 2.125,1.094 2.125,2.219 0,1.219 -0.875,2.156 -1.313,2.656 l -3.343,3.344 c -0.157,0.125 -0.157,0.156 -0.157,0.531 h 5.75 z"
       style="fill:#000000;fill-opacity:1;fill-rule:nonzero;stroke:none"
       transform="scale(1.3333333)" /><path
       id="path159"
       d="m 402.086,35.664 c 0,-1.531 -0.219,-3.937 -1.313,-6.219 -1.187,-2.437 -2.906,-3.75 -3.093,-3.75 -0.125,0 -0.219,0.094 -0.219,0.219 0,0.063 0,0.094 0.375,0.469 1.969,1.969 3.094,5.125 3.094,9.281 0,3.438 -0.719,6.938 -3.188,9.438 -0.281,0.25 -0.281,0.281 -0.281,0.343 0,0.125 0.094,0.219 0.219,0.219 0.187,0 2,-1.375 3.156,-3.906 1.031,-2.188 1.25,-4.406 1.25,-6.094 z"
       style="fill:#000000;fill-opacity:1;fill-rule:nonzero;stroke:none"
       transform="scale(1.3333333)" /><path
       id="path160"
       d="m 408.523,46.754 h -4.156 v 1.094 h 5.25 V 0.004 h -5.25 v 1.125 h 4.156 z"
       style="fill:#000000;fill-opacity:1;fill-rule:nonzero;stroke:none"
       transform="scale(1.3333333)" /></g></svg>
