<?xml version="1.0" encoding="UTF-8" standalone="no"?>
<!-- Created with Inkscape (http://www.inkscape.org/) -->

<svg
   width="207.9064mm"
   height="52.712761mm"
   viewBox="0 0 207.9064 52.712761"
   version="1.1"
   id="svg1"
   inkscape:version="1.4 (e7c3feb1, 2024-10-09)"
   sodipodi:docname="divergencethm_split.svg"
   xmlns:inkscape="http://www.inkscape.org/namespaces/inkscape"
   xmlns:sodipodi="http://sodipodi.sourceforge.net/DTD/sodipodi-0.dtd"
   xmlns="http://www.w3.org/2000/svg"
   xmlns:svg="http://www.w3.org/2000/svg"
   xmlns:ns3="http://www.iki.fi/pav/software/textext/">
  <sodipodi:namedview
     id="namedview1"
     pagecolor="#ffffff"
     bordercolor="#000000"
     borderopacity="0.25"
     inkscape:showpageshadow="2"
     inkscape:pageopacity="0.0"
     inkscape:pagecheckerboard="0"
     inkscape:deskcolor="#d1d1d1"
     inkscape:document-units="mm"
     inkscape:zoom="1.5196428"
     inkscape:cx="469.1892"
     inkscape:cy="73.372505"
     inkscape:window-width="2208"
     inkscape:window-height="1186"
     inkscape:window-x="169"
     inkscape:window-y="617"
     inkscape:window-maximized="0"
     inkscape:current-layer="layer1" />
  <defs
     id="defs1">
    <marker
       style="overflow:visible"
       id="Triangle"
       refX="0"
       refY="0"
       orient="auto-start-reverse"
       inkscape:stockid="Triangle arrow"
       markerWidth="1"
       markerHeight="1"
       viewBox="0 0 1 1"
       inkscape:isstock="true"
       inkscape:collect="always"
       preserveAspectRatio="xMidYMid">
      <path
         transform="scale(0.5)"
         style="fill:context-stroke;fill-rule:evenodd;stroke:context-stroke;stroke-width:1pt"
         d="M 5.77,0 -2.88,5 V -5 Z"
         id="path135" />
    </marker>
  </defs>
  <g
     inkscape:label="Layer 1"
     inkscape:groupmode="layer"
     id="layer1"
     transform="translate(-8.3442678,-33.295934)">
    <path
       id="path84"
       style="fill:#e6e6e6;fill-opacity:1;stroke:#000000;stroke-width:0.750001;stroke-linecap:round;stroke-linejoin:round;stroke-miterlimit:0;stroke-opacity:1"
       d="m 152.39007,76.344924 c -3.44746,1.176122 -7.43999,2.263224 -12.07555,3.305248 -20.95122,4.709613 -39.71747,-9.181791 -39.00148,-20.457382 1.47175,-23.177641 19.56969,-8.293133 30.65239,-12.730868 z"
       sodipodi:nodetypes="csscc" />
    <path
       id="path35"
       style="fill:#e6e6e6;fill-opacity:1;stroke:#000000;stroke-width:0.75;stroke-linecap:round;stroke-linejoin:round;stroke-miterlimit:0;stroke-dasharray:none;stroke-opacity:1"
       d="m 162.53251,50.254261 v 0 c 12.50054,-5.005464 13.22135,-9.49262 24.24404,-9.49262 21.53993,0 20.45738,10.630837 16.63082,21.634786 v 0 c -2.8924,8.317585 -8.26847,13.584958 -20.45022,17.740836 z"
       sodipodi:nodetypes="cssssc" />
    <path
       id="path1"
       style="fill:#e6e6e6;fill-opacity:1;stroke:#000000;stroke-width:0.750001;stroke-linecap:round;stroke-linejoin:round;stroke-miterlimit:0;stroke-opacity:1"
       d="M 90.365706,57.25124 C 86.654759,67.922718 78.85545,73.57326 57.839941,78.297324 36.888716,83.006937 18.122466,69.115533 18.838453,57.839942 20.310207,34.662301 38.408148,49.546809 49.490852,45.109074 c 12.50054,-5.005464 13.22135,-9.49262 24.244034,-9.49262 21.539929,0 20.457382,10.630837 16.63082,21.634786 z"
       sodipodi:nodetypes="ssssss" />
    <path
       style="fill:none;stroke:#000000;stroke-width:0.75;stroke-linecap:butt;stroke-linejoin:round;stroke-miterlimit:0;stroke-dasharray:0.75, 0.75;stroke-dashoffset:0;stroke-opacity:1"
       d="M 49.490852,45.109074 69.891687,75.000191"
       id="path29" />
    <path
       style="fill:none;stroke:#ff7d00;stroke-width:0.750003;stroke-linecap:round;stroke-linejoin:round;stroke-miterlimit:0;stroke-dasharray:none;stroke-opacity:1;marker-end:url(#Triangle)"
       d="m 22.070766,50.111301 10.59663,-2.94351"
       id="path2"
       sodipodi:nodetypes="cc" />
    <path
       style="fill:none;stroke:#ff7d00;stroke-width:0.75;stroke-linecap:round;stroke-linejoin:round;stroke-miterlimit:0;stroke-dasharray:none;stroke-opacity:1;marker-end:url(#Triangle)"
       d="m 33.650384,48.871053 9.411212,-1.058706"
       id="path3"
       sodipodi:nodetypes="cc" />
    <path
       style="fill:none;stroke:#ff7d00;stroke-width:0.75;stroke-linecap:round;stroke-linejoin:round;stroke-miterlimit:0;stroke-dasharray:none;stroke-opacity:1;marker-end:url(#Triangle)"
       d="M 44.102241,49.420631 52.49369,48.361925"
       id="path4"
       sodipodi:nodetypes="cc" />
    <path
       style="fill:none;stroke:#ff7d00;stroke-width:0.75;stroke-linecap:round;stroke-linejoin:round;stroke-miterlimit:0;stroke-dasharray:none;stroke-opacity:1;marker-end:url(#Triangle)"
       d="m 61.852933,39.577212 6.466164,-1.058706"
       id="path5"
       sodipodi:nodetypes="cc" />
    <path
       style="fill:none;stroke:#ff7d00;stroke-width:0.750003;stroke-linecap:round;stroke-linejoin:round;stroke-miterlimit:0;stroke-dasharray:none;stroke-opacity:1;marker-end:url(#Triangle)"
       d="m 51.951822,45.481319 7.264662,-2.94351"
       id="path6"
       sodipodi:nodetypes="cc" />
    <path
       style="fill:none;stroke:#ff7d00;stroke-width:0.750003;stroke-linecap:round;stroke-linejoin:round;stroke-miterlimit:0;stroke-dasharray:none;stroke-opacity:1;marker-end:url(#Triangle)"
       d="m 23.408415,54.274562 10.59663,-2.94351"
       id="path7"
       sodipodi:nodetypes="cc" />
    <path
       style="fill:none;stroke:#ff7d00;stroke-width:0.75;stroke-linecap:round;stroke-linejoin:round;stroke-miterlimit:0;stroke-dasharray:none;stroke-opacity:1;marker-end:url(#Triangle)"
       d="m 30.352918,54.84771 c 0.920792,0.16236 10.946778,-1.058706 10.946778,-1.058706"
       id="path8" />
    <path
       style="fill:none;stroke:#ff7d00;stroke-width:0.75;stroke-linecap:round;stroke-linejoin:round;stroke-miterlimit:0;stroke-dasharray:none;stroke-opacity:1;marker-end:url(#Triangle)"
       d="m 42.94132,55.878169 8.391448,-1.058706"
       id="path9"
       sodipodi:nodetypes="cc" />
    <path
       style="fill:none;stroke:#ff7d00;stroke-width:0.75;stroke-linecap:round;stroke-linejoin:round;stroke-miterlimit:0;stroke-dasharray:none;stroke-opacity:1;marker-end:url(#Triangle)"
       d="m 61.487724,46.03475 6.466163,-1.058706"
       id="path10"
       sodipodi:nodetypes="cc" />
    <path
       style="fill:none;stroke:#ff7d00;stroke-width:0.750003;stroke-linecap:round;stroke-linejoin:round;stroke-miterlimit:0;stroke-dasharray:none;stroke-opacity:1;marker-end:url(#Triangle)"
       d="m 51.527955,51.938857 7.264662,-2.94351"
       id="path11"
       sodipodi:nodetypes="cc" />
    <path
       style="fill:none;stroke:#ff7d00;stroke-width:0.750003;stroke-linecap:round;stroke-linejoin:round;stroke-miterlimit:0;stroke-dasharray:none;stroke-opacity:1;marker-end:url(#Triangle)"
       d="m 39.803766,75.820557 8.404892,0.858266"
       id="path12"
       sodipodi:nodetypes="cc" />
    <path
       style="fill:none;stroke:#ff7d00;stroke-width:0.75;stroke-linecap:round;stroke-linejoin:round;stroke-miterlimit:0;stroke-dasharray:none;stroke-opacity:1;marker-end:url(#Triangle)"
       d="m 28.399336,70.696726 10.648705,2.74916"
       id="path13"
       sodipodi:nodetypes="cc" />
    <path
       style="fill:none;stroke:#ff7d00;stroke-width:0.75;stroke-linecap:round;stroke-linejoin:round;stroke-miterlimit:0;stroke-dasharray:none;stroke-opacity:1;marker-end:url(#Triangle)"
       d="m 23.864753,65.803655 10.648706,2.74916"
       id="path14"
       sodipodi:nodetypes="cc" />
    <path
       style="fill:none;stroke:#ff7d00;stroke-width:0.75;stroke-linecap:round;stroke-linejoin:round;stroke-miterlimit:0;stroke-dasharray:none;stroke-opacity:1;marker-end:url(#Triangle)"
       d="m 21.084887,60.762795 c 0.80973,0.467498 10.648705,2.74916 10.648705,2.74916"
       id="path15" />
    <path
       style="fill:none;stroke:#ff7d00;stroke-width:0.750003;stroke-linecap:round;stroke-linejoin:round;stroke-miterlimit:0;stroke-dasharray:none;stroke-opacity:1;marker-end:url(#Triangle)"
       d="m 41.688607,71.647161 8.404892,0.858267"
       id="path16"
       sodipodi:nodetypes="cc" />
    <path
       style="fill:none;stroke:#ff7d00;stroke-width:0.750003;stroke-linecap:round;stroke-linejoin:round;stroke-miterlimit:0;stroke-dasharray:none;stroke-opacity:1;marker-end:url(#Triangle)"
       d="m 36.79176,67.594025 9.769264,0.858267"
       id="path17"
       sodipodi:nodetypes="cc" />
    <path
       style="fill:none;stroke:#ff7d00;stroke-width:0.750003;stroke-linecap:round;stroke-linejoin:round;stroke-miterlimit:0;stroke-dasharray:none;stroke-opacity:1;marker-end:url(#Triangle)"
       d="M 22.124068,57.770323 33.088383,58.62859"
       id="path18"
       sodipodi:nodetypes="cc" />
    <path
       style="fill:none;stroke:#ff7d00;stroke-width:0.750003;stroke-linecap:round;stroke-linejoin:round;stroke-miterlimit:0;stroke-dasharray:none;stroke-opacity:1;marker-end:url(#Triangle)"
       d="m 34.833052,62.716523 9.769264,0.858267"
       id="path19"
       sodipodi:nodetypes="cc" />
    <path
       style="fill:none;stroke:#ff7d00;stroke-width:0.750003;stroke-linecap:round;stroke-linejoin:round;stroke-miterlimit:0;stroke-dasharray:none;stroke-opacity:1;marker-end:url(#Triangle)"
       d="m 37.342646,58.182507 9.769264,0.858267"
       id="path20"
       sodipodi:nodetypes="cc" />
    <path
       style="fill:none;stroke:#ff7d00;stroke-width:0.75;stroke-linecap:round;stroke-linejoin:round;stroke-miterlimit:0;stroke-dasharray:none;stroke-opacity:1;marker-end:url(#Triangle)"
       d="m 49.45989,61.099157 7.504709,-1.058706"
       id="path21"
       sodipodi:nodetypes="cc" />
    <path
       style="fill:none;stroke:#ff7d00;stroke-width:0.75;stroke-linecap:round;stroke-linejoin:round;stroke-miterlimit:0;stroke-dasharray:none;stroke-opacity:1;marker-end:url(#Triangle)"
       d="M 56.975257,55.191197 63.44142,54.132491"
       id="path22"
       sodipodi:nodetypes="cc" />
    <path
       style="fill:none;stroke:#ff7d00;stroke-width:0.75;stroke-linecap:round;stroke-linejoin:round;stroke-miterlimit:0;stroke-dasharray:none;stroke-opacity:1;marker-end:url(#Triangle)"
       d="m 63.597823,50.22528 6.466162,-1.058706"
       id="path23"
       sodipodi:nodetypes="cc" />
    <path
       style="fill:none;stroke:#ff7d00;stroke-width:0.750003;stroke-linecap:round;stroke-linejoin:round;stroke-miterlimit:0;stroke-dasharray:none;stroke-opacity:1;marker-end:url(#Triangle)"
       d="m 49.013362,65.565175 8.88921,-0.100601"
       id="path24"
       sodipodi:nodetypes="cc" />
    <path
       style="fill:none;stroke:#ff7d00;stroke-width:0.750003;stroke-linecap:round;stroke-linejoin:round;stroke-miterlimit:0;stroke-dasharray:none;stroke-opacity:1;marker-end:url(#Triangle)"
       d="m 54.927245,75.659783 8.44394,-2.943509"
       id="path25"
       sodipodi:nodetypes="cc" />
    <path
       style="fill:none;stroke:#ff7d00;stroke-width:0.750003;stroke-linecap:round;stroke-linejoin:round;stroke-miterlimit:0;stroke-dasharray:none;stroke-opacity:1;marker-end:url(#Triangle)"
       d="m 55.066279,70.697455 8.616234,-2.008751"
       id="path26"
       sodipodi:nodetypes="cc" />
    <path
       style="fill:none;stroke:#ff7d00;stroke-width:0.750003;stroke-linecap:round;stroke-linejoin:round;stroke-miterlimit:0;stroke-dasharray:none;stroke-opacity:1;marker-end:url(#Triangle)"
       d="M 60.429626,62.659881 66.816679,60.65113"
       id="path27"
       sodipodi:nodetypes="cc" />
    <path
       style="fill:none;stroke:#ff7d00;stroke-width:0.75;stroke-linecap:round;stroke-linejoin:round;stroke-miterlimit:0;stroke-dasharray:none;stroke-opacity:1;marker-end:url(#Triangle)"
       d="m 72.12027,45.224142 6.466164,-1.058706"
       id="path28"
       sodipodi:nodetypes="cc" />
    <path
       style="fill:none;stroke:#ff7d00;stroke-width:0.75;stroke-linecap:round;stroke-linejoin:round;stroke-miterlimit:0;stroke-dasharray:none;stroke-opacity:1;marker-end:url(#Triangle)"
       d="M 63.093391,57.334568 70.5981,56.275862"
       id="path30"
       sodipodi:nodetypes="cc" />
    <path
       style="fill:none;stroke:#ff7d00;stroke-width:0.75;stroke-linecap:round;stroke-linejoin:round;stroke-miterlimit:0;stroke-dasharray:none;stroke-opacity:1;marker-end:url(#Triangle)"
       d="M 74.002555,49.552066 80.468717,48.49336"
       id="path31"
       sodipodi:nodetypes="cc" />
    <path
       style="fill:none;stroke:#ff7d00;stroke-width:0.750002;stroke-linecap:round;stroke-linejoin:round;stroke-miterlimit:0;stroke-dasharray:none;stroke-opacity:1;marker-end:url(#Triangle)"
       d="M 74.325388,54.037801 79.117046,53.9372"
       id="path32"
       sodipodi:nodetypes="cc" />
    <path
       style="fill:none;stroke:#ff7d00;stroke-width:0.750003;stroke-linecap:round;stroke-linejoin:round;stroke-miterlimit:0;stroke-dasharray:none;stroke-opacity:1;marker-end:url(#Triangle)"
       d="m 68.285957,70.796039 8.44394,-2.943509"
       id="path33"
       sodipodi:nodetypes="cc" />
    <path
       style="fill:none;stroke:#ff7d00;stroke-width:0.750003;stroke-linecap:round;stroke-linejoin:round;stroke-miterlimit:0;stroke-dasharray:none;stroke-opacity:1;marker-end:url(#Triangle)"
       d="M 68.424991,65.833711 77.041225,63.82496"
       id="path34"
       sodipodi:nodetypes="cc" />
    <path
       style="fill:none;stroke:#ff7d00;stroke-width:0.750002;stroke-linecap:round;stroke-linejoin:round;stroke-miterlimit:0;stroke-dasharray:none;stroke-opacity:1;marker-end:url(#Triangle)"
       d="m 72.676655,38.580927 4.791658,-0.100601"
       id="path36"
       sodipodi:nodetypes="cc" />
    <path
       style="fill:none;stroke:#ff7d00;stroke-width:0.750002;stroke-linecap:round;stroke-linejoin:round;stroke-miterlimit:0;stroke-dasharray:none;stroke-opacity:1;marker-end:url(#Triangle)"
       d="m 72.264471,59.190092 4.791658,-0.100601"
       id="path37"
       sodipodi:nodetypes="cc" />
    <path
       style="fill:none;stroke:#ff7d00;stroke-width:0.750002;stroke-linecap:round;stroke-linejoin:round;stroke-miterlimit:0;stroke-dasharray:none;stroke-opacity:1;marker-end:url(#Triangle)"
       d="M 82.396728,55.755231 86.308559,55.65463"
       id="path40"
       sodipodi:nodetypes="cc" />
    <path
       style="fill:none;stroke:#ff7d00;stroke-width:0.750002;stroke-linecap:round;stroke-linejoin:round;stroke-miterlimit:0;stroke-dasharray:none;stroke-opacity:1;marker-end:url(#Triangle)"
       d="m 81.05073,40.298357 3.911831,-0.100601"
       id="path41"
       sodipodi:nodetypes="cc" />
    <path
       style="fill:none;stroke:#ff7d00;stroke-width:0.750002;stroke-linecap:round;stroke-linejoin:round;stroke-miterlimit:0;stroke-dasharray:none;stroke-opacity:1;marker-end:url(#Triangle)"
       d="M 80.714229,60.907522 84.62606,60.806921"
       id="path42"
       sodipodi:nodetypes="cc" />
    <path
       style="fill:none;stroke:#ff7d00;stroke-width:0.750002;stroke-linecap:round;stroke-linejoin:round;stroke-miterlimit:0;stroke-dasharray:none;stroke-opacity:1;marker-end:url(#Triangle)"
       d="M 82.637229,50.636379 86.527017,50.11854"
       id="path43"
       sodipodi:nodetypes="cc" />
    <path
       style="fill:none;stroke:#ff7d00;stroke-width:0.750002;stroke-linecap:round;stroke-linejoin:round;stroke-miterlimit:0;stroke-dasharray:none;stroke-opacity:1;marker-end:url(#Triangle)"
       d="m 82.677623,44.969898 3.911831,-0.100601"
       id="path44"
       sodipodi:nodetypes="cc" />
    <path
       style="fill:none;fill-opacity:1;stroke:#000000;stroke-width:0.5;stroke-linecap:round;stroke-linejoin:round;stroke-miterlimit:0;stroke-dasharray:none;stroke-opacity:1;marker-start:url(#Triangle);marker-end:url(#Triangle)"
       d="m 9.8831141,73.452278 v 9.625001 h 9.6250009"
       id="path78" />
    <g
       transform="matrix(0.705556,0,0,0.705556,22.064851,81.435987)"
       ns3:version="1.10.2"
       ns3:texconverter="pdflatex"
       ns3:pdfconverter="inkscape"
       ns3:text="$x_1$"
       ns3:preamble="/Users/knutan/Library/Application Support/org.inkscape.Inkscape/config/inkscape/extensions/textext/default_packages.tex"
       ns3:scale="1.9999999716535612"
       ns3:alignment="middle center"
       ns3:stroke-to-path="0"
       ns3:inkscapeversion="1.4"
       ns3:jacobian_sqrt="0.705556"
       id="g92">
      <defs
         id="id-fd498ccc-3d8d-4982-b4a4-e7663c4c1dae">
        <g
           id="id-012878c0-b2dd-47db-b069-8ad2db0554ce">
          <g
             id="id-69f54821-ecd5-43c8-b9ed-1642731e1176">
            <path
               d="M 3.328125,-3.015625 C 3.390625,-3.265625 3.625,-4.1875 4.3125,-4.1875 c 0.046875,0 0.296875,0 0.5,0.125 C 4.53125,-4 4.34375,-3.765625 4.34375,-3.515625 c 0,0.15625 0.109375,0.34375 0.375,0.34375 0.21875,0 0.53125,-0.171875 0.53125,-0.578125 0,-0.515625 -0.578125,-0.65625 -0.921875,-0.65625 -0.578125,0 -0.921875,0.53125 -1.046875,0.75 -0.25,-0.65625 -0.78125,-0.75 -1.078125,-0.75 -1.03125,0 -1.609375,1.28125 -1.609375,1.53125 0,0.109375 0.109375,0.109375 0.125,0.109375 0.078125,0 0.109375,-0.03125 0.125,-0.109375 0.34375,-1.0625 1,-1.3125 1.34375,-1.3125 0.1875,0 0.53125,0.09375 0.53125,0.671875 0,0.3125 -0.171875,0.96875 -0.53125,2.375 -0.15625,0.609375 -0.515625,1.03125 -0.953125,1.03125 -0.0625,0 -0.28125,0 -0.5,-0.125 0.25,-0.0625 0.46875,-0.265625 0.46875,-0.546875 0,-0.265625 -0.21875,-0.34375 -0.359375,-0.34375 -0.3125,0 -0.546875,0.25 -0.546875,0.578125 0,0.453125 0.484375,0.65625 0.921875,0.65625 0.671875,0 1.03125,-0.703125 1.046875,-0.75 0.125,0.359375 0.484375,0.75 1.078125,0.75 1.03125,0 1.59375,-1.28125 1.59375,-1.53125 0,-0.109375 -0.078125,-0.109375 -0.109375,-0.109375 -0.09375,0 -0.109375,0.046875 -0.140625,0.109375 -0.328125,1.078125 -1,1.3125 -1.3125,1.3125 -0.390625,0 -0.546875,-0.3125 -0.546875,-0.65625 0,-0.21875 0.046875,-0.4375 0.15625,-0.875 z m 0,0"
               id="id-814ecffc-5c98-4e29-8e24-9272776652bf" />
          </g>
          <g
             id="id-2f78ae54-43d2-4f4f-9d2b-ebbcf718d340">
            <path
               d="m 2.328125,-4.4375 c 0,-0.1875 0,-0.1875 -0.203125,-0.1875 -0.453125,0.4375 -1.078125,0.4375 -1.359375,0.4375 v 0.25 c 0.15625,0 0.625,0 1,-0.1875 v 3.546875 c 0,0.234375 0,0.328125 -0.6875,0.328125 H 0.8125 V 0 c 0.125,0 0.984375,-0.03125 1.234375,-0.03125 0.21875,0 1.09375,0.03125 1.25,0.03125 V -0.25 H 3.03125 c -0.703125,0 -0.703125,-0.09375 -0.703125,-0.328125 z m 0,0"
               id="id-3f5bd48a-27ec-4460-86eb-268e4d2225d6" />
          </g>
        </g>
      </defs>
      <g
         fill="#000000"
         fill-opacity="1"
         id="id-7c9ad734-0c43-4a19-95eb-8201477849b2"
         transform="translate(-149.009,-130.359)">
        <g
           transform="translate(148.712,134.765)"
           id="g90">
          <path
             d="M 3.328125,-3.015625 C 3.390625,-3.265625 3.625,-4.1875 4.3125,-4.1875 c 0.046875,0 0.296875,0 0.5,0.125 C 4.53125,-4 4.34375,-3.765625 4.34375,-3.515625 c 0,0.15625 0.109375,0.34375 0.375,0.34375 0.21875,0 0.53125,-0.171875 0.53125,-0.578125 0,-0.515625 -0.578125,-0.65625 -0.921875,-0.65625 -0.578125,0 -0.921875,0.53125 -1.046875,0.75 -0.25,-0.65625 -0.78125,-0.75 -1.078125,-0.75 -1.03125,0 -1.609375,1.28125 -1.609375,1.53125 0,0.109375 0.109375,0.109375 0.125,0.109375 0.078125,0 0.109375,-0.03125 0.125,-0.109375 0.34375,-1.0625 1,-1.3125 1.34375,-1.3125 0.1875,0 0.53125,0.09375 0.53125,0.671875 0,0.3125 -0.171875,0.96875 -0.53125,2.375 -0.15625,0.609375 -0.515625,1.03125 -0.953125,1.03125 -0.0625,0 -0.28125,0 -0.5,-0.125 0.25,-0.0625 0.46875,-0.265625 0.46875,-0.546875 0,-0.265625 -0.21875,-0.34375 -0.359375,-0.34375 -0.3125,0 -0.546875,0.25 -0.546875,0.578125 0,0.453125 0.484375,0.65625 0.921875,0.65625 0.671875,0 1.03125,-0.703125 1.046875,-0.75 0.125,0.359375 0.484375,0.75 1.078125,0.75 1.03125,0 1.59375,-1.28125 1.59375,-1.53125 0,-0.109375 -0.078125,-0.109375 -0.109375,-0.109375 -0.09375,0 -0.109375,0.046875 -0.140625,0.109375 -0.328125,1.078125 -1,1.3125 -1.3125,1.3125 -0.390625,0 -0.546875,-0.3125 -0.546875,-0.65625 0,-0.21875 0.046875,-0.4375 0.15625,-0.875 z m 0,0"
             id="id-aa9cc956-1f4c-4945-b126-7df863adef75" />
        </g>
      </g>
      <g
         fill="#000000"
         fill-opacity="1"
         id="id-c6820d34-e8b1-4e22-a329-5e4817017720"
         transform="translate(-149.009,-130.359)">
        <g
           transform="translate(154.406,136.84)"
           id="g91">
          <path
             d="m 2.328125,-4.4375 c 0,-0.1875 0,-0.1875 -0.203125,-0.1875 -0.453125,0.4375 -1.078125,0.4375 -1.359375,0.4375 v 0.25 c 0.15625,0 0.625,0 1,-0.1875 v 3.546875 c 0,0.234375 0,0.328125 -0.6875,0.328125 H 0.8125 V 0 c 0.125,0 0.984375,-0.03125 1.234375,-0.03125 0.21875,0 1.09375,0.03125 1.25,0.03125 V -0.25 H 3.03125 c -0.703125,0 -0.703125,-0.09375 -0.703125,-0.328125 z m 0,0"
             id="id-230f4fd2-3629-4a63-947a-20e1d86317a6" />
        </g>
      </g>
    </g>
    <g
       transform="matrix(0.705556,0,0,0.705556,11.6839,68.8167)"
       ns3:version="1.10.2"
       ns3:texconverter="pdflatex"
       ns3:pdfconverter="inkscape"
       ns3:text="$x_2$"
       ns3:preamble="/Users/knutan/Library/Application Support/org.inkscape.Inkscape/config/inkscape/extensions/textext/default_packages.tex"
       ns3:scale="1.9999999716535612"
       ns3:alignment="middle center"
       ns3:stroke-to-path="0"
       ns3:inkscapeversion="1.4"
       ns3:jacobian_sqrt="0.705556"
       id="g102">
      <defs
         id="id-1df548c9-e82b-4091-8eba-8965f418e5ea">
        <g
           id="id-8a8a2880-1971-4c54-b28f-00af5861f10e">
          <g
             id="id-8f15b92d-f74d-460f-9a73-cbb072363a86">
            <path
               d="M 3.328125,-3.015625 C 3.390625,-3.265625 3.625,-4.1875 4.3125,-4.1875 c 0.046875,0 0.296875,0 0.5,0.125 C 4.53125,-4 4.34375,-3.765625 4.34375,-3.515625 c 0,0.15625 0.109375,0.34375 0.375,0.34375 0.21875,0 0.53125,-0.171875 0.53125,-0.578125 0,-0.515625 -0.578125,-0.65625 -0.921875,-0.65625 -0.578125,0 -0.921875,0.53125 -1.046875,0.75 -0.25,-0.65625 -0.78125,-0.75 -1.078125,-0.75 -1.03125,0 -1.609375,1.28125 -1.609375,1.53125 0,0.109375 0.109375,0.109375 0.125,0.109375 0.078125,0 0.109375,-0.03125 0.125,-0.109375 0.34375,-1.0625 1,-1.3125 1.34375,-1.3125 0.1875,0 0.53125,0.09375 0.53125,0.671875 0,0.3125 -0.171875,0.96875 -0.53125,2.375 -0.15625,0.609375 -0.515625,1.03125 -0.953125,1.03125 -0.0625,0 -0.28125,0 -0.5,-0.125 0.25,-0.0625 0.46875,-0.265625 0.46875,-0.546875 0,-0.265625 -0.21875,-0.34375 -0.359375,-0.34375 -0.3125,0 -0.546875,0.25 -0.546875,0.578125 0,0.453125 0.484375,0.65625 0.921875,0.65625 0.671875,0 1.03125,-0.703125 1.046875,-0.75 0.125,0.359375 0.484375,0.75 1.078125,0.75 1.03125,0 1.59375,-1.28125 1.59375,-1.53125 0,-0.109375 -0.078125,-0.109375 -0.109375,-0.109375 -0.09375,0 -0.109375,0.046875 -0.140625,0.109375 -0.328125,1.078125 -1,1.3125 -1.3125,1.3125 -0.390625,0 -0.546875,-0.3125 -0.546875,-0.65625 0,-0.21875 0.046875,-0.4375 0.15625,-0.875 z m 0,0"
               id="id-9492de5b-d8f1-4622-968e-2961fd7b8ffa" />
          </g>
          <g
             id="id-9d805f9c-f4cb-44e5-b849-efd8387c9b2c">
            <path
               d="M 3.515625,-1.265625 H 3.28125 c -0.015625,0.15625 -0.09375,0.5625 -0.1875,0.625 C 3.046875,-0.59375 2.515625,-0.59375 2.40625,-0.59375 H 1.125 c 0.734375,-0.640625 0.984375,-0.84375 1.390625,-1.171875 0.515625,-0.40625 1,-0.84375 1,-1.5 0,-0.84375 -0.734375,-1.359375 -1.625,-1.359375 -0.859375,0 -1.453125,0.609375 -1.453125,1.25 0,0.34375 0.296875,0.390625 0.375,0.390625 0.15625,0 0.359375,-0.125 0.359375,-0.375 0,-0.125 -0.046875,-0.375 -0.40625,-0.375 C 0.984375,-4.21875 1.453125,-4.375 1.78125,-4.375 c 0.703125,0 1.0625,0.546875 1.0625,1.109375 0,0.609375 -0.4375,1.078125 -0.65625,1.328125 L 0.515625,-0.265625 C 0.4375,-0.203125 0.4375,-0.1875 0.4375,0 h 2.875 z m 0,0"
               id="id-bc7aa6fa-e102-44f1-96fa-929aa15063e7" />
          </g>
        </g>
      </defs>
      <g
         fill="#000000"
         fill-opacity="1"
         id="id-3c1c6fc8-fad5-40b0-bdfd-18402b859c96"
         transform="translate(-149.009,-130.359)">
        <g
           transform="translate(148.712,134.765)"
           id="g100">
          <path
             d="M 3.328125,-3.015625 C 3.390625,-3.265625 3.625,-4.1875 4.3125,-4.1875 c 0.046875,0 0.296875,0 0.5,0.125 C 4.53125,-4 4.34375,-3.765625 4.34375,-3.515625 c 0,0.15625 0.109375,0.34375 0.375,0.34375 0.21875,0 0.53125,-0.171875 0.53125,-0.578125 0,-0.515625 -0.578125,-0.65625 -0.921875,-0.65625 -0.578125,0 -0.921875,0.53125 -1.046875,0.75 -0.25,-0.65625 -0.78125,-0.75 -1.078125,-0.75 -1.03125,0 -1.609375,1.28125 -1.609375,1.53125 0,0.109375 0.109375,0.109375 0.125,0.109375 0.078125,0 0.109375,-0.03125 0.125,-0.109375 0.34375,-1.0625 1,-1.3125 1.34375,-1.3125 0.1875,0 0.53125,0.09375 0.53125,0.671875 0,0.3125 -0.171875,0.96875 -0.53125,2.375 -0.15625,0.609375 -0.515625,1.03125 -0.953125,1.03125 -0.0625,0 -0.28125,0 -0.5,-0.125 0.25,-0.0625 0.46875,-0.265625 0.46875,-0.546875 0,-0.265625 -0.21875,-0.34375 -0.359375,-0.34375 -0.3125,0 -0.546875,0.25 -0.546875,0.578125 0,0.453125 0.484375,0.65625 0.921875,0.65625 0.671875,0 1.03125,-0.703125 1.046875,-0.75 0.125,0.359375 0.484375,0.75 1.078125,0.75 1.03125,0 1.59375,-1.28125 1.59375,-1.53125 0,-0.109375 -0.078125,-0.109375 -0.109375,-0.109375 -0.09375,0 -0.109375,0.046875 -0.140625,0.109375 -0.328125,1.078125 -1,1.3125 -1.3125,1.3125 -0.390625,0 -0.546875,-0.3125 -0.546875,-0.65625 0,-0.21875 0.046875,-0.4375 0.15625,-0.875 z m 0,0"
             id="id-2e9cc86b-e9a8-4e5c-b83e-8076ba2f250f" />
        </g>
      </g>
      <g
         fill="#000000"
         fill-opacity="1"
         id="id-fd795d22-1815-4041-9c76-0edb262105bd"
         transform="translate(-149.009,-130.359)">
        <g
           transform="translate(154.406,136.84)"
           id="g101">
          <path
             d="M 3.515625,-1.265625 H 3.28125 c -0.015625,0.15625 -0.09375,0.5625 -0.1875,0.625 C 3.046875,-0.59375 2.515625,-0.59375 2.40625,-0.59375 H 1.125 c 0.734375,-0.640625 0.984375,-0.84375 1.390625,-1.171875 0.515625,-0.40625 1,-0.84375 1,-1.5 0,-0.84375 -0.734375,-1.359375 -1.625,-1.359375 -0.859375,0 -1.453125,0.609375 -1.453125,1.25 0,0.34375 0.296875,0.390625 0.375,0.390625 0.15625,0 0.359375,-0.125 0.359375,-0.375 0,-0.125 -0.046875,-0.375 -0.40625,-0.375 C 0.984375,-4.21875 1.453125,-4.375 1.78125,-4.375 c 0.703125,0 1.0625,0.546875 1.0625,1.109375 0,0.609375 -0.4375,1.078125 -0.65625,1.328125 L 0.515625,-0.265625 C 0.4375,-0.203125 0.4375,-0.1875 0.4375,0 h 2.875 z m 0,0"
             id="id-f86e4a12-f9a3-4f70-a6c0-b9cf620c20bc" />
        </g>
      </g>
    </g>
    <g
       transform="matrix(0.705556,0,0,0.705556,15.615913,36.574967)"
       ns3:version="1.10.2"
       ns3:texconverter="pdflatex"
       ns3:pdfconverter="inkscape"
       ns3:text="$\\Omega$"
       ns3:preamble="/Users/knutan/Library/Application Support/org.inkscape.Inkscape/config/inkscape/extensions/textext/default_packages.tex"
       ns3:scale="1.9999999716535612"
       ns3:alignment="middle center"
       ns3:stroke-to-path="0"
       ns3:inkscapeversion="1.4"
       ns3:jacobian_sqrt="0.705556"
       id="g30">
      <defs
         id="id-b1751914-b7db-40ff-879e-1c460d92d165">
        <g
           id="id-cbeed922-6e09-41be-9247-5cd3dcbae318">
          <g
             id="id-8e4f4b4a-f012-439f-8a92-9a588d163eec">
            <path
               d="M 6.75,-1.609375 H 6.5 c -0.046875,0.25 -0.09375,0.484375 -0.1875,0.71875 -0.046875,0.15625 -0.078125,0.25 -0.65625,0.25 H 4.859375 C 5,-1.203125 5.296875,-1.6875 5.75,-2.34375 c 0.46875,-0.703125 0.875,-1.390625 0.875,-2.1875 0,-1.375 -1.34375,-2.5 -3.03125,-2.5 -1.703125,0 -3.03125,1.140625 -3.03125,2.5 0,0.796875 0.40625,1.484375 0.875,2.1875 0.4375,0.65625 0.75,1.140625 0.890625,1.703125 H 1.53125 C 0.953125,-0.640625 0.921875,-0.734375 0.875,-0.875 0.78125,-1.109375 0.734375,-1.359375 0.6875,-1.609375 h -0.25 L 0.765625,0 h 1.59375 c 0.21875,0 0.25,0 0.25,-0.203125 0,-0.703125 -0.3125,-1.578125 -0.53125,-2.21875 -0.21875,-0.578125 -0.5,-1.359375 -0.5,-2.109375 0,-1.59375 1.109375,-2.28125 2.015625,-2.28125 0.953125,0 2.015625,0.71875 2.015625,2.28125 0,0.75 -0.28125,1.5 -0.5625,2.3125 -0.15625,0.421875 -0.46875,1.328125 -0.46875,2.015625 C 4.578125,0 4.609375,0 4.828125,0 h 1.59375 z m 0,0"
               id="id-c6d8eb6e-c510-41e8-bd08-66e82d8680d1" />
          </g>
        </g>
      </defs>
      <g
         fill="#000000"
         fill-opacity="1"
         id="id-c80714ad-f38f-4e2c-bb61-59cf178aebf6"
         transform="translate(-149.15,-127.734)">
        <g
           transform="translate(148.712,134.765)"
           id="g29">
          <path
             d="M 6.75,-1.609375 H 6.5 c -0.046875,0.25 -0.09375,0.484375 -0.1875,0.71875 -0.046875,0.15625 -0.078125,0.25 -0.65625,0.25 H 4.859375 C 5,-1.203125 5.296875,-1.6875 5.75,-2.34375 c 0.46875,-0.703125 0.875,-1.390625 0.875,-2.1875 0,-1.375 -1.34375,-2.5 -3.03125,-2.5 -1.703125,0 -3.03125,1.140625 -3.03125,2.5 0,0.796875 0.40625,1.484375 0.875,2.1875 0.4375,0.65625 0.75,1.140625 0.890625,1.703125 H 1.53125 C 0.953125,-0.640625 0.921875,-0.734375 0.875,-0.875 0.78125,-1.109375 0.734375,-1.359375 0.6875,-1.609375 h -0.25 L 0.765625,0 h 1.59375 c 0.21875,0 0.25,0 0.25,-0.203125 0,-0.703125 -0.3125,-1.578125 -0.53125,-2.21875 -0.21875,-0.578125 -0.5,-1.359375 -0.5,-2.109375 0,-1.59375 1.109375,-2.28125 2.015625,-2.28125 0.953125,0 2.015625,0.71875 2.015625,2.28125 0,0.75 -0.28125,1.5 -0.5625,2.3125 -0.15625,0.421875 -0.46875,1.328125 -0.46875,2.015625 C 4.578125,0 4.609375,0 4.828125,0 h 1.59375 z m 0,0"
             id="id-33bdeb47-8c96-4c72-9645-ec5d2444ec1a" />
        </g>
      </g>
    </g>
    <path
       style="fill:none;stroke:#ff7d00;stroke-width:0.750003;stroke-linecap:round;stroke-linejoin:round;stroke-miterlimit:0;stroke-dasharray:none;stroke-opacity:1;marker-end:url(#Triangle)"
       d="m 131.96543,46.461922 7.26466,-2.94351"
       id="path85"
       sodipodi:nodetypes="cc" />
    <path
       style="fill:none;stroke:#ff7d00;stroke-width:0.750003;stroke-linecap:round;stroke-linejoin:round;stroke-miterlimit:0;stroke-dasharray:none;stroke-opacity:1;marker-end:url(#Triangle)"
       d="m 135.96786,52.317822 7.26467,-2.94351"
       id="path86"
       sodipodi:nodetypes="cc" />
    <path
       style="fill:none;stroke:#ff7d00;stroke-width:0.75;stroke-linecap:round;stroke-linejoin:round;stroke-miterlimit:0;stroke-dasharray:none;stroke-opacity:1;marker-end:url(#Triangle)"
       d="m 142.17775,61.403423 7.50471,-1.058706"
       id="path87"
       sodipodi:nodetypes="cc" />
    <path
       style="fill:none;stroke:#ff7d00;stroke-width:0.75;stroke-linecap:round;stroke-linejoin:round;stroke-miterlimit:0;stroke-dasharray:none;stroke-opacity:1;marker-end:url(#Triangle)"
       d="m 139.35661,57.275851 6.46616,-1.058706"
       id="path88"
       sodipodi:nodetypes="cc" />
    <path
       style="fill:none;stroke:#ff7d00;stroke-width:0.750003;stroke-linecap:round;stroke-linejoin:round;stroke-miterlimit:0;stroke-dasharray:none;stroke-opacity:1;marker-end:url(#Triangle)"
       d="m 148.57242,70.759381 8.61623,-2.008751"
       id="path89"
       sodipodi:nodetypes="cc" />
    <path
       style="fill:none;stroke:#ff7d00;stroke-width:0.750003;stroke-linecap:round;stroke-linejoin:round;stroke-miterlimit:0;stroke-dasharray:none;stroke-opacity:1;marker-end:url(#Triangle)"
       d="m 145.93336,66.898197 6.38706,-2.008751"
       id="path90"
       sodipodi:nodetypes="cc" />
    <path
       style="fill:none;stroke:#ff7d00;stroke-width:0.750003;stroke-linecap:round;stroke-linejoin:round;stroke-miterlimit:0;stroke-dasharray:none;stroke-opacity:1;marker-end:url(#Triangle)"
       d="m 152.39007,76.344924 8.44394,-2.943509"
       id="path91"
       sodipodi:nodetypes="cc" />
    <path
       style="fill:none;stroke:#ff7d00;stroke-width:0.750003;stroke-linecap:round;stroke-linejoin:round;stroke-miterlimit:0;stroke-dasharray:none;stroke-opacity:1;marker-end:url(#Triangle)"
       d="m 162.53251,50.254261 7.26466,-2.94351"
       id="path92"
       sodipodi:nodetypes="cc" />
    <path
       style="fill:none;stroke:#ff7d00;stroke-width:0.750003;stroke-linecap:round;stroke-linejoin:round;stroke-miterlimit:0;stroke-dasharray:none;stroke-opacity:1;marker-end:url(#Triangle)"
       d="m 166.53494,56.110161 7.26467,-2.94351"
       id="path93"
       sodipodi:nodetypes="cc" />
    <path
       style="fill:none;stroke:#ff7d00;stroke-width:0.75;stroke-linecap:round;stroke-linejoin:round;stroke-miterlimit:0;stroke-dasharray:none;stroke-opacity:1;marker-end:url(#Triangle)"
       d="m 172.74483,65.195762 7.50471,-1.058706"
       id="path94"
       sodipodi:nodetypes="cc" />
    <path
       style="fill:none;stroke:#ff7d00;stroke-width:0.75;stroke-linecap:round;stroke-linejoin:round;stroke-miterlimit:0;stroke-dasharray:none;stroke-opacity:1;marker-end:url(#Triangle)"
       d="m 169.92369,61.06819 6.46616,-1.058706"
       id="path95"
       sodipodi:nodetypes="cc" />
    <path
       style="fill:none;stroke:#ff7d00;stroke-width:0.750003;stroke-linecap:round;stroke-linejoin:round;stroke-miterlimit:0;stroke-dasharray:none;stroke-opacity:1;marker-end:url(#Triangle)"
       d="m 179.1395,74.55172 8.61623,-2.008751"
       id="path96"
       sodipodi:nodetypes="cc" />
    <path
       style="fill:none;stroke:#ff7d00;stroke-width:0.750003;stroke-linecap:round;stroke-linejoin:round;stroke-miterlimit:0;stroke-dasharray:none;stroke-opacity:1;marker-end:url(#Triangle)"
       d="m 176.50044,70.690536 6.38706,-2.008751"
       id="path97"
       sodipodi:nodetypes="cc" />
    <path
       style="fill:none;stroke:#ff7d00;stroke-width:0.750003;stroke-linecap:round;stroke-linejoin:round;stroke-miterlimit:0;stroke-dasharray:none;stroke-opacity:1;marker-end:url(#Triangle)"
       d="m 182.95715,80.137263 8.44394,-2.943509"
       id="path98"
       sodipodi:nodetypes="cc" />
    <g
       transform="matrix(0.705556,0,0,0.705556,121.243,58.6283)"
       ns3:version="1.10.2"
       ns3:texconverter="pdflatex"
       ns3:pdfconverter="inkscape"
       ns3:text="$\\Omega_1$"
       ns3:preamble="/Users/knutan/Library/Application Support/org.inkscape.Inkscape/config/inkscape/extensions/textext/default_packages.tex"
       ns3:scale="1.9999999716535612"
       ns3:alignment="middle center"
       ns3:stroke-to-path="0"
       ns3:inkscapeversion="1.4"
       ns3:jacobian_sqrt="0.705556"
       id="g106">
      <defs
         id="id-5508fc40-704b-4359-bc83-5ca7510c8f86">
        <g
           id="id-6ffc8ef3-c283-4d62-a601-2d725886f235">
          <g
             id="id-628b6395-5c95-4ec2-8fec-b9d6a70141d0">
            <path
               d="M 6.75,-1.609375 H 6.5 c -0.046875,0.25 -0.09375,0.484375 -0.1875,0.71875 -0.046875,0.15625 -0.078125,0.25 -0.65625,0.25 H 4.859375 C 5,-1.203125 5.296875,-1.6875 5.75,-2.34375 c 0.46875,-0.703125 0.875,-1.390625 0.875,-2.1875 0,-1.375 -1.34375,-2.5 -3.03125,-2.5 -1.703125,0 -3.03125,1.140625 -3.03125,2.5 0,0.796875 0.40625,1.484375 0.875,2.1875 0.4375,0.65625 0.75,1.140625 0.890625,1.703125 H 1.53125 C 0.953125,-0.640625 0.921875,-0.734375 0.875,-0.875 0.78125,-1.109375 0.734375,-1.359375 0.6875,-1.609375 h -0.25 L 0.765625,0 h 1.59375 c 0.21875,0 0.25,0 0.25,-0.203125 0,-0.703125 -0.3125,-1.578125 -0.53125,-2.21875 -0.21875,-0.578125 -0.5,-1.359375 -0.5,-2.109375 0,-1.59375 1.109375,-2.28125 2.015625,-2.28125 0.953125,0 2.015625,0.71875 2.015625,2.28125 0,0.75 -0.28125,1.5 -0.5625,2.3125 -0.15625,0.421875 -0.46875,1.328125 -0.46875,2.015625 C 4.578125,0 4.609375,0 4.828125,0 h 1.59375 z m 0,0"
               id="id-ab5bf883-1051-4a5a-a88e-52f2b94776e9" />
          </g>
          <g
             id="id-e6b8794d-d421-4c05-96c2-d624d3e21eae">
            <path
               d="m 2.328125,-4.4375 c 0,-0.1875 0,-0.1875 -0.203125,-0.1875 -0.453125,0.4375 -1.078125,0.4375 -1.359375,0.4375 v 0.25 c 0.15625,0 0.625,0 1,-0.1875 v 3.546875 c 0,0.234375 0,0.328125 -0.6875,0.328125 H 0.8125 V 0 c 0.125,0 0.984375,-0.03125 1.234375,-0.03125 0.21875,0 1.09375,0.03125 1.25,0.03125 V -0.25 H 3.03125 c -0.703125,0 -0.703125,-0.09375 -0.703125,-0.328125 z m 0,0"
               id="id-ec63a430-a848-4a81-b571-273f455461c3" />
          </g>
        </g>
      </defs>
      <g
         fill="#000000"
         fill-opacity="1"
         id="id-a99e3ac9-4302-42ab-b1d9-c417fb5db6a1"
         transform="translate(-149.15,-127.734)">
        <g
           transform="translate(148.712,134.765)"
           id="g112">
          <path
             d="M 6.75,-1.609375 H 6.5 c -0.046875,0.25 -0.09375,0.484375 -0.1875,0.71875 -0.046875,0.15625 -0.078125,0.25 -0.65625,0.25 H 4.859375 C 5,-1.203125 5.296875,-1.6875 5.75,-2.34375 c 0.46875,-0.703125 0.875,-1.390625 0.875,-2.1875 0,-1.375 -1.34375,-2.5 -3.03125,-2.5 -1.703125,0 -3.03125,1.140625 -3.03125,2.5 0,0.796875 0.40625,1.484375 0.875,2.1875 0.4375,0.65625 0.75,1.140625 0.890625,1.703125 H 1.53125 C 0.953125,-0.640625 0.921875,-0.734375 0.875,-0.875 0.78125,-1.109375 0.734375,-1.359375 0.6875,-1.609375 h -0.25 L 0.765625,0 h 1.59375 c 0.21875,0 0.25,0 0.25,-0.203125 0,-0.703125 -0.3125,-1.578125 -0.53125,-2.21875 -0.21875,-0.578125 -0.5,-1.359375 -0.5,-2.109375 0,-1.59375 1.109375,-2.28125 2.015625,-2.28125 0.953125,0 2.015625,0.71875 2.015625,2.28125 0,0.75 -0.28125,1.5 -0.5625,2.3125 -0.15625,0.421875 -0.46875,1.328125 -0.46875,2.015625 C 4.578125,0 4.609375,0 4.828125,0 h 1.59375 z m 0,0"
             id="id-e917e4c9-241c-4a59-8ee5-3fffd09e2772" />
        </g>
      </g>
      <g
         fill="#000000"
         fill-opacity="1"
         id="id-74389dda-0c07-4102-9ab8-549c8ed5a1aa"
         transform="translate(-149.15,-127.734)">
        <g
           transform="translate(155.908,136.84)"
           id="g113">
          <path
             d="m 2.328125,-4.4375 c 0,-0.1875 0,-0.1875 -0.203125,-0.1875 -0.453125,0.4375 -1.078125,0.4375 -1.359375,0.4375 v 0.25 c 0.15625,0 0.625,0 1,-0.1875 v 3.546875 c 0,0.234375 0,0.328125 -0.6875,0.328125 H 0.8125 V 0 c 0.125,0 0.984375,-0.03125 1.234375,-0.03125 0.21875,0 1.09375,0.03125 1.25,0.03125 V -0.25 H 3.03125 c -0.703125,0 -0.703125,-0.09375 -0.703125,-0.328125 z m 0,0"
             id="id-73513107-ae07-44fd-8635-09d86dd064ca" />
        </g>
      </g>
    </g>
    <g
       transform="matrix(0.705556,0,0,0.705556,187.78468,50.356035)"
       ns3:version="1.10.2"
       ns3:texconverter="pdflatex"
       ns3:pdfconverter="inkscape"
       ns3:text="$\\Omega_2$"
       ns3:preamble="/Users/knutan/Library/Application Support/org.inkscape.Inkscape/config/inkscape/extensions/textext/default_packages.tex"
       ns3:scale="1.9999999716535612"
       ns3:alignment="middle center"
       ns3:stroke-to-path="0"
       ns3:inkscapeversion="1.4"
       ns3:jacobian_sqrt="0.705556"
       id="g111">
      <defs
         id="id-3ab09389-f5a7-4afe-b3e4-3b2a8523d39d">
        <g
           id="id-78834f51-939f-4158-981b-9eb8e5a6f57c">
          <g
             id="id-88d2bb7b-4075-46af-be6d-c73d7cf423d3">
            <path
               d="M 6.75,-1.609375 H 6.5 c -0.046875,0.25 -0.09375,0.484375 -0.1875,0.71875 -0.046875,0.15625 -0.078125,0.25 -0.65625,0.25 H 4.859375 C 5,-1.203125 5.296875,-1.6875 5.75,-2.34375 c 0.46875,-0.703125 0.875,-1.390625 0.875,-2.1875 0,-1.375 -1.34375,-2.5 -3.03125,-2.5 -1.703125,0 -3.03125,1.140625 -3.03125,2.5 0,0.796875 0.40625,1.484375 0.875,2.1875 0.4375,0.65625 0.75,1.140625 0.890625,1.703125 H 1.53125 C 0.953125,-0.640625 0.921875,-0.734375 0.875,-0.875 0.78125,-1.109375 0.734375,-1.359375 0.6875,-1.609375 h -0.25 L 0.765625,0 h 1.59375 c 0.21875,0 0.25,0 0.25,-0.203125 0,-0.703125 -0.3125,-1.578125 -0.53125,-2.21875 -0.21875,-0.578125 -0.5,-1.359375 -0.5,-2.109375 0,-1.59375 1.109375,-2.28125 2.015625,-2.28125 0.953125,0 2.015625,0.71875 2.015625,2.28125 0,0.75 -0.28125,1.5 -0.5625,2.3125 -0.15625,0.421875 -0.46875,1.328125 -0.46875,2.015625 C 4.578125,0 4.609375,0 4.828125,0 h 1.59375 z m 0,0"
               id="id-faaac663-ef13-4062-824b-9951581c90dc" />
          </g>
          <g
             id="id-44166404-7195-49a0-afac-c5ca0c53c4cc">
            <path
               d="M 3.515625,-1.265625 H 3.28125 c -0.015625,0.15625 -0.09375,0.5625 -0.1875,0.625 C 3.046875,-0.59375 2.515625,-0.59375 2.40625,-0.59375 H 1.125 c 0.734375,-0.640625 0.984375,-0.84375 1.390625,-1.171875 0.515625,-0.40625 1,-0.84375 1,-1.5 0,-0.84375 -0.734375,-1.359375 -1.625,-1.359375 -0.859375,0 -1.453125,0.609375 -1.453125,1.25 0,0.34375 0.296875,0.390625 0.375,0.390625 0.15625,0 0.359375,-0.125 0.359375,-0.375 0,-0.125 -0.046875,-0.375 -0.40625,-0.375 C 0.984375,-4.21875 1.453125,-4.375 1.78125,-4.375 c 0.703125,0 1.0625,0.546875 1.0625,1.109375 0,0.609375 -0.4375,1.078125 -0.65625,1.328125 L 0.515625,-0.265625 C 0.4375,-0.203125 0.4375,-0.1875 0.4375,0 h 2.875 z m 0,0"
               id="id-e4148289-c13c-400d-bef0-eb9ba9df9f8d" />
          </g>
        </g>
      </defs>
      <g
         fill="#000000"
         fill-opacity="1"
         id="id-d2905d92-f3f2-498c-b217-c77d38a5293e"
         transform="translate(-149.15,-127.734)">
        <g
           transform="translate(148.712,134.765)"
           id="g114">
          <path
             d="M 6.75,-1.609375 H 6.5 c -0.046875,0.25 -0.09375,0.484375 -0.1875,0.71875 -0.046875,0.15625 -0.078125,0.25 -0.65625,0.25 H 4.859375 C 5,-1.203125 5.296875,-1.6875 5.75,-2.34375 c 0.46875,-0.703125 0.875,-1.390625 0.875,-2.1875 0,-1.375 -1.34375,-2.5 -3.03125,-2.5 -1.703125,0 -3.03125,1.140625 -3.03125,2.5 0,0.796875 0.40625,1.484375 0.875,2.1875 0.4375,0.65625 0.75,1.140625 0.890625,1.703125 H 1.53125 C 0.953125,-0.640625 0.921875,-0.734375 0.875,-0.875 0.78125,-1.109375 0.734375,-1.359375 0.6875,-1.609375 h -0.25 L 0.765625,0 h 1.59375 c 0.21875,0 0.25,0 0.25,-0.203125 0,-0.703125 -0.3125,-1.578125 -0.53125,-2.21875 -0.21875,-0.578125 -0.5,-1.359375 -0.5,-2.109375 0,-1.59375 1.109375,-2.28125 2.015625,-2.28125 0.953125,0 2.015625,0.71875 2.015625,2.28125 0,0.75 -0.28125,1.5 -0.5625,2.3125 -0.15625,0.421875 -0.46875,1.328125 -0.46875,2.015625 C 4.578125,0 4.609375,0 4.828125,0 h 1.59375 z m 0,0"
             id="id-15aedfdb-82a2-4925-847b-a0409e427045" />
        </g>
      </g>
      <g
         fill="#000000"
         fill-opacity="1"
         id="id-ae2a8e98-a02f-4146-a8b8-a7e1fb742f9b"
         transform="translate(-149.15,-127.734)">
        <g
           transform="translate(155.908,136.84)"
           id="g115">
          <path
             d="M 3.515625,-1.265625 H 3.28125 c -0.015625,0.15625 -0.09375,0.5625 -0.1875,0.625 C 3.046875,-0.59375 2.515625,-0.59375 2.40625,-0.59375 H 1.125 c 0.734375,-0.640625 0.984375,-0.84375 1.390625,-1.171875 0.515625,-0.40625 1,-0.84375 1,-1.5 0,-0.84375 -0.734375,-1.359375 -1.625,-1.359375 -0.859375,0 -1.453125,0.609375 -1.453125,1.25 0,0.34375 0.296875,0.390625 0.375,0.390625 0.15625,0 0.359375,-0.125 0.359375,-0.375 0,-0.125 -0.046875,-0.375 -0.40625,-0.375 C 0.984375,-4.21875 1.453125,-4.375 1.78125,-4.375 c 0.703125,0 1.0625,0.546875 1.0625,1.109375 0,0.609375 -0.4375,1.078125 -0.65625,1.328125 L 0.515625,-0.265625 C 0.4375,-0.203125 0.4375,-0.1875 0.4375,0 h 2.875 z m 0,0"
             id="id-7552bf9c-a9c9-4352-bf5d-12643819b9c0" />
        </g>
      </g>
    </g>
    <g
       transform="matrix(0.705556,0,0,0.705556,45.659203,34.612472)"
       ns3:version="1.10.2"
       ns3:texconverter="pdflatex"
       ns3:pdfconverter="inkscape"
       ns3:text="$\\Gamma$"
       ns3:preamble="/Users/knutan/Library/Application Support/org.inkscape.Inkscape/config/inkscape/extensions/textext/default_packages.tex"
       ns3:scale="1.9999999716535612"
       ns3:alignment="middle center"
       ns3:stroke-to-path="0"
       ns3:inkscapeversion="1.4"
       ns3:jacobian_sqrt="0.705556"
       id="g121">
      <defs
         id="id-b064a1bc-98a6-44d1-8693-8342045c178b">
        <g
           id="id-73c89f56-3f73-4ffd-883a-5b742ab7fe66">
          <g
             id="id-cb5248e6-16d8-4de3-9438-91835e18c363">
            <path
               d="m 5.515625,-6.78125 h -5.1875 v 0.3125 H 0.5625 c 0.765625,0 0.796875,0.109375 0.796875,0.46875 v 5.21875 c 0,0.359375 -0.03125,0.46875 -0.796875,0.46875 H 0.328125 V 0 c 0.34375,-0.03125 1.125,-0.03125 1.515625,-0.03125 0.40625,0 1.3125,0 1.671875,0.03125 V -0.3125 H 3.1875 C 2.25,-0.3125 2.25,-0.4375 2.25,-0.78125 v -5.296875 c 0,-0.328125 0.015625,-0.390625 0.484375,-0.390625 h 1.03125 c 1.421875,0 1.625,0.59375 1.78125,1.9375 h 0.25 z m 0,0"
               id="id-1cd06bb0-a692-428d-826a-a449d05b2b67" />
          </g>
        </g>
      </defs>
      <g
         fill="#000000"
         fill-opacity="1"
         id="id-d85c6893-ef3a-4225-ad65-9f07808a200d"
         transform="translate(-149.04,-127.984)">
        <g
           transform="translate(148.712,134.765)"
           id="g120">
          <path
             d="m 5.515625,-6.78125 h -5.1875 v 0.3125 H 0.5625 c 0.765625,0 0.796875,0.109375 0.796875,0.46875 v 5.21875 c 0,0.359375 -0.03125,0.46875 -0.796875,0.46875 H 0.328125 V 0 c 0.34375,-0.03125 1.125,-0.03125 1.515625,-0.03125 0.40625,0 1.3125,0 1.671875,0.03125 V -0.3125 H 3.1875 C 2.25,-0.3125 2.25,-0.4375 2.25,-0.78125 v -5.296875 c 0,-0.328125 0.015625,-0.390625 0.484375,-0.390625 h 1.03125 c 1.421875,0 1.625,0.59375 1.78125,1.9375 h 0.25 z m 0,0"
             id="id-f272a3f6-86ae-4b27-bf52-f14b8aafceab" />
        </g>
      </g>
    </g>
    <path
       style="fill:none;fill-opacity:1;stroke:#000000;stroke-width:0.5;stroke-linecap:round;stroke-linejoin:round;stroke-miterlimit:0;stroke-dasharray:none;stroke-opacity:1;marker-end:url(#Triangle)"
       d="m 19.837872,42.594065 7.535985,12.58138"
       id="path121"
       sodipodi:nodetypes="cc" />
    <path
       style="fill:none;fill-opacity:1;stroke:#000000;stroke-width:0.5;stroke-linecap:round;stroke-linejoin:round;stroke-miterlimit:0;stroke-dasharray:none;stroke-opacity:1;marker-end:url(#Triangle)"
       d="m 49.467603,38.478672 2.195553,3.860927"
       id="path122"
       sodipodi:nodetypes="cc" />
    <path
       style="fill:none;stroke:#ff7d00;stroke-width:0.750003;stroke-linecap:round;stroke-linejoin:round;stroke-miterlimit:0;stroke-dasharray:none;stroke-opacity:1;marker-end:url(#Triangle)"
       d="m 143.21008,78.972884 3.56754,-3.153283"
       id="path123"
       sodipodi:nodetypes="cc" />
    <path
       style="fill:none;stroke:#ff7d00;stroke-width:0.750003;stroke-linecap:round;stroke-linejoin:round;stroke-miterlimit:0;stroke-dasharray:none;stroke-opacity:1;marker-end:url(#Triangle)"
       d="m 135.28893,80.43856 3.40435,-1.237588"
       id="path124"
       sodipodi:nodetypes="cc" />
    <path
       style="fill:none;stroke:#ff7d00;stroke-width:0.750003;stroke-linecap:round;stroke-linejoin:round;stroke-miterlimit:0;stroke-dasharray:none;stroke-opacity:1;marker-end:url(#Triangle)"
       d="m 128.40421,80.575445 5.02007,-2.311777"
       id="path125"
       sodipodi:nodetypes="cc" />
    <path
       style="fill:none;stroke:#ff7d00;stroke-width:0.750003;stroke-linecap:round;stroke-linejoin:round;stroke-miterlimit:0;stroke-dasharray:none;stroke-opacity:1;marker-end:url(#Triangle)"
       d="m 121.69961,79.22491 5.02007,-2.311777"
       id="path126"
       sodipodi:nodetypes="cc" />
    <path
       style="fill:none;stroke:#ff7d00;stroke-width:0.750003;stroke-linecap:round;stroke-linejoin:round;stroke-miterlimit:0;stroke-dasharray:none;stroke-opacity:1;marker-end:url(#Triangle)"
       d="m 115.44487,76.891631 5.02007,-2.311777"
       id="path127"
       sodipodi:nodetypes="cc" />
    <path
       style="fill:none;stroke:#ff7d00;stroke-width:0.750003;stroke-linecap:round;stroke-linejoin:round;stroke-miterlimit:0;stroke-dasharray:none;stroke-opacity:1;marker-end:url(#Triangle)"
       d="m 109.75481,73.452801 5.02007,-2.311777"
       id="path128"
       sodipodi:nodetypes="cc" />
    <path
       style="fill:none;stroke:#ff7d00;stroke-width:0.750003;stroke-linecap:round;stroke-linejoin:round;stroke-miterlimit:0;stroke-dasharray:none;stroke-opacity:1;marker-end:url(#Triangle)"
       d="m 105.49128,69.50838 6.51852,-2.311777"
       id="path129"
       sodipodi:nodetypes="cc" />
    <path
       style="fill:none;stroke:#ff7d00;stroke-width:0.750003;stroke-linecap:round;stroke-linejoin:round;stroke-miterlimit:0;stroke-dasharray:none;stroke-opacity:1;marker-end:url(#Triangle)"
       d="m 102.76067,65.494891 7.62032,-2.311777"
       id="path130"
       sodipodi:nodetypes="cc" />
    <path
       style="fill:none;stroke:#ff7d00;stroke-width:0.750003;stroke-linecap:round;stroke-linejoin:round;stroke-miterlimit:0;stroke-dasharray:none;stroke-opacity:1;marker-end:url(#Triangle)"
       d="m 101.32505,60.630939 8.21546,-2.311777"
       id="path131"
       sodipodi:nodetypes="cc" />
    <path
       style="fill:none;stroke:#ff7d00;stroke-width:0.75;stroke-linecap:round;stroke-linejoin:round;stroke-miterlimit:0;stroke-dasharray:none;stroke-opacity:1;marker-end:url(#Triangle)"
       d="m 101.89082,54.708478 8.21546,-0.763509"
       id="path132"
       sodipodi:nodetypes="cc" />
    <path
       style="fill:none;stroke:#ff7d00;stroke-width:0.749998;stroke-linecap:round;stroke-linejoin:round;stroke-miterlimit:0;stroke-dasharray:none;stroke-opacity:1;marker-end:url(#Triangle)"
       d="m 103.54014,50.084613 8.21546,-0.161749"
       id="path133"
       sodipodi:nodetypes="cc" />
    <path
       style="fill:none;stroke:#ff7d00;stroke-width:0.749998;stroke-linecap:round;stroke-linejoin:round;stroke-miterlimit:0;stroke-dasharray:none;stroke-opacity:1;marker-end:url(#Triangle)"
       d="m 107.26724,46.657262 8.21546,-0.161749"
       id="path134"
       sodipodi:nodetypes="cc" />
    <path
       style="fill:none;stroke:#ff7d00;stroke-width:0.749998;stroke-linecap:round;stroke-linejoin:round;stroke-miterlimit:0;stroke-dasharray:none;stroke-opacity:1;marker-end:url(#Triangle)"
       d="m 119.23879,46.555721 8.06256,-1.58589"
       id="path136"
       sodipodi:nodetypes="cc" />
    <path
       style="fill:none;stroke:#ff7d00;stroke-width:0.749998;stroke-linecap:round;stroke-linejoin:round;stroke-miterlimit:0;stroke-dasharray:none;stroke-opacity:1;marker-end:url(#Triangle)"
       d="m 171.55048,45.789869 8.06256,-1.58589"
       id="path137"
       sodipodi:nodetypes="cc" />
    <path
       style="fill:none;stroke:#ff7d00;stroke-width:0.749998;stroke-linecap:round;stroke-linejoin:round;stroke-miterlimit:0;stroke-dasharray:none;stroke-opacity:1;marker-end:url(#Triangle)"
       d="m 180.36184,41.469983 8.06256,-1.58589"
       id="path138"
       sodipodi:nodetypes="cc" />
    <path
       style="fill:none;stroke:#ff7d00;stroke-width:0.749998;stroke-linecap:round;stroke-linejoin:round;stroke-miterlimit:0;stroke-dasharray:none;stroke-opacity:1;marker-end:url(#Triangle)"
       d="m 191.42524,40.951849 8.06256,-1.58589"
       id="path139"
       sodipodi:nodetypes="cc" />
    <path
       style="fill:none;stroke:#ff7d00;stroke-width:0.749998;stroke-linecap:round;stroke-linejoin:round;stroke-miterlimit:0;stroke-dasharray:none;stroke-opacity:1;marker-end:url(#Triangle)"
       d="m 198.86026,42.538298 8.06256,-1.58589"
       id="path140"
       sodipodi:nodetypes="cc" />
    <path
       style="fill:none;stroke:#ff7d00;stroke-width:0.749998;stroke-linecap:round;stroke-linejoin:round;stroke-miterlimit:0;stroke-dasharray:none;stroke-opacity:1;marker-end:url(#Triangle)"
       d="m 203.66893,45.937542 8.06256,-1.58589"
       id="path141"
       sodipodi:nodetypes="cc" />
    <path
       style="fill:none;stroke:#ff7d00;stroke-width:0.749998;stroke-linecap:round;stroke-linejoin:round;stroke-miterlimit:0;stroke-dasharray:none;stroke-opacity:1;marker-end:url(#Triangle)"
       d="m 205.57488,51.634665 8.06256,-1.58589"
       id="path142"
       sodipodi:nodetypes="cc" />
    <path
       style="fill:none;stroke:#ff7d00;stroke-width:0.749998;stroke-linecap:round;stroke-linejoin:round;stroke-miterlimit:0;stroke-dasharray:none;stroke-opacity:1;marker-end:url(#Triangle)"
       d="m 204.97091,57.102186 8.06256,-1.58589"
       id="path143"
       sodipodi:nodetypes="cc" />
    <path
       style="fill:none;stroke:#ff7d00;stroke-width:0.749998;stroke-linecap:round;stroke-linejoin:round;stroke-miterlimit:0;stroke-dasharray:none;stroke-opacity:1;marker-end:url(#Triangle)"
       d="m 204.97091,57.102186 8.06256,-1.58589"
       id="path144"
       sodipodi:nodetypes="cc" />
    <path
       style="fill:none;stroke:#ff7d00;stroke-width:0.75;stroke-linecap:round;stroke-linejoin:round;stroke-miterlimit:0;stroke-dasharray:none;stroke-opacity:1;marker-end:url(#Triangle)"
       d="m 203.40737,62.396427 7.50471,-1.058706"
       id="path145"
       sodipodi:nodetypes="cc" />
    <path
       style="fill:none;stroke:#ff7d00;stroke-width:0.75;stroke-linecap:round;stroke-linejoin:round;stroke-miterlimit:0;stroke-dasharray:none;stroke-opacity:1;marker-end:url(#Triangle)"
       d="m 200.85303,67.857259 6.46616,-1.058706"
       id="path146"
       sodipodi:nodetypes="cc" />
    <path
       style="fill:none;stroke:#ff7d00;stroke-width:0.750003;stroke-linecap:round;stroke-linejoin:round;stroke-miterlimit:0;stroke-dasharray:none;stroke-opacity:1;marker-end:url(#Triangle)"
       d="m 195.42324,73.863689 8.61623,-2.008751"
       id="path147"
       sodipodi:nodetypes="cc" />
    <path
       style="fill:#e6e6e6;fill-opacity:1;stroke:#ff0000;stroke-width:0.75;stroke-linecap:butt;stroke-linejoin:round;stroke-miterlimit:0;stroke-dasharray:none;stroke-dashoffset:0;stroke-opacity:1"
       d="m 131.96543,46.461922 20.42464,29.883002"
       id="path148" />
    <path
       style="fill:#e6e6e6;fill-opacity:1;stroke:#ff0000;stroke-width:0.75;stroke-linecap:butt;stroke-linejoin:round;stroke-miterlimit:0;stroke-dasharray:none;stroke-dashoffset:0;stroke-opacity:1"
       d="m 162.53251,50.254261 20.42464,29.883002"
       id="path149" />
    <path
       style="fill:none;fill-opacity:1;stroke:#000000;stroke-width:0.5;stroke-linecap:round;stroke-linejoin:round;stroke-miterlimit:0;stroke-dasharray:none;stroke-opacity:1;marker-end:url(#Triangle)"
       d="m 108.17858,40.401796 2.19555,3.860927"
       id="path154"
       sodipodi:nodetypes="cc" />
    <g
       transform="matrix(0.705556,0,0,0.705556,105.23182,33.29611)"
       ns3:version="1.10.2"
       ns3:texconverter="pdflatex"
       ns3:pdfconverter="inkscape"
       ns3:text="$\\tilde{\\Gamma}_1$"
       ns3:preamble="/Users/knutan/Library/Application Support/org.inkscape.Inkscape/config/inkscape/extensions/textext/default_packages.tex"
       ns3:scale="1.9999999716535612"
       ns3:alignment="middle center"
       ns3:stroke-to-path="0"
       ns3:inkscapeversion="1.4"
       ns3:jacobian_sqrt="0.705556"
       id="g157">
      <defs
         id="id-ec5238fc-440b-4e6c-8178-1088dbbc0aa7">
        <g
           id="id-a9f3be45-b8cd-413d-a041-203cd9c8f4cc">
          <g
             id="id-4e7bedf3-e764-4d9a-93d3-ba0cf72c7ae3">
            <path
               d="M 4.140625,-6.515625 3.984375,-6.65625 c 0,0 -0.375,0.46875 -0.8125,0.46875 -0.234375,0 -0.484375,-0.140625 -0.65625,-0.25 C 2.25,-6.59375 2.078125,-6.65625 1.90625,-6.65625 c -0.375,0 -0.578125,0.21875 -1.078125,0.78125 l 0.15625,0.140625 c 0,0 0.375,-0.46875 0.8125,-0.46875 0.234375,0 0.484375,0.140625 0.65625,0.234375 0.265625,0.171875 0.453125,0.234375 0.625,0.234375 0.375,0 0.5625,-0.21875 1.0625,-0.78125 z m 0,0"
               id="id-ff3f8d8c-814b-43e3-877b-06585009f7e3" />
          </g>
          <g
             id="id-e787549a-7b00-40b0-ae85-c30c5433b2b3">
            <path
               d="m 5.515625,-6.78125 h -5.1875 v 0.3125 H 0.5625 c 0.765625,0 0.796875,0.109375 0.796875,0.46875 v 5.21875 c 0,0.359375 -0.03125,0.46875 -0.796875,0.46875 H 0.328125 V 0 c 0.34375,-0.03125 1.125,-0.03125 1.515625,-0.03125 0.40625,0 1.3125,0 1.671875,0.03125 V -0.3125 H 3.1875 C 2.25,-0.3125 2.25,-0.4375 2.25,-0.78125 v -5.296875 c 0,-0.328125 0.015625,-0.390625 0.484375,-0.390625 h 1.03125 c 1.421875,0 1.625,0.59375 1.78125,1.9375 h 0.25 z m 0,0"
               id="id-cd556a1f-cba4-418c-967c-d41d04398d22" />
          </g>
          <g
             id="id-c8d3a54e-f2ba-4ac0-9e02-cf1a05a92e05">
            <path
               d="m 2.328125,-4.4375 c 0,-0.1875 0,-0.1875 -0.203125,-0.1875 -0.453125,0.4375 -1.078125,0.4375 -1.359375,0.4375 v 0.25 c 0.15625,0 0.625,0 1,-0.1875 v 3.546875 c 0,0.234375 0,0.328125 -0.6875,0.328125 H 0.8125 V 0 c 0.125,0 0.984375,-0.03125 1.234375,-0.03125 0.21875,0 1.09375,0.03125 1.25,0.03125 V -0.25 H 3.03125 c -0.703125,0 -0.703125,-0.09375 -0.703125,-0.328125 z m 0,0"
               id="id-0889c15f-f9b2-49c1-85dd-58dfa1f267ec" />
          </g>
        </g>
      </defs>
      <g
         fill="#000000"
         fill-opacity="1"
         id="id-b8c4e320-2afc-4b43-9fa1-b542c0fce073"
         transform="translate(-149.04,-125.59)">
        <g
           transform="translate(149.335,132.246)"
           id="g154">
          <path
             d="M 4.140625,-6.515625 3.984375,-6.65625 c 0,0 -0.375,0.46875 -0.8125,0.46875 -0.234375,0 -0.484375,-0.140625 -0.65625,-0.25 C 2.25,-6.59375 2.078125,-6.65625 1.90625,-6.65625 c -0.375,0 -0.578125,0.21875 -1.078125,0.78125 l 0.15625,0.140625 c 0,0 0.375,-0.46875 0.8125,-0.46875 0.234375,0 0.484375,0.140625 0.65625,0.234375 0.265625,0.171875 0.453125,0.234375 0.625,0.234375 0.375,0 0.5625,-0.21875 1.0625,-0.78125 z m 0,0"
             id="id-d512460f-6c6d-454b-b138-74fe7a65e586" />
        </g>
      </g>
      <g
         fill="#000000"
         fill-opacity="1"
         id="id-71db532c-05cc-42cc-8551-27fe5ddf295d"
         transform="translate(-149.04,-125.59)">
        <g
           transform="translate(148.712,134.765)"
           id="g155">
          <path
             d="m 5.515625,-6.78125 h -5.1875 v 0.3125 H 0.5625 c 0.765625,0 0.796875,0.109375 0.796875,0.46875 v 5.21875 c 0,0.359375 -0.03125,0.46875 -0.796875,0.46875 H 0.328125 V 0 c 0.34375,-0.03125 1.125,-0.03125 1.515625,-0.03125 0.40625,0 1.3125,0 1.671875,0.03125 V -0.3125 H 3.1875 C 2.25,-0.3125 2.25,-0.4375 2.25,-0.78125 v -5.296875 c 0,-0.328125 0.015625,-0.390625 0.484375,-0.390625 h 1.03125 c 1.421875,0 1.625,0.59375 1.78125,1.9375 h 0.25 z m 0,0"
             id="id-3ae5368b-4906-48ed-b689-56a1abd47320" />
        </g>
      </g>
      <g
         fill="#000000"
         fill-opacity="1"
         id="id-e1d60cd5-4902-4864-b486-17d37ed51259"
         transform="translate(-149.04,-125.59)">
        <g
           transform="translate(154.939,136.84)"
           id="g156">
          <path
             d="m 2.328125,-4.4375 c 0,-0.1875 0,-0.1875 -0.203125,-0.1875 -0.453125,0.4375 -1.078125,0.4375 -1.359375,0.4375 v 0.25 c 0.15625,0 0.625,0 1,-0.1875 v 3.546875 c 0,0.234375 0,0.328125 -0.6875,0.328125 H 0.8125 V 0 c 0.125,0 0.984375,-0.03125 1.234375,-0.03125 0.21875,0 1.09375,0.03125 1.25,0.03125 V -0.25 H 3.03125 c -0.703125,0 -0.703125,-0.09375 -0.703125,-0.328125 z m 0,0"
             id="id-fe85ba84-104e-4eea-a27b-d45b999baa94" />
        </g>
      </g>
    </g>
    <path
       style="fill:none;fill-opacity:1;stroke:#000000;stroke-width:0.5;stroke-linecap:round;stroke-linejoin:round;stroke-miterlimit:0;stroke-dasharray:none;stroke-opacity:1;marker-end:url(#Triangle)"
       d="m 168.62328,40.107514 4.56577,2.446441"
       id="path157"
       sodipodi:nodetypes="cc" />
    <g
       transform="matrix(0.705556,0,0,0.705556,160.668,33.9574)"
       ns3:version="1.10.2"
       ns3:texconverter="pdflatex"
       ns3:pdfconverter="inkscape"
       ns3:text="$\\tilde{\\Gamma}_2$"
       ns3:preamble="/Users/knutan/Library/Application Support/org.inkscape.Inkscape/config/inkscape/extensions/textext/default_packages.tex"
       ns3:scale="1.9999999716535612"
       ns3:alignment="middle center"
       ns3:stroke-to-path="0"
       ns3:inkscapeversion="1.4"
       ns3:jacobian_sqrt="0.705556"
       id="g171">
      <defs
         id="id-3b9c43a3-001a-42fe-85aa-5af057e13ead">
        <g
           id="id-a028f4a6-a351-444b-944b-419a923f0516">
          <g
             id="id-3dc29ac7-0012-4214-ba6d-a7bb2f9a5209">
            <path
               d="M 4.140625,-6.515625 3.984375,-6.65625 c 0,0 -0.375,0.46875 -0.8125,0.46875 -0.234375,0 -0.484375,-0.140625 -0.65625,-0.25 C 2.25,-6.59375 2.078125,-6.65625 1.90625,-6.65625 c -0.375,0 -0.578125,0.21875 -1.078125,0.78125 l 0.15625,0.140625 c 0,0 0.375,-0.46875 0.8125,-0.46875 0.234375,0 0.484375,0.140625 0.65625,0.234375 0.265625,0.171875 0.453125,0.234375 0.625,0.234375 0.375,0 0.5625,-0.21875 1.0625,-0.78125 z m 0,0"
               id="id-573f4339-bebe-41c7-8dc7-343bbe658dd5" />
          </g>
          <g
             id="id-7dce66ac-d026-432d-9569-25bd994f4055">
            <path
               d="m 5.515625,-6.78125 h -5.1875 v 0.3125 H 0.5625 c 0.765625,0 0.796875,0.109375 0.796875,0.46875 v 5.21875 c 0,0.359375 -0.03125,0.46875 -0.796875,0.46875 H 0.328125 V 0 c 0.34375,-0.03125 1.125,-0.03125 1.515625,-0.03125 0.40625,0 1.3125,0 1.671875,0.03125 V -0.3125 H 3.1875 C 2.25,-0.3125 2.25,-0.4375 2.25,-0.78125 v -5.296875 c 0,-0.328125 0.015625,-0.390625 0.484375,-0.390625 h 1.03125 c 1.421875,0 1.625,0.59375 1.78125,1.9375 h 0.25 z m 0,0"
               id="id-a1a612e7-3a55-432d-ab63-0788114dc90c" />
          </g>
          <g
             id="id-927977f3-aaea-4964-821f-9fcf34eeb716">
            <path
               d="M 3.515625,-1.265625 H 3.28125 c -0.015625,0.15625 -0.09375,0.5625 -0.1875,0.625 C 3.046875,-0.59375 2.515625,-0.59375 2.40625,-0.59375 H 1.125 c 0.734375,-0.640625 0.984375,-0.84375 1.390625,-1.171875 0.515625,-0.40625 1,-0.84375 1,-1.5 0,-0.84375 -0.734375,-1.359375 -1.625,-1.359375 -0.859375,0 -1.453125,0.609375 -1.453125,1.25 0,0.34375 0.296875,0.390625 0.375,0.390625 0.15625,0 0.359375,-0.125 0.359375,-0.375 0,-0.125 -0.046875,-0.375 -0.40625,-0.375 C 0.984375,-4.21875 1.453125,-4.375 1.78125,-4.375 c 0.703125,0 1.0625,0.546875 1.0625,1.109375 0,0.609375 -0.4375,1.078125 -0.65625,1.328125 L 0.515625,-0.265625 C 0.4375,-0.203125 0.4375,-0.1875 0.4375,0 h 2.875 z m 0,0"
               id="id-31b21709-96f5-4bb6-8f5a-135100c92ca8" />
          </g>
        </g>
      </defs>
      <g
         fill="#000000"
         fill-opacity="1"
         id="id-c467af02-8bb0-4e9f-a559-9a8b09debdcd"
         transform="translate(-149.04,-125.59)">
        <g
           transform="translate(149.335,132.246)"
           id="g168">
          <path
             d="M 4.140625,-6.515625 3.984375,-6.65625 c 0,0 -0.375,0.46875 -0.8125,0.46875 -0.234375,0 -0.484375,-0.140625 -0.65625,-0.25 C 2.25,-6.59375 2.078125,-6.65625 1.90625,-6.65625 c -0.375,0 -0.578125,0.21875 -1.078125,0.78125 l 0.15625,0.140625 c 0,0 0.375,-0.46875 0.8125,-0.46875 0.234375,0 0.484375,0.140625 0.65625,0.234375 0.265625,0.171875 0.453125,0.234375 0.625,0.234375 0.375,0 0.5625,-0.21875 1.0625,-0.78125 z m 0,0"
             id="id-0bf53bb6-53c1-4d70-b2ef-d304f76cb479" />
        </g>
      </g>
      <g
         fill="#000000"
         fill-opacity="1"
         id="id-a6a0e775-b852-4d6f-81b2-f89020b116c9"
         transform="translate(-149.04,-125.59)">
        <g
           transform="translate(148.712,134.765)"
           id="g169">
          <path
             d="m 5.515625,-6.78125 h -5.1875 v 0.3125 H 0.5625 c 0.765625,0 0.796875,0.109375 0.796875,0.46875 v 5.21875 c 0,0.359375 -0.03125,0.46875 -0.796875,0.46875 H 0.328125 V 0 c 0.34375,-0.03125 1.125,-0.03125 1.515625,-0.03125 0.40625,0 1.3125,0 1.671875,0.03125 V -0.3125 H 3.1875 C 2.25,-0.3125 2.25,-0.4375 2.25,-0.78125 v -5.296875 c 0,-0.328125 0.015625,-0.390625 0.484375,-0.390625 h 1.03125 c 1.421875,0 1.625,0.59375 1.78125,1.9375 h 0.25 z m 0,0"
             id="id-a8e7045a-a5d4-478c-8718-6c34e53b7fcc" />
        </g>
      </g>
      <g
         fill="#000000"
         fill-opacity="1"
         id="id-b67937f6-f425-407f-86ea-09797e05a97f"
         transform="translate(-149.04,-125.59)">
        <g
           transform="translate(154.939,136.84)"
           id="g170">
          <path
             d="M 3.515625,-1.265625 H 3.28125 c -0.015625,0.15625 -0.09375,0.5625 -0.1875,0.625 C 3.046875,-0.59375 2.515625,-0.59375 2.40625,-0.59375 H 1.125 c 0.734375,-0.640625 0.984375,-0.84375 1.390625,-1.171875 0.515625,-0.40625 1,-0.84375 1,-1.5 0,-0.84375 -0.734375,-1.359375 -1.625,-1.359375 -0.859375,0 -1.453125,0.609375 -1.453125,1.25 0,0.34375 0.296875,0.390625 0.375,0.390625 0.15625,0 0.359375,-0.125 0.359375,-0.375 0,-0.125 -0.046875,-0.375 -0.40625,-0.375 C 0.984375,-4.21875 1.453125,-4.375 1.78125,-4.375 c 0.703125,0 1.0625,0.546875 1.0625,1.109375 0,0.609375 -0.4375,1.078125 -0.65625,1.328125 L 0.515625,-0.265625 C 0.4375,-0.203125 0.4375,-0.1875 0.4375,0 h 2.875 z m 0,0"
             id="id-8ef39a1d-57ee-4092-986d-ebadaab4bff4" />
        </g>
      </g>
    </g>
    <path
       style="fill:none;fill-opacity:1;stroke:#000000;stroke-width:0.5;stroke-linecap:round;stroke-linejoin:round;stroke-miterlimit:0;stroke-dasharray:none;stroke-opacity:1;marker-end:url(#Triangle)"
       d="m 145.78761,43.565221 -9.23196,5.798464"
       id="path171"
       sodipodi:nodetypes="cc" />
    <g
       transform="matrix(0.705556,0,0,0.705556,146.578,36.9322)"
       ns3:version="1.10.2"
       ns3:texconverter="pdflatex"
       ns3:pdfconverter="inkscape"
       ns3:text="$\\bar{\\Gamma}_1$"
       ns3:preamble="/Users/knutan/Library/Application Support/org.inkscape.Inkscape/config/inkscape/extensions/textext/default_packages.tex"
       ns3:scale="1.9999999716535612"
       ns3:alignment="middle center"
       ns3:stroke-to-path="0"
       ns3:inkscapeversion="1.4"
       ns3:jacobian_sqrt="0.705556"
       id="g185">
      <defs
         id="id-312c3858-34b0-488f-afbb-a1d8001b365b">
        <g
           id="id-c2f92941-80f3-40e6-bf51-9aba229ce579">
          <g
             id="id-0b5b739d-f9ce-4b05-be31-521204dfdc6c">
            <path
               d="M 4.28125,-5.578125 V -5.875 H 0.6875 v 0.296875 z m 0,0"
               id="id-bc41f081-e91e-42a1-9214-bf83c68b7715" />
          </g>
          <g
             id="id-31c8c493-f029-4842-aef9-08f45c5266b4">
            <path
               d="m 5.515625,-6.78125 h -5.1875 v 0.3125 H 0.5625 c 0.765625,0 0.796875,0.109375 0.796875,0.46875 v 5.21875 c 0,0.359375 -0.03125,0.46875 -0.796875,0.46875 H 0.328125 V 0 c 0.34375,-0.03125 1.125,-0.03125 1.515625,-0.03125 0.40625,0 1.3125,0 1.671875,0.03125 V -0.3125 H 3.1875 C 2.25,-0.3125 2.25,-0.4375 2.25,-0.78125 v -5.296875 c 0,-0.328125 0.015625,-0.390625 0.484375,-0.390625 h 1.03125 c 1.421875,0 1.625,0.59375 1.78125,1.9375 h 0.25 z m 0,0"
               id="id-80ed9280-acac-4853-8cb6-3eca72f05755" />
          </g>
          <g
             id="id-053fd497-ebc3-4b50-8348-91a5b2c674e3">
            <path
               d="m 2.328125,-4.4375 c 0,-0.1875 0,-0.1875 -0.203125,-0.1875 -0.453125,0.4375 -1.078125,0.4375 -1.359375,0.4375 v 0.25 c 0.15625,0 0.625,0 1,-0.1875 v 3.546875 c 0,0.234375 0,0.328125 -0.6875,0.328125 H 0.8125 V 0 c 0.125,0 0.984375,-0.03125 1.234375,-0.03125 0.21875,0 1.09375,0.03125 1.25,0.03125 V -0.25 H 3.03125 c -0.703125,0 -0.703125,-0.09375 -0.703125,-0.328125 z m 0,0"
               id="id-1282cc1f-18fa-4d70-8f7c-7ef925e0de3f" />
          </g>
        </g>
      </defs>
      <g
         fill="#000000"
         fill-opacity="1"
         id="id-e66f2078-e415-4c79-bc8b-3680044a3b4b"
         transform="translate(-149.04,-126.371)">
        <g
           transform="translate(149.335,132.246)"
           id="g182">
          <path
             d="M 4.28125,-5.578125 V -5.875 H 0.6875 v 0.296875 z m 0,0"
             id="id-6cbe1ba4-22ec-4d9b-b889-d8a9e39a6958" />
        </g>
      </g>
      <g
         fill="#000000"
         fill-opacity="1"
         id="id-a07c45c8-aeb7-4054-b4c7-b929c06d4327"
         transform="translate(-149.04,-126.371)">
        <g
           transform="translate(148.712,134.765)"
           id="g183">
          <path
             d="m 5.515625,-6.78125 h -5.1875 v 0.3125 H 0.5625 c 0.765625,0 0.796875,0.109375 0.796875,0.46875 v 5.21875 c 0,0.359375 -0.03125,0.46875 -0.796875,0.46875 H 0.328125 V 0 c 0.34375,-0.03125 1.125,-0.03125 1.515625,-0.03125 0.40625,0 1.3125,0 1.671875,0.03125 V -0.3125 H 3.1875 C 2.25,-0.3125 2.25,-0.4375 2.25,-0.78125 v -5.296875 c 0,-0.328125 0.015625,-0.390625 0.484375,-0.390625 h 1.03125 c 1.421875,0 1.625,0.59375 1.78125,1.9375 h 0.25 z m 0,0"
             id="id-68902e96-ee62-4f6c-8a7d-13cd5620a2fb" />
        </g>
      </g>
      <g
         fill="#000000"
         fill-opacity="1"
         id="id-af8c26e4-0e56-4557-a752-83b33c6194fa"
         transform="translate(-149.04,-126.371)">
        <g
           transform="translate(154.939,136.84)"
           id="g184">
          <path
             d="m 2.328125,-4.4375 c 0,-0.1875 0,-0.1875 -0.203125,-0.1875 -0.453125,0.4375 -1.078125,0.4375 -1.359375,0.4375 v 0.25 c 0.15625,0 0.625,0 1,-0.1875 v 3.546875 c 0,0.234375 0,0.328125 -0.6875,0.328125 H 0.8125 V 0 c 0.125,0 0.984375,-0.03125 1.234375,-0.03125 0.21875,0 1.09375,0.03125 1.25,0.03125 V -0.25 H 3.03125 c -0.703125,0 -0.703125,-0.09375 -0.703125,-0.328125 z m 0,0"
             id="id-dc916b0d-2ee7-469b-88ac-c5662f738dba" />
        </g>
      </g>
    </g>
    <path
       style="fill:none;fill-opacity:1;stroke:#000000;stroke-width:0.5;stroke-linecap:round;stroke-linejoin:round;stroke-miterlimit:0;stroke-dasharray:none;stroke-opacity:1;marker-end:url(#Triangle)"
       d="m 170.37993,78.074764 6.47503,-3.624813"
       id="path185"
       sodipodi:nodetypes="cc" />
    <g
       transform="matrix(0.705556,0,0,0.705556,165.14951,75.397977)"
       ns3:version="1.10.2"
       ns3:texconverter="pdflatex"
       ns3:pdfconverter="inkscape"
       ns3:text="$\\bar{\\Gamma}_2$"
       ns3:preamble="/Users/knutan/Library/Application Support/org.inkscape.Inkscape/config/inkscape/extensions/textext/default_packages.tex"
       ns3:scale="1.9999999716535612"
       ns3:alignment="middle center"
       ns3:stroke-to-path="0"
       ns3:inkscapeversion="1.4"
       ns3:jacobian_sqrt="0.705556"
       id="g199">
      <defs
         id="id-697a4444-742a-4b2e-889c-c67d8a796a6d">
        <g
           id="id-b24b9d1a-e5ee-4fed-b92b-01da0fd6b819">
          <g
             id="id-695cb4e4-8789-4c0f-b40a-728b442c3623">
            <path
               d="M 4.28125,-5.578125 V -5.875 H 0.6875 v 0.296875 z m 0,0"
               id="id-b7372668-a2f0-4b2d-8394-dd091426a9c8" />
          </g>
          <g
             id="id-27633478-f893-4025-8330-08541dceafb9">
            <path
               d="m 5.515625,-6.78125 h -5.1875 v 0.3125 H 0.5625 c 0.765625,0 0.796875,0.109375 0.796875,0.46875 v 5.21875 c 0,0.359375 -0.03125,0.46875 -0.796875,0.46875 H 0.328125 V 0 c 0.34375,-0.03125 1.125,-0.03125 1.515625,-0.03125 0.40625,0 1.3125,0 1.671875,0.03125 V -0.3125 H 3.1875 C 2.25,-0.3125 2.25,-0.4375 2.25,-0.78125 v -5.296875 c 0,-0.328125 0.015625,-0.390625 0.484375,-0.390625 h 1.03125 c 1.421875,0 1.625,0.59375 1.78125,1.9375 h 0.25 z m 0,0"
               id="id-7bb35fdc-9019-4cc7-b542-89c096c1f34d" />
          </g>
          <g
             id="id-959b9102-0f71-4ade-b367-8126a90fca78">
            <path
               d="M 3.515625,-1.265625 H 3.28125 c -0.015625,0.15625 -0.09375,0.5625 -0.1875,0.625 C 3.046875,-0.59375 2.515625,-0.59375 2.40625,-0.59375 H 1.125 c 0.734375,-0.640625 0.984375,-0.84375 1.390625,-1.171875 0.515625,-0.40625 1,-0.84375 1,-1.5 0,-0.84375 -0.734375,-1.359375 -1.625,-1.359375 -0.859375,0 -1.453125,0.609375 -1.453125,1.25 0,0.34375 0.296875,0.390625 0.375,0.390625 0.15625,0 0.359375,-0.125 0.359375,-0.375 0,-0.125 -0.046875,-0.375 -0.40625,-0.375 C 0.984375,-4.21875 1.453125,-4.375 1.78125,-4.375 c 0.703125,0 1.0625,0.546875 1.0625,1.109375 0,0.609375 -0.4375,1.078125 -0.65625,1.328125 L 0.515625,-0.265625 C 0.4375,-0.203125 0.4375,-0.1875 0.4375,0 h 2.875 z m 0,0"
               id="id-aa7084a4-47be-433f-948f-ea6b55d9de7f" />
          </g>
        </g>
      </defs>
      <g
         fill="#000000"
         fill-opacity="1"
         id="id-d8f7925a-3ae6-4e7b-822b-dee57eef9619"
         transform="translate(-149.04,-126.371)">
        <g
           transform="translate(149.335,132.246)"
           id="g196">
          <path
             d="M 4.28125,-5.578125 V -5.875 H 0.6875 v 0.296875 z m 0,0"
             id="id-0c23b410-cf93-4b4a-9cb2-b3a5703fccb1" />
        </g>
      </g>
      <g
         fill="#000000"
         fill-opacity="1"
         id="id-6b153127-acd4-4d81-b822-b4eaec7eb744"
         transform="translate(-149.04,-126.371)">
        <g
           transform="translate(148.712,134.765)"
           id="g197">
          <path
             d="m 5.515625,-6.78125 h -5.1875 v 0.3125 H 0.5625 c 0.765625,0 0.796875,0.109375 0.796875,0.46875 v 5.21875 c 0,0.359375 -0.03125,0.46875 -0.796875,0.46875 H 0.328125 V 0 c 0.34375,-0.03125 1.125,-0.03125 1.515625,-0.03125 0.40625,0 1.3125,0 1.671875,0.03125 V -0.3125 H 3.1875 C 2.25,-0.3125 2.25,-0.4375 2.25,-0.78125 v -5.296875 c 0,-0.328125 0.015625,-0.390625 0.484375,-0.390625 h 1.03125 c 1.421875,0 1.625,0.59375 1.78125,1.9375 h 0.25 z m 0,0"
             id="id-902f2b13-fdfd-48f9-abb8-655e0cd04174" />
        </g>
      </g>
      <g
         fill="#000000"
         fill-opacity="1"
         id="id-9a8d13a8-1756-4e1f-925a-c65f6a1da1d7"
         transform="translate(-149.04,-126.371)">
        <g
           transform="translate(154.939,136.84)"
           id="g198">
          <path
             d="M 3.515625,-1.265625 H 3.28125 c -0.015625,0.15625 -0.09375,0.5625 -0.1875,0.625 C 3.046875,-0.59375 2.515625,-0.59375 2.40625,-0.59375 H 1.125 c 0.734375,-0.640625 0.984375,-0.84375 1.390625,-1.171875 0.515625,-0.40625 1,-0.84375 1,-1.5 0,-0.84375 -0.734375,-1.359375 -1.625,-1.359375 -0.859375,0 -1.453125,0.609375 -1.453125,1.25 0,0.34375 0.296875,0.390625 0.375,0.390625 0.15625,0 0.359375,-0.125 0.359375,-0.375 0,-0.125 -0.046875,-0.375 -0.40625,-0.375 C 0.984375,-4.21875 1.453125,-4.375 1.78125,-4.375 c 0.703125,0 1.0625,0.546875 1.0625,1.109375 0,0.609375 -0.4375,1.078125 -0.65625,1.328125 L 0.515625,-0.265625 C 0.4375,-0.203125 0.4375,-0.1875 0.4375,0 h 2.875 z m 0,0"
             id="id-db793dc8-bb06-4e5c-9562-ff5bf4b4ccc5" />
        </g>
      </g>
    </g>
  </g>
</svg>
