<?xml version="1.0" encoding="UTF-8" standalone="no"?>
<!-- Created with Inkscape (http://www.inkscape.org/) -->

<svg
   version="1.1"
   id="svg1"
   width="795.04028"
   height="256.54785"
   viewBox="0 0 795.04028 256.54785"
   sodipodi:docname="heatequation_viapdf.svg"
   inkscape:version="1.4 (e7c3feb1, 2024-10-09)"
   xmlns:inkscape="http://www.inkscape.org/namespaces/inkscape"
   xmlns:sodipodi="http://sodipodi.sourceforge.net/DTD/sodipodi-0.dtd"
   xmlns="http://www.w3.org/2000/svg"
   xmlns:svg="http://www.w3.org/2000/svg">
  <defs
     id="defs1" />
  <sodipodi:namedview
     id="namedview1"
     pagecolor="#ffffff"
     bordercolor="#000000"
     borderopacity="0.25"
     inkscape:showpageshadow="2"
     inkscape:pageopacity="0.0"
     inkscape:pagecheckerboard="0"
     inkscape:deskcolor="#d1d1d1"
     inkscape:zoom="0.10134562"
     inkscape:cx="399.62262"
     inkscape:cy="128.27393"
     inkscape:window-width="1512"
     inkscape:window-height="917"
     inkscape:window-x="0"
     inkscape:window-y="65"
     inkscape:window-maximized="0"
     inkscape:current-layer="g1">
    <inkscape:page
       x="0"
       y="0"
       inkscape:label="1"
       id="page1"
       width="795.04028"
       height="256.54785"
       margin="0"
       bleed="0" />
  </sodipodi:namedview>
  <g
     id="g1"
     inkscape:groupmode="layer"
     inkscape:label="1">
    <path
       id="path1"
       d="m 22.855,76.395 h 317.371 v 36.129 H 22.855 Z"
       style="fill:none;stroke:#000000;stroke-width:2.83465;stroke-linecap:round;stroke-linejoin:miter;stroke-miterlimit:1;stroke-dasharray:none;stroke-opacity:1"
       transform="scale(1.3333333)" />
    <path
       id="path2"
       d="m 143.184,76.395 h 38.359 v 36.129 h -38.359 z"
       style="fill:#c8c8c8;fill-opacity:1;fill-rule:nonzero;stroke:#000000;stroke-width:2.83463;stroke-linecap:round;stroke-linejoin:miter;stroke-miterlimit:1;stroke-dasharray:none;stroke-opacity:1"
       transform="scale(1.3333333)" />
    <path
       id="path3"
       d="M 22.855,145.457 H 380.312"
       style="fill:none;stroke:#000000;stroke-width:2.83465;stroke-linecap:round;stroke-linejoin:miter;stroke-miterlimit:1;stroke-dasharray:none;stroke-opacity:1"
       transform="scale(1.3333333)" />
    <path
       id="path4"
       d="M 22.855,156.797 V 134.121"
       style="fill:none;stroke:#000000;stroke-width:2.83465;stroke-linecap:butt;stroke-linejoin:miter;stroke-miterlimit:4;stroke-dasharray:none;stroke-opacity:1"
       transform="scale(1.3333333)" />
    <path
       id="path5"
       d="m 388.492,145.457 -12.258,7.09 v -14.176 z"
       style="fill:#000000;fill-opacity:1;fill-rule:evenodd;stroke:#000000;stroke-width:1.88976;stroke-linecap:butt;stroke-linejoin:miter;stroke-miterlimit:4;stroke-dasharray:none;stroke-opacity:1"
       transform="scale(1.3333333)" />
    <path
       id="path6"
       d="m 143.184,135.582 v 19.754"
       style="fill:none;stroke:#000000;stroke-width:2.83464;stroke-linecap:square;stroke-linejoin:miter;stroke-miterlimit:1;stroke-dasharray:none;stroke-opacity:1"
       transform="scale(1.3333333)" />
    <path
       id="path7"
       d="m 181.543,135.582 v 19.754"
       style="fill:none;stroke:#000000;stroke-width:2.83464;stroke-linecap:square;stroke-linejoin:miter;stroke-miterlimit:1;stroke-dasharray:none;stroke-opacity:1"
       transform="scale(1.3333333)" />
    <path
       id="path8"
       d="m 340.227,135.582 v 19.754"
       style="fill:none;stroke:#000000;stroke-width:2.83464;stroke-linecap:square;stroke-linejoin:miter;stroke-miterlimit:1;stroke-dasharray:none;stroke-opacity:1"
       transform="scale(1.3333333)" />
    <path
       id="path9"
       d="m 389.309,126.16 c 0.125,-0.5 0.593,-2.344 1.968,-2.344 0.094,0 0.594,0 1,0.25 -0.562,0.125 -0.937,0.594 -0.937,1.094 0,0.313 0.219,0.688 0.75,0.688 0.437,0 1.062,-0.344 1.062,-1.157 0,-1.031 -1.156,-1.312 -1.843,-1.312 -1.157,0 -1.844,1.062 -2.094,1.5 -0.5,-1.313 -1.563,-1.5 -2.156,-1.5 -2.063,0 -3.219,2.562 -3.219,3.062 0,0.219 0.219,0.219 0.25,0.219 0.156,0 0.219,-0.062 0.25,-0.219 0.687,-2.125 2,-2.625 2.687,-2.625 0.375,0 1.063,0.188 1.063,1.344 0,0.625 -0.344,1.938 -1.063,4.75 -0.312,1.219 -1.031,2.063 -1.906,2.063 -0.125,0 -0.562,0 -1,-0.25 0.5,-0.125 0.938,-0.532 0.938,-1.094 0,-0.531 -0.438,-0.688 -0.719,-0.688 -0.625,0 -1.094,0.5 -1.094,1.157 0,0.906 0.969,1.312 1.844,1.312 1.344,0 2.062,-1.406 2.094,-1.5 0.25,0.719 0.968,1.5 2.156,1.5 2.062,0 3.187,-2.562 3.187,-3.062 0,-0.219 -0.156,-0.219 -0.218,-0.219 -0.188,0 -0.219,0.094 -0.282,0.219 -0.656,2.156 -2,2.625 -2.625,2.625 -0.781,0 -1.093,-0.625 -1.093,-1.313 0,-0.437 0.093,-0.875 0.312,-1.75 z"
       style="fill:#000000;fill-opacity:1;fill-rule:nonzero;stroke:none"
       transform="scale(1.3333333)" />
    <path
       id="path10"
       d="m 144.293,169.863 c 0.125,-0.5 0.594,-2.343 1.969,-2.343 0.093,0 0.593,0 1,0.25 -0.563,0.125 -0.938,0.593 -0.938,1.093 0,0.313 0.219,0.688 0.75,0.688 0.438,0 1.063,-0.344 1.063,-1.156 0,-1.032 -1.157,-1.313 -1.844,-1.313 -1.156,0 -1.844,1.063 -2.094,1.5 -0.5,-1.312 -1.562,-1.5 -2.156,-1.5 -2.063,0 -3.219,2.563 -3.219,3.063 0,0.218 0.219,0.218 0.25,0.218 0.156,0 0.219,-0.062 0.25,-0.218 0.688,-2.125 2,-2.625 2.688,-2.625 0.375,0 1.062,0.187 1.062,1.343 0,0.625 -0.344,1.938 -1.062,4.75 -0.313,1.219 -1.032,2.063 -1.907,2.063 -0.125,0 -0.562,0 -1,-0.25 0.5,-0.125 0.938,-0.531 0.938,-1.094 0,-0.531 -0.438,-0.687 -0.719,-0.687 -0.625,0 -1.094,0.5 -1.094,1.156 0,0.906 0.969,1.312 1.844,1.312 1.344,0 2.063,-1.406 2.094,-1.5 0.25,0.719 0.969,1.5 2.156,1.5 2.063,0 3.188,-2.562 3.188,-3.062 0,-0.219 -0.157,-0.219 -0.219,-0.219 -0.188,0 -0.219,0.094 -0.281,0.219 -0.657,2.156 -2,2.625 -2.625,2.625 -0.782,0 -1.094,-0.625 -1.094,-1.313 0,-0.437 0.094,-0.875 0.312,-1.75 z"
       style="fill:#000000;fill-opacity:1;fill-rule:nonzero;stroke:none"
       transform="scale(1.3333333)" />
    <path
       id="path11"
       d="m 183.645,169.895 c 0.125,-0.5 0.593,-2.344 1.968,-2.344 0.094,0 0.594,0 1,0.25 -0.562,0.125 -0.937,0.594 -0.937,1.094 0,0.312 0.219,0.687 0.75,0.687 0.437,0 1.062,-0.344 1.062,-1.156 0,-1.031 -1.156,-1.313 -1.843,-1.313 -1.157,0 -1.844,1.063 -2.094,1.5 -0.5,-1.312 -1.563,-1.5 -2.156,-1.5 -2.063,0 -3.219,2.563 -3.219,3.063 0,0.219 0.219,0.219 0.25,0.219 0.156,0 0.219,-0.063 0.25,-0.219 0.687,-2.125 2,-2.625 2.687,-2.625 0.375,0 1.063,0.187 1.063,1.344 0,0.625 -0.344,1.937 -1.063,4.75 -0.312,1.218 -1.031,2.062 -1.906,2.062 -0.125,0 -0.562,0 -1,-0.25 0.5,-0.125 0.938,-0.531 0.938,-1.094 0,-0.531 -0.438,-0.687 -0.719,-0.687 -0.625,0 -1.094,0.5 -1.094,1.156 0,0.906 0.969,1.313 1.844,1.313 1.344,0 2.062,-1.407 2.094,-1.5 0.25,0.718 0.968,1.5 2.156,1.5 2.062,0 3.187,-2.563 3.187,-3.063 0,-0.219 -0.156,-0.219 -0.218,-0.219 -0.188,0 -0.219,0.094 -0.282,0.219 -0.656,2.156 -2,2.625 -2.625,2.625 -0.781,0 -1.093,-0.625 -1.093,-1.312 0,-0.438 0.093,-0.875 0.312,-1.75 z"
       style="fill:#000000;fill-opacity:1;fill-rule:nonzero;stroke:none"
       transform="scale(1.3333333)" />
    <path
       id="path12"
       d="m 200.961,171.332 h 5.562 c 0.282,0 0.657,0 0.657,-0.406 0,-0.375 -0.375,-0.375 -0.657,-0.375 h -5.562 v -5.594 c 0,-0.281 0,-0.656 -0.406,-0.656 -0.407,0 -0.407,0.375 -0.407,0.656 v 5.594 h -5.562 c -0.281,0 -0.656,0 -0.656,0.375 0,0.406 0.375,0.406 0.656,0.406 h 5.562 v 5.594 c 0,0.281 0,0.656 0.407,0.656 0.406,0 0.406,-0.375 0.406,-0.656 z"
       style="fill:#000000;fill-opacity:1;fill-rule:nonzero;stroke:none"
       transform="scale(1.3333333)" />
    <path
       id="path13"
       d="m 221.539,162.02 c -0.125,-0.282 -0.187,-0.375 -0.531,-0.375 -0.313,0 -0.375,0.093 -0.5,0.375 l -6.75,13.5 c -0.094,0.187 -0.094,0.218 -0.094,0.25 0,0.156 0.125,0.156 0.438,0.156 h 13.843 c 0.313,0 0.438,0 0.438,-0.156 0,-0.032 0,-0.063 -0.094,-0.25 z m -1.156,1.625 5.375,10.781 h -10.75 z"
       style="fill:#000000;fill-opacity:1;fill-rule:nonzero;stroke:none"
       transform="scale(1.3333333)" />
    <path
       id="path14"
       d="m 235.992,169.895 c 0.125,-0.5 0.594,-2.344 1.969,-2.344 0.094,0 0.594,0 1,0.25 -0.563,0.125 -0.938,0.594 -0.938,1.094 0,0.312 0.219,0.687 0.75,0.687 0.438,0 1.063,-0.344 1.063,-1.156 0,-1.031 -1.156,-1.313 -1.844,-1.313 -1.156,0 -1.844,1.063 -2.094,1.5 -0.5,-1.312 -1.562,-1.5 -2.156,-1.5 -2.062,0 -3.219,2.563 -3.219,3.063 0,0.219 0.219,0.219 0.25,0.219 0.157,0 0.219,-0.063 0.25,-0.219 0.688,-2.125 2,-2.625 2.688,-2.625 0.375,0 1.062,0.187 1.062,1.344 0,0.625 -0.343,1.937 -1.062,4.75 -0.313,1.218 -1.031,2.062 -1.906,2.062 -0.125,0 -0.563,0 -1,-0.25 0.5,-0.125 0.937,-0.531 0.937,-1.094 0,-0.531 -0.437,-0.687 -0.719,-0.687 -0.625,0 -1.093,0.5 -1.093,1.156 0,0.906 0.968,1.313 1.843,1.313 1.344,0 2.063,-1.407 2.094,-1.5 0.25,0.718 0.969,1.5 2.156,1.5 2.063,0 3.188,-2.563 3.188,-3.063 0,-0.219 -0.156,-0.219 -0.219,-0.219 -0.187,0 -0.219,0.094 -0.281,0.219 -0.656,2.156 -2,2.625 -2.625,2.625 -0.781,0 -1.094,-0.625 -1.094,-1.312 0,-0.438 0.094,-0.875 0.313,-1.75 z"
       style="fill:#000000;fill-opacity:1;fill-rule:nonzero;stroke:none"
       transform="scale(1.3333333)" />
    <path
       id="path15"
       d="m 340.922,165.52 c 0.156,-0.719 0.219,-0.938 2.094,-0.938 0.593,0 0.75,0 0.75,-0.375 0,-0.25 -0.219,-0.25 -0.313,-0.25 -0.656,0 -2.281,0.063 -2.937,0.063 -0.594,0 -2.063,-0.063 -2.657,-0.063 -0.125,0 -0.375,0 -0.375,0.406 0,0.219 0.188,0.219 0.563,0.219 0.031,0 0.406,0 0.75,0.031 0.344,0.063 0.531,0.063 0.531,0.344 0,0.063 0,0.125 -0.062,0.375 l -2.688,10.688 c -0.187,0.781 -0.219,0.937 -1.812,0.937 -0.344,0 -0.532,0 -0.532,0.406 0,0.219 0.188,0.219 0.532,0.219 h 9.25 c 0.468,0 0.468,0 0.593,-0.344 l 1.594,-4.312 c 0.063,-0.219 0.063,-0.25 0.063,-0.281 0,-0.063 -0.063,-0.219 -0.219,-0.219 -0.188,0 -0.219,0.125 -0.344,0.437 -0.687,1.813 -1.562,4.094 -5,4.094 h -1.875 c -0.281,0 -0.344,0 -0.437,0 -0.219,-0.031 -0.282,-0.062 -0.282,-0.219 0,-0.062 0,-0.093 0.094,-0.437 z"
       style="fill:#000000;fill-opacity:1;fill-rule:nonzero;stroke:none"
       transform="scale(1.3333333)" />
    <path
       id="path16"
       d="m 134.547,22.453 c 0,0 -0.199,5.707 0,8.547 0.285,4.059 2.336,8.07 1.699,12.09 -0.531,3.383 -4.262,5.828 -4.492,9.246 -0.223,3.301 2.973,6.117 3.098,9.422 0.082,2.164 -1.262,4.164 -1.555,6.308 -0.371,2.754 -0.242,8.329 -0.242,8.329"
       style="fill:none;stroke:#ff0000;stroke-width:2.83465;stroke-linecap:square;stroke-linejoin:miter;stroke-miterlimit:1;stroke-dasharray:none;stroke-opacity:1"
       transform="scale(1.3333333)" />
    <path
       id="path17"
       d="m 87.657,-131.184 -12.257,7.083 -0.003,-14.168 z"
       style="fill:#ff0000;fill-opacity:1;fill-rule:evenodd;stroke:#ff0000;stroke-width:1.88924;stroke-linecap:butt;stroke-linejoin:miter;stroke-miterlimit:4;stroke-dasharray:none;stroke-opacity:1"
       transform="matrix(0.03136813,1.3333333,-1.3333333,0.03136813,0,0)" />
    <path
       id="path18"
       d="m 337.473,20.535 c 0,0 0,-0.219 -0.25,-0.219 -0.469,0 -1.907,0.157 -2.438,0.219 -0.156,0 -0.375,0.031 -0.375,0.375 0,0.25 0.188,0.25 0.469,0.25 0.969,0 1,0.125 1,0.344 l -0.063,0.406 -2.875,11.469 c -0.093,0.281 -0.093,0.312 -0.093,0.437 0,0.469 0.406,0.563 0.593,0.563 0.313,0 0.625,-0.25 0.719,-0.531 l 0.375,-1.5 0.438,-1.782 c 0.125,-0.468 0.25,-0.906 0.343,-1.343 0.032,-0.125 0.219,-0.782 0.219,-0.907 0.063,-0.187 0.688,-1.281 1.375,-1.843 0.438,-0.313 1.031,-0.688 1.906,-0.688 0.844,0 1.063,0.688 1.063,1.406 0,1.063 -0.75,3.25 -1.219,4.469 -0.156,0.438 -0.281,0.688 -0.281,1.094 0,0.937 0.719,1.625 1.656,1.625 1.875,0 2.594,-2.906 2.594,-3.063 0,-0.218 -0.156,-0.218 -0.219,-0.218 -0.219,0 -0.219,0.062 -0.312,0.375 -0.282,1.062 -0.938,2.468 -2.032,2.468 -0.343,0 -0.468,-0.187 -0.468,-0.656 0,-0.5 0.156,-0.969 0.343,-1.406 0.313,-0.875 1.219,-3.25 1.219,-4.406 0,-1.282 -0.781,-2.125 -2.281,-2.125 -1.25,0 -2.219,0.625 -2.969,1.531 z"
       style="fill:#ff0000;fill-opacity:1;fill-rule:nonzero;stroke:none"
       transform="scale(1.3333333)" />
    <path
       id="path19"
       d="m 349.828,38.941 c 0,-0.062 0,-0.093 -0.344,-0.437 -2.468,-2.5 -3.125,-6.281 -3.125,-9.344 0,-3.469 0.75,-6.937 3.219,-9.406 0.25,-0.25 0.25,-0.281 0.25,-0.344 0,-0.156 -0.062,-0.219 -0.187,-0.219 -0.219,0 -2,1.375 -3.188,3.907 -1,2.187 -1.25,4.406 -1.25,6.062 0,1.563 0.219,3.969 1.313,6.25 1.218,2.438 2.906,3.75 3.125,3.75 0.125,0 0.187,-0.062 0.187,-0.219 z"
       style="fill:#ff0000;fill-opacity:1;fill-rule:nonzero;stroke:none"
       transform="scale(1.3333333)" />
    <path
       id="path20"
       d="m 357.641,28.129 c 0.125,-0.5 0.593,-2.344 1.968,-2.344 0.094,0 0.594,0 1,0.25 -0.562,0.125 -0.937,0.594 -0.937,1.094 0,0.312 0.219,0.687 0.75,0.687 0.437,0 1.062,-0.343 1.062,-1.156 0,-1.031 -1.156,-1.312 -1.843,-1.312 -1.157,0 -1.844,1.062 -2.094,1.5 -0.5,-1.313 -1.563,-1.5 -2.156,-1.5 -2.063,0 -3.219,2.562 -3.219,3.062 0,0.219 0.219,0.219 0.25,0.219 0.156,0 0.219,-0.063 0.25,-0.219 0.687,-2.125 2,-2.625 2.687,-2.625 0.375,0 1.063,0.188 1.063,1.344 0,0.625 -0.344,1.937 -1.063,4.75 -0.312,1.219 -1.031,2.062 -1.906,2.062 -0.125,0 -0.562,0 -1,-0.25 0.5,-0.125 0.938,-0.531 0.938,-1.093 0,-0.532 -0.438,-0.688 -0.719,-0.688 -0.625,0 -1.094,0.5 -1.094,1.156 0,0.907 0.969,1.313 1.844,1.313 1.344,0 2.062,-1.406 2.094,-1.5 0.25,0.719 0.968,1.5 2.156,1.5 2.062,0 3.187,-2.563 3.187,-3.063 0,-0.218 -0.156,-0.218 -0.218,-0.218 -0.188,0 -0.219,0.093 -0.282,0.218 -0.656,2.157 -2,2.625 -2.625,2.625 -0.781,0 -1.093,-0.625 -1.093,-1.312 0,-0.438 0.093,-0.875 0.312,-1.75 z"
       style="fill:#ff0000;fill-opacity:1;fill-rule:nonzero;stroke:none"
       transform="scale(1.3333333)" />
    <path
       id="path21"
       d="m 368.121,29.16 c 0,-1.531 -0.219,-3.937 -1.312,-6.219 -1.188,-2.437 -2.907,-3.75 -3.094,-3.75 -0.125,0 -0.219,0.094 -0.219,0.219 0,0.063 0,0.094 0.375,0.469 1.969,1.969 3.094,5.125 3.094,9.281 0,3.438 -0.719,6.938 -3.188,9.438 -0.281,0.25 -0.281,0.281 -0.281,0.343 0,0.125 0.094,0.219 0.219,0.219 0.187,0 2,-1.375 3.156,-3.906 1.031,-2.188 1.25,-4.406 1.25,-6.094 z"
       style="fill:#ff0000;fill-opacity:1;fill-rule:nonzero;stroke:none"
       transform="scale(1.3333333)" />
    <path
       id="path22"
       d="M 264.641,94.457 H 290.93"
       style="fill:none;stroke:#ff7d00;stroke-width:2.83465;stroke-linecap:square;stroke-linejoin:miter;stroke-miterlimit:1;stroke-dasharray:none;stroke-opacity:1"
       transform="scale(1.3333333)" />
    <path
       id="path23"
       d="m 299.105,94.457 -12.257,7.09 V 87.371 Z"
       style="fill:#ff7d00;fill-opacity:1;fill-rule:evenodd;stroke:#ff7d00;stroke-width:1.88976;stroke-linecap:butt;stroke-linejoin:miter;stroke-miterlimit:4;stroke-dasharray:none;stroke-opacity:1"
       transform="scale(1.3333333)" />
    <path
       id="path24"
       d="m 304.938,94.457 h 26.289"
       style="fill:none;stroke:#ff7d00;stroke-width:2.83465;stroke-linecap:square;stroke-linejoin:miter;stroke-miterlimit:1;stroke-dasharray:none;stroke-opacity:1"
       transform="scale(1.3333333)" />
    <path
       id="path25"
       d="m 339.406,94.457 -12.261,7.09 V 87.371 Z"
       style="fill:#ff7d00;fill-opacity:1;fill-rule:evenodd;stroke:#ff7d00;stroke-width:1.88976;stroke-linecap:butt;stroke-linejoin:miter;stroke-miterlimit:4;stroke-dasharray:none;stroke-opacity:1"
       transform="scale(1.3333333)" />
    <path
       id="path26"
       d="m 22.855,94.457 h 26.29"
       style="fill:none;stroke:#ff7d00;stroke-width:2.83465;stroke-linecap:square;stroke-linejoin:miter;stroke-miterlimit:1;stroke-dasharray:none;stroke-opacity:1"
       transform="scale(1.3333333)" />
    <path
       id="path27"
       d="m 57.32,94.457 -12.258,7.09 V 87.371 Z"
       style="fill:#ff7d00;fill-opacity:1;fill-rule:evenodd;stroke:#ff7d00;stroke-width:1.88976;stroke-linecap:butt;stroke-linejoin:miter;stroke-miterlimit:4;stroke-dasharray:none;stroke-opacity:1"
       transform="scale(1.3333333)" />
    <path
       id="path28"
       d="M 63.152,94.457 H 89.441"
       style="fill:none;stroke:#ff7d00;stroke-width:2.83465;stroke-linecap:square;stroke-linejoin:miter;stroke-miterlimit:1;stroke-dasharray:none;stroke-opacity:1"
       transform="scale(1.3333333)" />
    <path
       id="path29"
       d="m 97.617,94.457 -12.258,7.09 V 87.371 Z"
       style="fill:#ff7d00;fill-opacity:1;fill-rule:evenodd;stroke:#ff7d00;stroke-width:1.88976;stroke-linecap:butt;stroke-linejoin:miter;stroke-miterlimit:4;stroke-dasharray:none;stroke-opacity:1"
       transform="scale(1.3333333)" />
    <path
       id="path30"
       d="m 103.453,94.457 h 26.285"
       style="fill:none;stroke:#ff7d00;stroke-width:2.83465;stroke-linecap:square;stroke-linejoin:miter;stroke-miterlimit:1;stroke-dasharray:none;stroke-opacity:1"
       transform="scale(1.3333333)" />
    <path
       id="path31"
       d="m 137.918,94.457 -12.262,7.09 V 87.371 Z"
       style="fill:#ff7d00;fill-opacity:1;fill-rule:evenodd;stroke:#ff7d00;stroke-width:1.88976;stroke-linecap:butt;stroke-linejoin:miter;stroke-miterlimit:4;stroke-dasharray:none;stroke-opacity:1"
       transform="scale(1.3333333)" />
    <path
       id="path32"
       d="m 143.75,94.457 h 26.285"
       style="fill:none;stroke:#ff7d00;stroke-width:2.83465;stroke-linecap:square;stroke-linejoin:miter;stroke-miterlimit:1;stroke-dasharray:none;stroke-opacity:1"
       transform="scale(1.3333333)" />
    <path
       id="path33"
       d="m 178.215,94.457 -12.262,7.09 V 87.371 Z"
       style="fill:#ff7d00;fill-opacity:1;fill-rule:evenodd;stroke:#ff7d00;stroke-width:1.88976;stroke-linecap:butt;stroke-linejoin:miter;stroke-miterlimit:4;stroke-dasharray:none;stroke-opacity:1"
       transform="scale(1.3333333)" />
    <path
       id="path34"
       d="m 184.047,94.457 h 26.285"
       style="fill:none;stroke:#ff7d00;stroke-width:2.83465;stroke-linecap:square;stroke-linejoin:miter;stroke-miterlimit:1;stroke-dasharray:none;stroke-opacity:1"
       transform="scale(1.3333333)" />
    <path
       id="path35"
       d="m 218.512,94.457 -12.258,7.09 V 87.371 Z"
       style="fill:#ff7d00;fill-opacity:1;fill-rule:evenodd;stroke:#ff7d00;stroke-width:1.88976;stroke-linecap:butt;stroke-linejoin:miter;stroke-miterlimit:4;stroke-dasharray:none;stroke-opacity:1"
       transform="scale(1.3333333)" />
    <path
       id="path36"
       d="m 224.344,94.457 h 26.289"
       style="fill:none;stroke:#ff7d00;stroke-width:2.83465;stroke-linecap:square;stroke-linejoin:miter;stroke-miterlimit:1;stroke-dasharray:none;stroke-opacity:1"
       transform="scale(1.3333333)" />
    <path
       id="path37"
       d="m 258.809,94.457 -12.258,7.09 V 87.371 Z"
       style="fill:#ff7d00;fill-opacity:1;fill-rule:evenodd;stroke:#ff7d00;stroke-width:1.88976;stroke-linecap:butt;stroke-linejoin:miter;stroke-miterlimit:4;stroke-dasharray:none;stroke-opacity:1"
       transform="scale(1.3333333)" />
    <path
       id="path38"
       d="m 361.328,91.234 c 0,-0.093 -0.062,-0.187 -0.187,-0.187 -0.219,0 -1.032,0.781 -1.344,1.375 -0.438,-1.094 -1.219,-1.406 -1.875,-1.406 -2.344,0 -4.781,2.937 -4.781,5.843 0,1.938 1.156,3.188 2.625,3.188 0.843,0 1.625,-0.469 2.343,-1.188 -0.187,0.688 -0.843,3.375 -0.906,3.563 -0.156,0.562 -0.312,0.625 -1.437,0.656 -0.25,0 -0.438,0 -0.438,0.406 0,0 0,0.219 0.25,0.219 0.625,0 1.344,-0.062 2,-0.062 0.656,0 1.375,0.062 2.063,0.062 0.093,0 0.343,0 0.343,-0.406 0,-0.219 -0.187,-0.219 -0.531,-0.219 -0.937,0 -0.937,-0.125 -0.937,-0.312 0,-0.157 0.031,-0.282 0.062,-0.438 z m -5.5,8.375 c -1.219,0 -1.281,-1.531 -1.281,-1.875 0,-0.968 0.562,-3.125 0.906,-3.968 0.625,-1.469 1.656,-2.313 2.469,-2.313 1.312,0 1.594,1.625 1.594,1.75 0,0.125 -1.094,4.5 -1.157,4.563 -0.312,0.562 -1.437,1.843 -2.531,1.843 z"
       style="fill:#ff7d00;fill-opacity:1;fill-rule:nonzero;stroke:none"
       transform="scale(1.3333333)" />
    <path
       id="path39"
       d="m 368.531,104.609 c 0,-0.062 0,-0.093 -0.343,-0.437 -2.469,-2.5 -3.126,-6.281 -3.126,-9.344 0,-3.469 0.75,-6.937 3.219,-9.406 0.25,-0.25 0.25,-0.281 0.25,-0.344 0,-0.156 -0.062,-0.219 -0.187,-0.219 -0.219,0 -2,1.375 -3.188,3.907 -1,2.187 -1.25,4.406 -1.25,6.062 0,1.563 0.219,3.969 1.313,6.25 1.219,2.438 2.906,3.75 3.125,3.75 0.125,0 0.187,-0.062 0.187,-0.219 z"
       style="fill:#ff7d00;fill-opacity:1;fill-rule:nonzero;stroke:none"
       transform="scale(1.3333333)" />
    <path
       id="path40"
       d="m 376.344,93.797 c 0.125,-0.5 0.594,-2.344 1.968,-2.344 0.094,0 0.594,0 1,0.25 -0.562,0.125 -0.937,0.594 -0.937,1.094 0,0.312 0.219,0.687 0.75,0.687 0.437,0 1.063,-0.343 1.063,-1.156 0,-1.031 -1.157,-1.312 -1.844,-1.312 -1.156,0 -1.844,1.062 -2.094,1.5 -0.5,-1.313 -1.562,-1.5 -2.156,-1.5 -2.063,0 -3.219,2.562 -3.219,3.062 0,0.219 0.219,0.219 0.25,0.219 0.156,0 0.219,-0.063 0.25,-0.219 0.687,-2.125 2,-2.625 2.687,-2.625 0.376,0 1.063,0.188 1.063,1.344 0,0.625 -0.344,1.937 -1.063,4.75 -0.312,1.219 -1.031,2.062 -1.906,2.062 -0.125,0 -0.562,0 -1,-0.25 0.5,-0.125 0.938,-0.531 0.938,-1.093 0,-0.532 -0.438,-0.688 -0.719,-0.688 -0.625,0 -1.094,0.5 -1.094,1.156 0,0.907 0.969,1.313 1.844,1.313 1.344,0 2.063,-1.406 2.094,-1.5 0.25,0.719 0.969,1.5 2.156,1.5 2.063,0 3.187,-2.563 3.187,-3.063 0,-0.218 -0.156,-0.218 -0.218,-0.218 -0.188,0 -0.219,0.093 -0.282,0.218 -0.656,2.157 -2,2.625 -2.624,2.625 -0.782,0 -1.094,-0.625 -1.094,-1.312 0,-0.438 0.094,-0.875 0.312,-1.75 z"
       style="fill:#ff7d00;fill-opacity:1;fill-rule:nonzero;stroke:none"
       transform="scale(1.3333333)" />
    <path
       id="path41"
       d="m 386.824,94.828 c 0,-1.531 -0.219,-3.937 -1.312,-6.219 -1.188,-2.437 -2.907,-3.75 -3.094,-3.75 -0.125,0 -0.219,0.094 -0.219,0.219 0,0.063 0,0.094 0.375,0.469 1.969,1.969 3.094,5.125 3.094,9.281 0,3.438 -0.719,6.938 -3.188,9.438 -0.281,0.25 -0.281,0.281 -0.281,0.343 0,0.125 0.094,0.219 0.219,0.219 0.187,0 2,-1.375 3.156,-3.906 1.031,-2.188 1.25,-4.406 1.25,-6.094 z"
       style="fill:#ff7d00;fill-opacity:1;fill-rule:nonzero;stroke:none"
       transform="scale(1.3333333)" />
    <path
       id="path42"
       d="m 87.891,22.453 c 0,0 -0.2,5.707 0,8.547 0.285,4.059 2.336,8.07 1.699,12.09 -0.531,3.383 -4.262,5.828 -4.492,9.246 -0.223,3.301 2.972,6.117 3.097,9.422 0.082,2.164 -1.261,4.164 -1.554,6.308 -0.371,2.754 -0.243,8.329 -0.243,8.329"
       style="fill:none;stroke:#ff0000;stroke-width:2.83465;stroke-linecap:square;stroke-linejoin:miter;stroke-miterlimit:1;stroke-dasharray:none;stroke-opacity:1"
       transform="scale(1.3333333)" />
    <path
       id="path43"
       d="M 86.56,-84.553 74.303,-77.471 74.3,-91.639 Z"
       style="fill:#ff0000;fill-opacity:1;fill-rule:evenodd;stroke:#ff0000;stroke-width:1.88924;stroke-linecap:butt;stroke-linejoin:miter;stroke-miterlimit:4;stroke-dasharray:none;stroke-opacity:1"
       transform="matrix(0.03136813,1.3333333,-1.3333333,0.03136813,0,0)" />
    <path
       id="path44"
       d="m 41.234,22.453 c 0,0 -0.199,5.707 0,8.547 0.286,4.059 2.336,8.07 1.704,12.09 -0.536,3.383 -4.266,5.828 -4.497,9.246 -0.222,3.301 2.973,6.117 3.098,9.422 0.082,2.164 -1.262,4.164 -1.551,6.308 -0.375,2.754 -0.246,8.329 -0.246,8.329"
       style="fill:none;stroke:#ff0000;stroke-width:2.83465;stroke-linecap:square;stroke-linejoin:miter;stroke-miterlimit:1;stroke-dasharray:none;stroke-opacity:1"
       transform="scale(1.3333333)" />
    <path
       id="path45"
       d="M 85.463,-37.927 73.206,-30.84 73.203,-45.008 Z"
       style="fill:#ff0000;fill-opacity:1;fill-rule:evenodd;stroke:#ff0000;stroke-width:1.88924;stroke-linecap:butt;stroke-linejoin:miter;stroke-miterlimit:4;stroke-dasharray:none;stroke-opacity:1"
       transform="matrix(0.03136813,1.3333333,-1.3333333,0.03136813,0,0)" />
    <path
       id="path46"
       d="m 181.203,22.453 c 0,0 -0.199,5.707 0,8.547 0.285,4.059 2.332,8.07 1.699,12.09 -0.531,3.383 -4.261,5.828 -4.492,9.246 -0.222,3.301 2.969,6.117 3.098,9.422 0.082,2.164 -1.262,4.164 -1.555,6.308 -0.375,2.754 -0.242,8.329 -0.242,8.329"
       style="fill:none;stroke:#ff0000;stroke-width:2.83465;stroke-linecap:square;stroke-linejoin:miter;stroke-miterlimit:1;stroke-dasharray:none;stroke-opacity:1"
       transform="scale(1.3333333)" />
    <path
       id="path47"
       d="m 88.753,-177.815 -12.257,7.083 -0.003,-14.168 z"
       style="fill:#ff0000;fill-opacity:1;fill-rule:evenodd;stroke:#ff0000;stroke-width:1.88924;stroke-linecap:butt;stroke-linejoin:miter;stroke-miterlimit:4;stroke-dasharray:none;stroke-opacity:1"
       transform="matrix(0.03136,1.3333333,-1.3333333,0.03136,0,0)" />
    <path
       id="path48"
       d="m 227.859,22.453 c 0,0 -0.199,5.707 0,8.547 0.286,4.059 2.332,8.07 1.7,12.09 -0.532,3.383 -4.262,5.828 -4.497,9.246 -0.218,3.301 2.973,6.117 3.102,9.422 0.082,2.164 -1.262,4.164 -1.555,6.308 -0.375,2.754 -0.242,8.329 -0.242,8.329"
       style="fill:none;stroke:#ff0000;stroke-width:2.83465;stroke-linecap:square;stroke-linejoin:miter;stroke-miterlimit:1;stroke-dasharray:none;stroke-opacity:1"
       transform="scale(1.3333333)" />
    <path
       id="path49"
       d="m 89.849,-224.445 -12.256,7.082 -0.003,-14.168 z"
       style="fill:#ff0000;fill-opacity:1;fill-rule:evenodd;stroke:#ff0000;stroke-width:1.88924;stroke-linecap:butt;stroke-linejoin:miter;stroke-miterlimit:4;stroke-dasharray:none;stroke-opacity:1"
       transform="matrix(0.03136,1.3333333,-1.3333333,0.03136,0,0)" />
    <path
       id="path50"
       d="m 274.516,22.453 c 0,0 -0.2,5.707 0,8.547 0.285,4.059 2.332,8.07 1.699,12.09 -0.535,3.383 -4.266,5.828 -4.496,9.246 -0.223,3.301 2.972,6.117 3.101,9.422 0.082,2.164 -1.261,4.164 -1.554,6.308 -0.375,2.754 -0.243,8.329 -0.243,8.329"
       style="fill:none;stroke:#ff0000;stroke-width:2.83465;stroke-linecap:square;stroke-linejoin:miter;stroke-miterlimit:1;stroke-dasharray:none;stroke-opacity:1"
       transform="scale(1.3333333)" />
    <path
       id="path51"
       d="m 90.946,-271.076 -12.256,7.083 -0.003,-14.168 z"
       style="fill:#ff0000;fill-opacity:1;fill-rule:evenodd;stroke:#ff0000;stroke-width:1.88924;stroke-linecap:butt;stroke-linejoin:miter;stroke-miterlimit:4;stroke-dasharray:none;stroke-opacity:1"
       transform="matrix(0.03136,1.3333333,-1.3333333,0.03136,0,0)" />
    <path
       id="path52"
       d="m 321.172,22.453 c 0,0 -0.199,5.707 0,8.547 0.285,4.059 2.332,8.07 1.699,12.09 -0.535,3.383 -4.266,5.828 -4.496,9.246 -0.223,3.301 2.973,6.117 3.102,9.422 0.082,2.164 -1.262,4.164 -1.555,6.308 -0.375,2.754 -0.242,8.329 -0.242,8.329"
       style="fill:none;stroke:#ff0000;stroke-width:2.83465;stroke-linecap:square;stroke-linejoin:miter;stroke-miterlimit:1;stroke-dasharray:none;stroke-opacity:1"
       transform="scale(1.3333333)" />
    <path
       id="path53"
       d="m 92.043,-317.706 -12.257,7.083 -0.002,-14.168 z"
       style="fill:#ff0000;fill-opacity:1;fill-rule:evenodd;stroke:#ff0000;stroke-width:1.88924;stroke-linecap:butt;stroke-linejoin:miter;stroke-miterlimit:4;stroke-dasharray:none;stroke-opacity:1"
       transform="matrix(0.03136,1.3333333,-1.3333333,0.03136,0,0)" />
    <path
       id="path54"
       d="m 461.555,76.395 h 38.359 v 36.129 h -38.359 z"
       style="fill:#c8c8c8;fill-opacity:1;fill-rule:nonzero;stroke:#000000;stroke-width:2.83463;stroke-linecap:round;stroke-linejoin:miter;stroke-miterlimit:1;stroke-dasharray:none;stroke-opacity:1"
       transform="scale(1.3333333)" />
    <path
       id="path55"
       d="m 424.77,94.457 h 26.285"
       style="fill:none;stroke:#ff7d00;stroke-width:2.83465;stroke-linecap:square;stroke-linejoin:miter;stroke-miterlimit:1;stroke-dasharray:none;stroke-opacity:1"
       transform="scale(1.3333333)" />
    <path
       id="path56"
       d="m 459.234,94.457 -12.261,7.09 V 87.371 Z"
       style="fill:#ff7d00;fill-opacity:1;fill-rule:evenodd;stroke:#ff7d00;stroke-width:1.88976;stroke-linecap:butt;stroke-linejoin:miter;stroke-miterlimit:4;stroke-dasharray:none;stroke-opacity:1"
       transform="scale(1.3333333)" />
    <path
       id="path57"
       d="m 502.914,94.457 h 26.289"
       style="fill:none;stroke:#ff7d00;stroke-width:2.83465;stroke-linecap:square;stroke-linejoin:miter;stroke-miterlimit:1;stroke-dasharray:none;stroke-opacity:1"
       transform="scale(1.3333333)" />
    <path
       id="path58"
       d="m 537.379,94.457 -12.258,7.09 V 87.371 Z"
       style="fill:#ff7d00;fill-opacity:1;fill-rule:evenodd;stroke:#ff7d00;stroke-width:1.88976;stroke-linecap:butt;stroke-linejoin:miter;stroke-miterlimit:4;stroke-dasharray:none;stroke-opacity:1"
       transform="scale(1.3333333)" />
    <path
       id="path59"
       d="m 498.527,20.535 c 0,0 0,-0.219 -0.25,-0.219 -0.468,0 -1.906,0.157 -2.437,0.219 -0.156,0 -0.375,0.031 -0.375,0.375 0,0.25 0.187,0.25 0.469,0.25 0.968,0 1,0.125 1,0.344 l -0.063,0.406 -2.875,11.469 c -0.094,0.281 -0.094,0.312 -0.094,0.437 0,0.469 0.407,0.563 0.594,0.563 0.313,0 0.625,-0.25 0.719,-0.531 l 0.375,-1.5 0.437,-1.782 c 0.125,-0.468 0.25,-0.906 0.344,-1.343 0.031,-0.125 0.219,-0.782 0.219,-0.907 0.062,-0.187 0.687,-1.281 1.375,-1.843 0.437,-0.313 1.031,-0.688 1.906,-0.688 0.844,0 1.063,0.688 1.063,1.406 0,1.063 -0.75,3.25 -1.219,4.469 -0.156,0.438 -0.281,0.688 -0.281,1.094 0,0.937 0.718,1.625 1.656,1.625 1.875,0 2.594,-2.906 2.594,-3.063 0,-0.218 -0.157,-0.218 -0.219,-0.218 -0.219,0 -0.219,0.062 -0.313,0.375 -0.281,1.062 -0.937,2.468 -2.031,2.468 -0.344,0 -0.469,-0.187 -0.469,-0.656 0,-0.5 0.157,-0.969 0.344,-1.406 0.313,-0.875 1.219,-3.25 1.219,-4.406 0,-1.282 -0.781,-2.125 -2.281,-2.125 -1.25,0 -2.219,0.625 -2.969,1.531 z"
       style="fill:#ff0000;fill-opacity:1;fill-rule:nonzero;stroke:none"
       transform="scale(1.3333333)" />
    <path
       id="path60"
       d="m 510.883,38.941 c 0,-0.062 0,-0.093 -0.344,-0.437 -2.469,-2.5 -3.125,-6.281 -3.125,-9.344 0,-3.469 0.75,-6.937 3.219,-9.406 0.25,-0.25 0.25,-0.281 0.25,-0.344 0,-0.156 -0.063,-0.219 -0.188,-0.219 -0.218,0 -2,1.375 -3.187,3.907 -1,2.187 -1.25,4.406 -1.25,6.062 0,1.563 0.219,3.969 1.312,6.25 1.219,2.438 2.907,3.75 3.125,3.75 0.125,0 0.188,-0.062 0.188,-0.219 z"
       style="fill:#ff0000;fill-opacity:1;fill-rule:nonzero;stroke:none"
       transform="scale(1.3333333)" />
    <path
       id="path61"
       d="m 518.695,28.129 c 0.125,-0.5 0.594,-2.344 1.969,-2.344 0.094,0 0.594,0 1,0.25 -0.562,0.125 -0.937,0.594 -0.937,1.094 0,0.312 0.218,0.687 0.75,0.687 0.437,0 1.062,-0.343 1.062,-1.156 0,-1.031 -1.156,-1.312 -1.844,-1.312 -1.156,0 -1.843,1.062 -2.093,1.5 -0.5,-1.313 -1.563,-1.5 -2.157,-1.5 -2.062,0 -3.218,2.562 -3.218,3.062 0,0.219 0.218,0.219 0.25,0.219 0.156,0 0.218,-0.063 0.25,-0.219 0.687,-2.125 2,-2.625 2.687,-2.625 0.375,0 1.063,0.188 1.063,1.344 0,0.625 -0.344,1.937 -1.063,4.75 -0.312,1.219 -1.031,2.062 -1.906,2.062 -0.125,0 -0.563,0 -1,-0.25 0.5,-0.125 0.937,-0.531 0.937,-1.093 0,-0.532 -0.437,-0.688 -0.718,-0.688 -0.625,0 -1.094,0.5 -1.094,1.156 0,0.907 0.969,1.313 1.844,1.313 1.343,0 2.062,-1.406 2.093,-1.5 0.25,0.719 0.969,1.5 2.157,1.5 2.062,0 3.187,-2.563 3.187,-3.063 0,-0.218 -0.156,-0.218 -0.219,-0.218 -0.187,0 -0.218,0.093 -0.281,0.218 -0.656,2.157 -2,2.625 -2.625,2.625 -0.781,0 -1.094,-0.625 -1.094,-1.312 0,-0.438 0.094,-0.875 0.313,-1.75 z"
       style="fill:#ff0000;fill-opacity:1;fill-rule:nonzero;stroke:none"
       transform="scale(1.3333333)" />
    <path
       id="path62"
       d="m 529.176,29.16 c 0,-1.531 -0.219,-3.937 -1.313,-6.219 -1.187,-2.437 -2.906,-3.75 -3.093,-3.75 -0.125,0 -0.219,0.094 -0.219,0.219 0,0.063 0,0.094 0.375,0.469 1.969,1.969 3.094,5.125 3.094,9.281 0,3.438 -0.719,6.938 -3.188,9.438 -0.281,0.25 -0.281,0.281 -0.281,0.343 0,0.125 0.094,0.219 0.219,0.219 0.187,0 2,-1.375 3.156,-3.906 1.031,-2.188 1.25,-4.406 1.25,-6.094 z"
       style="fill:#ff0000;fill-opacity:1;fill-rule:nonzero;stroke:none"
       transform="scale(1.3333333)" />
    <path
       id="path63"
       d="m 482.227,22.453 c 0,0 -0.2,5.707 0,8.547 0.285,4.059 2.335,8.07 1.699,12.09 -0.531,3.383 -4.262,5.828 -4.492,9.246 -0.223,3.301 2.972,6.117 3.097,9.422 0.082,2.164 -1.261,4.164 -1.554,6.308 -0.372,2.754 -0.243,8.329 -0.243,8.329"
       style="fill:none;stroke:#ff0000;stroke-width:2.83465;stroke-linecap:square;stroke-linejoin:miter;stroke-miterlimit:1;stroke-dasharray:none;stroke-opacity:1"
       transform="scale(1.3333333)" />
    <path
       id="path64"
       d="m 95.829,-478.672 -12.257,7.083 -0.002,-14.168 z"
       style="fill:#ff0000;fill-opacity:1;fill-rule:evenodd;stroke:#ff0000;stroke-width:1.88924;stroke-linecap:butt;stroke-linejoin:miter;stroke-miterlimit:4;stroke-dasharray:none;stroke-opacity:1"
       transform="matrix(0.03136,1.3333333,-1.3333333,0.03136,0,0)" />
    <path
       id="path65"
       d="m 479.719,94.16 c 0.593,0 2.062,-0.062 3.062,-0.469 1.407,-0.593 1.5,-1.781 1.5,-2.062 0,-0.875 -0.75,-1.688 -2.125,-1.688 -2.218,0 -5.25,1.938 -5.25,5.438 0,2.031 1.188,3.594 3.156,3.594 2.844,0 4.5,-2.125 4.5,-2.344 0,-0.125 -0.093,-0.281 -0.218,-0.281 -0.125,0 -0.156,0.062 -0.282,0.218 -1.562,1.969 -3.75,1.969 -3.968,1.969 -1.563,0 -1.75,-1.687 -1.75,-2.312 0,-0.25 0.031,-0.844 0.312,-2.063 z m -0.938,-0.437 c 0.781,-3.032 2.844,-3.344 3.375,-3.344 0.906,0 1.469,0.594 1.469,1.25 0,2.094 -3.187,2.094 -4.031,2.094 z"
       style="fill:#000000;fill-opacity:1;fill-rule:nonzero;stroke:none"
       transform="scale(1.3333333)" />
    <path
       id="path66"
       d="m 432.5,72.082 c 0,-0.094 -0.062,-0.187 -0.188,-0.187 -0.218,0 -1.031,0.781 -1.343,1.375 -0.438,-1.094 -1.219,-1.407 -1.875,-1.407 -2.344,0 -4.782,2.938 -4.782,5.844 0,1.938 1.157,3.188 2.626,3.188 0.843,0 1.624,-0.469 2.343,-1.188 -0.187,0.688 -0.843,3.375 -0.906,3.563 -0.156,0.562 -0.313,0.625 -1.437,0.656 -0.25,0 -0.438,0 -0.438,0.406 0,0 0,0.219 0.25,0.219 0.625,0 1.344,-0.063 2,-0.063 0.656,0 1.375,0.063 2.062,0.063 0.094,0 0.344,0 0.344,-0.406 0,-0.219 -0.187,-0.219 -0.531,-0.219 -0.937,0 -0.937,-0.125 -0.937,-0.313 0,-0.156 0.031,-0.281 0.062,-0.437 z m -5.5,8.375 c -1.219,0 -1.281,-1.531 -1.281,-1.875 0,-0.969 0.562,-3.125 0.906,-3.969 0.625,-1.468 1.656,-2.312 2.469,-2.312 1.312,0 1.594,1.625 1.594,1.75 0,0.125 -1.094,4.5 -1.157,4.562 -0.312,0.563 -1.437,1.844 -2.531,1.844 z"
       style="fill:#ff7d00;fill-opacity:1;fill-rule:nonzero;stroke:none"
       transform="scale(1.3333333)" />
    <path
       id="path67"
       d="m 439.703,85.457 c 0,-0.062 0,-0.094 -0.344,-0.437 -2.468,-2.5 -3.125,-6.282 -3.125,-9.344 0,-3.469 0.75,-6.938 3.219,-9.406 0.25,-0.25 0.25,-0.282 0.25,-0.344 0,-0.156 -0.062,-0.219 -0.187,-0.219 -0.219,0 -2,1.375 -3.188,3.906 -1,2.188 -1.25,4.407 -1.25,6.063 0,1.562 0.219,3.969 1.313,6.25 1.218,2.437 2.906,3.75 3.125,3.75 0.125,0 0.187,-0.063 0.187,-0.219 z"
       style="fill:#ff7d00;fill-opacity:1;fill-rule:nonzero;stroke:none"
       transform="scale(1.3333333)" />
    <path
       id="path68"
       d="m 447.516,74.645 c 0.125,-0.5 0.593,-2.344 1.968,-2.344 0.094,0 0.594,0 1,0.25 -0.562,0.125 -0.937,0.594 -0.937,1.094 0,0.312 0.219,0.687 0.75,0.687 0.437,0 1.062,-0.344 1.062,-1.156 0,-1.031 -1.156,-1.313 -1.843,-1.313 -1.157,0 -1.844,1.063 -2.094,1.5 -0.5,-1.312 -1.563,-1.5 -2.156,-1.5 -2.063,0 -3.219,2.563 -3.219,3.063 0,0.219 0.219,0.219 0.25,0.219 0.156,0 0.219,-0.063 0.25,-0.219 0.687,-2.125 2,-2.625 2.687,-2.625 0.375,0 1.063,0.187 1.063,1.344 0,0.625 -0.344,1.937 -1.063,4.75 -0.312,1.218 -1.031,2.062 -1.906,2.062 -0.125,0 -0.562,0 -1,-0.25 0.5,-0.125 0.938,-0.531 0.938,-1.094 0,-0.531 -0.438,-0.687 -0.719,-0.687 -0.625,0 -1.094,0.5 -1.094,1.156 0,0.906 0.969,1.313 1.844,1.313 1.344,0 2.062,-1.407 2.094,-1.5 0.25,0.718 0.968,1.5 2.156,1.5 2.062,0 3.187,-2.563 3.187,-3.063 0,-0.219 -0.156,-0.219 -0.218,-0.219 -0.188,0 -0.219,0.094 -0.282,0.219 -0.656,2.156 -2,2.625 -2.625,2.625 -0.781,0 -1.093,-0.625 -1.093,-1.312 0,-0.438 0.093,-0.875 0.312,-1.75 z"
       style="fill:#ff7d00;fill-opacity:1;fill-rule:nonzero;stroke:none"
       transform="scale(1.3333333)" />
    <path
       id="path69"
       d="m 457.996,75.676 c 0,-1.531 -0.219,-3.938 -1.312,-6.219 -1.188,-2.437 -2.907,-3.75 -3.094,-3.75 -0.125,0 -0.219,0.094 -0.219,0.219 0,0.062 0,0.094 0.375,0.469 1.969,1.968 3.094,5.125 3.094,9.281 0,3.437 -0.719,6.937 -3.188,9.437 -0.281,0.25 -0.281,0.282 -0.281,0.344 0,0.125 0.094,0.219 0.219,0.219 0.187,0 2,-1.375 3.156,-3.906 1.031,-2.188 1.25,-4.407 1.25,-6.094 z"
       style="fill:#ff7d00;fill-opacity:1;fill-rule:nonzero;stroke:none"
       transform="scale(1.3333333)" />
    <path
       id="path70"
       d="m 511.496,72.082 c 0,-0.094 -0.062,-0.187 -0.187,-0.187 -0.219,0 -1.032,0.781 -1.344,1.375 -0.438,-1.094 -1.219,-1.407 -1.875,-1.407 -2.344,0 -4.781,2.938 -4.781,5.844 0,1.938 1.156,3.188 2.625,3.188 0.843,0 1.625,-0.469 2.343,-1.188 -0.187,0.688 -0.843,3.375 -0.906,3.563 -0.156,0.562 -0.312,0.625 -1.437,0.656 -0.25,0 -0.438,0 -0.438,0.406 0,0 0,0.219 0.25,0.219 0.625,0 1.344,-0.063 2,-0.063 0.656,0 1.375,0.063 2.063,0.063 0.093,0 0.343,0 0.343,-0.406 0,-0.219 -0.187,-0.219 -0.531,-0.219 -0.937,0 -0.937,-0.125 -0.937,-0.313 0,-0.156 0.031,-0.281 0.062,-0.437 z m -5.5,8.375 c -1.219,0 -1.281,-1.531 -1.281,-1.875 0,-0.969 0.562,-3.125 0.906,-3.969 0.625,-1.468 1.656,-2.312 2.469,-2.312 1.312,0 1.594,1.625 1.594,1.75 0,0.125 -1.094,4.5 -1.157,4.562 -0.312,0.563 -1.437,1.844 -2.531,1.844 z"
       style="fill:#ff7d00;fill-opacity:1;fill-rule:nonzero;stroke:none"
       transform="scale(1.3333333)" />
    <path
       id="path71"
       d="m 518.703,85.457 c 0,-0.062 0,-0.094 -0.344,-0.437 -2.468,-2.5 -3.125,-6.282 -3.125,-9.344 0,-3.469 0.75,-6.938 3.219,-9.406 0.25,-0.25 0.25,-0.282 0.25,-0.344 0,-0.156 -0.062,-0.219 -0.187,-0.219 -0.219,0 -2,1.375 -3.188,3.906 -1,2.188 -1.25,4.407 -1.25,6.063 0,1.562 0.219,3.969 1.313,6.25 1.218,2.437 2.906,3.75 3.125,3.75 0.125,0 0.187,-0.063 0.187,-0.219 z"
       style="fill:#ff7d00;fill-opacity:1;fill-rule:nonzero;stroke:none"
       transform="scale(1.3333333)" />
    <path
       id="path72"
       d="m 526.516,74.645 c 0.125,-0.5 0.593,-2.344 1.968,-2.344 0.094,0 0.594,0 1,0.25 -0.562,0.125 -0.937,0.594 -0.937,1.094 0,0.312 0.219,0.687 0.75,0.687 0.437,0 1.062,-0.344 1.062,-1.156 0,-1.031 -1.156,-1.313 -1.843,-1.313 -1.157,0 -1.844,1.063 -2.094,1.5 -0.5,-1.312 -1.563,-1.5 -2.156,-1.5 -2.063,0 -3.219,2.563 -3.219,3.063 0,0.219 0.219,0.219 0.25,0.219 0.156,0 0.219,-0.063 0.25,-0.219 0.687,-2.125 2,-2.625 2.687,-2.625 0.375,0 1.063,0.187 1.063,1.344 0,0.625 -0.344,1.937 -1.063,4.75 -0.312,1.218 -1.031,2.062 -1.906,2.062 -0.125,0 -0.562,0 -1,-0.25 0.5,-0.125 0.938,-0.531 0.938,-1.094 0,-0.531 -0.438,-0.687 -0.719,-0.687 -0.625,0 -1.094,0.5 -1.094,1.156 0,0.906 0.969,1.313 1.844,1.313 1.344,0 2.062,-1.407 2.094,-1.5 0.25,0.718 0.968,1.5 2.156,1.5 2.062,0 3.187,-2.563 3.187,-3.063 0,-0.219 -0.156,-0.219 -0.218,-0.219 -0.188,0 -0.219,0.094 -0.282,0.219 -0.656,2.156 -2,2.625 -2.625,2.625 -0.781,0 -1.093,-0.625 -1.093,-1.312 0,-0.438 0.093,-0.875 0.312,-1.75 z"
       style="fill:#ff7d00;fill-opacity:1;fill-rule:nonzero;stroke:none"
       transform="scale(1.3333333)" />
    <path
       id="path73"
       d="m 543.828,76.082 h 5.563 c 0.281,0 0.656,0 0.656,-0.406 0,-0.375 -0.375,-0.375 -0.656,-0.375 h -5.563 v -5.594 c 0,-0.281 0,-0.656 -0.406,-0.656 -0.406,0 -0.406,0.375 -0.406,0.656 v 5.594 h -5.563 c -0.281,0 -0.656,0 -0.656,0.375 0,0.406 0.375,0.406 0.656,0.406 h 5.563 v 5.594 c 0,0.281 0,0.656 0.406,0.656 0.406,0 0.406,-0.375 0.406,-0.656 z"
       style="fill:#ff7d00;fill-opacity:1;fill-rule:nonzero;stroke:none"
       transform="scale(1.3333333)" />
    <path
       id="path74"
       d="m 564.406,66.77 c -0.125,-0.282 -0.187,-0.375 -0.531,-0.375 -0.313,0 -0.375,0.093 -0.5,0.375 l -6.75,13.5 c -0.094,0.187 -0.094,0.218 -0.094,0.25 0,0.156 0.125,0.156 0.438,0.156 h 13.843 c 0.313,0 0.438,0 0.438,-0.156 0,-0.032 0,-0.063 -0.094,-0.25 z m -1.156,1.625 5.375,10.781 h -10.75 z"
       style="fill:#ff7d00;fill-opacity:1;fill-rule:nonzero;stroke:none"
       transform="scale(1.3333333)" />
    <path
       id="path75"
       d="m 578.859,74.645 c 0.125,-0.5 0.594,-2.344 1.969,-2.344 0.094,0 0.594,0 1,0.25 -0.562,0.125 -0.937,0.594 -0.937,1.094 0,0.312 0.218,0.687 0.75,0.687 0.437,0 1.062,-0.344 1.062,-1.156 0,-1.031 -1.156,-1.313 -1.844,-1.313 -1.156,0 -1.843,1.063 -2.093,1.5 -0.5,-1.312 -1.563,-1.5 -2.157,-1.5 -2.062,0 -3.218,2.563 -3.218,3.063 0,0.219 0.218,0.219 0.25,0.219 0.156,0 0.218,-0.063 0.25,-0.219 0.687,-2.125 2,-2.625 2.687,-2.625 0.375,0 1.063,0.187 1.063,1.344 0,0.625 -0.344,1.937 -1.063,4.75 -0.312,1.218 -1.031,2.062 -1.906,2.062 -0.125,0 -0.563,0 -1,-0.25 0.5,-0.125 0.937,-0.531 0.937,-1.094 0,-0.531 -0.437,-0.687 -0.718,-0.687 -0.625,0 -1.094,0.5 -1.094,1.156 0,0.906 0.969,1.313 1.844,1.313 1.343,0 2.062,-1.407 2.093,-1.5 0.25,0.718 0.969,1.5 2.157,1.5 2.062,0 3.187,-2.563 3.187,-3.063 0,-0.219 -0.156,-0.219 -0.219,-0.219 -0.187,0 -0.218,0.094 -0.281,0.219 -0.656,2.156 -2,2.625 -2.625,2.625 -0.781,0 -1.094,-0.625 -1.094,-1.312 0,-0.438 0.094,-0.875 0.313,-1.75 z"
       style="fill:#ff7d00;fill-opacity:1;fill-rule:nonzero;stroke:none"
       transform="scale(1.3333333)" />
    <path
       id="path76"
       d="m 589.34,75.676 c 0,-1.531 -0.219,-3.938 -1.313,-6.219 -1.187,-2.437 -2.906,-3.75 -3.093,-3.75 -0.125,0 -0.219,0.094 -0.219,0.219 0,0.062 0,0.094 0.375,0.469 1.969,1.968 3.094,5.125 3.094,9.281 0,3.437 -0.719,6.937 -3.188,9.437 -0.281,0.25 -0.281,0.282 -0.281,0.344 0,0.125 0.094,0.219 0.219,0.219 0.187,0 2,-1.375 3.156,-3.906 1.031,-2.188 1.25,-4.407 1.25,-6.094 z"
       style="fill:#ff7d00;fill-opacity:1;fill-rule:nonzero;stroke:none"
       transform="scale(1.3333333)" />
    <path
       id="path77"
       d="M 0.707,0.707 H 405.914 V 191.703 H 0.707 Z"
       style="fill:none;stroke:#000000;stroke-width:1.41732;stroke-linecap:square;stroke-linejoin:miter;stroke-miterlimit:1;stroke-dasharray:none;stroke-opacity:1"
       transform="scale(1.3333333)" />
    <path
       id="path78"
       d="M -405.914,0.707 H -595.57 v 190.996 h 189.656 z"
       style="fill:none;stroke:#000000;stroke-width:1.41732;stroke-linecap:square;stroke-linejoin:miter;stroke-miterlimit:1;stroke-dasharray:none;stroke-opacity:1"
       transform="scale(-1.3333333,1.3333333)" />
    <path
       id="path79"
       d="m 461.555,145.457 h 38.359"
       style="fill:none;stroke:#000000;stroke-width:2.83464;stroke-linecap:round;stroke-linejoin:miter;stroke-miterlimit:1;stroke-dasharray:none;stroke-opacity:1"
       transform="scale(1.3333333)" />
    <path
       id="path80"
       d="M 461.555,156.797 V 134.121"
       style="fill:none;stroke:#000000;stroke-width:2.83464;stroke-linecap:butt;stroke-linejoin:miter;stroke-miterlimit:4;stroke-dasharray:none;stroke-opacity:1"
       transform="scale(1.3333333)" />
    <path
       id="path81"
       d="M 499.914,156.797 V 134.121"
       style="fill:none;stroke:#000000;stroke-width:2.83464;stroke-linecap:butt;stroke-linejoin:miter;stroke-miterlimit:4;stroke-dasharray:none;stroke-opacity:1"
       transform="scale(1.3333333)" />
    <path
       id="path82"
       d="m 475.527,162.738 c -0.125,-0.281 -0.187,-0.375 -0.531,-0.375 -0.312,0 -0.375,0.094 -0.5,0.375 l -6.75,13.5 c -0.094,0.188 -0.094,0.219 -0.094,0.25 0,0.157 0.125,0.157 0.438,0.157 h 13.844 c 0.312,0 0.437,0 0.437,-0.157 0,-0.031 0,-0.062 -0.094,-0.25 z m -1.156,1.625 5.375,10.782 h -10.75 z"
       style="fill:#000000;fill-opacity:1;fill-rule:nonzero;stroke:none"
       transform="scale(1.3333333)" />
    <path
       id="path83"
       d="m 489.977,170.613 c 0.125,-0.5 0.593,-2.343 1.968,-2.343 0.094,0 0.594,0 1,0.25 -0.562,0.125 -0.937,0.593 -0.937,1.093 0,0.313 0.219,0.688 0.75,0.688 0.437,0 1.062,-0.344 1.062,-1.156 0,-1.032 -1.156,-1.313 -1.843,-1.313 -1.157,0 -1.844,1.063 -2.094,1.5 -0.5,-1.312 -1.563,-1.5 -2.156,-1.5 -2.063,0 -3.219,2.563 -3.219,3.063 0,0.218 0.219,0.218 0.25,0.218 0.156,0 0.219,-0.062 0.25,-0.218 0.687,-2.125 2,-2.625 2.687,-2.625 0.375,0 1.063,0.187 1.063,1.343 0,0.625 -0.344,1.938 -1.063,4.75 -0.312,1.219 -1.031,2.063 -1.906,2.063 -0.125,0 -0.562,0 -1,-0.25 0.5,-0.125 0.938,-0.531 0.938,-1.094 0,-0.531 -0.438,-0.687 -0.719,-0.687 -0.625,0 -1.094,0.5 -1.094,1.156 0,0.906 0.969,1.312 1.844,1.312 1.344,0 2.062,-1.406 2.094,-1.5 0.25,0.719 0.968,1.5 2.156,1.5 2.062,0 3.187,-2.562 3.187,-3.062 0,-0.219 -0.156,-0.219 -0.218,-0.219 -0.188,0 -0.219,0.094 -0.282,0.219 -0.656,2.156 -2,2.625 -2.625,2.625 -0.781,0 -1.093,-0.625 -1.093,-1.313 0,-0.437 0.093,-0.875 0.312,-1.75 z"
       style="fill:#000000;fill-opacity:1;fill-rule:nonzero;stroke:none"
       transform="scale(1.3333333)" />
  </g>
</svg>
