<?xml version="1.0" encoding="UTF-8" standalone="no"?>
<!-- Created with Inkscape (http://www.inkscape.org/) -->

<svg
   width="90.306068mm"
   height="88.35215mm"
   viewBox="0 0 90.306068 88.35215"
   version="1.1"
   id="svg1"
   inkscape:version="1.3.2 (091e20e, 2023-11-25, custom)"
   sodipodi:docname="StressBox.svg"
   xmlns:inkscape="http://www.inkscape.org/namespaces/inkscape"
   xmlns:sodipodi="http://sodipodi.sourceforge.net/DTD/sodipodi-0.dtd"
   xmlns="http://www.w3.org/2000/svg"
   xmlns:svg="http://www.w3.org/2000/svg"
   xmlns:ns2="http://www.iki.fi/pav/software/textext/">
  <sodipodi:namedview
     id="namedview1"
     pagecolor="#ffffff"
     bordercolor="#000000"
     borderopacity="0.25"
     inkscape:showpageshadow="2"
     inkscape:pageopacity="0.0"
     inkscape:pagecheckerboard="0"
     inkscape:deskcolor="#d1d1d1"
     inkscape:document-units="mm"
     inkscape:zoom="1.4878904"
     inkscape:cx="236.57657"
     inkscape:cy="173.73592"
     inkscape:window-width="2560"
     inkscape:window-height="1377"
     inkscape:window-x="-8"
     inkscape:window-y="-8"
     inkscape:window-maximized="1"
     inkscape:current-layer="layer1" />
  <defs
     id="defs1">
    <marker
       style="overflow:visible"
       id="Triangle"
       refX="0"
       refY="0"
       orient="auto-start-reverse"
       inkscape:stockid="Triangle arrow"
       markerWidth="0.75"
       markerHeight="0.75"
       viewBox="0 0 1 1"
       inkscape:isstock="true"
       inkscape:collect="always"
       preserveAspectRatio="xMidYMid"
       markerUnits="strokeWidth">
      <path
         transform="scale(0.5)"
         style="fill:context-stroke;fill-rule:evenodd;stroke:context-stroke;stroke-width:1pt"
         d="M 5.77,0 -2.88,5 V -5 Z"
         id="path135" />
    </marker>
  </defs>
  <g
     inkscape:label="Ebene 1"
     inkscape:groupmode="layer"
     id="layer1"
     transform="translate(-25.412747,-30.246724)">
    <rect
       style="fill:#e6e6ff;fill-opacity:1;stroke:#0000ff;stroke-width:0.999998;stroke-opacity:1"
       id="rect1"
       width="52.308212"
       height="52.308212"
       x="44.76376"
       y="48.787468" />
    <path
       style="fill:none;fill-opacity:0.5;stroke:#000000;stroke-width:0.6;stroke-dasharray:none;marker-start:url(#Triangle);marker-end:url(#Triangle)"
       d="m 70.917866,59.44158 v 15.499996 l 15.500002,4e-6"
       id="path1" />
    <g
       transform="matrix(0.705556,0,0,0.705556,85.077476,68.566896)"
       ns2:version="1.10.2"
       ns2:texconverter="pdflatex"
       ns2:pdfconverter="inkscape"
       ns2:text="$\\tv{e}_1$"
       ns2:preamble="C:\Users\meyer\SoftwareConfigurations\inkscape\textext.tex"
       ns2:scale="2.0"
       ns2:alignment="middle center"
       ns2:stroke-to-path="0"
       id="g7612"
       ns2:jacobian_sqrt="0.705556">
      <defs
         id="id-42c3952c-fab5-413b-92fe-3a25d83c1c86">
        <g
           id="id-5e666241-643d-4b30-bb4d-d5fc2f278568">
          <g
             id="id-42579086-9b87-4ffe-a02e-1721d3484b20">
            <path
               d="m 2.21875,-2.171875 c 0.65625,0 1.3125,-0.0625 1.734375,-0.203125 C 4.796875,-2.65625 4.9375,-3.234375 4.9375,-3.546875 4.9375,-4.125 4.390625,-4.5 3.5625,-4.5 c -1.796875,0 -3.078125,1.234375 -3.078125,2.78125 0,1.15625 0.765625,1.796875 2.09375,1.796875 0.25,0 0.9375,-0.015625 1.53125,-0.234375 0.578125,-0.234375 0.984375,-0.640625 0.984375,-0.765625 0,-0.078125 -0.15625,-0.25 -0.25,-0.25 -0.0625,0 -0.078125,0.03125 -0.15625,0.109375 C 4.15625,-0.5 3.375,-0.28125 2.609375,-0.28125 1.890625,-0.28125 1.625,-0.671875 1.625,-1.25 c 0,-0.1875 0.046875,-0.515625 0.15625,-0.921875 z M 1.859375,-2.53125 c 0.1875,-0.734375 0.421875,-1 0.59375,-1.15625 0.34375,-0.34375 0.8125,-0.453125 1.109375,-0.453125 0.359375,0 0.78125,0.15625 0.78125,0.609375 0,1 -1.515625,1 -2.484375,1 z m 0,0"
               id="id-13b1581c-238d-4957-8adf-9d9e63148f98" />
          </g>
          <g
             id="id-2e26d3e1-144e-48c0-a672-e43f143f84cc">
            <path
               d="m 2.328125,-4.4375 c 0,-0.1875 0,-0.1875 -0.203125,-0.1875 -0.453125,0.4375 -1.078125,0.4375 -1.359375,0.4375 v 0.25 c 0.15625,0 0.625,0 1,-0.1875 v 3.546875 c 0,0.234375 0,0.328125 -0.6875,0.328125 H 0.8125 V 0 c 0.125,0 0.984375,-0.03125 1.234375,-0.03125 0.21875,0 1.09375,0.03125 1.25,0.03125 V -0.25 H 3.03125 c -0.703125,0 -0.703125,-0.09375 -0.703125,-0.328125 z m 0,0"
               id="id-6c1bb6fa-36fa-4683-ab78-5b2e43097728" />
          </g>
        </g>
      </defs>
      <g
         fill="#000000"
         fill-opacity="1"
         id="id-4e981a7a-d3c7-4b9c-a9f6-6577248972ed"
         transform="translate(-149.196,-130.265)">
        <g
           transform="translate(148.712,134.765)"
           id="g1887">
          <path
             d="m 2.21875,-2.171875 c 0.65625,0 1.3125,-0.0625 1.734375,-0.203125 C 4.796875,-2.65625 4.9375,-3.234375 4.9375,-3.546875 4.9375,-4.125 4.390625,-4.5 3.5625,-4.5 c -1.796875,0 -3.078125,1.234375 -3.078125,2.78125 0,1.15625 0.765625,1.796875 2.09375,1.796875 0.25,0 0.9375,-0.015625 1.53125,-0.234375 0.578125,-0.234375 0.984375,-0.640625 0.984375,-0.765625 0,-0.078125 -0.15625,-0.25 -0.25,-0.25 -0.0625,0 -0.078125,0.03125 -0.15625,0.109375 C 4.15625,-0.5 3.375,-0.28125 2.609375,-0.28125 1.890625,-0.28125 1.625,-0.671875 1.625,-1.25 c 0,-0.1875 0.046875,-0.515625 0.15625,-0.921875 z M 1.859375,-2.53125 c 0.1875,-0.734375 0.421875,-1 0.59375,-1.15625 0.34375,-0.34375 0.8125,-0.453125 1.109375,-0.453125 0.359375,0 0.78125,0.15625 0.78125,0.609375 0,1 -1.515625,1 -2.484375,1 z m 0,0"
             id="id-477d5a1c-3704-4fc4-bcd0-a78660a35660" />
        </g>
      </g>
      <g
         fill="#000000"
         fill-opacity="1"
         id="id-be1aa793-341f-4862-aa46-7e8b8d5aac49"
         transform="translate(-149.196,-130.265)">
        <g
           transform="translate(154.228,136.84)"
           id="g7400">
          <path
             d="m 2.328125,-4.4375 c 0,-0.1875 0,-0.1875 -0.203125,-0.1875 -0.453125,0.4375 -1.078125,0.4375 -1.359375,0.4375 v 0.25 c 0.15625,0 0.625,0 1,-0.1875 v 3.546875 c 0,0.234375 0,0.328125 -0.6875,0.328125 H 0.8125 V 0 c 0.125,0 0.984375,-0.03125 1.234375,-0.03125 0.21875,0 1.09375,0.03125 1.25,0.03125 V -0.25 H 3.03125 c -0.703125,0 -0.703125,-0.09375 -0.703125,-0.328125 z m 0,0"
             id="id-93da3dff-4e64-4f0b-b693-5a623f82e94e" />
        </g>
      </g>
    </g>
    <g
       transform="matrix(0.705556,0,0,0.705556,73.0552,55.5241)"
       ns2:version="1.10.2"
       ns2:texconverter="pdflatex"
       ns2:pdfconverter="inkscape"
       ns2:text="$\\tv{e}_2$"
       ns2:preamble="C:\Users\meyer\SoftwareConfigurations\inkscape\textext.tex"
       ns2:scale="2.0"
       ns2:alignment="middle center"
       ns2:stroke-to-path="0"
       id="g9"
       ns2:jacobian_sqrt="0.705556">
      <defs
         id="id-85f800e7-98d7-4815-8249-d2a3eb02740b">
        <g
           id="id-3198104a-e6be-4b64-8ac0-134858535796">
          <g
             id="id-adb7bced-c45b-49c5-9bef-ea1c58ea8502">
            <path
               d="m 2.21875,-2.171875 c 0.65625,0 1.3125,-0.0625 1.734375,-0.203125 C 4.796875,-2.65625 4.9375,-3.234375 4.9375,-3.546875 4.9375,-4.125 4.390625,-4.5 3.5625,-4.5 c -1.796875,0 -3.078125,1.234375 -3.078125,2.78125 0,1.15625 0.765625,1.796875 2.09375,1.796875 0.25,0 0.9375,-0.015625 1.53125,-0.234375 0.578125,-0.234375 0.984375,-0.640625 0.984375,-0.765625 0,-0.078125 -0.15625,-0.25 -0.25,-0.25 -0.0625,0 -0.078125,0.03125 -0.15625,0.109375 C 4.15625,-0.5 3.375,-0.28125 2.609375,-0.28125 1.890625,-0.28125 1.625,-0.671875 1.625,-1.25 c 0,-0.1875 0.046875,-0.515625 0.15625,-0.921875 z M 1.859375,-2.53125 c 0.1875,-0.734375 0.421875,-1 0.59375,-1.15625 0.34375,-0.34375 0.8125,-0.453125 1.109375,-0.453125 0.359375,0 0.78125,0.15625 0.78125,0.609375 0,1 -1.515625,1 -2.484375,1 z m 0,0"
               id="id-9e2ea3c0-b855-4945-bbe3-8296cc443945" />
          </g>
          <g
             id="id-e0ebff3a-9864-4cc9-9e17-3c0dd17ccc4e">
            <path
               d="M 3.515625,-1.265625 H 3.28125 c -0.015625,0.15625 -0.09375,0.5625 -0.1875,0.625 C 3.046875,-0.59375 2.515625,-0.59375 2.40625,-0.59375 H 1.125 c 0.734375,-0.640625 0.984375,-0.84375 1.390625,-1.171875 0.515625,-0.40625 1,-0.84375 1,-1.5 0,-0.84375 -0.734375,-1.359375 -1.625,-1.359375 -0.859375,0 -1.453125,0.609375 -1.453125,1.25 0,0.34375 0.296875,0.390625 0.375,0.390625 0.15625,0 0.359375,-0.125 0.359375,-0.375 0,-0.125 -0.046875,-0.375 -0.40625,-0.375 C 0.984375,-4.21875 1.453125,-4.375 1.78125,-4.375 c 0.703125,0 1.0625,0.546875 1.0625,1.109375 0,0.609375 -0.4375,1.078125 -0.65625,1.328125 L 0.515625,-0.265625 C 0.4375,-0.203125 0.4375,-0.1875 0.4375,0 h 2.875 z m 0,0"
               id="id-7ab00194-3483-481b-8d25-35b0e69de427" />
          </g>
        </g>
      </defs>
      <g
         fill="#000000"
         fill-opacity="1"
         id="id-83cf3e17-f9ca-47fc-a3e4-4cb1cbecfa8a"
         transform="translate(-149.196,-130.265)">
        <g
           transform="translate(148.712,134.765)"
           id="g4089">
          <path
             d="m 2.21875,-2.171875 c 0.65625,0 1.3125,-0.0625 1.734375,-0.203125 C 4.796875,-2.65625 4.9375,-3.234375 4.9375,-3.546875 4.9375,-4.125 4.390625,-4.5 3.5625,-4.5 c -1.796875,0 -3.078125,1.234375 -3.078125,2.78125 0,1.15625 0.765625,1.796875 2.09375,1.796875 0.25,0 0.9375,-0.015625 1.53125,-0.234375 0.578125,-0.234375 0.984375,-0.640625 0.984375,-0.765625 0,-0.078125 -0.15625,-0.25 -0.25,-0.25 -0.0625,0 -0.078125,0.03125 -0.15625,0.109375 C 4.15625,-0.5 3.375,-0.28125 2.609375,-0.28125 1.890625,-0.28125 1.625,-0.671875 1.625,-1.25 c 0,-0.1875 0.046875,-0.515625 0.15625,-0.921875 z M 1.859375,-2.53125 c 0.1875,-0.734375 0.421875,-1 0.59375,-1.15625 0.34375,-0.34375 0.8125,-0.453125 1.109375,-0.453125 0.359375,0 0.78125,0.15625 0.78125,0.609375 0,1 -1.515625,1 -2.484375,1 z m 0,0"
             id="id-758c0e80-e0f6-4a15-981c-8cd94d860504" />
        </g>
      </g>
      <g
         fill="#000000"
         fill-opacity="1"
         id="id-76ffd469-e5dc-487c-8d21-8aba50cd81a7"
         transform="translate(-149.196,-130.265)">
        <g
           transform="translate(154.228,136.84)"
           id="g1545">
          <path
             d="M 3.515625,-1.265625 H 3.28125 c -0.015625,0.15625 -0.09375,0.5625 -0.1875,0.625 C 3.046875,-0.59375 2.515625,-0.59375 2.40625,-0.59375 H 1.125 c 0.734375,-0.640625 0.984375,-0.84375 1.390625,-1.171875 0.515625,-0.40625 1,-0.84375 1,-1.5 0,-0.84375 -0.734375,-1.359375 -1.625,-1.359375 -0.859375,0 -1.453125,0.609375 -1.453125,1.25 0,0.34375 0.296875,0.390625 0.375,0.390625 0.15625,0 0.359375,-0.125 0.359375,-0.375 0,-0.125 -0.046875,-0.375 -0.40625,-0.375 C 0.984375,-4.21875 1.453125,-4.375 1.78125,-4.375 c 0.703125,0 1.0625,0.546875 1.0625,1.109375 0,0.609375 -0.4375,1.078125 -0.65625,1.328125 L 0.515625,-0.265625 C 0.4375,-0.203125 0.4375,-0.1875 0.4375,0 h 2.875 z m 0,0"
             id="id-1f31c054-5c28-4157-9a79-18477ed613ab" />
        </g>
      </g>
    </g>
    <path
       style="fill:none;fill-opacity:0.5;stroke:#000000;stroke-width:0.6;stroke-dasharray:none;marker-end:url(#Triangle)"
       d="m 97.071976,74.941574 15.500004,4e-6"
       id="path9"
       sodipodi:nodetypes="cc" />
    <g
       transform="matrix(0.705556,0,0,0.705556,106.94831,76.585395)"
       ns2:version="1.10.2"
       ns2:texconverter="pdflatex"
       ns2:pdfconverter="inkscape"
       ns2:text="$\\tv{n}_A$"
       ns2:preamble="C:\Users\meyer\SoftwareConfigurations\inkscape\textext.tex"
       ns2:scale="2.0"
       ns2:alignment="middle center"
       ns2:stroke-to-path="0"
       id="g17"
       ns2:jacobian_sqrt="0.705556">
      <defs
         id="id-55488c5e-0b91-4042-9628-716e5b1b8026">
        <g
           id="id-934b613a-c918-4d28-96e7-9f27665d56ec">
          <g
             id="id-5f214109-cae8-4e10-900c-34363733eb4b">
            <path
               d="M 2.796875,-3.75 C 2.65625,-4.25 2.109375,-4.5 1.5625,-4.5 1.203125,-4.5 0.921875,-4.296875 0.703125,-3.9375 0.453125,-3.53125 0.3125,-3 0.3125,-2.953125 c 0,0.140625 0.15625,0.140625 0.25,0.140625 0.109375,0 0.140625,0 0.1875,-0.046875 C 0.78125,-2.875 0.78125,-2.90625 0.84375,-3.15625 1.03125,-3.921875 1.25,-4.140625 1.515625,-4.140625 c 0.15625,0 0.234375,0.09375 0.234375,0.359375 0,0.171875 -0.046875,0.328125 -0.140625,0.734375 C 1.53125,-2.765625 1.4375,-2.375 1.390625,-2.15625 L 1.03125,-0.75 C 1,-0.625 0.953125,-0.421875 0.953125,-0.359375 c 0,0.203125 0.15625,0.4375 0.46875,0.4375 0.515625,0 0.625,-0.453125 0.703125,-0.75 0.09375,-0.375 0.171875,-0.6875 0.28125,-1.125 0.03125,-0.125 0.28125,-1.15625 0.3125,-1.1875 0,-0.0625 0.28125,-0.5 0.609375,-0.78125 0.28125,-0.21875 0.609375,-0.375 1.03125,-0.375 0.25,0 0.5,0.09375 0.5,0.578125 0,0.578125 -0.4375,1.734375 -0.625,2.234375 -0.125,0.265625 -0.140625,0.34375 -0.140625,0.515625 0,0.578125 0.578125,0.890625 1.125,0.890625 1.046875,0 1.546875,-1.359375 1.546875,-1.546875 0,-0.140625 -0.140625,-0.140625 -0.234375,-0.140625 -0.125,0 -0.1875,0 -0.234375,0.125 C 5.96875,-0.375 5.4375,-0.28125 5.28125,-0.28125 c -0.078125,0 -0.171875,0 -0.171875,-0.203125 0,-0.234375 0.09375,-0.484375 0.1875,-0.734375 0.171875,-0.40625 0.625,-1.578125 0.625,-2.125 C 5.921875,-4.265625 5.15625,-4.5 4.4375,-4.5 4.234375,-4.5 3.5,-4.5 2.796875,-3.75 Z m 0,0"
               id="id-2abc1ba2-89f4-4e37-a13f-733379f80671" />
          </g>
          <g
             id="id-b6c8999b-4003-4ab1-b647-f69a0d11c9e0">
            <path
               d="m 1.4375,-0.84375 c -0.25,0.390625 -0.46875,0.5625 -0.875,0.59375 -0.078125,0 -0.171875,0 -0.171875,0.140625 C 0.390625,-0.03125 0.453125,0 0.5,0 0.671875,0 0.90625,-0.03125 1.09375,-0.03125 1.3125,-0.03125 1.609375,0 1.8125,0 1.84375,0 1.953125,0 1.953125,-0.15625 1.953125,-0.25 1.859375,-0.25 1.828125,-0.25 1.78125,-0.265625 1.53125,-0.265625 1.53125,-0.453125 c 0,-0.09375 0.0625,-0.203125 0.09375,-0.265625 l 0.5625,-0.875 h 2 L 4.34375,-0.4375 C 4.328125,-0.359375 4.28125,-0.25 3.875,-0.25 c -0.09375,0 -0.1875,0 -0.1875,0.15625 C 3.6875,-0.0625 3.703125,0 3.796875,0 4,0 4.5,-0.03125 4.703125,-0.03125 c 0.125,0 0.28125,0.015625 0.40625,0.015625 C 5.234375,-0.015625 5.375,0 5.5,0 5.59375,0 5.640625,-0.0625 5.640625,-0.140625 5.640625,-0.25 5.5625,-0.25 5.453125,-0.25 c -0.40625,0 -0.421875,-0.0625 -0.4375,-0.21875 l -0.625,-4.3125 C 4.375,-4.921875 4.359375,-4.96875 4.234375,-4.96875 4.09375,-4.96875 4.0625,-4.90625 4,-4.8125 Z m 0.921875,-1 L 3.8125,-4.125 4.140625,-1.84375 Z m 0,0"
               id="id-76e4d3bc-3214-44df-9d85-b0924c9f86b2" />
          </g>
        </g>
      </defs>
      <g
         fill="#000000"
         fill-opacity="1"
         id="id-72b7d58b-663c-4d14-aa86-7dc0cdfd5d99"
         transform="translate(-149.025,-130.265)">
        <g
           transform="translate(148.712,134.765)"
           id="g529">
          <path
             d="M 2.796875,-3.75 C 2.65625,-4.25 2.109375,-4.5 1.5625,-4.5 1.203125,-4.5 0.921875,-4.296875 0.703125,-3.9375 0.453125,-3.53125 0.3125,-3 0.3125,-2.953125 c 0,0.140625 0.15625,0.140625 0.25,0.140625 0.109375,0 0.140625,0 0.1875,-0.046875 C 0.78125,-2.875 0.78125,-2.90625 0.84375,-3.15625 1.03125,-3.921875 1.25,-4.140625 1.515625,-4.140625 c 0.15625,0 0.234375,0.09375 0.234375,0.359375 0,0.171875 -0.046875,0.328125 -0.140625,0.734375 C 1.53125,-2.765625 1.4375,-2.375 1.390625,-2.15625 L 1.03125,-0.75 C 1,-0.625 0.953125,-0.421875 0.953125,-0.359375 c 0,0.203125 0.15625,0.4375 0.46875,0.4375 0.515625,0 0.625,-0.453125 0.703125,-0.75 0.09375,-0.375 0.171875,-0.6875 0.28125,-1.125 0.03125,-0.125 0.28125,-1.15625 0.3125,-1.1875 0,-0.0625 0.28125,-0.5 0.609375,-0.78125 0.28125,-0.21875 0.609375,-0.375 1.03125,-0.375 0.25,0 0.5,0.09375 0.5,0.578125 0,0.578125 -0.4375,1.734375 -0.625,2.234375 -0.125,0.265625 -0.140625,0.34375 -0.140625,0.515625 0,0.578125 0.578125,0.890625 1.125,0.890625 1.046875,0 1.546875,-1.359375 1.546875,-1.546875 0,-0.140625 -0.140625,-0.140625 -0.234375,-0.140625 -0.125,0 -0.1875,0 -0.234375,0.125 C 5.96875,-0.375 5.4375,-0.28125 5.28125,-0.28125 c -0.078125,0 -0.171875,0 -0.171875,-0.203125 0,-0.234375 0.09375,-0.484375 0.1875,-0.734375 0.171875,-0.40625 0.625,-1.578125 0.625,-2.125 C 5.921875,-4.265625 5.15625,-4.5 4.4375,-4.5 4.234375,-4.5 3.5,-4.5 2.796875,-3.75 Z m 0,0"
             id="id-a8c152f5-9bd4-47dc-92c2-978055fd16bb" />
        </g>
      </g>
      <g
         fill="#000000"
         fill-opacity="1"
         id="id-16752d48-ca72-4036-a6b0-87a653687f00"
         transform="translate(-149.025,-130.265)">
        <g
           transform="translate(155.815,136.84)"
           id="g3312">
          <path
             d="m 1.4375,-0.84375 c -0.25,0.390625 -0.46875,0.5625 -0.875,0.59375 -0.078125,0 -0.171875,0 -0.171875,0.140625 C 0.390625,-0.03125 0.453125,0 0.5,0 0.671875,0 0.90625,-0.03125 1.09375,-0.03125 1.3125,-0.03125 1.609375,0 1.8125,0 1.84375,0 1.953125,0 1.953125,-0.15625 1.953125,-0.25 1.859375,-0.25 1.828125,-0.25 1.78125,-0.265625 1.53125,-0.265625 1.53125,-0.453125 c 0,-0.09375 0.0625,-0.203125 0.09375,-0.265625 l 0.5625,-0.875 h 2 L 4.34375,-0.4375 C 4.328125,-0.359375 4.28125,-0.25 3.875,-0.25 c -0.09375,0 -0.1875,0 -0.1875,0.15625 C 3.6875,-0.0625 3.703125,0 3.796875,0 4,0 4.5,-0.03125 4.703125,-0.03125 c 0.125,0 0.28125,0.015625 0.40625,0.015625 C 5.234375,-0.015625 5.375,0 5.5,0 5.59375,0 5.640625,-0.0625 5.640625,-0.140625 5.640625,-0.25 5.5625,-0.25 5.453125,-0.25 c -0.40625,0 -0.421875,-0.0625 -0.4375,-0.21875 l -0.625,-4.3125 C 4.375,-4.921875 4.359375,-4.96875 4.234375,-4.96875 4.09375,-4.96875 4.0625,-4.90625 4,-4.8125 Z m 0.921875,-1 L 3.8125,-4.125 4.140625,-1.84375 Z m 0,0"
             id="id-20c7cd57-8e27-4f0a-b601-97307f1820be" />
        </g>
      </g>
    </g>
    <path
       style="fill:none;fill-opacity:0.5;stroke:#000000;stroke-width:0.6;stroke-dasharray:none;marker-end:url(#Triangle)"
       d="m 70.917868,48.787468 4e-6,-15.500004"
       id="path17"
       sodipodi:nodetypes="cc" />
    <path
       style="fill:none;fill-opacity:0.5;stroke:#000000;stroke-width:0.6;stroke-dasharray:none;marker-end:url(#Triangle)"
       d="m 44.76376,74.941574 -15.500004,-4e-6"
       id="path25"
       sodipodi:nodetypes="cc" />
    <path
       style="fill:none;fill-opacity:0.5;stroke:#000000;stroke-width:0.6;stroke-dasharray:none;marker-end:url(#Triangle)"
       d="m 70.917868,101.09568 -1e-5,15.5"
       id="path26"
       sodipodi:nodetypes="cc" />
    <path
       style="fill:none;fill-opacity:0.5;stroke:#000000;stroke-width:0.6;stroke-dasharray:none;marker-end:url(#Triangle)"
       d="m 97.246244,74.941574 6.798076,-10.96016"
       id="path42"
       sodipodi:nodetypes="cc" />
    <path
       style="fill:none;fill-opacity:0.5;stroke:#000000;stroke-width:0.6;stroke-dasharray:none;marker-end:url(#Triangle)"
       d="M 70.917868,49.006033 81.878032,32.825858"
       id="path44"
       sodipodi:nodetypes="cc" />
    <path
       style="fill:none;fill-opacity:0.5;stroke:#000000;stroke-width:0.6;stroke-dasharray:none;marker-end:url(#Triangle)"
       d="m 44.76376,74.941574 -6.798076,10.96016"
       id="path45"
       sodipodi:nodetypes="cc" />
    <path
       style="fill:none;fill-opacity:0.5;stroke:#000000;stroke-width:0.6;stroke-dasharray:none;marker-end:url(#Triangle)"
       d="M 70.917868,101.09568 59.957704,117.27585"
       id="path46"
       sodipodi:nodetypes="cc" />
    <g
       transform="matrix(0.705556,0,0,0.705556,85.0372,30.2469)"
       ns2:version="1.10.2"
       ns2:texconverter="pdflatex"
       ns2:pdfconverter="inkscape"
       ns2:text="$\\tv{t}_B$"
       ns2:preamble="C:\Users\meyer\SoftwareConfigurations\inkscape\textext.tex"
       ns2:scale="2.0"
       ns2:alignment="middle center"
       ns2:stroke-to-path="0"
       id="g54"
       ns2:jacobian_sqrt="0.705556">
      <defs
         id="id-720292a9-095f-4053-99c3-7ded54b7ec15">
        <g
           id="id-216cd961-9aa6-416d-b8ff-112a73ba2118">
          <g
             id="id-b2e93d57-fadd-48c0-a6c9-8c09bf99d3cd">
            <path
               d="M 2.515625,-3.953125 H 3.40625 c 0.1875,0 0.21875,0 0.265625,-0.046875 0.0625,-0.046875 0.09375,-0.1875 0.09375,-0.25 0,-0.171875 -0.171875,-0.171875 -0.34375,-0.171875 H 2.625 L 2.953125,-5.71875 c 0.03125,-0.15625 0.03125,-0.21875 0.03125,-0.25 0,-0.328125 -0.25,-0.4375 -0.46875,-0.4375 -0.140625,0 -0.40625,0.0625 -0.578125,0.34375 C 1.90625,-5.984375 1.78125,-5.515625 1.71875,-5.25 L 1.515625,-4.421875 H 0.625 c -0.203125,0 -0.375,0 -0.375,0.28125 0,0.1875 0.15625,0.1875 0.34375,0.1875 H 1.390625 L 0.828125,-1.6875 C 0.75,-1.421875 0.65625,-1 0.65625,-0.890625 c 0,0.640625 0.640625,0.96875 1.25,0.96875 1.1875,0 1.875,-1.390625 1.875,-1.546875 0,-0.140625 -0.15625,-0.140625 -0.25,-0.140625 -0.15625,0 -0.171875,0 -0.234375,0.15625 -0.390625,0.859375 -0.9375,1.171875 -1.328125,1.171875 -0.09375,0 -0.25,0 -0.25,-0.359375 0,-0.203125 0.03125,-0.3125 0.0625,-0.4375 z m 0,0"
               id="id-697f2182-903a-47ba-95ca-bbeb18118223" />
          </g>
          <g
             id="id-b82813a5-6fac-4ce2-a615-9dc92e75ce5c">
            <path
               d="M 1.328125,-0.546875 C 1.265625,-0.3125 1.25,-0.25 0.703125,-0.25 0.59375,-0.25 0.5,-0.25 0.5,-0.109375 0.5,0 0.578125,0 0.703125,0 H 3.40625 c 1.171875,0 2.078125,-0.796875 2.078125,-1.484375 0,-0.5 -0.453125,-0.921875 -1.203125,-1 0.84375,-0.15625 1.546875,-0.6875 1.546875,-1.28125 0,-0.53125 -0.53125,-1 -1.4375,-1 h -2.53125 c -0.140625,0 -0.234375,0 -0.234375,0.15625 0,0.09375 0.09375,0.09375 0.234375,0.09375 0,0 0.140625,0 0.265625,0.015625 0.140625,0.015625 0.15625,0.03125 0.15625,0.109375 0,0 0,0.046875 -0.03125,0.140625 z m 1.109375,-2.03125 0.421875,-1.6875 c 0.0625,-0.21875 0.0625,-0.25 0.359375,-0.25 h 1.0625 c 0.703125,0 0.875,0.46875 0.875,0.734375 0,0.5625 -0.640625,1.203125 -1.578125,1.203125 z M 2.109375,-0.25 C 1.890625,-0.25 1.875,-0.265625 1.875,-0.328125 c 0,0 0,-0.03125 0.03125,-0.140625 L 2.390625,-2.375 H 3.875 c 0.640625,0 0.90625,0.4375 0.90625,0.828125 0,0.703125 -0.71875,1.296875 -1.5625,1.296875 z m 0,0"
               id="id-7acd8a84-310c-437f-ae88-0ca78b67c372" />
          </g>
        </g>
      </defs>
      <g
         fill="#000000"
         fill-opacity="1"
         id="id-481aa833-ef85-4ef4-bd96-b9f69bc716a5"
         transform="translate(-148.962,-128.359)">
        <g
           transform="translate(148.712,134.765)"
           id="g2921">
          <path
             d="M 2.515625,-3.953125 H 3.40625 c 0.1875,0 0.21875,0 0.265625,-0.046875 0.0625,-0.046875 0.09375,-0.1875 0.09375,-0.25 0,-0.171875 -0.171875,-0.171875 -0.34375,-0.171875 H 2.625 L 2.953125,-5.71875 c 0.03125,-0.15625 0.03125,-0.21875 0.03125,-0.25 0,-0.328125 -0.25,-0.4375 -0.46875,-0.4375 -0.140625,0 -0.40625,0.0625 -0.578125,0.34375 C 1.90625,-5.984375 1.78125,-5.515625 1.71875,-5.25 L 1.515625,-4.421875 H 0.625 c -0.203125,0 -0.375,0 -0.375,0.28125 0,0.1875 0.15625,0.1875 0.34375,0.1875 H 1.390625 L 0.828125,-1.6875 C 0.75,-1.421875 0.65625,-1 0.65625,-0.890625 c 0,0.640625 0.640625,0.96875 1.25,0.96875 1.1875,0 1.875,-1.390625 1.875,-1.546875 0,-0.140625 -0.15625,-0.140625 -0.25,-0.140625 -0.15625,0 -0.171875,0 -0.234375,0.15625 -0.390625,0.859375 -0.9375,1.171875 -1.328125,1.171875 -0.09375,0 -0.25,0 -0.25,-0.359375 0,-0.203125 0.03125,-0.3125 0.0625,-0.4375 z m 0,0"
             id="id-f1f69a65-1859-4151-a8f0-674f138d21fc" />
        </g>
      </g>
      <g
         fill="#000000"
         fill-opacity="1"
         id="id-37778557-fa81-4b6d-98c5-39a0917a59f3"
         transform="translate(-148.962,-128.359)">
        <g
           transform="translate(152.85,136.84)"
           id="g2646">
          <path
             d="M 1.328125,-0.546875 C 1.265625,-0.3125 1.25,-0.25 0.703125,-0.25 0.59375,-0.25 0.5,-0.25 0.5,-0.109375 0.5,0 0.578125,0 0.703125,0 H 3.40625 c 1.171875,0 2.078125,-0.796875 2.078125,-1.484375 0,-0.5 -0.453125,-0.921875 -1.203125,-1 0.84375,-0.15625 1.546875,-0.6875 1.546875,-1.28125 0,-0.53125 -0.53125,-1 -1.4375,-1 h -2.53125 c -0.140625,0 -0.234375,0 -0.234375,0.15625 0,0.09375 0.09375,0.09375 0.234375,0.09375 0,0 0.140625,0 0.265625,0.015625 0.140625,0.015625 0.15625,0.03125 0.15625,0.109375 0,0 0,0.046875 -0.03125,0.140625 z m 1.109375,-2.03125 0.421875,-1.6875 c 0.0625,-0.21875 0.0625,-0.25 0.359375,-0.25 h 1.0625 c 0.703125,0 0.875,0.46875 0.875,0.734375 0,0.5625 -0.640625,1.203125 -1.578125,1.203125 z M 2.109375,-0.25 C 1.890625,-0.25 1.875,-0.265625 1.875,-0.328125 c 0,0 0,-0.03125 0.03125,-0.140625 L 2.390625,-2.375 H 3.875 c 0.640625,0 0.90625,0.4375 0.90625,0.828125 0,0.703125 -0.71875,1.296875 -1.5625,1.296875 z m 0,0"
             id="id-27ca453b-e3b6-4ce4-a7f1-66486b7f1909" />
        </g>
      </g>
    </g>
    <g
       transform="matrix(0.705556,0,0,0.705556,60.5273,33.2389)"
       ns2:version="1.10.2"
       ns2:texconverter="pdflatex"
       ns2:pdfconverter="inkscape"
       ns2:text="$\\tv{n}_B$"
       ns2:preamble="C:\Users\meyer\SoftwareConfigurations\inkscape\textext.tex"
       ns2:scale="2.0"
       ns2:alignment="middle center"
       ns2:stroke-to-path="0"
       ns2:inkscapeversion="1.3.2"
       id="g25"
       ns2:jacobian_sqrt="0.705556">
      <defs
         id="id-bfccf054-8122-4667-8a70-8b572f6b451d">
        <g
           id="id-cb1c2f1b-f679-4c76-afcc-6b6906115ec7">
          <g
             id="id-cc9ea37f-d2fe-4799-985a-1370c8c63798">
            <path
               d="M 2.796875,-3.75 C 2.65625,-4.25 2.109375,-4.5 1.5625,-4.5 1.203125,-4.5 0.921875,-4.296875 0.703125,-3.9375 0.453125,-3.53125 0.3125,-3 0.3125,-2.953125 c 0,0.140625 0.15625,0.140625 0.25,0.140625 0.109375,0 0.140625,0 0.1875,-0.046875 C 0.78125,-2.875 0.78125,-2.90625 0.84375,-3.15625 1.03125,-3.921875 1.25,-4.140625 1.515625,-4.140625 c 0.15625,0 0.234375,0.09375 0.234375,0.359375 0,0.171875 -0.046875,0.328125 -0.140625,0.734375 C 1.53125,-2.765625 1.4375,-2.375 1.390625,-2.15625 L 1.03125,-0.75 C 1,-0.625 0.953125,-0.421875 0.953125,-0.359375 c 0,0.203125 0.15625,0.4375 0.46875,0.4375 0.515625,0 0.625,-0.453125 0.703125,-0.75 0.09375,-0.375 0.171875,-0.6875 0.28125,-1.125 0.03125,-0.125 0.28125,-1.15625 0.3125,-1.1875 0,-0.0625 0.28125,-0.5 0.609375,-0.78125 0.28125,-0.21875 0.609375,-0.375 1.03125,-0.375 0.25,0 0.5,0.09375 0.5,0.578125 0,0.578125 -0.4375,1.734375 -0.625,2.234375 -0.125,0.265625 -0.140625,0.34375 -0.140625,0.515625 0,0.578125 0.578125,0.890625 1.125,0.890625 1.046875,0 1.546875,-1.359375 1.546875,-1.546875 0,-0.140625 -0.140625,-0.140625 -0.234375,-0.140625 -0.125,0 -0.1875,0 -0.234375,0.125 C 5.96875,-0.375 5.4375,-0.28125 5.28125,-0.28125 c -0.078125,0 -0.171875,0 -0.171875,-0.203125 0,-0.234375 0.09375,-0.484375 0.1875,-0.734375 0.171875,-0.40625 0.625,-1.578125 0.625,-2.125 C 5.921875,-4.265625 5.15625,-4.5 4.4375,-4.5 4.234375,-4.5 3.5,-4.5 2.796875,-3.75 Z m 0,0"
               id="id-2ed67291-a55b-474c-bd41-7729b2653368" />
          </g>
          <g
             id="id-d5027747-1e0d-4469-877b-eaca652e3528">
            <path
               d="M 1.328125,-0.546875 C 1.265625,-0.3125 1.25,-0.25 0.703125,-0.25 0.59375,-0.25 0.5,-0.25 0.5,-0.109375 0.5,0 0.578125,0 0.703125,0 H 3.40625 c 1.171875,0 2.078125,-0.796875 2.078125,-1.484375 0,-0.5 -0.453125,-0.921875 -1.203125,-1 0.84375,-0.15625 1.546875,-0.6875 1.546875,-1.28125 0,-0.53125 -0.53125,-1 -1.4375,-1 h -2.53125 c -0.140625,0 -0.234375,0 -0.234375,0.15625 0,0.09375 0.09375,0.09375 0.234375,0.09375 0,0 0.140625,0 0.265625,0.015625 0.140625,0.015625 0.15625,0.03125 0.15625,0.109375 0,0 0,0.046875 -0.03125,0.140625 z m 1.109375,-2.03125 0.421875,-1.6875 c 0.0625,-0.21875 0.0625,-0.25 0.359375,-0.25 h 1.0625 c 0.703125,0 0.875,0.46875 0.875,0.734375 0,0.5625 -0.640625,1.203125 -1.578125,1.203125 z M 2.109375,-0.25 C 1.890625,-0.25 1.875,-0.265625 1.875,-0.328125 c 0,0 0,-0.03125 0.03125,-0.140625 L 2.390625,-2.375 H 3.875 c 0.640625,0 0.90625,0.4375 0.90625,0.828125 0,0.703125 -0.71875,1.296875 -1.5625,1.296875 z m 0,0"
               id="id-dcd8439a-0027-4e41-989f-d00b07c0b5e7" />
          </g>
        </g>
      </defs>
      <g
         fill="#000000"
         fill-opacity="1"
         id="id-b69f65ac-e492-4cea-a279-5e31cc80c807"
         transform="translate(-149.025,-130.265)">
        <g
           transform="translate(148.712,134.765)"
           id="g3526">
          <path
             d="M 2.796875,-3.75 C 2.65625,-4.25 2.109375,-4.5 1.5625,-4.5 1.203125,-4.5 0.921875,-4.296875 0.703125,-3.9375 0.453125,-3.53125 0.3125,-3 0.3125,-2.953125 c 0,0.140625 0.15625,0.140625 0.25,0.140625 0.109375,0 0.140625,0 0.1875,-0.046875 C 0.78125,-2.875 0.78125,-2.90625 0.84375,-3.15625 1.03125,-3.921875 1.25,-4.140625 1.515625,-4.140625 c 0.15625,0 0.234375,0.09375 0.234375,0.359375 0,0.171875 -0.046875,0.328125 -0.140625,0.734375 C 1.53125,-2.765625 1.4375,-2.375 1.390625,-2.15625 L 1.03125,-0.75 C 1,-0.625 0.953125,-0.421875 0.953125,-0.359375 c 0,0.203125 0.15625,0.4375 0.46875,0.4375 0.515625,0 0.625,-0.453125 0.703125,-0.75 0.09375,-0.375 0.171875,-0.6875 0.28125,-1.125 0.03125,-0.125 0.28125,-1.15625 0.3125,-1.1875 0,-0.0625 0.28125,-0.5 0.609375,-0.78125 0.28125,-0.21875 0.609375,-0.375 1.03125,-0.375 0.25,0 0.5,0.09375 0.5,0.578125 0,0.578125 -0.4375,1.734375 -0.625,2.234375 -0.125,0.265625 -0.140625,0.34375 -0.140625,0.515625 0,0.578125 0.578125,0.890625 1.125,0.890625 1.046875,0 1.546875,-1.359375 1.546875,-1.546875 0,-0.140625 -0.140625,-0.140625 -0.234375,-0.140625 -0.125,0 -0.1875,0 -0.234375,0.125 C 5.96875,-0.375 5.4375,-0.28125 5.28125,-0.28125 c -0.078125,0 -0.171875,0 -0.171875,-0.203125 0,-0.234375 0.09375,-0.484375 0.1875,-0.734375 0.171875,-0.40625 0.625,-1.578125 0.625,-2.125 C 5.921875,-4.265625 5.15625,-4.5 4.4375,-4.5 4.234375,-4.5 3.5,-4.5 2.796875,-3.75 Z m 0,0"
             id="id-95aa1959-8ad4-4dcb-bdf5-ce6ea837ed04" />
        </g>
      </g>
      <g
         fill="#000000"
         fill-opacity="1"
         id="id-0e208ce0-78b2-49ba-8e82-e075cee620f3"
         transform="translate(-149.025,-130.265)">
        <g
           transform="translate(155.815,136.84)"
           id="g3963">
          <path
             d="M 1.328125,-0.546875 C 1.265625,-0.3125 1.25,-0.25 0.703125,-0.25 0.59375,-0.25 0.5,-0.25 0.5,-0.109375 0.5,0 0.578125,0 0.703125,0 H 3.40625 c 1.171875,0 2.078125,-0.796875 2.078125,-1.484375 0,-0.5 -0.453125,-0.921875 -1.203125,-1 0.84375,-0.15625 1.546875,-0.6875 1.546875,-1.28125 0,-0.53125 -0.53125,-1 -1.4375,-1 h -2.53125 c -0.140625,0 -0.234375,0 -0.234375,0.15625 0,0.09375 0.09375,0.09375 0.234375,0.09375 0,0 0.140625,0 0.265625,0.015625 0.140625,0.015625 0.15625,0.03125 0.15625,0.109375 0,0 0,0.046875 -0.03125,0.140625 z m 1.109375,-2.03125 0.421875,-1.6875 c 0.0625,-0.21875 0.0625,-0.25 0.359375,-0.25 h 1.0625 c 0.703125,0 0.875,0.46875 0.875,0.734375 0,0.5625 -0.640625,1.203125 -1.578125,1.203125 z M 2.109375,-0.25 C 1.890625,-0.25 1.875,-0.265625 1.875,-0.328125 c 0,0 0,-0.03125 0.03125,-0.140625 L 2.390625,-2.375 H 3.875 c 0.640625,0 0.90625,0.4375 0.90625,0.828125 0,0.703125 -0.71875,1.296875 -1.5625,1.296875 z m 0,0"
             id="id-6a9f3abb-0cce-49cc-b8f5-ab1c2cf6d511" />
        </g>
      </g>
    </g>
    <g
       transform="matrix(0.705556,0,0,0.705556,106.353,61.101)"
       ns2:version="1.10.2"
       ns2:texconverter="pdflatex"
       ns2:pdfconverter="inkscape"
       ns2:text="$\\tv{t}_A$"
       ns2:preamble="C:\Users\meyer\SoftwareConfigurations\inkscape\textext.tex"
       ns2:scale="2.0"
       ns2:alignment="middle center"
       ns2:stroke-to-path="0"
       ns2:inkscapeversion="1.3.2"
       id="g62"
       ns2:jacobian_sqrt="0.705556">
      <defs
         id="id-7de90878-988d-4228-b38c-cd12116b02b3">
        <g
           id="id-c5b6db31-d68b-42fd-9700-595abab1a94a">
          <g
             id="id-249b9409-15c0-4e6d-b17f-7d82448e58a8">
            <path
               d="M 2.515625,-3.953125 H 3.40625 c 0.1875,0 0.21875,0 0.265625,-0.046875 0.0625,-0.046875 0.09375,-0.1875 0.09375,-0.25 0,-0.171875 -0.171875,-0.171875 -0.34375,-0.171875 H 2.625 L 2.953125,-5.71875 c 0.03125,-0.15625 0.03125,-0.21875 0.03125,-0.25 0,-0.328125 -0.25,-0.4375 -0.46875,-0.4375 -0.140625,0 -0.40625,0.0625 -0.578125,0.34375 C 1.90625,-5.984375 1.78125,-5.515625 1.71875,-5.25 L 1.515625,-4.421875 H 0.625 c -0.203125,0 -0.375,0 -0.375,0.28125 0,0.1875 0.15625,0.1875 0.34375,0.1875 H 1.390625 L 0.828125,-1.6875 C 0.75,-1.421875 0.65625,-1 0.65625,-0.890625 c 0,0.640625 0.640625,0.96875 1.25,0.96875 1.1875,0 1.875,-1.390625 1.875,-1.546875 0,-0.140625 -0.15625,-0.140625 -0.25,-0.140625 -0.15625,0 -0.171875,0 -0.234375,0.15625 -0.390625,0.859375 -0.9375,1.171875 -1.328125,1.171875 -0.09375,0 -0.25,0 -0.25,-0.359375 0,-0.203125 0.03125,-0.3125 0.0625,-0.4375 z m 0,0"
               id="id-4f49de3b-1e0b-4598-803f-e17d2b3edb74" />
          </g>
          <g
             id="id-b23bb209-8b8e-4e1b-b2b6-27bfb293d751">
            <path
               d="m 1.4375,-0.84375 c -0.25,0.390625 -0.46875,0.5625 -0.875,0.59375 -0.078125,0 -0.171875,0 -0.171875,0.140625 C 0.390625,-0.03125 0.453125,0 0.5,0 0.671875,0 0.90625,-0.03125 1.09375,-0.03125 1.3125,-0.03125 1.609375,0 1.8125,0 1.84375,0 1.953125,0 1.953125,-0.15625 1.953125,-0.25 1.859375,-0.25 1.828125,-0.25 1.78125,-0.265625 1.53125,-0.265625 1.53125,-0.453125 c 0,-0.09375 0.0625,-0.203125 0.09375,-0.265625 l 0.5625,-0.875 h 2 L 4.34375,-0.4375 C 4.328125,-0.359375 4.28125,-0.25 3.875,-0.25 c -0.09375,0 -0.1875,0 -0.1875,0.15625 C 3.6875,-0.0625 3.703125,0 3.796875,0 4,0 4.5,-0.03125 4.703125,-0.03125 c 0.125,0 0.28125,0.015625 0.40625,0.015625 C 5.234375,-0.015625 5.375,0 5.5,0 5.59375,0 5.640625,-0.0625 5.640625,-0.140625 5.640625,-0.25 5.5625,-0.25 5.453125,-0.25 c -0.40625,0 -0.421875,-0.0625 -0.4375,-0.21875 l -0.625,-4.3125 C 4.375,-4.921875 4.359375,-4.96875 4.234375,-4.96875 4.09375,-4.96875 4.0625,-4.90625 4,-4.8125 Z m 0.921875,-1 L 3.8125,-4.125 4.140625,-1.84375 Z m 0,0"
               id="id-46c80cd3-0148-4c4c-afbb-00db897137d3" />
          </g>
        </g>
      </defs>
      <g
         fill="#000000"
         fill-opacity="1"
         id="id-b41415a2-39bc-4026-ad26-918636e4470f"
         transform="translate(-148.962,-128.359)">
        <g
           transform="translate(148.712,134.765)"
           id="g2719">
          <path
             d="M 2.515625,-3.953125 H 3.40625 c 0.1875,0 0.21875,0 0.265625,-0.046875 0.0625,-0.046875 0.09375,-0.1875 0.09375,-0.25 0,-0.171875 -0.171875,-0.171875 -0.34375,-0.171875 H 2.625 L 2.953125,-5.71875 c 0.03125,-0.15625 0.03125,-0.21875 0.03125,-0.25 0,-0.328125 -0.25,-0.4375 -0.46875,-0.4375 -0.140625,0 -0.40625,0.0625 -0.578125,0.34375 C 1.90625,-5.984375 1.78125,-5.515625 1.71875,-5.25 L 1.515625,-4.421875 H 0.625 c -0.203125,0 -0.375,0 -0.375,0.28125 0,0.1875 0.15625,0.1875 0.34375,0.1875 H 1.390625 L 0.828125,-1.6875 C 0.75,-1.421875 0.65625,-1 0.65625,-0.890625 c 0,0.640625 0.640625,0.96875 1.25,0.96875 1.1875,0 1.875,-1.390625 1.875,-1.546875 0,-0.140625 -0.15625,-0.140625 -0.25,-0.140625 -0.15625,0 -0.171875,0 -0.234375,0.15625 -0.390625,0.859375 -0.9375,1.171875 -1.328125,1.171875 -0.09375,0 -0.25,0 -0.25,-0.359375 0,-0.203125 0.03125,-0.3125 0.0625,-0.4375 z m 0,0"
             id="id-88ef2524-7cc6-48e9-8ece-f78f7e808efd" />
        </g>
      </g>
      <g
         fill="#000000"
         fill-opacity="1"
         id="id-7adb2e02-8dbf-49bc-b694-67cc25a00b32"
         transform="translate(-148.962,-128.359)">
        <g
           transform="translate(152.85,136.84)"
           id="g8777">
          <path
             d="m 1.4375,-0.84375 c -0.25,0.390625 -0.46875,0.5625 -0.875,0.59375 -0.078125,0 -0.171875,0 -0.171875,0.140625 C 0.390625,-0.03125 0.453125,0 0.5,0 0.671875,0 0.90625,-0.03125 1.09375,-0.03125 1.3125,-0.03125 1.609375,0 1.8125,0 1.84375,0 1.953125,0 1.953125,-0.15625 1.953125,-0.25 1.859375,-0.25 1.828125,-0.25 1.78125,-0.265625 1.53125,-0.265625 1.53125,-0.453125 c 0,-0.09375 0.0625,-0.203125 0.09375,-0.265625 l 0.5625,-0.875 h 2 L 4.34375,-0.4375 C 4.328125,-0.359375 4.28125,-0.25 3.875,-0.25 c -0.09375,0 -0.1875,0 -0.1875,0.15625 C 3.6875,-0.0625 3.703125,0 3.796875,0 4,0 4.5,-0.03125 4.703125,-0.03125 c 0.125,0 0.28125,0.015625 0.40625,0.015625 C 5.234375,-0.015625 5.375,0 5.5,0 5.59375,0 5.640625,-0.0625 5.640625,-0.140625 5.640625,-0.25 5.5625,-0.25 5.453125,-0.25 c -0.40625,0 -0.421875,-0.0625 -0.4375,-0.21875 l -0.625,-4.3125 C 4.375,-4.921875 4.359375,-4.96875 4.234375,-4.96875 4.09375,-4.96875 4.0625,-4.90625 4,-4.8125 Z m 0.921875,-1 L 3.8125,-4.125 4.140625,-1.84375 Z m 0,0"
             id="id-380bcb3c-e30c-4f3c-8014-65d3c019d873" />
        </g>
      </g>
    </g>
    <g
       transform="matrix(0.705556,0,0,0.705556,25.4131,68.5173)"
       ns2:version="1.10.2"
       ns2:texconverter="pdflatex"
       ns2:pdfconverter="inkscape"
       ns2:text="$\\tv{n}_C$"
       ns2:preamble="C:\Users\meyer\SoftwareConfigurations\inkscape\textext.tex"
       ns2:scale="2.0"
       ns2:alignment="middle center"
       ns2:stroke-to-path="0"
       ns2:inkscapeversion="1.3.2"
       id="g42"
       ns2:jacobian_sqrt="0.705556">
      <defs
         id="id-2b5f5ff2-accb-4641-9353-0d7806a13797">
        <g
           id="id-e12f6c06-6c42-4a4f-ae51-d008d2b0c09e">
          <g
             id="id-021d64b6-c6ab-48b0-9ba7-c4d85fee3fa4">
            <path
               d="M 2.796875,-3.75 C 2.65625,-4.25 2.109375,-4.5 1.5625,-4.5 1.203125,-4.5 0.921875,-4.296875 0.703125,-3.9375 0.453125,-3.53125 0.3125,-3 0.3125,-2.953125 c 0,0.140625 0.15625,0.140625 0.25,0.140625 0.109375,0 0.140625,0 0.1875,-0.046875 C 0.78125,-2.875 0.78125,-2.90625 0.84375,-3.15625 1.03125,-3.921875 1.25,-4.140625 1.515625,-4.140625 c 0.15625,0 0.234375,0.09375 0.234375,0.359375 0,0.171875 -0.046875,0.328125 -0.140625,0.734375 C 1.53125,-2.765625 1.4375,-2.375 1.390625,-2.15625 L 1.03125,-0.75 C 1,-0.625 0.953125,-0.421875 0.953125,-0.359375 c 0,0.203125 0.15625,0.4375 0.46875,0.4375 0.515625,0 0.625,-0.453125 0.703125,-0.75 0.09375,-0.375 0.171875,-0.6875 0.28125,-1.125 0.03125,-0.125 0.28125,-1.15625 0.3125,-1.1875 0,-0.0625 0.28125,-0.5 0.609375,-0.78125 0.28125,-0.21875 0.609375,-0.375 1.03125,-0.375 0.25,0 0.5,0.09375 0.5,0.578125 0,0.578125 -0.4375,1.734375 -0.625,2.234375 -0.125,0.265625 -0.140625,0.34375 -0.140625,0.515625 0,0.578125 0.578125,0.890625 1.125,0.890625 1.046875,0 1.546875,-1.359375 1.546875,-1.546875 0,-0.140625 -0.140625,-0.140625 -0.234375,-0.140625 -0.125,0 -0.1875,0 -0.234375,0.125 C 5.96875,-0.375 5.4375,-0.28125 5.28125,-0.28125 c -0.078125,0 -0.171875,0 -0.171875,-0.203125 0,-0.234375 0.09375,-0.484375 0.1875,-0.734375 0.171875,-0.40625 0.625,-1.578125 0.625,-2.125 C 5.921875,-4.265625 5.15625,-4.5 4.4375,-4.5 4.234375,-4.5 3.5,-4.5 2.796875,-3.75 Z m 0,0"
               id="id-52227135-17df-4ba4-8f40-6f50a99fb9a3" />
          </g>
          <g
             id="id-bb7942aa-30a9-4f20-b378-b6e0da3e8246">
            <path
               d="m 5.875,-4.8125 c 0,-0.03125 -0.015625,-0.09375 -0.09375,-0.09375 -0.046875,0 -0.0625,0.015625 -0.125,0.09375 l -0.5,0.53125 c -0.0625,-0.078125 -0.453125,-0.625 -1.3125,-0.625 -1.703125,0 -3.359375,1.5 -3.359375,3.078125 0,1.140625 0.890625,1.96875 2.140625,1.96875 0.375,0 1.046875,-0.078125 1.765625,-0.6875 0.546875,-0.46875 0.703125,-1.0625 0.703125,-1.125 0,-0.09375 -0.078125,-0.09375 -0.125,-0.09375 -0.078125,0 -0.09375,0.03125 -0.125,0.109375 -0.28125,0.953125 -1.25,1.546875 -2.09375,1.546875 -0.75,0 -1.5625,-0.40625 -1.5625,-1.5 0,-0.203125 0.046875,-1.296875 0.84375,-2.1875 0.484375,-0.53125 1.21875,-0.84375 1.875,-0.84375 0.8125,0 1.28125,0.578125 1.28125,1.359375 0,0.1875 -0.015625,0.25 -0.015625,0.28125 0,0.09375 0.09375,0.09375 0.125,0.09375 0.109375,0 0.109375,-0.015625 0.140625,-0.15625 z m 0,0"
               id="id-148b2e0b-21f7-4835-92c9-fdd1724e265d" />
          </g>
        </g>
      </defs>
      <g
         fill="#000000"
         fill-opacity="1"
         id="id-3ff9c416-6d8f-458a-a3c5-36a0840fcd7b"
         transform="translate(-149.025,-130.265)">
        <g
           transform="translate(148.712,134.765)"
           id="g5294">
          <path
             d="M 2.796875,-3.75 C 2.65625,-4.25 2.109375,-4.5 1.5625,-4.5 1.203125,-4.5 0.921875,-4.296875 0.703125,-3.9375 0.453125,-3.53125 0.3125,-3 0.3125,-2.953125 c 0,0.140625 0.15625,0.140625 0.25,0.140625 0.109375,0 0.140625,0 0.1875,-0.046875 C 0.78125,-2.875 0.78125,-2.90625 0.84375,-3.15625 1.03125,-3.921875 1.25,-4.140625 1.515625,-4.140625 c 0.15625,0 0.234375,0.09375 0.234375,0.359375 0,0.171875 -0.046875,0.328125 -0.140625,0.734375 C 1.53125,-2.765625 1.4375,-2.375 1.390625,-2.15625 L 1.03125,-0.75 C 1,-0.625 0.953125,-0.421875 0.953125,-0.359375 c 0,0.203125 0.15625,0.4375 0.46875,0.4375 0.515625,0 0.625,-0.453125 0.703125,-0.75 0.09375,-0.375 0.171875,-0.6875 0.28125,-1.125 0.03125,-0.125 0.28125,-1.15625 0.3125,-1.1875 0,-0.0625 0.28125,-0.5 0.609375,-0.78125 0.28125,-0.21875 0.609375,-0.375 1.03125,-0.375 0.25,0 0.5,0.09375 0.5,0.578125 0,0.578125 -0.4375,1.734375 -0.625,2.234375 -0.125,0.265625 -0.140625,0.34375 -0.140625,0.515625 0,0.578125 0.578125,0.890625 1.125,0.890625 1.046875,0 1.546875,-1.359375 1.546875,-1.546875 0,-0.140625 -0.140625,-0.140625 -0.234375,-0.140625 -0.125,0 -0.1875,0 -0.234375,0.125 C 5.96875,-0.375 5.4375,-0.28125 5.28125,-0.28125 c -0.078125,0 -0.171875,0 -0.171875,-0.203125 0,-0.234375 0.09375,-0.484375 0.1875,-0.734375 0.171875,-0.40625 0.625,-1.578125 0.625,-2.125 C 5.921875,-4.265625 5.15625,-4.5 4.4375,-4.5 4.234375,-4.5 3.5,-4.5 2.796875,-3.75 Z m 0,0"
             id="id-30460a69-6f12-4411-a12e-46e24e94c5a8" />
        </g>
      </g>
      <g
         fill="#000000"
         fill-opacity="1"
         id="id-7bef49bd-813a-421e-942d-dc721d082bff"
         transform="translate(-149.025,-130.265)">
        <g
           transform="translate(155.815,136.84)"
           id="g5755">
          <path
             d="m 5.875,-4.8125 c 0,-0.03125 -0.015625,-0.09375 -0.09375,-0.09375 -0.046875,0 -0.0625,0.015625 -0.125,0.09375 l -0.5,0.53125 c -0.0625,-0.078125 -0.453125,-0.625 -1.3125,-0.625 -1.703125,0 -3.359375,1.5 -3.359375,3.078125 0,1.140625 0.890625,1.96875 2.140625,1.96875 0.375,0 1.046875,-0.078125 1.765625,-0.6875 0.546875,-0.46875 0.703125,-1.0625 0.703125,-1.125 0,-0.09375 -0.078125,-0.09375 -0.125,-0.09375 -0.078125,0 -0.09375,0.03125 -0.125,0.109375 -0.28125,0.953125 -1.25,1.546875 -2.09375,1.546875 -0.75,0 -1.5625,-0.40625 -1.5625,-1.5 0,-0.203125 0.046875,-1.296875 0.84375,-2.1875 0.484375,-0.53125 1.21875,-0.84375 1.875,-0.84375 0.8125,0 1.28125,0.578125 1.28125,1.359375 0,0.1875 -0.015625,0.25 -0.015625,0.28125 0,0.09375 0.09375,0.09375 0.125,0.09375 0.109375,0 0.109375,-0.015625 0.140625,-0.15625 z m 0,0"
             id="id-c6850c52-a074-4960-96b4-1b493fb7b327" />
        </g>
      </g>
    </g>
    <g
       transform="matrix(0.705556,0,0,0.705556,33.1501,86.562)"
       ns2:version="1.10.2"
       ns2:texconverter="pdflatex"
       ns2:pdfconverter="inkscape"
       ns2:text="$\\tv{t}_C$"
       ns2:preamble="C:\Users\meyer\SoftwareConfigurations\inkscape\textext.tex"
       ns2:scale="2.0"
       ns2:alignment="middle center"
       ns2:stroke-to-path="0"
       ns2:inkscapeversion="1.3.2"
       id="g78"
       ns2:jacobian_sqrt="0.705556">
      <defs
         id="id-c82bbb06-6a77-4cd4-b4be-0ba06b45aabe">
        <g
           id="id-0a881f1b-7eb1-4cd2-8783-7cbc24e922b2">
          <g
             id="id-aecf5f44-f18c-4391-854c-9b5a4eedbfdf">
            <path
               d="M 2.515625,-3.953125 H 3.40625 c 0.1875,0 0.21875,0 0.265625,-0.046875 0.0625,-0.046875 0.09375,-0.1875 0.09375,-0.25 0,-0.171875 -0.171875,-0.171875 -0.34375,-0.171875 H 2.625 L 2.953125,-5.71875 c 0.03125,-0.15625 0.03125,-0.21875 0.03125,-0.25 0,-0.328125 -0.25,-0.4375 -0.46875,-0.4375 -0.140625,0 -0.40625,0.0625 -0.578125,0.34375 C 1.90625,-5.984375 1.78125,-5.515625 1.71875,-5.25 L 1.515625,-4.421875 H 0.625 c -0.203125,0 -0.375,0 -0.375,0.28125 0,0.1875 0.15625,0.1875 0.34375,0.1875 H 1.390625 L 0.828125,-1.6875 C 0.75,-1.421875 0.65625,-1 0.65625,-0.890625 c 0,0.640625 0.640625,0.96875 1.25,0.96875 1.1875,0 1.875,-1.390625 1.875,-1.546875 0,-0.140625 -0.15625,-0.140625 -0.25,-0.140625 -0.15625,0 -0.171875,0 -0.234375,0.15625 -0.390625,0.859375 -0.9375,1.171875 -1.328125,1.171875 -0.09375,0 -0.25,0 -0.25,-0.359375 0,-0.203125 0.03125,-0.3125 0.0625,-0.4375 z m 0,0"
               id="id-a4989935-82c1-4b2f-929c-6a49b11193c0" />
          </g>
          <g
             id="id-da13d361-132c-4852-bb59-55ea97a5b7ac">
            <path
               d="m 5.875,-4.8125 c 0,-0.03125 -0.015625,-0.09375 -0.09375,-0.09375 -0.046875,0 -0.0625,0.015625 -0.125,0.09375 l -0.5,0.53125 c -0.0625,-0.078125 -0.453125,-0.625 -1.3125,-0.625 -1.703125,0 -3.359375,1.5 -3.359375,3.078125 0,1.140625 0.890625,1.96875 2.140625,1.96875 0.375,0 1.046875,-0.078125 1.765625,-0.6875 0.546875,-0.46875 0.703125,-1.0625 0.703125,-1.125 0,-0.09375 -0.078125,-0.09375 -0.125,-0.09375 -0.078125,0 -0.09375,0.03125 -0.125,0.109375 -0.28125,0.953125 -1.25,1.546875 -2.09375,1.546875 -0.75,0 -1.5625,-0.40625 -1.5625,-1.5 0,-0.203125 0.046875,-1.296875 0.84375,-2.1875 0.484375,-0.53125 1.21875,-0.84375 1.875,-0.84375 0.8125,0 1.28125,0.578125 1.28125,1.359375 0,0.1875 -0.015625,0.25 -0.015625,0.28125 0,0.09375 0.09375,0.09375 0.125,0.09375 0.109375,0 0.109375,-0.015625 0.140625,-0.15625 z m 0,0"
               id="id-0ff1d81a-16f4-428f-b364-55c736adb799" />
          </g>
        </g>
      </defs>
      <g
         fill="#000000"
         fill-opacity="1"
         id="id-fdf256ee-f33c-4949-ba7a-7aaff0359319"
         transform="translate(-148.962,-128.359)">
        <g
           transform="translate(148.712,134.765)"
           id="g5861">
          <path
             d="M 2.515625,-3.953125 H 3.40625 c 0.1875,0 0.21875,0 0.265625,-0.046875 0.0625,-0.046875 0.09375,-0.1875 0.09375,-0.25 0,-0.171875 -0.171875,-0.171875 -0.34375,-0.171875 H 2.625 L 2.953125,-5.71875 c 0.03125,-0.15625 0.03125,-0.21875 0.03125,-0.25 0,-0.328125 -0.25,-0.4375 -0.46875,-0.4375 -0.140625,0 -0.40625,0.0625 -0.578125,0.34375 C 1.90625,-5.984375 1.78125,-5.515625 1.71875,-5.25 L 1.515625,-4.421875 H 0.625 c -0.203125,0 -0.375,0 -0.375,0.28125 0,0.1875 0.15625,0.1875 0.34375,0.1875 H 1.390625 L 0.828125,-1.6875 C 0.75,-1.421875 0.65625,-1 0.65625,-0.890625 c 0,0.640625 0.640625,0.96875 1.25,0.96875 1.1875,0 1.875,-1.390625 1.875,-1.546875 0,-0.140625 -0.15625,-0.140625 -0.25,-0.140625 -0.15625,0 -0.171875,0 -0.234375,0.15625 -0.390625,0.859375 -0.9375,1.171875 -1.328125,1.171875 -0.09375,0 -0.25,0 -0.25,-0.359375 0,-0.203125 0.03125,-0.3125 0.0625,-0.4375 z m 0,0"
             id="id-e78b5043-8a2b-46f1-b066-6acc0068f4fa" />
        </g>
      </g>
      <g
         fill="#000000"
         fill-opacity="1"
         id="id-9ce7b239-6d52-48a0-922f-16a90aca94ae"
         transform="translate(-148.962,-128.359)">
        <g
           transform="translate(152.85,136.84)"
           id="g220">
          <path
             d="m 5.875,-4.8125 c 0,-0.03125 -0.015625,-0.09375 -0.09375,-0.09375 -0.046875,0 -0.0625,0.015625 -0.125,0.09375 l -0.5,0.53125 c -0.0625,-0.078125 -0.453125,-0.625 -1.3125,-0.625 -1.703125,0 -3.359375,1.5 -3.359375,3.078125 0,1.140625 0.890625,1.96875 2.140625,1.96875 0.375,0 1.046875,-0.078125 1.765625,-0.6875 0.546875,-0.46875 0.703125,-1.0625 0.703125,-1.125 0,-0.09375 -0.078125,-0.09375 -0.125,-0.09375 -0.078125,0 -0.09375,0.03125 -0.125,0.109375 -0.28125,0.953125 -1.25,1.546875 -2.09375,1.546875 -0.75,0 -1.5625,-0.40625 -1.5625,-1.5 0,-0.203125 0.046875,-1.296875 0.84375,-2.1875 0.484375,-0.53125 1.21875,-0.84375 1.875,-0.84375 0.8125,0 1.28125,0.578125 1.28125,1.359375 0,0.1875 -0.015625,0.25 -0.015625,0.28125 0,0.09375 0.09375,0.09375 0.125,0.09375 0.109375,0 0.109375,-0.015625 0.140625,-0.15625 z m 0,0"
             id="id-49655e75-3479-4ab0-9543-d50709edd5dd" />
        </g>
      </g>
    </g>
    <g
       transform="matrix(0.705556,0,0,0.705556,53.4642,108.716)"
       ns2:version="1.10.2"
       ns2:texconverter="pdflatex"
       ns2:pdfconverter="inkscape"
       ns2:text="$\\tv{t}_D$"
       ns2:preamble="C:\Users\meyer\SoftwareConfigurations\inkscape\textext.tex"
       ns2:scale="2.0"
       ns2:alignment="middle center"
       ns2:stroke-to-path="0"
       ns2:inkscapeversion="1.3.2"
       id="g70"
       ns2:jacobian_sqrt="0.705556">
      <defs
         id="id-2f635248-1d8e-4cae-a1cd-1f94099a3d24">
        <g
           id="id-c1be7b88-2f80-41aa-9dae-2397f19acc6d">
          <g
             id="id-0104563d-1562-4d1d-ba5f-7a3ff40399de">
            <path
               d="M 2.515625,-3.953125 H 3.40625 c 0.1875,0 0.21875,0 0.265625,-0.046875 0.0625,-0.046875 0.09375,-0.1875 0.09375,-0.25 0,-0.171875 -0.171875,-0.171875 -0.34375,-0.171875 H 2.625 L 2.953125,-5.71875 c 0.03125,-0.15625 0.03125,-0.21875 0.03125,-0.25 0,-0.328125 -0.25,-0.4375 -0.46875,-0.4375 -0.140625,0 -0.40625,0.0625 -0.578125,0.34375 C 1.90625,-5.984375 1.78125,-5.515625 1.71875,-5.25 L 1.515625,-4.421875 H 0.625 c -0.203125,0 -0.375,0 -0.375,0.28125 0,0.1875 0.15625,0.1875 0.34375,0.1875 H 1.390625 L 0.828125,-1.6875 C 0.75,-1.421875 0.65625,-1 0.65625,-0.890625 c 0,0.640625 0.640625,0.96875 1.25,0.96875 1.1875,0 1.875,-1.390625 1.875,-1.546875 0,-0.140625 -0.15625,-0.140625 -0.25,-0.140625 -0.15625,0 -0.171875,0 -0.234375,0.15625 -0.390625,0.859375 -0.9375,1.171875 -1.328125,1.171875 -0.09375,0 -0.25,0 -0.25,-0.359375 0,-0.203125 0.03125,-0.3125 0.0625,-0.4375 z m 0,0"
               id="id-c90c4cf9-1138-4d99-8b0f-68add060e481" />
          </g>
          <g
             id="id-04d2be86-4f7d-4dd5-a085-2dae1ef777b0">
            <path
               d="M 1.3125,-0.546875 C 1.265625,-0.3125 1.25,-0.25 0.703125,-0.25 0.578125,-0.25 0.5,-0.25 0.5,-0.09375 0.5,0 0.578125,0 0.703125,0 H 3.1875 c 1.546875,0 3.03125,-1.421875 3.03125,-2.9375 0,-1.015625 -0.703125,-1.828125 -1.828125,-1.828125 H 1.84375 c -0.140625,0 -0.21875,0 -0.21875,0.15625 0,0.09375 0.078125,0.09375 0.234375,0.09375 0.109375,0 0.140625,0 0.265625,0.015625 0.140625,0.015625 0.140625,0.03125 0.140625,0.109375 0,0 0,0.046875 -0.015625,0.140625 z m 1.5625,-3.71875 c 0.0625,-0.21875 0.0625,-0.25 0.359375,-0.25 H 4.125 c 0.78125,0 1.4375,0.390625 1.4375,1.34375 0,0.15625 -0.078125,1.359375 -0.765625,2.15625 C 4.515625,-0.703125 3.921875,-0.25 3.0625,-0.25 H 2.125 c -0.21875,0 -0.234375,-0.015625 -0.234375,-0.078125 0,0 0,-0.03125 0.03125,-0.140625 z m 0,0"
               id="id-838a2442-d7e3-49d7-8877-f9213dc782ac" />
          </g>
        </g>
      </defs>
      <g
         fill="#000000"
         fill-opacity="1"
         id="id-371d4345-8133-4141-8daa-4865884ea934"
         transform="translate(-148.962,-128.359)">
        <g
           transform="translate(148.712,134.765)"
           id="g7695">
          <path
             d="M 2.515625,-3.953125 H 3.40625 c 0.1875,0 0.21875,0 0.265625,-0.046875 0.0625,-0.046875 0.09375,-0.1875 0.09375,-0.25 0,-0.171875 -0.171875,-0.171875 -0.34375,-0.171875 H 2.625 L 2.953125,-5.71875 c 0.03125,-0.15625 0.03125,-0.21875 0.03125,-0.25 0,-0.328125 -0.25,-0.4375 -0.46875,-0.4375 -0.140625,0 -0.40625,0.0625 -0.578125,0.34375 C 1.90625,-5.984375 1.78125,-5.515625 1.71875,-5.25 L 1.515625,-4.421875 H 0.625 c -0.203125,0 -0.375,0 -0.375,0.28125 0,0.1875 0.15625,0.1875 0.34375,0.1875 H 1.390625 L 0.828125,-1.6875 C 0.75,-1.421875 0.65625,-1 0.65625,-0.890625 c 0,0.640625 0.640625,0.96875 1.25,0.96875 1.1875,0 1.875,-1.390625 1.875,-1.546875 0,-0.140625 -0.15625,-0.140625 -0.25,-0.140625 -0.15625,0 -0.171875,0 -0.234375,0.15625 -0.390625,0.859375 -0.9375,1.171875 -1.328125,1.171875 -0.09375,0 -0.25,0 -0.25,-0.359375 0,-0.203125 0.03125,-0.3125 0.0625,-0.4375 z m 0,0"
             id="id-3cef72c2-293f-4024-99fd-54909d311db9" />
        </g>
      </g>
      <g
         fill="#000000"
         fill-opacity="1"
         id="id-9ce0c086-f45e-4fa3-ae95-125d46be2f0a"
         transform="translate(-148.962,-128.359)">
        <g
           transform="translate(152.85,136.84)"
           id="g5992">
          <path
             d="M 1.3125,-0.546875 C 1.265625,-0.3125 1.25,-0.25 0.703125,-0.25 0.578125,-0.25 0.5,-0.25 0.5,-0.09375 0.5,0 0.578125,0 0.703125,0 H 3.1875 c 1.546875,0 3.03125,-1.421875 3.03125,-2.9375 0,-1.015625 -0.703125,-1.828125 -1.828125,-1.828125 H 1.84375 c -0.140625,0 -0.21875,0 -0.21875,0.15625 0,0.09375 0.078125,0.09375 0.234375,0.09375 0.109375,0 0.140625,0 0.265625,0.015625 0.140625,0.015625 0.140625,0.03125 0.140625,0.109375 0,0 0,0.046875 -0.015625,0.140625 z m 1.5625,-3.71875 c 0.0625,-0.21875 0.0625,-0.25 0.359375,-0.25 H 4.125 c 0.78125,0 1.4375,0.390625 1.4375,1.34375 0,0.15625 -0.078125,1.359375 -0.765625,2.15625 C 4.515625,-0.703125 3.921875,-0.25 3.0625,-0.25 H 2.125 c -0.21875,0 -0.234375,-0.015625 -0.234375,-0.078125 0,0 0,-0.03125 0.03125,-0.140625 z m 0,0"
             id="id-eb2882a2-1574-44a8-8a1d-5ef02d2a068e" />
        </g>
      </g>
    </g>
    <g
       transform="matrix(0.705556,0,0,0.705556,72.8515,113.567)"
       ns2:version="1.10.2"
       ns2:texconverter="pdflatex"
       ns2:pdfconverter="inkscape"
       ns2:text="$\\tv{n}_D$"
       ns2:preamble="C:\Users\meyer\SoftwareConfigurations\inkscape\textext.tex"
       ns2:scale="2.0"
       ns2:alignment="middle center"
       ns2:stroke-to-path="0"
       ns2:inkscapeversion="1.3.2"
       id="g34"
       ns2:jacobian_sqrt="0.705556">
      <defs
         id="id-f654ffb5-10be-4cd9-850c-6c91f5c1236b">
        <g
           id="id-6eb8455e-126a-4232-bed1-42355797510d">
          <g
             id="id-8e1a8cf2-3a6d-4a1a-9464-fd2f0e237501">
            <path
               d="M 2.796875,-3.75 C 2.65625,-4.25 2.109375,-4.5 1.5625,-4.5 1.203125,-4.5 0.921875,-4.296875 0.703125,-3.9375 0.453125,-3.53125 0.3125,-3 0.3125,-2.953125 c 0,0.140625 0.15625,0.140625 0.25,0.140625 0.109375,0 0.140625,0 0.1875,-0.046875 C 0.78125,-2.875 0.78125,-2.90625 0.84375,-3.15625 1.03125,-3.921875 1.25,-4.140625 1.515625,-4.140625 c 0.15625,0 0.234375,0.09375 0.234375,0.359375 0,0.171875 -0.046875,0.328125 -0.140625,0.734375 C 1.53125,-2.765625 1.4375,-2.375 1.390625,-2.15625 L 1.03125,-0.75 C 1,-0.625 0.953125,-0.421875 0.953125,-0.359375 c 0,0.203125 0.15625,0.4375 0.46875,0.4375 0.515625,0 0.625,-0.453125 0.703125,-0.75 0.09375,-0.375 0.171875,-0.6875 0.28125,-1.125 0.03125,-0.125 0.28125,-1.15625 0.3125,-1.1875 0,-0.0625 0.28125,-0.5 0.609375,-0.78125 0.28125,-0.21875 0.609375,-0.375 1.03125,-0.375 0.25,0 0.5,0.09375 0.5,0.578125 0,0.578125 -0.4375,1.734375 -0.625,2.234375 -0.125,0.265625 -0.140625,0.34375 -0.140625,0.515625 0,0.578125 0.578125,0.890625 1.125,0.890625 1.046875,0 1.546875,-1.359375 1.546875,-1.546875 0,-0.140625 -0.140625,-0.140625 -0.234375,-0.140625 -0.125,0 -0.1875,0 -0.234375,0.125 C 5.96875,-0.375 5.4375,-0.28125 5.28125,-0.28125 c -0.078125,0 -0.171875,0 -0.171875,-0.203125 0,-0.234375 0.09375,-0.484375 0.1875,-0.734375 0.171875,-0.40625 0.625,-1.578125 0.625,-2.125 C 5.921875,-4.265625 5.15625,-4.5 4.4375,-4.5 4.234375,-4.5 3.5,-4.5 2.796875,-3.75 Z m 0,0"
               id="id-fe96ac23-444b-4816-a0b5-16b5d22d9232" />
          </g>
          <g
             id="id-e8dd6af7-33ed-41e0-a219-2afc107c7c5d">
            <path
               d="M 1.3125,-0.546875 C 1.265625,-0.3125 1.25,-0.25 0.703125,-0.25 0.578125,-0.25 0.5,-0.25 0.5,-0.09375 0.5,0 0.578125,0 0.703125,0 H 3.1875 c 1.546875,0 3.03125,-1.421875 3.03125,-2.9375 0,-1.015625 -0.703125,-1.828125 -1.828125,-1.828125 H 1.84375 c -0.140625,0 -0.21875,0 -0.21875,0.15625 0,0.09375 0.078125,0.09375 0.234375,0.09375 0.109375,0 0.140625,0 0.265625,0.015625 0.140625,0.015625 0.140625,0.03125 0.140625,0.109375 0,0 0,0.046875 -0.015625,0.140625 z m 1.5625,-3.71875 c 0.0625,-0.21875 0.0625,-0.25 0.359375,-0.25 H 4.125 c 0.78125,0 1.4375,0.390625 1.4375,1.34375 0,0.15625 -0.078125,1.359375 -0.765625,2.15625 C 4.515625,-0.703125 3.921875,-0.25 3.0625,-0.25 H 2.125 c -0.21875,0 -0.234375,-0.015625 -0.234375,-0.078125 0,0 0,-0.03125 0.03125,-0.140625 z m 0,0"
               id="id-1b21a327-b489-4bd3-ad97-0469aeb21d71" />
          </g>
        </g>
      </defs>
      <g
         fill="#000000"
         fill-opacity="1"
         id="id-a046544a-038f-452d-98bf-cb4594ae2ca6"
         transform="translate(-149.025,-130.265)">
        <g
           transform="translate(148.712,134.765)"
           id="g9503">
          <path
             d="M 2.796875,-3.75 C 2.65625,-4.25 2.109375,-4.5 1.5625,-4.5 1.203125,-4.5 0.921875,-4.296875 0.703125,-3.9375 0.453125,-3.53125 0.3125,-3 0.3125,-2.953125 c 0,0.140625 0.15625,0.140625 0.25,0.140625 0.109375,0 0.140625,0 0.1875,-0.046875 C 0.78125,-2.875 0.78125,-2.90625 0.84375,-3.15625 1.03125,-3.921875 1.25,-4.140625 1.515625,-4.140625 c 0.15625,0 0.234375,0.09375 0.234375,0.359375 0,0.171875 -0.046875,0.328125 -0.140625,0.734375 C 1.53125,-2.765625 1.4375,-2.375 1.390625,-2.15625 L 1.03125,-0.75 C 1,-0.625 0.953125,-0.421875 0.953125,-0.359375 c 0,0.203125 0.15625,0.4375 0.46875,0.4375 0.515625,0 0.625,-0.453125 0.703125,-0.75 0.09375,-0.375 0.171875,-0.6875 0.28125,-1.125 0.03125,-0.125 0.28125,-1.15625 0.3125,-1.1875 0,-0.0625 0.28125,-0.5 0.609375,-0.78125 0.28125,-0.21875 0.609375,-0.375 1.03125,-0.375 0.25,0 0.5,0.09375 0.5,0.578125 0,0.578125 -0.4375,1.734375 -0.625,2.234375 -0.125,0.265625 -0.140625,0.34375 -0.140625,0.515625 0,0.578125 0.578125,0.890625 1.125,0.890625 1.046875,0 1.546875,-1.359375 1.546875,-1.546875 0,-0.140625 -0.140625,-0.140625 -0.234375,-0.140625 -0.125,0 -0.1875,0 -0.234375,0.125 C 5.96875,-0.375 5.4375,-0.28125 5.28125,-0.28125 c -0.078125,0 -0.171875,0 -0.171875,-0.203125 0,-0.234375 0.09375,-0.484375 0.1875,-0.734375 0.171875,-0.40625 0.625,-1.578125 0.625,-2.125 C 5.921875,-4.265625 5.15625,-4.5 4.4375,-4.5 4.234375,-4.5 3.5,-4.5 2.796875,-3.75 Z m 0,0"
             id="id-f1eb4586-ecc0-41af-b8c7-4f4523f23669" />
        </g>
      </g>
      <g
         fill="#000000"
         fill-opacity="1"
         id="id-08a64971-30b6-4506-8f44-bf6f051541ed"
         transform="translate(-149.025,-130.265)">
        <g
           transform="translate(155.815,136.84)"
           id="g1018">
          <path
             d="M 1.3125,-0.546875 C 1.265625,-0.3125 1.25,-0.25 0.703125,-0.25 0.578125,-0.25 0.5,-0.25 0.5,-0.09375 0.5,0 0.578125,0 0.703125,0 H 3.1875 c 1.546875,0 3.03125,-1.421875 3.03125,-2.9375 0,-1.015625 -0.703125,-1.828125 -1.828125,-1.828125 H 1.84375 c -0.140625,0 -0.21875,0 -0.21875,0.15625 0,0.09375 0.078125,0.09375 0.234375,0.09375 0.109375,0 0.140625,0 0.265625,0.015625 0.140625,0.015625 0.140625,0.03125 0.140625,0.109375 0,0 0,0.046875 -0.015625,0.140625 z m 1.5625,-3.71875 c 0.0625,-0.21875 0.0625,-0.25 0.359375,-0.25 H 4.125 c 0.78125,0 1.4375,0.390625 1.4375,1.34375 0,0.15625 -0.078125,1.359375 -0.765625,2.15625 C 4.515625,-0.703125 3.921875,-0.25 3.0625,-0.25 H 2.125 c -0.21875,0 -0.234375,-0.015625 -0.234375,-0.078125 0,0 0,-0.03125 0.03125,-0.140625 z m 0,0"
             id="id-a6307c16-44b1-4000-8194-36d645a95451" />
        </g>
      </g>
    </g>
  </g>
</svg>
