<?xml version="1.0" encoding="UTF-8" standalone="no"?>
<!-- Created with Inkscape (http://www.inkscape.org/) -->

<svg
   width="204.85603mm"
   height="66.917473mm"
   viewBox="0 0 204.85603 66.917473"
   version="1.1"
   id="svg1"
   xml:space="preserve"
   inkscape:version="1.4 (e7c3feb1, 2024-10-09)"
   sodipodi:docname="stress_symmetry_viapdf.svg"
   xmlns:inkscape="http://www.inkscape.org/namespaces/inkscape"
   xmlns:sodipodi="http://sodipodi.sourceforge.net/DTD/sodipodi-0.dtd"
   xmlns="http://www.w3.org/2000/svg"
   xmlns:svg="http://www.w3.org/2000/svg"><sodipodi:namedview
     id="namedview1"
     pagecolor="#ffffff"
     bordercolor="#000000"
     borderopacity="0.25"
     inkscape:showpageshadow="2"
     inkscape:pageopacity="0.0"
     inkscape:pagecheckerboard="0"
     inkscape:deskcolor="#d1d1d1"
     inkscape:document-units="mm"
     inkscape:zoom="0.023162177"
     inkscape:cx="-431.73834"
     inkscape:cy="539.67293"
     inkscape:window-width="1352"
     inkscape:window-height="550"
     inkscape:window-x="0"
     inkscape:window-y="38"
     inkscape:window-maximized="0"
     inkscape:current-layer="layer1"><inkscape:page
       x="0"
       y="0"
       width="204.85603"
       height="66.917473"
       id="page1"
       margin="0"
       bleed="0" /><inkscape:page
       x="0.0005810741"
       y="0.00058561342"
       width="204.85522"
       height="66.916748"
       id="page2"
       margin="0"
       bleed="0" /></sodipodi:namedview><defs
     id="defs1" /><g
     inkscape:label="Layer 1"
     inkscape:groupmode="layer"
     id="layer1"
     transform="translate(-219.99943,5.8561341e-4)" /><g
     id="g1"
     inkscape:groupmode="layer"
     inkscape:label="1"
     transform="matrix(0.26458333,0,0,0.26458334,5.8477196e-4,5.8561341e-4)"><path
       id="path1"
       d="m 138.055,77.125 v 52.297"
       style="fill:none;stroke:#646464;stroke-width:2.12599;stroke-linecap:round;stroke-linejoin:round;stroke-miterlimit:1;stroke-dasharray:none;stroke-opacity:1"
       transform="scale(1.3333333)" /><path
       id="path2"
       d="m 77.125,-129.551 v -17.008"
       style="fill:none;stroke:#646464;stroke-width:2.12599;stroke-linecap:butt;stroke-linejoin:miter;stroke-miterlimit:4;stroke-dasharray:none;stroke-opacity:1"
       transform="matrix(0,1.3333333,-1.3333333,0,0,0)" /><path
       id="path3"
       d="m 129.422,-129.551 v -17.008"
       style="fill:none;stroke:#646464;stroke-width:2.12599;stroke-linecap:butt;stroke-linejoin:miter;stroke-miterlimit:4;stroke-dasharray:none;stroke-opacity:1"
       transform="matrix(0,1.3333333,-1.3333333,0,0,0)" /><path
       id="path4"
       d="M 209.852,145.922 H 157.555"
       style="fill:none;stroke:#646464;stroke-width:2.12599;stroke-linecap:round;stroke-linejoin:round;stroke-miterlimit:1;stroke-dasharray:none;stroke-opacity:1"
       transform="scale(1.3333333)" /><path
       id="path5"
       d="m -209.852,-137.418 v -17.008"
       style="fill:none;stroke:#646464;stroke-width:2.12599;stroke-linecap:butt;stroke-linejoin:miter;stroke-miterlimit:4;stroke-dasharray:none;stroke-opacity:1"
       transform="scale(-1.3333333)" /><path
       id="path6"
       d="m -157.555,-137.418 v -17.008"
       style="fill:none;stroke:#646464;stroke-width:2.12599;stroke-linecap:butt;stroke-linejoin:miter;stroke-miterlimit:4;stroke-dasharray:none;stroke-opacity:1"
       transform="scale(-1.3333333)" /><path
       id="path7"
       d="m 157.555,77.125 h 52.297 v 52.297 h -52.297 z"
       style="fill:#c8c8c8;fill-opacity:1;fill-rule:nonzero;stroke:#000000;stroke-width:2.83464;stroke-linecap:round;stroke-linejoin:round;stroke-miterlimit:1;stroke-dasharray:none;stroke-opacity:1"
       transform="scale(1.3333333)" /><path
       id="path8"
       d="m 187.969,96.047 c 0.281,0 1,0 1,-0.688 0,-0.468 -0.438,-0.468 -0.781,-0.468 h -4.563 c -3,0 -5.219,3.281 -5.219,5.656 0,1.75 1.188,3.156 3,3.156 2.344,0 5,-2.406 5,-5.469 0,-0.343 0,-1.312 -0.625,-2.187 z m -6.531,7.219 c -1,0 -1.782,-0.719 -1.782,-2.157 0,-0.593 0.219,-2.218 0.938,-3.406 0.844,-1.375 2.031,-1.656 2.718,-1.656 1.657,0 1.813,1.312 1.813,1.937 0,0.938 -0.406,2.563 -1.063,3.594 -0.781,1.156 -1.874,1.688 -2.624,1.688 z"
       style="fill:#000000;fill-opacity:1;fill-rule:nonzero;stroke:none"
       transform="scale(1.3333333)" /><path
       id="path9"
       d="m 177.652,106.273 h 12.102"
       style="fill:none;stroke:#000000;stroke-width:0.796001;stroke-linecap:butt;stroke-linejoin:miter;stroke-miterlimit:10;stroke-dasharray:none;stroke-opacity:1"
       transform="scale(1.3333333)" /><path
       id="path10"
       d="m 177.652,110.258 h 12.102"
       style="fill:none;stroke:#000000;stroke-width:0.796001;stroke-linecap:butt;stroke-linejoin:miter;stroke-miterlimit:10;stroke-dasharray:none;stroke-opacity:1"
       transform="scale(1.3333333)" /><path
       id="path11"
       d="M 209.852,103.273 254.941,70.016"
       style="fill:#c8c8c8;fill-opacity:1;fill-rule:nonzero;stroke:#000000;stroke-width:2.12598;stroke-linecap:round;stroke-linejoin:round;stroke-miterlimit:1;stroke-dasharray:none;stroke-opacity:1"
       transform="scale(1.3333333)" /><path
       id="path12"
       d="m 136.608,167.132 -7.4,4.277 0.001,-8.555 z"
       style="fill:#000000;fill-opacity:1;fill-rule:evenodd;stroke:#000000;stroke-width:1.14063;stroke-linecap:butt;stroke-linejoin:miter;stroke-miterlimit:4;stroke-dasharray:none;stroke-opacity:1"
       transform="matrix(1.3333333,-0.98341733,0.98341733,1.3333333,0,0)" /><path
       id="path13"
       d="M 183.703,77.125 219.906,43.867"
       style="fill:#c8c8c8;fill-opacity:1;fill-rule:nonzero;stroke:#000000;stroke-width:2.12598;stroke-linecap:round;stroke-linejoin:round;stroke-miterlimit:1;stroke-dasharray:none;stroke-opacity:1"
       transform="scale(1.3333333)" /><path
       id="path14"
       d="m 101.927,133.349 -6.77,3.914 v -7.829 z"
       style="fill:#000000;fill-opacity:1;fill-rule:evenodd;stroke:#000000;stroke-width:1.04378;stroke-linecap:butt;stroke-linejoin:miter;stroke-miterlimit:4;stroke-dasharray:none;stroke-opacity:1"
       transform="matrix(1.3333333,-1.2247987,1.2247987,1.3333333,0,0)" /><path
       id="path15"
       d="m 157.555,103.273 -45.09,33.254"
       style="fill:#c8c8c8;fill-opacity:1;fill-rule:nonzero;stroke:#000000;stroke-width:2.12598;stroke-linecap:round;stroke-linejoin:round;stroke-miterlimit:1;stroke-dasharray:none;stroke-opacity:1"
       transform="scale(1.3333333)" /><path
       id="path16"
       d="m -2.687,-142.15 -7.398,4.278 -10e-4,-8.556 z"
       style="fill:#000000;fill-opacity:1;fill-rule:evenodd;stroke:#000000;stroke-width:1.14063;stroke-linecap:butt;stroke-linejoin:miter;stroke-miterlimit:4;stroke-dasharray:none;stroke-opacity:1"
       transform="matrix(-1.3333333,0.98341733,-0.98341733,-1.3333333,0,0)" /><path
       id="path17"
       d="M 183.703,129.422 147.5,162.676"
       style="fill:#c8c8c8;fill-opacity:1;fill-rule:nonzero;stroke:#000000;stroke-width:2.12598;stroke-linecap:round;stroke-linejoin:round;stroke-miterlimit:1;stroke-dasharray:none;stroke-opacity:1"
       transform="scale(1.3333333)" /><path
       id="path18"
       d="m 5.567,-161.715 -6.773,3.916 v -7.829 z"
       style="fill:#000000;fill-opacity:1;fill-rule:evenodd;stroke:#000000;stroke-width:1.04378;stroke-linecap:butt;stroke-linejoin:miter;stroke-miterlimit:4;stroke-dasharray:none;stroke-opacity:1"
       transform="matrix(-1.3333333,1.2247987,-1.2247987,-1.3333333,0,0)" /><path
       id="path19"
       d="m 174.754,153.262 c -0.125,-0.282 -0.188,-0.375 -0.531,-0.375 -0.313,0 -0.375,0.093 -0.5,0.375 l -6.75,13.5 c -0.094,0.187 -0.094,0.218 -0.094,0.25 0,0.156 0.125,0.156 0.437,0.156 h 13.844 c 0.313,0 0.438,0 0.438,-0.156 0,-0.032 0,-0.063 -0.094,-0.25 z m -1.156,1.625 5.375,10.781 h -10.75 z"
       style="fill:#000000;fill-opacity:1;fill-rule:nonzero;stroke:none"
       transform="scale(1.3333333)" /><path
       id="path20"
       d="m 189.203,161.137 c 0.125,-0.5 0.594,-2.344 1.969,-2.344 0.094,0 0.594,0 1,0.25 -0.563,0.125 -0.938,0.594 -0.938,1.094 0,0.312 0.219,0.687 0.75,0.687 0.438,0 1.063,-0.344 1.063,-1.156 0,-1.031 -1.156,-1.313 -1.844,-1.313 -1.156,0 -1.844,1.063 -2.094,1.5 -0.5,-1.312 -1.562,-1.5 -2.156,-1.5 -2.062,0 -3.219,2.563 -3.219,3.063 0,0.219 0.219,0.219 0.25,0.219 0.157,0 0.219,-0.063 0.25,-0.219 0.688,-2.125 2,-2.625 2.688,-2.625 0.375,0 1.062,0.187 1.062,1.344 0,0.625 -0.343,1.937 -1.062,4.75 -0.313,1.218 -1.031,2.062 -1.906,2.062 -0.125,0 -0.563,0 -1,-0.25 0.5,-0.125 0.937,-0.531 0.937,-1.094 0,-0.531 -0.437,-0.687 -0.719,-0.687 -0.625,0 -1.093,0.5 -1.093,1.156 0,0.906 0.968,1.313 1.843,1.313 1.344,0 2.063,-1.407 2.094,-1.5 0.25,0.718 0.969,1.5 2.156,1.5 2.063,0 3.188,-2.563 3.188,-3.063 0,-0.219 -0.156,-0.219 -0.219,-0.219 -0.187,0 -0.219,0.094 -0.281,0.219 -0.656,2.156 -2,2.625 -2.625,2.625 -0.781,0 -1.094,-0.625 -1.094,-1.312 0,-0.438 0.094,-0.875 0.313,-1.75 z"
       style="fill:#000000;fill-opacity:1;fill-rule:nonzero;stroke:none"
       transform="scale(1.3333333)" /><path
       id="path21"
       d="m 198.59,162.441 c 0,-0.375 0,-0.375 -0.406,-0.375 -0.907,0.875 -2.157,0.875 -2.719,0.875 v 0.5 c 0.312,0 1.25,0 2,-0.375 v 7.094 c 0,0.469 0,0.656 -1.375,0.656 h -0.531 v 0.5 c 0.25,0 1.968,-0.062 2.468,-0.062 0.438,0 2.188,0.062 2.5,0.062 v -0.5 h -0.531 c -1.406,0 -1.406,-0.187 -1.406,-0.656 z"
       style="fill:#000000;fill-opacity:1;fill-rule:nonzero;stroke:none"
       transform="scale(1.3333333)" /><path
       id="path22"
       d="m 106.137,94.434 c -0.125,-0.282 -0.188,-0.375 -0.532,-0.375 -0.312,0 -0.375,0.093 -0.5,0.375 l -6.75,13.5 c -0.093,0.187 -0.093,0.218 -0.093,0.25 0,0.156 0.125,0.156 0.437,0.156 h 13.844 c 0.312,0 0.437,0 0.437,-0.156 0,-0.032 0,-0.063 -0.093,-0.25 z m -1.157,1.625 5.375,10.781 h -10.75 z"
       style="fill:#000000;fill-opacity:1;fill-rule:nonzero;stroke:none"
       transform="scale(1.3333333)" /><path
       id="path23"
       d="m 120.586,102.309 c 0.125,-0.5 0.594,-2.344 1.969,-2.344 0.093,0 0.593,0 1,0.25 -0.563,0.125 -0.938,0.594 -0.938,1.094 0,0.312 0.219,0.687 0.75,0.687 0.438,0 1.063,-0.344 1.063,-1.156 0,-1.031 -1.157,-1.313 -1.844,-1.313 -1.156,0 -1.844,1.063 -2.094,1.5 -0.5,-1.312 -1.562,-1.5 -2.156,-1.5 -2.063,0 -3.219,2.563 -3.219,3.063 0,0.219 0.219,0.219 0.25,0.219 0.156,0 0.219,-0.063 0.25,-0.219 0.688,-2.125 2,-2.625 2.688,-2.625 0.375,0 1.062,0.187 1.062,1.344 0,0.625 -0.344,1.937 -1.062,4.75 -0.313,1.218 -1.032,2.062 -1.907,2.062 -0.125,0 -0.562,0 -1,-0.25 0.5,-0.125 0.938,-0.531 0.938,-1.094 0,-0.531 -0.438,-0.687 -0.719,-0.687 -0.625,0 -1.094,0.5 -1.094,1.156 0,0.906 0.969,1.313 1.844,1.313 1.344,0 2.063,-1.407 2.094,-1.5 0.25,0.718 0.969,1.5 2.156,1.5 2.063,0 3.188,-2.563 3.188,-3.063 0,-0.219 -0.157,-0.219 -0.219,-0.219 -0.188,0 -0.219,0.094 -0.281,0.219 -0.657,2.156 -2,2.625 -2.625,2.625 -0.782,0 -1.094,-0.625 -1.094,-1.312 0,-0.438 0.094,-0.875 0.312,-1.75 z"
       style="fill:#000000;fill-opacity:1;fill-rule:nonzero;stroke:none"
       transform="scale(1.3333333)" /><path
       id="path24"
       d="m 132.348,109.957 h -0.469 c -0.031,0.313 -0.188,1.125 -0.375,1.25 -0.094,0.094 -1.156,0.094 -1.375,0.094 h -2.563 c 1.469,-1.281 1.969,-1.688 2.782,-2.344 1.031,-0.812 2,-1.687 2,-3 0,-1.687 -1.469,-2.719 -3.25,-2.719 -1.719,0 -2.907,1.219 -2.907,2.5 0,0.688 0.594,0.782 0.75,0.782 0.313,0 0.719,-0.25 0.719,-0.75 0,-0.25 -0.094,-0.75 -0.812,-0.75 0.437,-0.969 1.375,-1.282 2.031,-1.282 1.406,0 2.125,1.094 2.125,2.219 0,1.219 -0.875,2.156 -1.313,2.656 l -3.343,3.344 c -0.157,0.125 -0.157,0.156 -0.157,0.531 h 5.75 z"
       style="fill:#000000;fill-opacity:1;fill-rule:nonzero;stroke:none"
       transform="scale(1.3333333)" /><path
       id="path25"
       d="m 268.504,63.113 h 1.875 c 0.406,0 0.625,0 0.625,-0.406 0,-0.219 -0.219,-0.219 -0.563,-0.219 h -1.75 c 0.719,-2.843 0.813,-3.218 0.813,-3.343 0,-0.344 -0.25,-0.532 -0.594,-0.532 -0.062,0 -0.625,0 -0.781,0.719 l -0.781,3.156 h -1.875 c -0.407,0 -0.594,0 -0.594,0.375 0,0.25 0.156,0.25 0.562,0.25 h 1.75 c -1.437,5.657 -1.531,6 -1.531,6.344 0,1.094 0.75,1.844 1.844,1.844 2.031,0 3.156,-2.906 3.156,-3.063 0,-0.218 -0.156,-0.218 -0.219,-0.218 -0.187,0 -0.218,0.062 -0.312,0.281 -0.844,2.094 -1.906,2.562 -2.594,2.562 -0.406,0 -0.625,-0.25 -0.625,-0.906 0,-0.5 0.063,-0.625 0.125,-0.969 z"
       style="fill:#000000;fill-opacity:1;fill-rule:nonzero;stroke:none"
       transform="scale(1.3333333)" /><path
       id="path26"
       d="m 264.406,73.871 h 7.196"
       style="fill:none;stroke:#000000;stroke-width:0.796001;stroke-linecap:butt;stroke-linejoin:miter;stroke-miterlimit:10;stroke-dasharray:none;stroke-opacity:1"
       transform="scale(1.3333333)" /><path
       id="path27"
       d="m 278.043,58.238 h 4.281 c 0.188,0 0.5,0 0.5,-0.312 0,-0.375 -0.312,-0.375 -0.5,-0.375 h -4.281 V 53.27 c 0,-0.157 0,-0.5 -0.313,-0.5 -0.343,0 -0.343,0.312 -0.343,0.5 v 4.281 h -4.282 c -0.187,0 -0.531,0 -0.531,0.344 0,0.343 0.313,0.343 0.531,0.343 h 4.282 v 4.282 c 0,0.187 0,0.531 0.312,0.531 0.344,0 0.344,-0.344 0.344,-0.531 z"
       style="fill:#000000;fill-opacity:1;fill-rule:nonzero;stroke:none"
       transform="scale(1.3333333)" /><path
       id="path28"
       d="m 276.262,67.184 c 0,-0.375 0,-0.375 -0.407,-0.375 -0.906,0.875 -2.156,0.875 -2.718,0.875 v 0.5 c 0.312,0 1.25,0 2,-0.375 v 7.093 c 0,0.469 0,0.657 -1.375,0.657 h -0.532 v 0.5 c 0.25,0 1.969,-0.063 2.469,-0.063 0.438,0 2.188,0.063 2.5,0.063 v -0.5 h -0.531 c -1.406,0 -1.406,-0.188 -1.406,-0.657 z"
       style="fill:#000000;fill-opacity:1;fill-rule:nonzero;stroke:none"
       transform="scale(1.3333333)" /><path
       id="path29"
       d="m 93.668,131.113 h 1.875 c 0.406,0 0.625,0 0.625,-0.406 0,-0.219 -0.219,-0.219 -0.563,-0.219 h -1.75 c 0.719,-2.843 0.813,-3.218 0.813,-3.343 0,-0.344 -0.25,-0.532 -0.594,-0.532 -0.062,0 -0.625,0 -0.781,0.719 l -0.781,3.156 h -1.875 c -0.407,0 -0.594,0 -0.594,0.375 0,0.25 0.156,0.25 0.562,0.25 h 1.75 c -1.437,5.657 -1.531,6 -1.531,6.344 0,1.094 0.75,1.844 1.844,1.844 2.031,0 3.156,-2.906 3.156,-3.063 0,-0.218 -0.156,-0.218 -0.219,-0.218 -0.187,0 -0.218,0.062 -0.312,0.281 -0.844,2.094 -1.906,2.562 -2.594,2.562 -0.406,0 -0.625,-0.25 -0.625,-0.906 0,-0.5 0.063,-0.625 0.125,-0.969 z"
       style="fill:#000000;fill-opacity:1;fill-rule:nonzero;stroke:none"
       transform="scale(1.3333333)" /><path
       id="path30"
       d="M 89.574,141.871 H 96.77"
       style="fill:none;stroke:#000000;stroke-width:0.796001;stroke-linecap:butt;stroke-linejoin:miter;stroke-miterlimit:10;stroke-dasharray:none;stroke-opacity:1"
       transform="scale(1.3333333)" /><path
       id="path31"
       d="m 107.148,126.238 c 0.219,0 0.563,0 0.563,-0.312 0,-0.375 -0.344,-0.375 -0.563,-0.375 h -8.312 c -0.219,0 -0.563,0 -0.563,0.344 0,0.343 0.313,0.343 0.563,0.343 z"
       style="fill:#000000;fill-opacity:1;fill-rule:nonzero;stroke:none"
       transform="scale(1.3333333)" /><path
       id="path32"
       d="m 101.43,135.188 c 0,-0.376 0,-0.376 -0.407,-0.376 -0.906,0.876 -2.156,0.876 -2.718,0.876 v 0.5 c 0.312,0 1.25,0 2,-0.376 v 7.094 c 0,0.469 0,0.656 -1.375,0.656 h -0.532 v 0.5 c 0.25,0 1.969,-0.062 2.469,-0.062 0.438,0 2.188,0.062 2.5,0.062 v -0.5 h -0.531 c -1.406,0 -1.406,-0.187 -1.406,-0.656 z"
       style="fill:#000000;fill-opacity:1;fill-rule:nonzero;stroke:none"
       transform="scale(1.3333333)" /><path
       id="path33"
       d="m 233.164,38.977 h 1.875 c 0.406,0 0.625,0 0.625,-0.407 0,-0.218 -0.219,-0.218 -0.562,-0.218 h -1.75 c 0.718,-2.844 0.812,-3.219 0.812,-3.344 0,-0.344 -0.25,-0.531 -0.594,-0.531 -0.062,0 -0.625,0 -0.781,0.718 l -0.781,3.157 h -1.875 c -0.406,0 -0.594,0 -0.594,0.375 0,0.25 0.156,0.25 0.563,0.25 h 1.75 c -1.438,5.656 -1.532,6 -1.532,6.343 0,1.094 0.75,1.844 1.844,1.844 2.031,0 3.156,-2.906 3.156,-3.062 0,-0.219 -0.156,-0.219 -0.218,-0.219 -0.188,0 -0.219,0.062 -0.313,0.281 -0.844,2.094 -1.906,2.563 -2.594,2.563 -0.406,0 -0.625,-0.25 -0.625,-0.907 0,-0.5 0.063,-0.625 0.125,-0.968 z"
       style="fill:#000000;fill-opacity:1;fill-rule:nonzero;stroke:none"
       transform="scale(1.3333333)" /><path
       id="path34"
       d="m 229.07,49.738 h 7.196"
       style="fill:none;stroke:#000000;stroke-width:0.796001;stroke-linecap:butt;stroke-linejoin:miter;stroke-miterlimit:10;stroke-dasharray:none;stroke-opacity:1"
       transform="scale(1.3333333)" /><path
       id="path35"
       d="m 242.703,34.105 h 4.281 c 0.188,0 0.5,0 0.5,-0.312 0,-0.375 -0.312,-0.375 -0.5,-0.375 h -4.281 v -4.281 c 0,-0.157 0,-0.5 -0.312,-0.5 -0.344,0 -0.344,0.312 -0.344,0.5 v 4.281 h -4.281 c -0.188,0 -0.532,0 -0.532,0.344 0,0.343 0.313,0.343 0.532,0.343 h 4.281 v 4.282 c 0,0.187 0,0.531 0.312,0.531 0.344,0 0.344,-0.344 0.344,-0.531 z"
       style="fill:#000000;fill-opacity:1;fill-rule:nonzero;stroke:none"
       transform="scale(1.3333333)" /><path
       id="path36"
       d="m 243.297,49.395 h -0.469 c -0.031,0.312 -0.187,1.125 -0.375,1.25 -0.094,0.093 -1.156,0.093 -1.375,0.093 h -2.562 c 1.468,-1.281 1.968,-1.687 2.781,-2.343 1.031,-0.813 2,-1.688 2,-3 0,-1.688 -1.469,-2.719 -3.25,-2.719 -1.719,0 -2.906,1.219 -2.906,2.5 0,0.687 0.593,0.781 0.75,0.781 0.312,0 0.718,-0.25 0.718,-0.75 0,-0.25 -0.093,-0.75 -0.812,-0.75 0.437,-0.969 1.375,-1.281 2.031,-1.281 1.406,0 2.125,1.094 2.125,2.219 0,1.218 -0.875,2.156 -1.312,2.656 l -3.344,3.344 c -0.156,0.125 -0.156,0.156 -0.156,0.531 h 5.75 z"
       style="fill:#000000;fill-opacity:1;fill-rule:nonzero;stroke:none"
       transform="scale(1.3333333)" /><path
       id="path37"
       d="m 127.574,167.027 h 1.875 c 0.406,0 0.625,0 0.625,-0.406 0,-0.219 -0.219,-0.219 -0.562,-0.219 h -1.75 c 0.718,-2.843 0.812,-3.218 0.812,-3.343 0,-0.344 -0.25,-0.532 -0.594,-0.532 -0.062,0 -0.625,0 -0.781,0.719 l -0.781,3.156 h -1.875 c -0.406,0 -0.594,0 -0.594,0.375 0,0.25 0.156,0.25 0.563,0.25 h 1.75 c -1.438,5.657 -1.532,6 -1.532,6.344 0,1.094 0.75,1.844 1.844,1.844 2.031,0 3.156,-2.906 3.156,-3.063 0,-0.218 -0.156,-0.218 -0.218,-0.218 -0.188,0 -0.219,0.062 -0.313,0.281 -0.844,2.094 -1.906,2.562 -2.594,2.562 -0.406,0 -0.625,-0.25 -0.625,-0.906 0,-0.5 0.063,-0.625 0.125,-0.969 z"
       style="fill:#000000;fill-opacity:1;fill-rule:nonzero;stroke:none"
       transform="scale(1.3333333)" /><path
       id="path38"
       d="m 123.477,177.789 h 7.195"
       style="fill:none;stroke:#000000;stroke-width:0.796001;stroke-linecap:butt;stroke-linejoin:miter;stroke-miterlimit:10;stroke-dasharray:none;stroke-opacity:1"
       transform="scale(1.3333333)" /><path
       id="path39"
       d="m 141.051,162.156 c 0.219,0 0.562,0 0.562,-0.312 0,-0.375 -0.343,-0.375 -0.562,-0.375 h -8.313 c -0.218,0 -0.562,0 -0.562,0.343 0,0.344 0.312,0.344 0.562,0.344 z"
       style="fill:#000000;fill-opacity:1;fill-rule:nonzero;stroke:none"
       transform="scale(1.3333333)" /><path
       id="path40"
       d="m 137.707,177.445 h -0.469 c -0.031,0.313 -0.187,1.125 -0.375,1.25 -0.093,0.094 -1.156,0.094 -1.375,0.094 h -2.562 c 1.469,-1.281 1.969,-1.687 2.781,-2.344 1.031,-0.812 2,-1.687 2,-3 0,-1.687 -1.469,-2.718 -3.25,-2.718 -1.719,0 -2.906,1.218 -2.906,2.5 0,0.687 0.594,0.781 0.75,0.781 0.312,0 0.719,-0.25 0.719,-0.75 0,-0.25 -0.094,-0.75 -0.813,-0.75 0.438,-0.969 1.375,-1.281 2.031,-1.281 1.407,0 2.125,1.093 2.125,2.218 0,1.219 -0.875,2.157 -1.312,2.657 l -3.344,3.343 c -0.156,0.125 -0.156,0.157 -0.156,0.532 h 5.75 z"
       style="fill:#000000;fill-opacity:1;fill-rule:nonzero;stroke:none"
       transform="scale(1.3333333)" /><path
       id="path41"
       d="m 19.57,132.785 v 34.176 h 36.426"
       style="fill:none;stroke:#646464;stroke-width:2.12598;stroke-linecap:round;stroke-linejoin:round;stroke-miterlimit:1;stroke-dasharray:none;stroke-opacity:1"
       transform="scale(1.3333333)" /><path
       id="path42"
       d="m -126.648,19.57 -9.196,5.317 V 14.254 Z"
       style="fill:#646464;fill-opacity:1;fill-rule:evenodd;stroke:#646464;stroke-width:1.41732;stroke-linecap:butt;stroke-linejoin:miter;stroke-miterlimit:4;stroke-dasharray:none;stroke-opacity:1"
       transform="matrix(0,-1.3333333,1.3333333,0,0,0)" /><path
       id="path43"
       d="m 62.129,166.961 -9.195,5.316 v -10.632 z"
       style="fill:#646464;fill-opacity:1;fill-rule:evenodd;stroke:#646464;stroke-width:1.41732;stroke-linecap:butt;stroke-linejoin:miter;stroke-miterlimit:4;stroke-dasharray:none;stroke-opacity:1"
       transform="scale(1.3333333)" /><path
       id="path44"
       d="m 70.988,164.691 c 0.594,0 2.063,-0.062 3.063,-0.468 1.406,-0.594 1.5,-1.782 1.5,-2.063 0,-0.875 -0.75,-1.687 -2.125,-1.687 -2.219,0 -5.25,1.937 -5.25,5.437 0,2.031 1.187,3.594 3.156,3.594 2.844,0 4.5,-2.125 4.5,-2.344 0,-0.125 -0.094,-0.281 -0.219,-0.281 -0.125,0 -0.156,0.062 -0.281,0.219 -1.562,1.968 -3.75,1.968 -3.969,1.968 -1.562,0 -1.75,-1.687 -1.75,-2.312 0,-0.25 0.032,-0.844 0.313,-2.063 z m -0.937,-0.437 c 0.781,-3.031 2.844,-3.344 3.375,-3.344 0.906,0 1.469,0.594 1.469,1.25 0,2.094 -3.188,2.094 -4.032,2.094 z"
       style="fill:#000000;fill-opacity:1;fill-rule:nonzero;stroke:none"
       transform="scale(1.3333333)" /><path
       id="path45"
       d="m 67.266,172.078 h 9.281"
       style="fill:none;stroke:#000000;stroke-width:0.796001;stroke-linecap:butt;stroke-linejoin:miter;stroke-miterlimit:10;stroke-dasharray:none;stroke-opacity:1"
       transform="scale(1.3333333)" /><path
       id="path46"
       d="m 81.203,165.391 c 0,-0.375 0,-0.375 -0.406,-0.375 -0.906,0.875 -2.156,0.875 -2.719,0.875 v 0.5 c 0.313,0 1.25,0 2,-0.375 v 7.093 c 0,0.469 0,0.657 -1.375,0.657 h -0.531 v 0.5 c 0.25,0 1.969,-0.063 2.469,-0.063 0.437,0 2.187,0.063 2.5,0.063 v -0.5 h -0.532 c -1.406,0 -1.406,-0.188 -1.406,-0.657 z"
       style="fill:#000000;fill-opacity:1;fill-rule:nonzero;stroke:none"
       transform="scale(1.3333333)" /><path
       id="path47"
       d="m 29.695,125.41 c 0.594,0 2.063,-0.062 3.063,-0.469 1.406,-0.593 1.5,-1.781 1.5,-2.062 0,-0.875 -0.75,-1.688 -2.125,-1.688 -2.219,0 -5.25,1.938 -5.25,5.438 0,2.031 1.187,3.594 3.156,3.594 2.844,0 4.5,-2.125 4.5,-2.344 0,-0.125 -0.094,-0.281 -0.219,-0.281 -0.125,0 -0.156,0.062 -0.281,0.218 -1.562,1.969 -3.75,1.969 -3.969,1.969 -1.562,0 -1.75,-1.687 -1.75,-2.312 0,-0.25 0.032,-0.844 0.313,-2.063 z m -0.937,-0.437 c 0.781,-3.032 2.844,-3.344 3.375,-3.344 0.906,0 1.469,0.594 1.469,1.25 0,2.094 -3.188,2.094 -4.032,2.094 z"
       style="fill:#000000;fill-opacity:1;fill-rule:nonzero;stroke:none"
       transform="scale(1.3333333)" /><path
       id="path48"
       d="m 25.977,132.793 h 9.281"
       style="fill:none;stroke:#000000;stroke-width:0.796001;stroke-linecap:butt;stroke-linejoin:miter;stroke-miterlimit:10;stroke-dasharray:none;stroke-opacity:1"
       transform="scale(1.3333333)" /><path
       id="path49"
       d="m 42.285,132.449 h -0.469 c -0.031,0.313 -0.187,1.125 -0.375,1.25 -0.093,0.094 -1.156,0.094 -1.375,0.094 h -2.562 c 1.469,-1.281 1.969,-1.688 2.781,-2.344 1.031,-0.812 2,-1.687 2,-3 0,-1.687 -1.469,-2.719 -3.25,-2.719 -1.719,0 -2.906,1.219 -2.906,2.5 0,0.688 0.594,0.782 0.75,0.782 0.312,0 0.719,-0.25 0.719,-0.75 0,-0.25 -0.094,-0.75 -0.813,-0.75 0.438,-0.969 1.375,-1.282 2.031,-1.282 1.407,0 2.125,1.094 2.125,2.219 0,1.219 -0.875,2.156 -1.312,2.656 l -3.344,3.344 c -0.156,0.125 -0.156,0.156 -0.156,0.531 h 5.75 z"
       style="fill:#000000;fill-opacity:1;fill-rule:nonzero;stroke:none"
       transform="scale(1.3333333)" /><path
       id="path50"
       d="m 335.949,17.062 h 1.875 c 0.406,0 0.625,0 0.625,-0.406 0,-0.218 -0.219,-0.218 -0.562,-0.218 h -1.75 c 0.718,-2.844 0.812,-3.219 0.812,-3.344 0,-0.344 -0.25,-0.532 -0.594,-0.532 -0.062,0 -0.625,0 -0.781,0.719 l -0.781,3.157 h -1.875 c -0.406,0 -0.594,0 -0.594,0.374 0,0.25 0.156,0.25 0.563,0.25 h 1.75 c -1.438,5.657 -1.532,6 -1.532,6.344 0,1.094 0.75,1.844 1.844,1.844 2.031,0 3.156,-2.906 3.156,-3.062 0,-0.219 -0.156,-0.219 -0.218,-0.219 -0.188,0 -0.219,0.062 -0.313,0.281 -0.844,2.094 -1.906,2.562 -2.594,2.562 -0.406,0 -0.625,-0.25 -0.625,-0.906 0,-0.5 0.063,-0.625 0.125,-0.968 z"
       style="fill:#000000;fill-opacity:1;fill-rule:nonzero;stroke:none"
       transform="scale(1.3333333)" /><path
       id="path51"
       d="m 331.852,27.824 h 7.203"
       style="fill:none;stroke:#000000;stroke-width:0.796001;stroke-linecap:butt;stroke-linejoin:miter;stroke-miterlimit:10;stroke-dasharray:none;stroke-opacity:1"
       transform="scale(1.3333333)" /><path
       id="path52"
       d="m 358.27,18.5 c 0.312,0 0.687,0 0.687,-0.375 0,-0.406 -0.375,-0.406 -0.656,-0.406 h -11.938 c -0.281,0 -0.656,0 -0.656,0.406 0,0.375 0.375,0.375 0.656,0.375 z m 0.031,3.875 c 0.281,0 0.656,0 0.656,-0.406 0,-0.375 -0.375,-0.375 -0.687,-0.375 h -11.907 c -0.281,0 -0.656,0 -0.656,0.375 0,0.406 0.375,0.406 0.656,0.406 z"
       style="fill:#000000;fill-opacity:1;fill-rule:nonzero;stroke:none"
       transform="scale(1.3333333)" /><path
       id="path53"
       d="m 367.367,23.844 c -0.062,0.312 -0.187,0.781 -0.187,0.875 0,0.343 0.281,0.531 0.593,0.531 0.25,0 0.594,-0.156 0.75,-0.562 0,-0.032 0.25,-0.969 0.375,-1.469 l 0.438,-1.781 c 0.094,-0.469 0.219,-0.907 0.344,-1.344 0.062,-0.344 0.218,-0.938 0.25,-1 0.281,-0.625 1.343,-2.438 3.25,-2.438 0.906,0 1.062,0.75 1.062,1.406 0,1.219 -0.969,3.782 -1.281,4.626 -0.188,0.468 -0.219,0.718 -0.219,0.937 0,0.937 0.719,1.625 1.656,1.625 1.875,0 2.594,-2.906 2.594,-3.062 0,-0.219 -0.156,-0.219 -0.219,-0.219 -0.218,0 -0.218,0.062 -0.312,0.375 -0.406,1.344 -1.063,2.468 -2.031,2.468 -0.344,0 -0.469,-0.187 -0.469,-0.656 0,-0.5 0.156,-0.968 0.344,-1.406 0.375,-1.062 1.218,-3.25 1.218,-4.406 0,-1.313 -0.843,-2.125 -2.281,-2.125 -1.812,0 -2.781,1.281 -3.125,1.75 -0.094,-1.125 -0.906,-1.75 -1.844,-1.75 -0.906,0 -1.281,0.781 -1.468,1.125 -0.344,0.687 -0.594,1.875 -0.594,1.937 0,0.219 0.187,0.219 0.219,0.219 0.218,0 0.218,-0.031 0.343,-0.469 0.344,-1.406 0.75,-2.375 1.469,-2.375 0.375,0 0.594,0.25 0.594,0.906 0,0.438 -0.063,0.657 -0.313,1.688 z"
       style="fill:#000000;fill-opacity:1;fill-rule:nonzero;stroke:none"
       transform="scale(1.3333333)" /><path
       id="path54"
       d="m 365.617,27.824 h 11.961"
       style="fill:none;stroke:#000000;stroke-width:0.796001;stroke-linecap:butt;stroke-linejoin:miter;stroke-miterlimit:10;stroke-dasharray:none;stroke-opacity:1"
       transform="scale(1.3333333)" /><path
       id="path55"
       d="m 385.816,20.031 c 0,-0.562 -0.468,-1.031 -1.031,-1.031 -0.594,0 -1.062,0.469 -1.062,1.031 0,0.594 0.468,1.063 1.062,1.063 0.563,0 1.031,-0.469 1.031,-1.063 z"
       style="fill:#000000;fill-opacity:1;fill-rule:nonzero;stroke:none"
       transform="scale(1.3333333)" /><path
       id="path56"
       d="m 402.277,17.594 c 0.282,0 1,0 1,-0.688 0,-0.468 -0.437,-0.468 -0.781,-0.468 h -4.562 c -3,0 -5.219,3.281 -5.219,5.656 0,1.75 1.187,3.156 3,3.156 2.344,0 5,-2.406 5,-5.469 0,-0.343 0,-1.312 -0.625,-2.187 z m -6.531,7.218 c -1,0 -1.781,-0.718 -1.781,-2.156 0,-0.594 0.219,-2.218 0.937,-3.406 0.844,-1.375 2.032,-1.656 2.719,-1.656 1.656,0 1.813,1.312 1.813,1.937 0,0.938 -0.407,2.563 -1.063,3.594 -0.781,1.156 -1.875,1.687 -2.625,1.687 z"
       style="fill:#000000;fill-opacity:1;fill-rule:nonzero;stroke:none"
       transform="scale(1.3333333)" /><path
       id="path57"
       d="M 391.969,27.824 H 404.07"
       style="fill:none;stroke:#000000;stroke-width:0.796001;stroke-linecap:butt;stroke-linejoin:miter;stroke-miterlimit:10;stroke-dasharray:none;stroke-opacity:1"
       transform="scale(1.3333333)" /><path
       id="path58"
       d="M 391.969,31.809 H 404.07"
       style="fill:none;stroke:#000000;stroke-width:0.796001;stroke-linecap:butt;stroke-linejoin:miter;stroke-miterlimit:10;stroke-dasharray:none;stroke-opacity:1"
       transform="scale(1.3333333)" /><path
       id="path59"
       d="m 322.719,52.223 h 1.875 c 0.406,0 0.625,0 0.625,-0.407 0,-0.218 -0.219,-0.218 -0.563,-0.218 h -1.75 c 0.719,-2.844 0.813,-3.219 0.813,-3.344 0,-0.344 -0.25,-0.531 -0.594,-0.531 -0.063,0 -0.625,0 -0.781,0.718 l -0.782,3.157 h -1.874 c -0.407,0 -0.594,0 -0.594,0.375 0,0.25 0.156,0.25 0.562,0.25 h 1.75 c -1.437,5.656 -1.531,6 -1.531,6.343 0,1.094 0.75,1.844 1.844,1.844 2.031,0 3.156,-2.906 3.156,-3.062 0,-0.219 -0.156,-0.219 -0.219,-0.219 -0.187,0 -0.218,0.062 -0.312,0.281 -0.844,2.094 -1.906,2.563 -2.594,2.563 -0.406,0 -0.625,-0.25 -0.625,-0.907 0,-0.5 0.063,-0.625 0.125,-0.968 z"
       style="fill:#000000;fill-opacity:1;fill-rule:nonzero;stroke:none"
       transform="scale(1.3333333)" /><path
       id="path60"
       d="m 318.625,62.98 h 7.195"
       style="fill:none;stroke:#000000;stroke-width:0.796001;stroke-linecap:butt;stroke-linejoin:miter;stroke-miterlimit:10;stroke-dasharray:none;stroke-opacity:1"
       transform="scale(1.3333333)" /><path
       id="path61"
       d="m 332.258,47.348 h 4.281 c 0.188,0 0.5,0 0.5,-0.313 0,-0.375 -0.312,-0.375 -0.5,-0.375 h -4.281 v -4.281 c 0,-0.156 0,-0.5 -0.313,-0.5 -0.343,0 -0.343,0.312 -0.343,0.5 v 4.281 h -4.282 c -0.187,0 -0.531,0 -0.531,0.344 0,0.344 0.313,0.344 0.531,0.344 h 4.282 v 4.281 c 0,0.187 0,0.531 0.312,0.531 0.344,0 0.344,-0.344 0.344,-0.531 z"
       style="fill:#000000;fill-opacity:1;fill-rule:nonzero;stroke:none"
       transform="scale(1.3333333)" /><path
       id="path62"
       d="m 330.477,56.297 c 0,-0.375 0,-0.375 -0.407,-0.375 -0.906,0.875 -2.156,0.875 -2.718,0.875 v 0.5 c 0.312,0 1.25,0 2,-0.375 v 7.094 c 0,0.468 0,0.656 -1.375,0.656 h -0.532 v 0.5 c 0.25,0 1.969,-0.063 2.469,-0.063 0.438,0 2.188,0.063 2.5,0.063 v -0.5 h -0.531 c -1.406,0 -1.406,-0.188 -1.406,-0.656 z"
       style="fill:#000000;fill-opacity:1;fill-rule:nonzero;stroke:none"
       transform="scale(1.3333333)" /><path
       id="path63"
       d="m 358.27,53.66 c 0.312,0 0.687,0 0.687,-0.375 0,-0.406 -0.375,-0.406 -0.656,-0.406 h -11.938 c -0.281,0 -0.656,0 -0.656,0.406 0,0.375 0.375,0.375 0.656,0.375 z m 0.031,3.875 c 0.281,0 0.656,0 0.656,-0.406 0,-0.375 -0.375,-0.375 -0.687,-0.375 h -11.907 c -0.281,0 -0.656,0 -0.656,0.375 0,0.406 0.375,0.406 0.656,0.406 z"
       style="fill:#000000;fill-opacity:1;fill-rule:nonzero;stroke:none"
       transform="scale(1.3333333)" /><path
       id="path64"
       d="m 384.832,55.598 c 0.594,0 2.063,-0.063 3.063,-0.469 1.406,-0.594 1.5,-1.781 1.5,-2.063 0,-0.875 -0.75,-1.687 -2.125,-1.687 -2.219,0 -5.25,1.937 -5.25,5.437 0,2.032 1.187,3.594 3.156,3.594 2.844,0 4.5,-2.125 4.5,-2.344 0,-0.125 -0.094,-0.281 -0.219,-0.281 -0.125,0 -0.156,0.063 -0.281,0.219 -1.563,1.969 -3.75,1.969 -3.969,1.969 -1.562,0 -1.75,-1.688 -1.75,-2.313 0,-0.25 0.031,-0.844 0.313,-2.062 z m -0.937,-0.438 c 0.781,-3.031 2.843,-3.344 3.375,-3.344 0.906,0 1.468,0.594 1.468,1.25 0,2.094 -3.187,2.094 -4.031,2.094 z"
       style="fill:#000000;fill-opacity:1;fill-rule:nonzero;stroke:none"
       transform="scale(1.3333333)" /><path
       id="path65"
       d="m 381.117,62.98 h 9.274"
       style="fill:none;stroke:#000000;stroke-width:0.796001;stroke-linecap:butt;stroke-linejoin:miter;stroke-miterlimit:10;stroke-dasharray:none;stroke-opacity:1"
       transform="scale(1.3333333)" /><path
       id="path66"
       d="m 395.047,56.297 c 0,-0.375 0,-0.375 -0.406,-0.375 -0.907,0.875 -2.157,0.875 -2.719,0.875 v 0.5 c 0.312,0 1.25,0 2,-0.375 v 7.094 c 0,0.468 0,0.656 -1.375,0.656 h -0.531 v 0.5 c 0.25,0 1.968,-0.063 2.468,-0.063 0.438,0 2.188,0.063 2.5,0.063 v -0.5 h -0.531 c -1.406,0 -1.406,-0.188 -1.406,-0.656 z"
       style="fill:#000000;fill-opacity:1;fill-rule:nonzero;stroke:none"
       transform="scale(1.3333333)" /><path
       id="path67"
       d="m 407.57,55.191 c 0,-0.562 -0.468,-1.031 -1.031,-1.031 -0.594,0 -1.062,0.469 -1.062,1.031 0,0.594 0.468,1.063 1.062,1.063 0.563,0 1.031,-0.469 1.031,-1.063 z"
       style="fill:#000000;fill-opacity:1;fill-rule:nonzero;stroke:none"
       transform="scale(1.3333333)" /><path
       id="path68"
       d="m 424.031,52.754 c 0.281,0 1,0 1,-0.688 0,-0.468 -0.437,-0.468 -0.781,-0.468 h -4.562 c -3,0 -5.219,3.281 -5.219,5.656 0,1.75 1.187,3.156 3,3.156 2.343,0 5,-2.406 5,-5.469 0,-0.343 0,-1.312 -0.625,-2.187 z m -6.531,7.219 c -1,0 -1.781,-0.719 -1.781,-2.157 0,-0.593 0.219,-2.218 0.937,-3.406 0.844,-1.375 2.032,-1.656 2.719,-1.656 1.656,0 1.813,1.312 1.813,1.937 0,0.938 -0.407,2.563 -1.063,3.594 -0.781,1.156 -1.875,1.688 -2.625,1.688 z"
       style="fill:#000000;fill-opacity:1;fill-rule:nonzero;stroke:none"
       transform="scale(1.3333333)" /><path
       id="path69"
       d="M 413.719,62.98 H 425.82"
       style="fill:none;stroke:#000000;stroke-width:0.796001;stroke-linecap:butt;stroke-linejoin:miter;stroke-miterlimit:10;stroke-dasharray:none;stroke-opacity:1"
       transform="scale(1.3333333)" /><path
       id="path70"
       d="M 413.719,66.965 H 425.82"
       style="fill:none;stroke:#000000;stroke-width:0.796001;stroke-linecap:butt;stroke-linejoin:miter;stroke-miterlimit:10;stroke-dasharray:none;stroke-opacity:1"
       transform="scale(1.3333333)" /><path
       id="path71"
       d="m 445.043,53.66 c 0.312,0 0.687,0 0.687,-0.375 0,-0.406 -0.375,-0.406 -0.656,-0.406 h -11.937 c -0.282,0 -0.657,0 -0.657,0.406 0,0.375 0.375,0.375 0.657,0.375 z m 0.031,3.875 c 0.281,0 0.656,0 0.656,-0.406 0,-0.375 -0.375,-0.375 -0.687,-0.375 h -11.906 c -0.282,0 -0.657,0 -0.657,0.375 0,0.406 0.375,0.406 0.657,0.406 z"
       style="fill:#000000;fill-opacity:1;fill-rule:nonzero;stroke:none"
       transform="scale(1.3333333)" /><path
       id="path72"
       d="m 472.969,65.191 v -0.812 h -1.938 V 46.035 h 1.938 v -0.812 h -2.75 v 19.968 z"
       style="fill:#000000;fill-opacity:1;fill-rule:nonzero;stroke:none"
       transform="scale(1.3333333)" /><path
       id="path73"
       d="m 483.734,52.754 c 0.282,0 1,0 1,-0.688 0,-0.468 -0.437,-0.468 -0.781,-0.468 h -4.562 c -3,0 -5.219,3.281 -5.219,5.656 0,1.75 1.187,3.156 3,3.156 2.344,0 5,-2.406 5,-5.469 0,-0.343 0,-1.312 -0.625,-2.187 z m -6.531,7.219 c -1,0 -1.781,-0.719 -1.781,-2.157 0,-0.593 0.219,-2.218 0.937,-3.406 0.844,-1.375 2.032,-1.656 2.719,-1.656 1.656,0 1.813,1.312 1.813,1.937 0,0.938 -0.407,2.563 -1.063,3.594 -0.781,1.156 -1.875,1.688 -2.625,1.688 z"
       style="fill:#000000;fill-opacity:1;fill-rule:nonzero;stroke:none"
       transform="scale(1.3333333)" /><path
       id="path74"
       d="m 489.461,55.465 c 0,-0.375 0,-0.375 -0.406,-0.375 -0.907,0.875 -2.157,0.875 -2.719,0.875 v 0.5 c 0.312,0 1.25,0 2,-0.375 v 7.094 c 0,0.468 0,0.656 -1.375,0.656 h -0.531 v 0.5 c 0.25,0 1.968,-0.063 2.468,-0.063 0.438,0 2.188,0.063 2.5,0.063 v -0.5 h -0.531 c -1.406,0 -1.406,-0.188 -1.406,-0.656 z"
       style="fill:#000000;fill-opacity:1;fill-rule:nonzero;stroke:none"
       transform="scale(1.3333333)" /><path
       id="path75"
       d="m 497.406,55.465 c 0,-0.375 0,-0.375 -0.406,-0.375 -0.906,0.875 -2.156,0.875 -2.719,0.875 v 0.5 c 0.313,0 1.25,0 2,-0.375 v 7.094 c 0,0.468 0,0.656 -1.375,0.656 h -0.531 v 0.5 c 0.25,0 1.969,-0.063 2.469,-0.063 0.437,0 2.187,0.063 2.5,0.063 v -0.5 h -0.532 c -1.406,0 -1.406,-0.188 -1.406,-0.656 z"
       style="fill:#000000;fill-opacity:1;fill-rule:nonzero;stroke:none"
       transform="scale(1.3333333)" /><path
       id="path76"
       d="m 505.75,60.16 c 0,-1.312 -0.5,-2.094 -1.281,-2.094 -0.657,0 -1.063,0.5 -1.063,1.063 0,0.531 0.406,1.062 1.063,1.062 0.219,0 0.5,-0.093 0.687,-0.25 0.063,-0.062 0.094,-0.062 0.094,-0.062 0.031,0 0.031,0 0.031,0.281 0,1.5 -0.687,2.688 -1.343,3.344 -0.219,0.219 -0.219,0.25 -0.219,0.312 0,0.157 0.093,0.219 0.187,0.219 0.219,0 1.844,-1.531 1.844,-3.875 z"
       style="fill:#000000;fill-opacity:1;fill-rule:nonzero;stroke:none"
       transform="scale(1.3333333)" /><path
       id="path77"
       d="m 527.496,52.754 c 0.281,0 1,0 1,-0.688 0,-0.468 -0.437,-0.468 -0.781,-0.468 h -4.563 c -3,0 -5.218,3.281 -5.218,5.656 0,1.75 1.187,3.156 3,3.156 2.343,0 5,-2.406 5,-5.469 0,-0.343 0,-1.312 -0.625,-2.187 z m -6.531,7.219 c -1,0 -1.781,-0.719 -1.781,-2.157 0,-0.593 0.218,-2.218 0.937,-3.406 0.844,-1.375 2.031,-1.656 2.719,-1.656 1.656,0 1.812,1.312 1.812,1.937 0,0.938 -0.406,2.563 -1.062,3.594 -0.781,1.156 -1.875,1.688 -2.625,1.688 z"
       style="fill:#000000;fill-opacity:1;fill-rule:nonzero;stroke:none"
       transform="scale(1.3333333)" /><path
       id="path78"
       d="m 533.227,55.465 c 0,-0.375 0,-0.375 -0.407,-0.375 -0.906,0.875 -2.156,0.875 -2.718,0.875 v 0.5 c 0.312,0 1.25,0 2,-0.375 v 7.094 c 0,0.468 0,0.656 -1.375,0.656 h -0.532 v 0.5 c 0.25,0 1.969,-0.063 2.469,-0.063 0.438,0 2.188,0.063 2.5,0.063 v -0.5 h -0.531 c -1.406,0 -1.406,-0.188 -1.406,-0.656 z"
       style="fill:#000000;fill-opacity:1;fill-rule:nonzero;stroke:none"
       transform="scale(1.3333333)" /><path
       id="path79"
       d="m 543.547,61.809 h -0.469 c -0.031,0.312 -0.187,1.125 -0.375,1.25 -0.094,0.093 -1.156,0.093 -1.375,0.093 h -2.562 c 1.468,-1.281 1.968,-1.687 2.781,-2.343 1.031,-0.813 2,-1.688 2,-3 0,-1.688 -1.469,-2.719 -3.25,-2.719 -1.719,0 -2.906,1.219 -2.906,2.5 0,0.687 0.593,0.781 0.75,0.781 0.312,0 0.718,-0.25 0.718,-0.75 0,-0.25 -0.093,-0.75 -0.812,-0.75 0.437,-0.969 1.375,-1.281 2.031,-1.281 1.406,0 2.125,1.094 2.125,2.219 0,1.218 -0.875,2.156 -1.312,2.656 l -3.344,3.344 c -0.156,0.125 -0.156,0.156 -0.156,0.531 h 5.75 z"
       style="fill:#000000;fill-opacity:1;fill-rule:nonzero;stroke:none"
       transform="scale(1.3333333)" /><path
       id="path80"
       d="m 548.605,45.223 h -2.718 v 0.812 h 1.937 v 18.344 h -1.937 v 0.812 h 2.718 z"
       style="fill:#000000;fill-opacity:1;fill-rule:nonzero;stroke:none"
       transform="scale(1.3333333)" /><path
       id="path81"
       d="m 561.359,41.098 h -9.406 l -0.312,3.187 h 0.5 c 0.187,-2.406 0.593,-2.687 2.718,-2.687 0.282,0 0.688,0 0.844,0 0.313,0.062 0.313,0.218 0.313,0.531 v 7.219 c 0,0.468 0,0.656 -1.469,0.656 h -0.594 v 0.5 c 0.688,-0.063 2,-0.063 2.719,-0.063 0.719,0 2,0 2.687,0.063 v -0.5 h -0.593 c -1.438,0 -1.438,-0.188 -1.438,-0.656 v -7.219 c 0,-0.313 0,-0.469 0.313,-0.531 0.125,0 0.531,0 0.812,0 0.781,0 1.375,0 1.875,0.25 0.625,0.406 0.719,1.281 0.719,1.343 l 0.125,1.094 h 0.5 z"
       style="fill:#000000;fill-opacity:1;fill-rule:nonzero;stroke:none"
       transform="scale(1.3333333)" /><path
       id="path82"
       d="m 322.496,87.379 h 1.875 c 0.406,0 0.625,0 0.625,-0.406 0,-0.219 -0.219,-0.219 -0.562,-0.219 h -1.75 c 0.718,-2.844 0.812,-3.219 0.812,-3.344 0,-0.344 -0.25,-0.531 -0.594,-0.531 -0.062,0 -0.625,0 -0.781,0.719 l -0.781,3.156 h -1.875 c -0.406,0 -0.594,0 -0.594,0.375 0,0.25 0.156,0.25 0.563,0.25 h 1.75 c -1.438,5.656 -1.532,6 -1.532,6.344 0,1.093 0.75,1.843 1.844,1.843 2.031,0 3.156,-2.906 3.156,-3.062 0,-0.219 -0.156,-0.219 -0.218,-0.219 -0.188,0 -0.219,0.063 -0.313,0.281 -0.844,2.094 -1.906,2.563 -2.594,2.563 -0.406,0 -0.625,-0.25 -0.625,-0.906 0,-0.5 0.063,-0.625 0.125,-0.969 z"
       style="fill:#000000;fill-opacity:1;fill-rule:nonzero;stroke:none"
       transform="scale(1.3333333)" /><path
       id="path83"
       d="m 318.406,98.137 h 7.196"
       style="fill:none;stroke:#000000;stroke-width:0.796001;stroke-linecap:butt;stroke-linejoin:miter;stroke-miterlimit:10;stroke-dasharray:none;stroke-opacity:1"
       transform="scale(1.3333333)" /><path
       id="path84"
       d="m 335.977,82.504 c 0.218,0 0.562,0 0.562,-0.313 0,-0.375 -0.344,-0.375 -0.562,-0.375 h -8.313 c -0.219,0 -0.562,0 -0.562,0.344 0,0.344 0.312,0.344 0.562,0.344 z"
       style="fill:#000000;fill-opacity:1;fill-rule:nonzero;stroke:none"
       transform="scale(1.3333333)" /><path
       id="path85"
       d="m 330.258,91.453 c 0,-0.375 0,-0.375 -0.406,-0.375 -0.907,0.875 -2.157,0.875 -2.719,0.875 v 0.5 c 0.312,0 1.25,0 2,-0.375 v 7.094 c 0,0.469 0,0.656 -1.375,0.656 h -0.531 v 0.5 c 0.25,0 1.968,-0.062 2.468,-0.062 0.438,0 2.188,0.062 2.5,0.062 v -0.5 h -0.531 c -1.406,0 -1.406,-0.187 -1.406,-0.656 z"
       style="fill:#000000;fill-opacity:1;fill-rule:nonzero;stroke:none"
       transform="scale(1.3333333)" /><path
       id="path86"
       d="m 358.27,88.816 c 0.312,0 0.687,0 0.687,-0.375 0,-0.406 -0.375,-0.406 -0.656,-0.406 h -11.938 c -0.281,0 -0.656,0 -0.656,0.406 0,0.375 0.375,0.375 0.656,0.375 z m 0.031,3.875 c 0.281,0 0.656,0 0.656,-0.406 0,-0.375 -0.375,-0.375 -0.687,-0.375 h -11.907 c -0.281,0 -0.656,0 -0.656,0.375 0,0.406 0.375,0.406 0.656,0.406 z"
       style="fill:#000000;fill-opacity:1;fill-rule:nonzero;stroke:none"
       transform="scale(1.3333333)" /><path
       id="path87"
       d="m 378.742,90.754 c 0.344,0 0.719,0 0.719,-0.406 0,-0.375 -0.375,-0.375 -0.719,-0.375 h -10.781 c -0.344,0 -0.688,0 -0.688,0.375 0,0.406 0.344,0.406 0.688,0.406 z"
       style="fill:#000000;fill-opacity:1;fill-rule:nonzero;stroke:none"
       transform="scale(1.3333333)" /><path
       id="path88"
       d="m 384.832,90.754 c 0.594,0 2.063,-0.063 3.063,-0.469 1.406,-0.594 1.5,-1.781 1.5,-2.062 0,-0.875 -0.75,-1.688 -2.125,-1.688 -2.219,0 -5.25,1.938 -5.25,5.438 0,2.031 1.187,3.593 3.156,3.593 2.844,0 4.5,-2.125 4.5,-2.343 0,-0.125 -0.094,-0.282 -0.219,-0.282 -0.125,0 -0.156,0.063 -0.281,0.219 -1.563,1.969 -3.75,1.969 -3.969,1.969 -1.562,0 -1.75,-1.688 -1.75,-2.313 0,-0.25 0.031,-0.843 0.313,-2.062 z m -0.937,-0.438 c 0.781,-3.031 2.843,-3.343 3.375,-3.343 0.906,0 1.468,0.593 1.468,1.25 0,2.093 -3.187,2.093 -4.031,2.093 z"
       style="fill:#000000;fill-opacity:1;fill-rule:nonzero;stroke:none"
       transform="scale(1.3333333)" /><path
       id="path89"
       d="m 381.117,98.137 h 9.274"
       style="fill:none;stroke:#000000;stroke-width:0.796001;stroke-linecap:butt;stroke-linejoin:miter;stroke-miterlimit:10;stroke-dasharray:none;stroke-opacity:1"
       transform="scale(1.3333333)" /><path
       id="path90"
       d="m 395.047,91.453 c 0,-0.375 0,-0.375 -0.406,-0.375 -0.907,0.875 -2.157,0.875 -2.719,0.875 v 0.5 c 0.312,0 1.25,0 2,-0.375 v 7.094 c 0,0.469 0,0.656 -1.375,0.656 h -0.531 v 0.5 c 0.25,0 1.968,-0.062 2.468,-0.062 0.438,0 2.188,0.062 2.5,0.062 v -0.5 h -0.531 c -1.406,0 -1.406,-0.187 -1.406,-0.656 z"
       style="fill:#000000;fill-opacity:1;fill-rule:nonzero;stroke:none"
       transform="scale(1.3333333)" /><path
       id="path91"
       d="m 407.57,90.348 c 0,-0.563 -0.468,-1.032 -1.031,-1.032 -0.594,0 -1.062,0.469 -1.062,1.032 0,0.593 0.468,1.062 1.062,1.062 0.563,0 1.031,-0.469 1.031,-1.062 z"
       style="fill:#000000;fill-opacity:1;fill-rule:nonzero;stroke:none"
       transform="scale(1.3333333)" /><path
       id="path92"
       d="m 424.031,87.91 c 0.281,0 1,0 1,-0.687 0,-0.469 -0.437,-0.469 -0.781,-0.469 h -4.562 c -3,0 -5.219,3.281 -5.219,5.656 0,1.75 1.187,3.156 3,3.156 2.343,0 5,-2.406 5,-5.468 0,-0.344 0,-1.313 -0.625,-2.188 z m -6.531,7.219 c -1,0 -1.781,-0.719 -1.781,-2.156 0,-0.594 0.219,-2.219 0.937,-3.407 0.844,-1.375 2.032,-1.656 2.719,-1.656 1.656,0 1.813,1.313 1.813,1.938 0,0.937 -0.407,2.562 -1.063,3.593 -0.781,1.157 -1.875,1.688 -2.625,1.688 z"
       style="fill:#000000;fill-opacity:1;fill-rule:nonzero;stroke:none"
       transform="scale(1.3333333)" /><path
       id="path93"
       d="M 413.719,98.137 H 425.82"
       style="fill:none;stroke:#000000;stroke-width:0.796001;stroke-linecap:butt;stroke-linejoin:miter;stroke-miterlimit:10;stroke-dasharray:none;stroke-opacity:1"
       transform="scale(1.3333333)" /><path
       id="path94"
       d="M 413.719,102.121 H 425.82"
       style="fill:none;stroke:#000000;stroke-width:0.796001;stroke-linecap:butt;stroke-linejoin:miter;stroke-miterlimit:10;stroke-dasharray:none;stroke-opacity:1"
       transform="scale(1.3333333)" /><path
       id="path95"
       d="m 445.043,88.816 c 0.312,0 0.687,0 0.687,-0.375 0,-0.406 -0.375,-0.406 -0.656,-0.406 h -11.937 c -0.282,0 -0.657,0 -0.657,0.406 0,0.375 0.375,0.375 0.657,0.375 z m 0.031,3.875 c 0.281,0 0.656,0 0.656,-0.406 0,-0.375 -0.375,-0.375 -0.687,-0.375 h -11.906 c -0.282,0 -0.657,0 -0.657,0.375 0,0.406 0.375,0.406 0.657,0.406 z"
       style="fill:#000000;fill-opacity:1;fill-rule:nonzero;stroke:none"
       transform="scale(1.3333333)" /><path
       id="path96"
       d="m 465.512,90.754 c 0.343,0 0.718,0 0.718,-0.406 0,-0.375 -0.375,-0.375 -0.718,-0.375 H 454.73 c -0.343,0 -0.687,0 -0.687,0.375 0,0.406 0.344,0.406 0.687,0.406 z"
       style="fill:#000000;fill-opacity:1;fill-rule:nonzero;stroke:none"
       transform="scale(1.3333333)" /><path
       id="path97"
       d="m 472.977,100.348 v -0.813 h -1.938 V 81.191 h 1.938 v -0.812 h -2.75 v 19.969 z"
       style="fill:#000000;fill-opacity:1;fill-rule:nonzero;stroke:none"
       transform="scale(1.3333333)" /><path
       id="path98"
       d="m 483.734,87.91 c 0.282,0 1,0 1,-0.687 0,-0.469 -0.437,-0.469 -0.781,-0.469 h -4.562 c -3,0 -5.219,3.281 -5.219,5.656 0,1.75 1.187,3.156 3,3.156 2.344,0 5,-2.406 5,-5.468 0,-0.344 0,-1.313 -0.625,-2.188 z m -6.531,7.219 c -1,0 -1.781,-0.719 -1.781,-2.156 0,-0.594 0.219,-2.219 0.937,-3.407 0.844,-1.375 2.032,-1.656 2.719,-1.656 1.656,0 1.813,1.313 1.813,1.938 0,0.937 -0.407,2.562 -1.063,3.593 -0.781,1.157 -1.875,1.688 -2.625,1.688 z"
       style="fill:#000000;fill-opacity:1;fill-rule:nonzero;stroke:none"
       transform="scale(1.3333333)" /><path
       id="path99"
       d="m 489.461,90.621 c 0,-0.375 0,-0.375 -0.406,-0.375 -0.907,0.875 -2.157,0.875 -2.719,0.875 v 0.5 c 0.312,0 1.25,0 2,-0.375 v 7.094 c 0,0.469 0,0.656 -1.375,0.656 h -0.531 v 0.5 c 0.25,0 1.968,-0.062 2.468,-0.062 0.438,0 2.188,0.062 2.5,0.062 v -0.5 h -0.531 c -1.406,0 -1.406,-0.187 -1.406,-0.656 z"
       style="fill:#000000;fill-opacity:1;fill-rule:nonzero;stroke:none"
       transform="scale(1.3333333)" /><path
       id="path100"
       d="m 497.406,90.621 c 0,-0.375 0,-0.375 -0.406,-0.375 -0.906,0.875 -2.156,0.875 -2.719,0.875 v 0.5 c 0.313,0 1.25,0 2,-0.375 v 7.094 c 0,0.469 0,0.656 -1.375,0.656 h -0.531 v 0.5 c 0.25,0 1.969,-0.062 2.469,-0.062 0.437,0 2.187,0.062 2.5,0.062 v -0.5 h -0.532 c -1.406,0 -1.406,-0.187 -1.406,-0.656 z"
       style="fill:#000000;fill-opacity:1;fill-rule:nonzero;stroke:none"
       transform="scale(1.3333333)" /><path
       id="path101"
       d="m 505.75,95.316 c 0,-1.312 -0.5,-2.093 -1.281,-2.093 -0.657,0 -1.063,0.5 -1.063,1.062 0,0.531 0.406,1.063 1.063,1.063 0.219,0 0.5,-0.094 0.687,-0.25 0.063,-0.063 0.094,-0.063 0.094,-0.063 0.031,0 0.031,0 0.031,0.281 0,1.5 -0.687,2.688 -1.343,3.344 -0.219,0.219 -0.219,0.25 -0.219,0.313 0,0.156 0.093,0.218 0.187,0.218 0.219,0 1.844,-1.531 1.844,-3.875 z"
       style="fill:#000000;fill-opacity:1;fill-rule:nonzero;stroke:none"
       transform="scale(1.3333333)" /><path
       id="path102"
       d="m 527.496,87.91 c 0.281,0 1,0 1,-0.687 0,-0.469 -0.437,-0.469 -0.781,-0.469 h -4.563 c -3,0 -5.218,3.281 -5.218,5.656 0,1.75 1.187,3.156 3,3.156 2.343,0 5,-2.406 5,-5.468 0,-0.344 0,-1.313 -0.625,-2.188 z m -6.531,7.219 c -1,0 -1.781,-0.719 -1.781,-2.156 0,-0.594 0.218,-2.219 0.937,-3.407 0.844,-1.375 2.031,-1.656 2.719,-1.656 1.656,0 1.812,1.313 1.812,1.938 0,0.937 -0.406,2.562 -1.062,3.593 -0.781,1.157 -1.875,1.688 -2.625,1.688 z"
       style="fill:#000000;fill-opacity:1;fill-rule:nonzero;stroke:none"
       transform="scale(1.3333333)" /><path
       id="path103"
       d="m 533.227,90.621 c 0,-0.375 0,-0.375 -0.407,-0.375 -0.906,0.875 -2.156,0.875 -2.718,0.875 v 0.5 c 0.312,0 1.25,0 2,-0.375 v 7.094 c 0,0.469 0,0.656 -1.375,0.656 h -0.532 v 0.5 c 0.25,0 1.969,-0.062 2.469,-0.062 0.438,0 2.188,0.062 2.5,0.062 v -0.5 h -0.531 c -1.406,0 -1.406,-0.187 -1.406,-0.656 z"
       style="fill:#000000;fill-opacity:1;fill-rule:nonzero;stroke:none"
       transform="scale(1.3333333)" /><path
       id="path104"
       d="m 543.547,96.965 h -0.469 c -0.031,0.312 -0.187,1.125 -0.375,1.25 -0.094,0.094 -1.156,0.094 -1.375,0.094 h -2.562 c 1.468,-1.282 1.968,-1.688 2.781,-2.344 1.031,-0.813 2,-1.688 2,-3 0,-1.688 -1.469,-2.719 -3.25,-2.719 -1.719,0 -2.906,1.219 -2.906,2.5 0,0.688 0.593,0.781 0.75,0.781 0.312,0 0.718,-0.25 0.718,-0.75 0,-0.25 -0.093,-0.75 -0.812,-0.75 0.437,-0.968 1.375,-1.281 2.031,-1.281 1.406,0 2.125,1.094 2.125,2.219 0,1.219 -0.875,2.156 -1.312,2.656 l -3.344,3.344 c -0.156,0.125 -0.156,0.156 -0.156,0.531 h 5.75 z"
       style="fill:#000000;fill-opacity:1;fill-rule:nonzero;stroke:none"
       transform="scale(1.3333333)" /><path
       id="path105"
       d="m 548.605,80.379 h -2.718 v 0.812 h 1.937 v 18.344 h -1.937 v 0.813 h 2.718 z"
       style="fill:#000000;fill-opacity:1;fill-rule:nonzero;stroke:none"
       transform="scale(1.3333333)" /><path
       id="path106"
       d="m 561.359,76.254 h -9.406 l -0.312,3.187 h 0.5 c 0.187,-2.406 0.593,-2.687 2.718,-2.687 0.282,0 0.688,0 0.844,0 0.313,0.062 0.313,0.219 0.313,0.531 v 7.219 c 0,0.469 0,0.656 -1.469,0.656 h -0.594 v 0.5 c 0.688,-0.062 2,-0.062 2.719,-0.062 0.719,0 2,0 2.687,0.062 v -0.5 h -0.593 c -1.438,0 -1.438,-0.187 -1.438,-0.656 v -7.219 c 0,-0.312 0,-0.469 0.313,-0.531 0.125,0 0.531,0 0.812,0 0.781,0 1.375,0 1.875,0.25 0.625,0.406 0.719,1.281 0.719,1.344 l 0.125,1.093 h 0.5 z"
       style="fill:#000000;fill-opacity:1;fill-rule:nonzero;stroke:none"
       transform="scale(1.3333333)" /><path
       id="path107"
       d="m 322.719,122.535 h 1.875 c 0.406,0 0.625,0 0.625,-0.406 0,-0.219 -0.219,-0.219 -0.563,-0.219 h -1.75 c 0.719,-2.844 0.813,-3.219 0.813,-3.344 0,-0.343 -0.25,-0.531 -0.594,-0.531 -0.063,0 -0.625,0 -0.781,0.719 l -0.782,3.156 h -1.874 c -0.407,0 -0.594,0 -0.594,0.375 0,0.25 0.156,0.25 0.562,0.25 h 1.75 c -1.437,5.656 -1.531,6 -1.531,6.344 0,1.094 0.75,1.844 1.844,1.844 2.031,0 3.156,-2.907 3.156,-3.063 0,-0.219 -0.156,-0.219 -0.219,-0.219 -0.187,0 -0.218,0.063 -0.312,0.282 -0.844,2.093 -1.906,2.562 -2.594,2.562 -0.406,0 -0.625,-0.25 -0.625,-0.906 0,-0.5 0.063,-0.625 0.125,-0.969 z"
       style="fill:#000000;fill-opacity:1;fill-rule:nonzero;stroke:none"
       transform="scale(1.3333333)" /><path
       id="path108"
       d="m 318.625,133.293 h 7.195"
       style="fill:none;stroke:#000000;stroke-width:0.796001;stroke-linecap:butt;stroke-linejoin:miter;stroke-miterlimit:10;stroke-dasharray:none;stroke-opacity:1"
       transform="scale(1.3333333)" /><path
       id="path109"
       d="m 332.258,117.66 h 4.281 c 0.188,0 0.5,0 0.5,-0.312 0,-0.375 -0.312,-0.375 -0.5,-0.375 h -4.281 v -4.282 c 0,-0.156 0,-0.5 -0.313,-0.5 -0.343,0 -0.343,0.313 -0.343,0.5 v 4.282 h -4.282 c -0.187,0 -0.531,0 -0.531,0.343 0,0.344 0.313,0.344 0.531,0.344 h 4.282 v 4.281 c 0,0.188 0,0.532 0.312,0.532 0.344,0 0.344,-0.344 0.344,-0.532 z"
       style="fill:#000000;fill-opacity:1;fill-rule:nonzero;stroke:none"
       transform="scale(1.3333333)" /><path
       id="path110"
       d="m 332.852,132.953 h -0.469 c -0.031,0.313 -0.188,1.125 -0.375,1.25 -0.094,0.094 -1.156,0.094 -1.375,0.094 h -2.563 c 1.469,-1.281 1.969,-1.688 2.782,-2.344 1.031,-0.812 2,-1.687 2,-3 0,-1.687 -1.469,-2.719 -3.25,-2.719 -1.719,0 -2.907,1.219 -2.907,2.5 0,0.688 0.594,0.782 0.75,0.782 0.313,0 0.719,-0.25 0.719,-0.75 0,-0.25 -0.094,-0.75 -0.812,-0.75 0.437,-0.969 1.375,-1.282 2.031,-1.282 1.406,0 2.125,1.094 2.125,2.219 0,1.219 -0.875,2.156 -1.313,2.656 l -3.343,3.344 c -0.157,0.125 -0.157,0.156 -0.157,0.531 h 5.75 z"
       style="fill:#000000;fill-opacity:1;fill-rule:nonzero;stroke:none"
       transform="scale(1.3333333)" /><path
       id="path111"
       d="m 358.27,123.973 c 0.312,0 0.687,0 0.687,-0.375 0,-0.407 -0.375,-0.407 -0.656,-0.407 h -11.938 c -0.281,0 -0.656,0 -0.656,0.407 0,0.375 0.375,0.375 0.656,0.375 z m 0.031,3.875 c 0.281,0 0.656,0 0.656,-0.407 0,-0.375 -0.375,-0.375 -0.687,-0.375 h -11.907 c -0.281,0 -0.656,0 -0.656,0.375 0,0.407 0.375,0.407 0.656,0.407 z"
       style="fill:#000000;fill-opacity:1;fill-rule:nonzero;stroke:none"
       transform="scale(1.3333333)" /><path
       id="path112"
       d="m 384.832,125.91 c 0.594,0 2.063,-0.062 3.063,-0.469 1.406,-0.593 1.5,-1.781 1.5,-2.062 0,-0.875 -0.75,-1.688 -2.125,-1.688 -2.219,0 -5.25,1.938 -5.25,5.438 0,2.031 1.187,3.594 3.156,3.594 2.844,0 4.5,-2.125 4.5,-2.344 0,-0.125 -0.094,-0.281 -0.219,-0.281 -0.125,0 -0.156,0.062 -0.281,0.218 -1.563,1.969 -3.75,1.969 -3.969,1.969 -1.562,0 -1.75,-1.687 -1.75,-2.312 0,-0.25 0.031,-0.844 0.313,-2.063 z m -0.937,-0.437 c 0.781,-3.032 2.843,-3.344 3.375,-3.344 0.906,0 1.468,0.594 1.468,1.25 0,2.094 -3.187,2.094 -4.031,2.094 z"
       style="fill:#000000;fill-opacity:1;fill-rule:nonzero;stroke:none"
       transform="scale(1.3333333)" /><path
       id="path113"
       d="m 381.117,133.293 h 9.274"
       style="fill:none;stroke:#000000;stroke-width:0.796001;stroke-linecap:butt;stroke-linejoin:miter;stroke-miterlimit:10;stroke-dasharray:none;stroke-opacity:1"
       transform="scale(1.3333333)" /><path
       id="path114"
       d="m 397.422,132.953 h -0.469 c -0.031,0.313 -0.187,1.125 -0.375,1.25 -0.094,0.094 -1.156,0.094 -1.375,0.094 h -2.562 c 1.468,-1.281 1.968,-1.688 2.781,-2.344 1.031,-0.812 2,-1.687 2,-3 0,-1.687 -1.469,-2.719 -3.25,-2.719 -1.719,0 -2.906,1.219 -2.906,2.5 0,0.688 0.593,0.782 0.75,0.782 0.312,0 0.718,-0.25 0.718,-0.75 0,-0.25 -0.093,-0.75 -0.812,-0.75 0.437,-0.969 1.375,-1.282 2.031,-1.282 1.406,0 2.125,1.094 2.125,2.219 0,1.219 -0.875,2.156 -1.312,2.656 l -3.344,3.344 c -0.156,0.125 -0.156,0.156 -0.156,0.531 h 5.75 z"
       style="fill:#000000;fill-opacity:1;fill-rule:nonzero;stroke:none"
       transform="scale(1.3333333)" /><path
       id="path115"
       d="m 407.57,125.504 c 0,-0.563 -0.468,-1.031 -1.031,-1.031 -0.594,0 -1.062,0.468 -1.062,1.031 0,0.594 0.468,1.062 1.062,1.062 0.563,0 1.031,-0.468 1.031,-1.062 z"
       style="fill:#000000;fill-opacity:1;fill-rule:nonzero;stroke:none"
       transform="scale(1.3333333)" /><path
       id="path116"
       d="m 424.031,123.066 c 0.281,0 1,0 1,-0.687 0,-0.469 -0.437,-0.469 -0.781,-0.469 h -4.562 c -3,0 -5.219,3.281 -5.219,5.656 0,1.75 1.187,3.157 3,3.157 2.343,0 5,-2.407 5,-5.469 0,-0.344 0,-1.313 -0.625,-2.188 z m -6.531,7.219 c -1,0 -1.781,-0.719 -1.781,-2.156 0,-0.594 0.219,-2.219 0.937,-3.406 0.844,-1.375 2.032,-1.657 2.719,-1.657 1.656,0 1.813,1.313 1.813,1.938 0,0.937 -0.407,2.562 -1.063,3.594 -0.781,1.156 -1.875,1.687 -2.625,1.687 z"
       style="fill:#000000;fill-opacity:1;fill-rule:nonzero;stroke:none"
       transform="scale(1.3333333)" /><path
       id="path117"
       d="M 413.719,133.293 H 425.82"
       style="fill:none;stroke:#000000;stroke-width:0.796001;stroke-linecap:butt;stroke-linejoin:miter;stroke-miterlimit:10;stroke-dasharray:none;stroke-opacity:1"
       transform="scale(1.3333333)" /><path
       id="path118"
       d="M 413.719,137.277 H 425.82"
       style="fill:none;stroke:#000000;stroke-width:0.796001;stroke-linecap:butt;stroke-linejoin:miter;stroke-miterlimit:10;stroke-dasharray:none;stroke-opacity:1"
       transform="scale(1.3333333)" /><path
       id="path119"
       d="m 445.043,123.973 c 0.312,0 0.687,0 0.687,-0.375 0,-0.407 -0.375,-0.407 -0.656,-0.407 h -11.937 c -0.282,0 -0.657,0 -0.657,0.407 0,0.375 0.375,0.375 0.657,0.375 z m 0.031,3.875 c 0.281,0 0.656,0 0.656,-0.407 0,-0.375 -0.375,-0.375 -0.687,-0.375 h -11.906 c -0.282,0 -0.657,0 -0.657,0.375 0,0.407 0.375,0.407 0.657,0.407 z"
       style="fill:#000000;fill-opacity:1;fill-rule:nonzero;stroke:none"
       transform="scale(1.3333333)" /><path
       id="path120"
       d="m 472.969,135.504 v -0.813 h -1.938 v -18.343 h 1.938 v -0.813 h -2.75 v 19.969 z"
       style="fill:#000000;fill-opacity:1;fill-rule:nonzero;stroke:none"
       transform="scale(1.3333333)" /><path
       id="path121"
       d="m 483.734,123.066 c 0.282,0 1,0 1,-0.687 0,-0.469 -0.437,-0.469 -0.781,-0.469 h -4.562 c -3,0 -5.219,3.281 -5.219,5.656 0,1.75 1.187,3.157 3,3.157 2.344,0 5,-2.407 5,-5.469 0,-0.344 0,-1.313 -0.625,-2.188 z m -6.531,7.219 c -1,0 -1.781,-0.719 -1.781,-2.156 0,-0.594 0.219,-2.219 0.937,-3.406 0.844,-1.375 2.032,-1.657 2.719,-1.657 1.656,0 1.813,1.313 1.813,1.938 0,0.937 -0.407,2.562 -1.063,3.594 -0.781,1.156 -1.875,1.687 -2.625,1.687 z"
       style="fill:#000000;fill-opacity:1;fill-rule:nonzero;stroke:none"
       transform="scale(1.3333333)" /><path
       id="path122"
       d="m 491.836,132.121 h -0.469 c -0.031,0.313 -0.187,1.125 -0.375,1.25 -0.094,0.094 -1.156,0.094 -1.375,0.094 h -2.562 c 1.468,-1.281 1.968,-1.688 2.781,-2.344 1.031,-0.812 2,-1.687 2,-3 0,-1.687 -1.469,-2.719 -3.25,-2.719 -1.719,0 -2.906,1.219 -2.906,2.5 0,0.688 0.593,0.782 0.75,0.782 0.312,0 0.718,-0.25 0.718,-0.75 0,-0.25 -0.093,-0.75 -0.812,-0.75 0.437,-0.969 1.375,-1.282 2.031,-1.282 1.406,0 2.125,1.094 2.125,2.219 0,1.219 -0.875,2.156 -1.312,2.656 l -3.344,3.344 c -0.156,0.125 -0.156,0.156 -0.156,0.531 h 5.75 z"
       style="fill:#000000;fill-opacity:1;fill-rule:nonzero;stroke:none"
       transform="scale(1.3333333)" /><path
       id="path123"
       d="m 497.406,125.777 c 0,-0.375 0,-0.375 -0.406,-0.375 -0.906,0.875 -2.156,0.875 -2.719,0.875 v 0.5 c 0.313,0 1.25,0 2,-0.375 v 7.094 c 0,0.469 0,0.656 -1.375,0.656 h -0.531 v 0.5 c 0.25,0 1.969,-0.062 2.469,-0.062 0.437,0 2.187,0.062 2.5,0.062 v -0.5 h -0.532 c -1.406,0 -1.406,-0.187 -1.406,-0.656 z"
       style="fill:#000000;fill-opacity:1;fill-rule:nonzero;stroke:none"
       transform="scale(1.3333333)" /><path
       id="path124"
       d="m 505.75,130.473 c 0,-1.313 -0.5,-2.094 -1.281,-2.094 -0.657,0 -1.063,0.5 -1.063,1.062 0,0.532 0.406,1.063 1.063,1.063 0.219,0 0.5,-0.094 0.687,-0.25 0.063,-0.063 0.094,-0.063 0.094,-0.063 0.031,0 0.031,0 0.031,0.282 0,1.5 -0.687,2.687 -1.343,3.343 -0.219,0.219 -0.219,0.25 -0.219,0.313 0,0.156 0.093,0.219 0.187,0.219 0.219,0 1.844,-1.532 1.844,-3.875 z"
       style="fill:#000000;fill-opacity:1;fill-rule:nonzero;stroke:none"
       transform="scale(1.3333333)" /><path
       id="path125"
       d="m 527.496,123.066 c 0.281,0 1,0 1,-0.687 0,-0.469 -0.437,-0.469 -0.781,-0.469 h -4.563 c -3,0 -5.218,3.281 -5.218,5.656 0,1.75 1.187,3.157 3,3.157 2.343,0 5,-2.407 5,-5.469 0,-0.344 0,-1.313 -0.625,-2.188 z m -6.531,7.219 c -1,0 -1.781,-0.719 -1.781,-2.156 0,-0.594 0.218,-2.219 0.937,-3.406 0.844,-1.375 2.031,-1.657 2.719,-1.657 1.656,0 1.812,1.313 1.812,1.938 0,0.937 -0.406,2.562 -1.062,3.594 -0.781,1.156 -1.875,1.687 -2.625,1.687 z"
       style="fill:#000000;fill-opacity:1;fill-rule:nonzero;stroke:none"
       transform="scale(1.3333333)" /><path
       id="path126"
       d="m 535.602,132.121 h -0.469 c -0.031,0.313 -0.188,1.125 -0.375,1.25 -0.094,0.094 -1.156,0.094 -1.375,0.094 h -2.563 c 1.469,-1.281 1.969,-1.688 2.782,-2.344 1.031,-0.812 2,-1.687 2,-3 0,-1.687 -1.469,-2.719 -3.25,-2.719 -1.719,0 -2.907,1.219 -2.907,2.5 0,0.688 0.594,0.782 0.75,0.782 0.313,0 0.719,-0.25 0.719,-0.75 0,-0.25 -0.094,-0.75 -0.812,-0.75 0.437,-0.969 1.375,-1.282 2.031,-1.282 1.406,0 2.125,1.094 2.125,2.219 0,1.219 -0.875,2.156 -1.313,2.656 l -3.343,3.344 c -0.157,0.125 -0.157,0.156 -0.157,0.531 h 5.75 z"
       style="fill:#000000;fill-opacity:1;fill-rule:nonzero;stroke:none"
       transform="scale(1.3333333)" /><path
       id="path127"
       d="m 543.547,132.121 h -0.469 c -0.031,0.313 -0.187,1.125 -0.375,1.25 -0.094,0.094 -1.156,0.094 -1.375,0.094 h -2.562 c 1.468,-1.281 1.968,-1.688 2.781,-2.344 1.031,-0.812 2,-1.687 2,-3 0,-1.687 -1.469,-2.719 -3.25,-2.719 -1.719,0 -2.906,1.219 -2.906,2.5 0,0.688 0.593,0.782 0.75,0.782 0.312,0 0.718,-0.25 0.718,-0.75 0,-0.25 -0.093,-0.75 -0.812,-0.75 0.437,-0.969 1.375,-1.282 2.031,-1.282 1.406,0 2.125,1.094 2.125,2.219 0,1.219 -0.875,2.156 -1.312,2.656 l -3.344,3.344 c -0.156,0.125 -0.156,0.156 -0.156,0.531 h 5.75 z"
       style="fill:#000000;fill-opacity:1;fill-rule:nonzero;stroke:none"
       transform="scale(1.3333333)" /><path
       id="path128"
       d="m 548.605,115.535 h -2.718 v 0.813 h 1.937 v 18.343 h -1.937 v 0.813 h 2.718 z"
       style="fill:#000000;fill-opacity:1;fill-rule:nonzero;stroke:none"
       transform="scale(1.3333333)" /><path
       id="path129"
       d="m 561.359,111.41 h -9.406 l -0.312,3.188 h 0.5 c 0.187,-2.407 0.593,-2.688 2.718,-2.688 0.282,0 0.688,0 0.844,0 0.313,0.063 0.313,0.219 0.313,0.531 v 7.219 c 0,0.469 0,0.656 -1.469,0.656 h -0.594 v 0.5 c 0.688,-0.062 2,-0.062 2.719,-0.062 0.719,0 2,0 2.687,0.062 v -0.5 h -0.593 c -1.438,0 -1.438,-0.187 -1.438,-0.656 v -7.219 c 0,-0.312 0,-0.468 0.313,-0.531 0.125,0 0.531,0 0.812,0 0.781,0 1.375,0 1.875,0.25 0.625,0.406 0.719,1.281 0.719,1.344 l 0.125,1.094 h 0.5 z"
       style="fill:#000000;fill-opacity:1;fill-rule:nonzero;stroke:none"
       transform="scale(1.3333333)" /><path
       id="path130"
       d="m 322.496,157.691 h 1.875 c 0.406,0 0.625,0 0.625,-0.406 0,-0.219 -0.219,-0.219 -0.562,-0.219 h -1.75 c 0.718,-2.843 0.812,-3.218 0.812,-3.343 0,-0.344 -0.25,-0.532 -0.594,-0.532 -0.062,0 -0.625,0 -0.781,0.719 l -0.781,3.156 h -1.875 c -0.406,0 -0.594,0 -0.594,0.375 0,0.25 0.156,0.25 0.563,0.25 h 1.75 c -1.438,5.657 -1.532,6 -1.532,6.344 0,1.094 0.75,1.844 1.844,1.844 2.031,0 3.156,-2.906 3.156,-3.063 0,-0.218 -0.156,-0.218 -0.218,-0.218 -0.188,0 -0.219,0.062 -0.313,0.281 -0.844,2.094 -1.906,2.562 -2.594,2.562 -0.406,0 -0.625,-0.25 -0.625,-0.906 0,-0.5 0.063,-0.625 0.125,-0.969 z"
       style="fill:#000000;fill-opacity:1;fill-rule:nonzero;stroke:none"
       transform="scale(1.3333333)" /><path
       id="path131"
       d="m 318.406,168.449 h 7.196"
       style="fill:none;stroke:#000000;stroke-width:0.796001;stroke-linecap:butt;stroke-linejoin:miter;stroke-miterlimit:10;stroke-dasharray:none;stroke-opacity:1"
       transform="scale(1.3333333)" /><path
       id="path132"
       d="m 335.977,152.816 c 0.218,0 0.562,0 0.562,-0.312 0,-0.375 -0.344,-0.375 -0.562,-0.375 h -8.313 c -0.219,0 -0.562,0 -0.562,0.344 0,0.343 0.312,0.343 0.562,0.343 z"
       style="fill:#000000;fill-opacity:1;fill-rule:nonzero;stroke:none"
       transform="scale(1.3333333)" /><path
       id="path133"
       d="m 332.633,168.109 h -0.469 c -0.031,0.313 -0.187,1.125 -0.375,1.25 -0.094,0.094 -1.156,0.094 -1.375,0.094 h -2.562 c 1.468,-1.281 1.968,-1.687 2.781,-2.344 1.031,-0.812 2,-1.687 2,-3 0,-1.687 -1.469,-2.718 -3.25,-2.718 -1.719,0 -2.906,1.218 -2.906,2.5 0,0.687 0.593,0.781 0.75,0.781 0.312,0 0.718,-0.25 0.718,-0.75 0,-0.25 -0.093,-0.75 -0.812,-0.75 0.437,-0.969 1.375,-1.281 2.031,-1.281 1.406,0 2.125,1.093 2.125,2.218 0,1.219 -0.875,2.157 -1.312,2.657 l -3.344,3.343 c -0.156,0.125 -0.156,0.157 -0.156,0.532 h 5.75 z"
       style="fill:#000000;fill-opacity:1;fill-rule:nonzero;stroke:none"
       transform="scale(1.3333333)" /><path
       id="path134"
       d="m 358.27,159.129 c 0.312,0 0.687,0 0.687,-0.375 0,-0.406 -0.375,-0.406 -0.656,-0.406 h -11.938 c -0.281,0 -0.656,0 -0.656,0.406 0,0.375 0.375,0.375 0.656,0.375 z m 0.031,3.875 c 0.281,0 0.656,0 0.656,-0.406 0,-0.375 -0.375,-0.375 -0.687,-0.375 h -11.907 c -0.281,0 -0.656,0 -0.656,0.375 0,0.406 0.375,0.406 0.656,0.406 z"
       style="fill:#000000;fill-opacity:1;fill-rule:nonzero;stroke:none"
       transform="scale(1.3333333)" /><path
       id="path135"
       d="m 378.742,161.066 c 0.344,0 0.719,0 0.719,-0.406 0,-0.375 -0.375,-0.375 -0.719,-0.375 h -10.781 c -0.344,0 -0.688,0 -0.688,0.375 0,0.406 0.344,0.406 0.688,0.406 z"
       style="fill:#000000;fill-opacity:1;fill-rule:nonzero;stroke:none"
       transform="scale(1.3333333)" /><path
       id="path136"
       d="m 384.832,161.066 c 0.594,0 2.063,-0.062 3.063,-0.468 1.406,-0.594 1.5,-1.782 1.5,-2.063 0,-0.875 -0.75,-1.687 -2.125,-1.687 -2.219,0 -5.25,1.937 -5.25,5.437 0,2.031 1.187,3.594 3.156,3.594 2.844,0 4.5,-2.125 4.5,-2.344 0,-0.125 -0.094,-0.281 -0.219,-0.281 -0.125,0 -0.156,0.062 -0.281,0.219 -1.563,1.968 -3.75,1.968 -3.969,1.968 -1.562,0 -1.75,-1.687 -1.75,-2.312 0,-0.25 0.031,-0.844 0.313,-2.063 z m -0.937,-0.437 c 0.781,-3.031 2.843,-3.344 3.375,-3.344 0.906,0 1.468,0.594 1.468,1.25 0,2.094 -3.187,2.094 -4.031,2.094 z"
       style="fill:#000000;fill-opacity:1;fill-rule:nonzero;stroke:none"
       transform="scale(1.3333333)" /><path
       id="path137"
       d="m 381.117,168.449 h 9.274"
       style="fill:none;stroke:#000000;stroke-width:0.796001;stroke-linecap:butt;stroke-linejoin:miter;stroke-miterlimit:10;stroke-dasharray:none;stroke-opacity:1"
       transform="scale(1.3333333)" /><path
       id="path138"
       d="m 397.422,168.109 h -0.469 c -0.031,0.313 -0.187,1.125 -0.375,1.25 -0.094,0.094 -1.156,0.094 -1.375,0.094 h -2.562 c 1.468,-1.281 1.968,-1.687 2.781,-2.344 1.031,-0.812 2,-1.687 2,-3 0,-1.687 -1.469,-2.718 -3.25,-2.718 -1.719,0 -2.906,1.218 -2.906,2.5 0,0.687 0.593,0.781 0.75,0.781 0.312,0 0.718,-0.25 0.718,-0.75 0,-0.25 -0.093,-0.75 -0.812,-0.75 0.437,-0.969 1.375,-1.281 2.031,-1.281 1.406,0 2.125,1.093 2.125,2.218 0,1.219 -0.875,2.157 -1.312,2.657 l -3.344,3.343 c -0.156,0.125 -0.156,0.157 -0.156,0.532 h 5.75 z"
       style="fill:#000000;fill-opacity:1;fill-rule:nonzero;stroke:none"
       transform="scale(1.3333333)" /><path
       id="path139"
       d="m 407.57,160.66 c 0,-0.562 -0.468,-1.031 -1.031,-1.031 -0.594,0 -1.062,0.469 -1.062,1.031 0,0.594 0.468,1.063 1.062,1.063 0.563,0 1.031,-0.469 1.031,-1.063 z"
       style="fill:#000000;fill-opacity:1;fill-rule:nonzero;stroke:none"
       transform="scale(1.3333333)" /><path
       id="path140"
       d="m 424.031,158.223 c 0.281,0 1,0 1,-0.688 0,-0.469 -0.437,-0.469 -0.781,-0.469 h -4.562 c -3,0 -5.219,3.282 -5.219,5.657 0,1.75 1.187,3.156 3,3.156 2.343,0 5,-2.406 5,-5.469 0,-0.344 0,-1.312 -0.625,-2.187 z m -6.531,7.218 c -1,0 -1.781,-0.718 -1.781,-2.156 0,-0.594 0.219,-2.219 0.937,-3.406 0.844,-1.375 2.032,-1.656 2.719,-1.656 1.656,0 1.813,1.312 1.813,1.937 0,0.938 -0.407,2.563 -1.063,3.594 -0.781,1.156 -1.875,1.687 -2.625,1.687 z"
       style="fill:#000000;fill-opacity:1;fill-rule:nonzero;stroke:none"
       transform="scale(1.3333333)" /><path
       id="path141"
       d="M 413.719,168.449 H 425.82"
       style="fill:none;stroke:#000000;stroke-width:0.796001;stroke-linecap:butt;stroke-linejoin:miter;stroke-miterlimit:10;stroke-dasharray:none;stroke-opacity:1"
       transform="scale(1.3333333)" /><path
       id="path142"
       d="M 413.719,172.434 H 425.82"
       style="fill:none;stroke:#000000;stroke-width:0.796001;stroke-linecap:butt;stroke-linejoin:miter;stroke-miterlimit:10;stroke-dasharray:none;stroke-opacity:1"
       transform="scale(1.3333333)" /><path
       id="path143"
       d="m 445.043,159.129 c 0.312,0 0.687,0 0.687,-0.375 0,-0.406 -0.375,-0.406 -0.656,-0.406 h -11.937 c -0.282,0 -0.657,0 -0.657,0.406 0,0.375 0.375,0.375 0.657,0.375 z m 0.031,3.875 c 0.281,0 0.656,0 0.656,-0.406 0,-0.375 -0.375,-0.375 -0.687,-0.375 h -11.906 c -0.282,0 -0.657,0 -0.657,0.375 0,0.406 0.375,0.406 0.657,0.406 z"
       style="fill:#000000;fill-opacity:1;fill-rule:nonzero;stroke:none"
       transform="scale(1.3333333)" /><path
       id="path144"
       d="m 465.512,161.066 c 0.343,0 0.718,0 0.718,-0.406 0,-0.375 -0.375,-0.375 -0.718,-0.375 H 454.73 c -0.343,0 -0.687,0 -0.687,0.375 0,0.406 0.344,0.406 0.687,0.406 z"
       style="fill:#000000;fill-opacity:1;fill-rule:nonzero;stroke:none"
       transform="scale(1.3333333)" /><path
       id="path145"
       d="m 472.977,170.66 v -0.812 h -1.938 v -18.344 h 1.938 v -0.813 h -2.75 v 19.969 z"
       style="fill:#000000;fill-opacity:1;fill-rule:nonzero;stroke:none"
       transform="scale(1.3333333)" /><path
       id="path146"
       d="m 483.734,158.223 c 0.282,0 1,0 1,-0.688 0,-0.469 -0.437,-0.469 -0.781,-0.469 h -4.562 c -3,0 -5.219,3.282 -5.219,5.657 0,1.75 1.187,3.156 3,3.156 2.344,0 5,-2.406 5,-5.469 0,-0.344 0,-1.312 -0.625,-2.187 z m -6.531,7.218 c -1,0 -1.781,-0.718 -1.781,-2.156 0,-0.594 0.219,-2.219 0.937,-3.406 0.844,-1.375 2.032,-1.656 2.719,-1.656 1.656,0 1.813,1.312 1.813,1.937 0,0.938 -0.407,2.563 -1.063,3.594 -0.781,1.156 -1.875,1.687 -2.625,1.687 z"
       style="fill:#000000;fill-opacity:1;fill-rule:nonzero;stroke:none"
       transform="scale(1.3333333)" /><path
       id="path147"
       d="m 491.836,167.277 h -0.469 c -0.031,0.313 -0.187,1.125 -0.375,1.25 -0.094,0.094 -1.156,0.094 -1.375,0.094 h -2.562 c 1.468,-1.281 1.968,-1.687 2.781,-2.344 1.031,-0.812 2,-1.687 2,-3 0,-1.687 -1.469,-2.718 -3.25,-2.718 -1.719,0 -2.906,1.218 -2.906,2.5 0,0.687 0.593,0.781 0.75,0.781 0.312,0 0.718,-0.25 0.718,-0.75 0,-0.25 -0.093,-0.75 -0.812,-0.75 0.437,-0.969 1.375,-1.281 2.031,-1.281 1.406,0 2.125,1.093 2.125,2.218 0,1.219 -0.875,2.157 -1.312,2.657 l -3.344,3.343 c -0.156,0.125 -0.156,0.157 -0.156,0.532 h 5.75 z"
       style="fill:#000000;fill-opacity:1;fill-rule:nonzero;stroke:none"
       transform="scale(1.3333333)" /><path
       id="path148"
       d="m 497.406,160.934 c 0,-0.375 0,-0.375 -0.406,-0.375 -0.906,0.875 -2.156,0.875 -2.719,0.875 v 0.5 c 0.313,0 1.25,0 2,-0.375 v 7.093 c 0,0.469 0,0.657 -1.375,0.657 h -0.531 v 0.5 c 0.25,0 1.969,-0.063 2.469,-0.063 0.437,0 2.187,0.063 2.5,0.063 v -0.5 h -0.532 c -1.406,0 -1.406,-0.188 -1.406,-0.657 z"
       style="fill:#000000;fill-opacity:1;fill-rule:nonzero;stroke:none"
       transform="scale(1.3333333)" /><path
       id="path149"
       d="m 505.75,165.629 c 0,-1.313 -0.5,-2.094 -1.281,-2.094 -0.657,0 -1.063,0.5 -1.063,1.063 0,0.531 0.406,1.062 1.063,1.062 0.219,0 0.5,-0.094 0.687,-0.25 0.063,-0.062 0.094,-0.062 0.094,-0.062 0.031,0 0.031,0 0.031,0.281 0,1.5 -0.687,2.687 -1.343,3.344 -0.219,0.218 -0.219,0.25 -0.219,0.312 0,0.156 0.093,0.219 0.187,0.219 0.219,0 1.844,-1.531 1.844,-3.875 z"
       style="fill:#000000;fill-opacity:1;fill-rule:nonzero;stroke:none"
       transform="scale(1.3333333)" /><path
       id="path150"
       d="m 527.496,158.223 c 0.281,0 1,0 1,-0.688 0,-0.469 -0.437,-0.469 -0.781,-0.469 h -4.563 c -3,0 -5.218,3.282 -5.218,5.657 0,1.75 1.187,3.156 3,3.156 2.343,0 5,-2.406 5,-5.469 0,-0.344 0,-1.312 -0.625,-2.187 z m -6.531,7.218 c -1,0 -1.781,-0.718 -1.781,-2.156 0,-0.594 0.218,-2.219 0.937,-3.406 0.844,-1.375 2.031,-1.656 2.719,-1.656 1.656,0 1.812,1.312 1.812,1.937 0,0.938 -0.406,2.563 -1.062,3.594 -0.781,1.156 -1.875,1.687 -2.625,1.687 z"
       style="fill:#000000;fill-opacity:1;fill-rule:nonzero;stroke:none"
       transform="scale(1.3333333)" /><path
       id="path151"
       d="m 535.602,167.277 h -0.469 c -0.031,0.313 -0.188,1.125 -0.375,1.25 -0.094,0.094 -1.156,0.094 -1.375,0.094 h -2.563 c 1.469,-1.281 1.969,-1.687 2.782,-2.344 1.031,-0.812 2,-1.687 2,-3 0,-1.687 -1.469,-2.718 -3.25,-2.718 -1.719,0 -2.907,1.218 -2.907,2.5 0,0.687 0.594,0.781 0.75,0.781 0.313,0 0.719,-0.25 0.719,-0.75 0,-0.25 -0.094,-0.75 -0.812,-0.75 0.437,-0.969 1.375,-1.281 2.031,-1.281 1.406,0 2.125,1.093 2.125,2.218 0,1.219 -0.875,2.157 -1.313,2.657 l -3.343,3.343 c -0.157,0.125 -0.157,0.157 -0.157,0.532 h 5.75 z"
       style="fill:#000000;fill-opacity:1;fill-rule:nonzero;stroke:none"
       transform="scale(1.3333333)" /><path
       id="path152"
       d="m 543.547,167.277 h -0.469 c -0.031,0.313 -0.187,1.125 -0.375,1.25 -0.094,0.094 -1.156,0.094 -1.375,0.094 h -2.562 c 1.468,-1.281 1.968,-1.687 2.781,-2.344 1.031,-0.812 2,-1.687 2,-3 0,-1.687 -1.469,-2.718 -3.25,-2.718 -1.719,0 -2.906,1.218 -2.906,2.5 0,0.687 0.593,0.781 0.75,0.781 0.312,0 0.718,-0.25 0.718,-0.75 0,-0.25 -0.093,-0.75 -0.812,-0.75 0.437,-0.969 1.375,-1.281 2.031,-1.281 1.406,0 2.125,1.093 2.125,2.218 0,1.219 -0.875,2.157 -1.312,2.657 l -3.344,3.343 c -0.156,0.125 -0.156,0.157 -0.156,0.532 h 5.75 z"
       style="fill:#000000;fill-opacity:1;fill-rule:nonzero;stroke:none"
       transform="scale(1.3333333)" /><path
       id="path153"
       d="m 548.605,150.691 h -2.718 v 0.813 h 1.937 v 18.344 h -1.937 v 0.812 h 2.718 z"
       style="fill:#000000;fill-opacity:1;fill-rule:nonzero;stroke:none"
       transform="scale(1.3333333)" /><path
       id="path154"
       d="m 561.359,146.566 h -9.406 l -0.312,3.188 h 0.5 c 0.187,-2.406 0.593,-2.688 2.718,-2.688 0.282,0 0.688,0 0.844,0 0.313,0.063 0.313,0.219 0.313,0.532 v 7.218 c 0,0.469 0,0.657 -1.469,0.657 h -0.594 v 0.5 c 0.688,-0.063 2,-0.063 2.719,-0.063 0.719,0 2,0 2.687,0.063 v -0.5 h -0.593 c -1.438,0 -1.438,-0.188 -1.438,-0.657 v -7.218 c 0,-0.313 0,-0.469 0.313,-0.532 0.125,0 0.531,0 0.812,0 0.781,0 1.375,0 1.875,0.25 0.625,0.407 0.719,1.282 0.719,1.344 l 0.125,1.094 h 0.5 z"
       style="fill:#000000;fill-opacity:1;fill-rule:nonzero;stroke:none"
       transform="scale(1.3333333)" /><path
       id="path155"
       d="m 0.707,0.707 h 298.527 v 188.27 H 0.707 Z"
       style="fill:none;stroke:#000000;stroke-width:1.41732;stroke-linecap:round;stroke-linejoin:round;stroke-miterlimit:1;stroke-dasharray:none;stroke-opacity:1"
       transform="scale(1.3333333)" /><path
       id="path156"
       d="m -299.234,0.707 h -280.75 v 188.27 h 280.75 z"
       style="fill:none;stroke:#000000;stroke-width:1.41732;stroke-linecap:round;stroke-linejoin:round;stroke-miterlimit:1;stroke-dasharray:none;stroke-opacity:1"
       transform="scale(-1.3333333,1.3333333)" /></g></svg>
